solid OpenSCAD_Model
  facet normal 1 -0 0
    outer loop
      vertex 138 17 3.5
      vertex 138 67 0
      vertex 138 67 3.5
    endloop
  endfacet
  facet normal 1 0 0
    outer loop
      vertex 138 67 0
      vertex 138 17 3.5
      vertex 138 17 0
    endloop
  endfacet
  facet normal -1 0 0
    outer loop
      vertex 143 17 0
      vertex 143 67 3.5
      vertex 143 67 0
    endloop
  endfacet
  facet normal -1 -0 0
    outer loop
      vertex 143 67 3.5
      vertex 143 17 0
      vertex 143 17 3.5
    endloop
  endfacet
  facet normal 0 1 -0
    outer loop
      vertex 143 17 0
      vertex 138 17 3.5
      vertex 143 17 3.5
    endloop
  endfacet
  facet normal 0 1 0
    outer loop
      vertex 138 17 3.5
      vertex 143 17 0
      vertex 138 17 0
    endloop
  endfacet
  facet normal 0 -1 0
    outer loop
      vertex 138 67 0
      vertex 143 67 3.5
      vertex 138 67 3.5
    endloop
  endfacet
  facet normal 0 -1 -0
    outer loop
      vertex 143 67 3.5
      vertex 138 67 0
      vertex 143 67 0
    endloop
  endfacet
  facet normal 1 -0 0
    outer loop
      vertex 148 17 3.5
      vertex 148 67 0
      vertex 148 67 3.5
    endloop
  endfacet
  facet normal 1 0 0
    outer loop
      vertex 148 67 0
      vertex 148 17 3.5
      vertex 148 17 0
    endloop
  endfacet
  facet normal -1 0 0
    outer loop
      vertex 153 17 0
      vertex 153 67 3.5
      vertex 153 67 0
    endloop
  endfacet
  facet normal -1 -0 0
    outer loop
      vertex 153 67 3.5
      vertex 153 17 0
      vertex 153 17 3.5
    endloop
  endfacet
  facet normal 0 -1 0
    outer loop
      vertex 148 67 0
      vertex 153 67 3.5
      vertex 148 67 3.5
    endloop
  endfacet
  facet normal 0 -1 -0
    outer loop
      vertex 153 67 3.5
      vertex 148 67 0
      vertex 153 67 0
    endloop
  endfacet
  facet normal 0 1 -0
    outer loop
      vertex 153 17 0
      vertex 148 17 3.5
      vertex 153 17 3.5
    endloop
  endfacet
  facet normal 0 1 0
    outer loop
      vertex 148 17 3.5
      vertex 153 17 0
      vertex 148 17 0
    endloop
  endfacet
  facet normal 1 -0 0
    outer loop
      vertex 158 17 3.5
      vertex 158 67 0
      vertex 158 67 3.5
    endloop
  endfacet
  facet normal 1 0 0
    outer loop
      vertex 158 67 0
      vertex 158 17 3.5
      vertex 158 17 0
    endloop
  endfacet
  facet normal -1 0 0
    outer loop
      vertex 163 17 0
      vertex 163 67 3.5
      vertex 163 67 0
    endloop
  endfacet
  facet normal -1 -0 0
    outer loop
      vertex 163 67 3.5
      vertex 163 17 0
      vertex 163 17 3.5
    endloop
  endfacet
  facet normal 0 -1 0
    outer loop
      vertex 158 67 0
      vertex 163 67 3.5
      vertex 158 67 3.5
    endloop
  endfacet
  facet normal 0 -1 -0
    outer loop
      vertex 163 67 3.5
      vertex 158 67 0
      vertex 163 67 0
    endloop
  endfacet
  facet normal 0 1 -0
    outer loop
      vertex 163 17 0
      vertex 158 17 3.5
      vertex 163 17 3.5
    endloop
  endfacet
  facet normal 0 1 0
    outer loop
      vertex 158 17 3.5
      vertex 163 17 0
      vertex 158 17 0
    endloop
  endfacet
  facet normal 1 -0 0
    outer loop
      vertex 168 17 3.5
      vertex 168 67 0
      vertex 168 67 3.5
    endloop
  endfacet
  facet normal 1 0 0
    outer loop
      vertex 168 67 0
      vertex 168 17 3.5
      vertex 168 17 0
    endloop
  endfacet
  facet normal -1 0 0
    outer loop
      vertex 173 17 0
      vertex 173 67 3.5
      vertex 173 67 0
    endloop
  endfacet
  facet normal -1 -0 0
    outer loop
      vertex 173 67 3.5
      vertex 173 17 0
      vertex 173 17 3.5
    endloop
  endfacet
  facet normal 0 1 -0
    outer loop
      vertex 173 17 0
      vertex 168 17 3.5
      vertex 173 17 3.5
    endloop
  endfacet
  facet normal 0 1 0
    outer loop
      vertex 168 17 3.5
      vertex 173 17 0
      vertex 168 17 0
    endloop
  endfacet
  facet normal 0 -1 0
    outer loop
      vertex 168 67 0
      vertex 173 67 3.5
      vertex 168 67 3.5
    endloop
  endfacet
  facet normal 0 -1 -0
    outer loop
      vertex 173 67 3.5
      vertex 168 67 0
      vertex 173 67 0
    endloop
  endfacet
  facet normal 1 -0 0
    outer loop
      vertex 178 17 3.5
      vertex 178 67 0
      vertex 178 67 3.5
    endloop
  endfacet
  facet normal 1 0 0
    outer loop
      vertex 178 67 0
      vertex 178 17 3.5
      vertex 178 17 0
    endloop
  endfacet
  facet normal -1 0 0
    outer loop
      vertex 183 17 0
      vertex 183 67 3.5
      vertex 183 67 0
    endloop
  endfacet
  facet normal -1 -0 0
    outer loop
      vertex 183 67 3.5
      vertex 183 17 0
      vertex 183 17 3.5
    endloop
  endfacet
  facet normal 0 -1 0
    outer loop
      vertex 178 67 0
      vertex 183 67 3.5
      vertex 178 67 3.5
    endloop
  endfacet
  facet normal 0 -1 -0
    outer loop
      vertex 183 67 3.5
      vertex 178 67 0
      vertex 183 67 0
    endloop
  endfacet
  facet normal 0 1 -0
    outer loop
      vertex 183 17 0
      vertex 178 17 3.5
      vertex 183 17 3.5
    endloop
  endfacet
  facet normal 0 1 0
    outer loop
      vertex 178 17 3.5
      vertex 183 17 0
      vertex 178 17 0
    endloop
  endfacet
  facet normal 1 -0 0
    outer loop
      vertex 188 17 3.5
      vertex 188 67 0
      vertex 188 67 3.5
    endloop
  endfacet
  facet normal 1 0 0
    outer loop
      vertex 188 67 0
      vertex 188 17 3.5
      vertex 188 17 0
    endloop
  endfacet
  facet normal -1 0 0
    outer loop
      vertex 193 17 0
      vertex 193 67 3.5
      vertex 193 67 0
    endloop
  endfacet
  facet normal -1 -0 0
    outer loop
      vertex 193 67 3.5
      vertex 193 17 0
      vertex 193 17 3.5
    endloop
  endfacet
  facet normal 0 1 -0
    outer loop
      vertex 193 17 0
      vertex 188 17 3.5
      vertex 193 17 3.5
    endloop
  endfacet
  facet normal 0 1 0
    outer loop
      vertex 188 17 3.5
      vertex 193 17 0
      vertex 188 17 0
    endloop
  endfacet
  facet normal 0 -1 0
    outer loop
      vertex 188 67 0
      vertex 193 67 3.5
      vertex 188 67 3.5
    endloop
  endfacet
  facet normal 0 -1 -0
    outer loop
      vertex 193 67 3.5
      vertex 188 67 0
      vertex 193 67 0
    endloop
  endfacet
  facet normal 1 -0 0
    outer loop
      vertex 198 17 3.5
      vertex 198 67 0
      vertex 198 67 3.5
    endloop
  endfacet
  facet normal 1 0 0
    outer loop
      vertex 198 67 0
      vertex 198 17 3.5
      vertex 198 17 0
    endloop
  endfacet
  facet normal -1 0 0
    outer loop
      vertex 203 17 0
      vertex 203 67 3.5
      vertex 203 67 0
    endloop
  endfacet
  facet normal -1 -0 0
    outer loop
      vertex 203 67 3.5
      vertex 203 17 0
      vertex 203 17 3.5
    endloop
  endfacet
  facet normal 0 -1 0
    outer loop
      vertex 198 67 0
      vertex 203 67 3.5
      vertex 198 67 3.5
    endloop
  endfacet
  facet normal 0 -1 -0
    outer loop
      vertex 203 67 3.5
      vertex 198 67 0
      vertex 203 67 0
    endloop
  endfacet
  facet normal 0 1 -0
    outer loop
      vertex 203 17 0
      vertex 198 17 3.5
      vertex 203 17 3.5
    endloop
  endfacet
  facet normal 0 1 0
    outer loop
      vertex 198 17 3.5
      vertex 203 17 0
      vertex 198 17 0
    endloop
  endfacet
  facet normal 1 -0 0
    outer loop
      vertex 208 17 3.5
      vertex 208 67 0
      vertex 208 67 3.5
    endloop
  endfacet
  facet normal 1 0 0
    outer loop
      vertex 208 67 0
      vertex 208 17 3.5
      vertex 208 17 0
    endloop
  endfacet
  facet normal -1 0 0
    outer loop
      vertex 213 17 0
      vertex 213 67 3.5
      vertex 213 67 0
    endloop
  endfacet
  facet normal -1 -0 0
    outer loop
      vertex 213 67 3.5
      vertex 213 17 0
      vertex 213 17 3.5
    endloop
  endfacet
  facet normal 0 -1 0
    outer loop
      vertex 208 67 0
      vertex 213 67 3.5
      vertex 208 67 3.5
    endloop
  endfacet
  facet normal 0 -1 -0
    outer loop
      vertex 213 67 3.5
      vertex 208 67 0
      vertex 213 67 0
    endloop
  endfacet
  facet normal 0 1 -0
    outer loop
      vertex 213 17 0
      vertex 208 17 3.5
      vertex 213 17 3.5
    endloop
  endfacet
  facet normal 0 1 0
    outer loop
      vertex 208 17 3.5
      vertex 213 17 0
      vertex 208 17 0
    endloop
  endfacet
  facet normal 1 -0 0
    outer loop
      vertex 218 17 3.5
      vertex 218 67 0
      vertex 218 67 3.5
    endloop
  endfacet
  facet normal 1 0 0
    outer loop
      vertex 218 67 0
      vertex 218 17 3.5
      vertex 218 17 0
    endloop
  endfacet
  facet normal -1 0 0
    outer loop
      vertex 223 17 0
      vertex 223 67 3.5
      vertex 223 67 0
    endloop
  endfacet
  facet normal -1 -0 0
    outer loop
      vertex 223 67 3.5
      vertex 223 17 0
      vertex 223 17 3.5
    endloop
  endfacet
  facet normal 0 1 -0
    outer loop
      vertex 223 17 0
      vertex 218 17 3.5
      vertex 223 17 3.5
    endloop
  endfacet
  facet normal 0 1 0
    outer loop
      vertex 218 17 3.5
      vertex 223 17 0
      vertex 218 17 0
    endloop
  endfacet
  facet normal 0 -1 0
    outer loop
      vertex 218 67 0
      vertex 223 67 3.5
      vertex 218 67 3.5
    endloop
  endfacet
  facet normal 0 -1 -0
    outer loop
      vertex 223 67 3.5
      vertex 218 67 0
      vertex 223 67 0
    endloop
  endfacet
  facet normal 1 -0 0
    outer loop
      vertex 228 17 3.5
      vertex 228 67 0
      vertex 228 67 3.5
    endloop
  endfacet
  facet normal 1 0 0
    outer loop
      vertex 228 67 0
      vertex 228 17 3.5
      vertex 228 17 0
    endloop
  endfacet
  facet normal -1 0 0
    outer loop
      vertex 233 17 0
      vertex 233 67 3.5
      vertex 233 67 0
    endloop
  endfacet
  facet normal -1 -0 0
    outer loop
      vertex 233 67 3.5
      vertex 233 17 0
      vertex 233 17 3.5
    endloop
  endfacet
  facet normal 0 1 -0
    outer loop
      vertex 233 17 0
      vertex 228 17 3.5
      vertex 233 17 3.5
    endloop
  endfacet
  facet normal 0 1 0
    outer loop
      vertex 228 17 3.5
      vertex 233 17 0
      vertex 228 17 0
    endloop
  endfacet
  facet normal 0 -1 0
    outer loop
      vertex 228 67 0
      vertex 233 67 3.5
      vertex 228 67 3.5
    endloop
  endfacet
  facet normal 0 -1 -0
    outer loop
      vertex 233 67 3.5
      vertex 228 67 0
      vertex 233 67 0
    endloop
  endfacet
  facet normal 1 -0 0
    outer loop
      vertex 238 17 3.5
      vertex 238 67 0
      vertex 238 67 3.5
    endloop
  endfacet
  facet normal 1 0 0
    outer loop
      vertex 238 67 0
      vertex 238 17 3.5
      vertex 238 17 0
    endloop
  endfacet
  facet normal -1 0 0
    outer loop
      vertex 243 17 0
      vertex 243 67 3.5
      vertex 243 67 0
    endloop
  endfacet
  facet normal -1 -0 0
    outer loop
      vertex 243 67 3.5
      vertex 243 17 0
      vertex 243 17 3.5
    endloop
  endfacet
  facet normal 0 -1 0
    outer loop
      vertex 238 67 0
      vertex 243 67 3.5
      vertex 238 67 3.5
    endloop
  endfacet
  facet normal 0 -1 -0
    outer loop
      vertex 243 67 3.5
      vertex 238 67 0
      vertex 243 67 0
    endloop
  endfacet
  facet normal 0 1 -0
    outer loop
      vertex 243 17 0
      vertex 238 17 3.5
      vertex 243 17 3.5
    endloop
  endfacet
  facet normal 0 1 0
    outer loop
      vertex 238 17 3.5
      vertex 243 17 0
      vertex 238 17 0
    endloop
  endfacet
  facet normal 1 -0 0
    outer loop
      vertex 248 17 3.5
      vertex 248 67 0
      vertex 248 67 3.5
    endloop
  endfacet
  facet normal 1 0 0
    outer loop
      vertex 248 67 0
      vertex 248 17 3.5
      vertex 248 17 0
    endloop
  endfacet
  facet normal -1 0 0
    outer loop
      vertex 253 17 0
      vertex 253 67 3.5
      vertex 253 67 0
    endloop
  endfacet
  facet normal -1 -0 0
    outer loop
      vertex 253 67 3.5
      vertex 253 17 0
      vertex 253 17 3.5
    endloop
  endfacet
  facet normal 0 -1 0
    outer loop
      vertex 248 67 0
      vertex 253 67 3.5
      vertex 248 67 3.5
    endloop
  endfacet
  facet normal 0 -1 -0
    outer loop
      vertex 253 67 3.5
      vertex 248 67 0
      vertex 253 67 0
    endloop
  endfacet
  facet normal 0 1 -0
    outer loop
      vertex 253 17 0
      vertex 248 17 3.5
      vertex 253 17 3.5
    endloop
  endfacet
  facet normal 0 1 0
    outer loop
      vertex 248 17 3.5
      vertex 253 17 0
      vertex 248 17 0
    endloop
  endfacet
  facet normal 0 0 1
    outer loop
      vertex 253 17 3.5
      vertex 261 75 3.5
      vertex 253 67 3.5
    endloop
  endfacet
  facet normal 0 0 1
    outer loop
      vertex 261 75 3.5
      vertex 248 67 3.5
      vertex 253 67 3.5
    endloop
  endfacet
  facet normal 0 0 1
    outer loop
      vertex 248 67 3.5
      vertex 243 67 3.5
      vertex 248 17 3.5
    endloop
  endfacet
  facet normal 0 0 1
    outer loop
      vertex 261 75 3.5
      vertex 243 67 3.5
      vertex 248 67 3.5
    endloop
  endfacet
  facet normal 0 0 1
    outer loop
      vertex 261 75 3.5
      vertex 238 67 3.5
      vertex 243 67 3.5
    endloop
  endfacet
  facet normal 0 0 1
    outer loop
      vertex 238 67 3.5
      vertex 233 67 3.5
      vertex 238 17 3.5
    endloop
  endfacet
  facet normal 0 0 1
    outer loop
      vertex 261 75 3.5
      vertex 233 67 3.5
      vertex 238 67 3.5
    endloop
  endfacet
  facet normal 0 0 1
    outer loop
      vertex 261 75 3.5
      vertex 228 67 3.5
      vertex 233 67 3.5
    endloop
  endfacet
  facet normal 0 0 1
    outer loop
      vertex 228 67 3.5
      vertex 223 67 3.5
      vertex 228 17 3.5
    endloop
  endfacet
  facet normal 0 0 1
    outer loop
      vertex 261 75 3.5
      vertex 223 67 3.5
      vertex 228 67 3.5
    endloop
  endfacet
  facet normal 0 0 1
    outer loop
      vertex 261 75 3.5
      vertex 218 67 3.5
      vertex 223 67 3.5
    endloop
  endfacet
  facet normal 0 0 1
    outer loop
      vertex 218 67 3.5
      vertex 213 67 3.5
      vertex 218 17 3.5
    endloop
  endfacet
  facet normal 0 0 1
    outer loop
      vertex 261 75 3.5
      vertex 213 67 3.5
      vertex 218 67 3.5
    endloop
  endfacet
  facet normal 0 0 1
    outer loop
      vertex 261 75 3.5
      vertex 208 67 3.5
      vertex 213 67 3.5
    endloop
  endfacet
  facet normal 0 0 1
    outer loop
      vertex 208 67 3.5
      vertex 203 67 3.5
      vertex 208 17 3.5
    endloop
  endfacet
  facet normal 0 0 1
    outer loop
      vertex 261 75 3.5
      vertex 203 67 3.5
      vertex 208 67 3.5
    endloop
  endfacet
  facet normal 0 0 1
    outer loop
      vertex 261 75 3.5
      vertex 198 67 3.5
      vertex 203 67 3.5
    endloop
  endfacet
  facet normal 0 0 1
    outer loop
      vertex 198 67 3.5
      vertex 193 67 3.5
      vertex 198 17 3.5
    endloop
  endfacet
  facet normal 0 0 1
    outer loop
      vertex 261 75 3.5
      vertex 193 67 3.5
      vertex 198 67 3.5
    endloop
  endfacet
  facet normal -0 0 1
    outer loop
      vertex 130 75 3.5
      vertex 193 67 3.5
      vertex 261 75 3.5
    endloop
  endfacet
  facet normal 0 0 1
    outer loop
      vertex 188 67 3.5
      vertex 183 67 3.5
      vertex 188 17 3.5
    endloop
  endfacet
  facet normal 0 0 1
    outer loop
      vertex 193 67 3.5
      vertex 130 75 3.5
      vertex 188 67 3.5
    endloop
  endfacet
  facet normal 0 0 1
    outer loop
      vertex 188 67 3.5
      vertex 130 75 3.5
      vertex 183 67 3.5
    endloop
  endfacet
  facet normal 0 0 1
    outer loop
      vertex 178 67 3.5
      vertex 173 67 3.5
      vertex 178 17 3.5
    endloop
  endfacet
  facet normal 0 0 1
    outer loop
      vertex 183 67 3.5
      vertex 130 75 3.5
      vertex 178 67 3.5
    endloop
  endfacet
  facet normal 0 0 1
    outer loop
      vertex 178 67 3.5
      vertex 130 75 3.5
      vertex 173 67 3.5
    endloop
  endfacet
  facet normal 0 0 1
    outer loop
      vertex 168 67 3.5
      vertex 163 67 3.5
      vertex 168 17 3.5
    endloop
  endfacet
  facet normal 0 0 1
    outer loop
      vertex 173 67 3.5
      vertex 130 75 3.5
      vertex 168 67 3.5
    endloop
  endfacet
  facet normal 0 0 1
    outer loop
      vertex 168 67 3.5
      vertex 130 75 3.5
      vertex 163 67 3.5
    endloop
  endfacet
  facet normal 0 0 1
    outer loop
      vertex 158 67 3.5
      vertex 153 67 3.5
      vertex 158 17 3.5
    endloop
  endfacet
  facet normal 0 0 1
    outer loop
      vertex 163 67 3.5
      vertex 130 75 3.5
      vertex 158 67 3.5
    endloop
  endfacet
  facet normal 0 0 1
    outer loop
      vertex 158 67 3.5
      vertex 130 75 3.5
      vertex 153 67 3.5
    endloop
  endfacet
  facet normal 0 0 1
    outer loop
      vertex 148 67 3.5
      vertex 143 67 3.5
      vertex 148 17 3.5
    endloop
  endfacet
  facet normal 0 0 1
    outer loop
      vertex 153 67 3.5
      vertex 130 75 3.5
      vertex 148 67 3.5
    endloop
  endfacet
  facet normal 0 0 1
    outer loop
      vertex 148 67 3.5
      vertex 130 75 3.5
      vertex 143 67 3.5
    endloop
  endfacet
  facet normal 0 0 1
    outer loop
      vertex 138 67 3.5
      vertex 130 75 3.5
      vertex 138 17 3.5
    endloop
  endfacet
  facet normal 0 0 1
    outer loop
      vertex 143 67 3.5
      vertex 130 75 3.5
      vertex 138 67 3.5
    endloop
  endfacet
  facet normal 0 0 1
    outer loop
      vertex 261 75 3.5
      vertex 253 17 3.5
      vertex 261 7 3.5
    endloop
  endfacet
  facet normal -0 0 1
    outer loop
      vertex 248 17 3.5
      vertex 261 7 3.5
      vertex 253 17 3.5
    endloop
  endfacet
  facet normal 0 0 1
    outer loop
      vertex 243 17 3.5
      vertex 248 17 3.5
      vertex 243 67 3.5
    endloop
  endfacet
  facet normal -0 0 1
    outer loop
      vertex 243 17 3.5
      vertex 261 7 3.5
      vertex 248 17 3.5
    endloop
  endfacet
  facet normal -0 0 1
    outer loop
      vertex 238 17 3.5
      vertex 261 7 3.5
      vertex 243 17 3.5
    endloop
  endfacet
  facet normal 0 0 1
    outer loop
      vertex 233 17 3.5
      vertex 238 17 3.5
      vertex 233 67 3.5
    endloop
  endfacet
  facet normal -0 0 1
    outer loop
      vertex 233 17 3.5
      vertex 261 7 3.5
      vertex 238 17 3.5
    endloop
  endfacet
  facet normal -0 0 1
    outer loop
      vertex 228 17 3.5
      vertex 261 7 3.5
      vertex 233 17 3.5
    endloop
  endfacet
  facet normal 0 0 1
    outer loop
      vertex 223 17 3.5
      vertex 228 17 3.5
      vertex 223 67 3.5
    endloop
  endfacet
  facet normal -0 0 1
    outer loop
      vertex 223 17 3.5
      vertex 261 7 3.5
      vertex 228 17 3.5
    endloop
  endfacet
  facet normal -0 0 1
    outer loop
      vertex 218 17 3.5
      vertex 261 7 3.5
      vertex 223 17 3.5
    endloop
  endfacet
  facet normal 0 0 1
    outer loop
      vertex 213 17 3.5
      vertex 218 17 3.5
      vertex 213 67 3.5
    endloop
  endfacet
  facet normal -0 0 1
    outer loop
      vertex 213 17 3.5
      vertex 261 7 3.5
      vertex 218 17 3.5
    endloop
  endfacet
  facet normal -0 0 1
    outer loop
      vertex 208 17 3.5
      vertex 261 7 3.5
      vertex 213 17 3.5
    endloop
  endfacet
  facet normal 0 0 1
    outer loop
      vertex 203 17 3.5
      vertex 208 17 3.5
      vertex 203 67 3.5
    endloop
  endfacet
  facet normal -0 0 1
    outer loop
      vertex 203 17 3.5
      vertex 261 7 3.5
      vertex 208 17 3.5
    endloop
  endfacet
  facet normal -0 0 1
    outer loop
      vertex 198 17 3.5
      vertex 261 7 3.5
      vertex 203 17 3.5
    endloop
  endfacet
  facet normal 0 0 1
    outer loop
      vertex 193 17 3.5
      vertex 198 17 3.5
      vertex 193 67 3.5
    endloop
  endfacet
  facet normal -0 0 1
    outer loop
      vertex 193 17 3.5
      vertex 261 7 3.5
      vertex 198 17 3.5
    endloop
  endfacet
  facet normal 0 0 1
    outer loop
      vertex 130 7 3.5
      vertex 193 17 3.5
      vertex 188 17 3.5
    endloop
  endfacet
  facet normal 0 0 1
    outer loop
      vertex 183 17 3.5
      vertex 188 17 3.5
      vertex 183 67 3.5
    endloop
  endfacet
  facet normal 0 0 1
    outer loop
      vertex 130 7 3.5
      vertex 188 17 3.5
      vertex 183 17 3.5
    endloop
  endfacet
  facet normal 0 0 1
    outer loop
      vertex 130 7 3.5
      vertex 183 17 3.5
      vertex 178 17 3.5
    endloop
  endfacet
  facet normal 0 0 1
    outer loop
      vertex 173 17 3.5
      vertex 178 17 3.5
      vertex 173 67 3.5
    endloop
  endfacet
  facet normal 0 0 1
    outer loop
      vertex 130 7 3.5
      vertex 178 17 3.5
      vertex 173 17 3.5
    endloop
  endfacet
  facet normal 0 0 1
    outer loop
      vertex 130 7 3.5
      vertex 173 17 3.5
      vertex 168 17 3.5
    endloop
  endfacet
  facet normal 0 0 1
    outer loop
      vertex 163 17 3.5
      vertex 168 17 3.5
      vertex 163 67 3.5
    endloop
  endfacet
  facet normal 0 0 1
    outer loop
      vertex 130 7 3.5
      vertex 168 17 3.5
      vertex 163 17 3.5
    endloop
  endfacet
  facet normal 0 0 1
    outer loop
      vertex 130 7 3.5
      vertex 163 17 3.5
      vertex 158 17 3.5
    endloop
  endfacet
  facet normal 0 0 1
    outer loop
      vertex 153 17 3.5
      vertex 158 17 3.5
      vertex 153 67 3.5
    endloop
  endfacet
  facet normal 0 0 1
    outer loop
      vertex 130 7 3.5
      vertex 158 17 3.5
      vertex 153 17 3.5
    endloop
  endfacet
  facet normal 0 0 1
    outer loop
      vertex 130 7 3.5
      vertex 153 17 3.5
      vertex 148 17 3.5
    endloop
  endfacet
  facet normal 0 0 1
    outer loop
      vertex 143 17 3.5
      vertex 148 17 3.5
      vertex 143 67 3.5
    endloop
  endfacet
  facet normal 0 0 1
    outer loop
      vertex 130 7 3.5
      vertex 148 17 3.5
      vertex 143 17 3.5
    endloop
  endfacet
  facet normal 0 0 1
    outer loop
      vertex 130 7 3.5
      vertex 143 17 3.5
      vertex 138 17 3.5
    endloop
  endfacet
  facet normal 0 0 1
    outer loop
      vertex 193 17 3.5
      vertex 130 7 3.5
      vertex 261 7 3.5
    endloop
  endfacet
  facet normal 0 0 1
    outer loop
      vertex 130 7 3.5
      vertex 138 17 3.5
      vertex 130 75 3.5
    endloop
  endfacet
  facet normal 1 0 0
    outer loop
      vertex 261 7 100
      vertex 261 0 100
      vertex 261 7 3.5
    endloop
  endfacet
  facet normal 1 -0 0
    outer loop
      vertex 261 7 3.5
      vertex 261 75 0
      vertex 261 75 3.5
    endloop
  endfacet
  facet normal 1 0 0
    outer loop
      vertex 261 7 3.5
      vertex 261 0 0
      vertex 261 75 0
    endloop
  endfacet
  facet normal 1 0 0
    outer loop
      vertex 261 0 0
      vertex 261 7 3.5
      vertex 261 0 100
    endloop
  endfacet
  facet normal 0 0 -1
    outer loop
      vertex 261 0 0
      vertex 253 17 0
      vertex 261 75 0
    endloop
  endfacet
  facet normal 0 0 -1
    outer loop
      vertex 261 0 0
      vertex 248 17 0
      vertex 253 17 0
    endloop
  endfacet
  facet normal 0 0 -1
    outer loop
      vertex 248 17 0
      vertex 243 17 0
      vertex 248 67 0
    endloop
  endfacet
  facet normal 0 0 -1
    outer loop
      vertex 261 0 0
      vertex 243 17 0
      vertex 248 17 0
    endloop
  endfacet
  facet normal 0 0 -1
    outer loop
      vertex 261 0 0
      vertex 238 17 0
      vertex 243 17 0
    endloop
  endfacet
  facet normal 0 0 -1
    outer loop
      vertex 238 17 0
      vertex 233 17 0
      vertex 238 67 0
    endloop
  endfacet
  facet normal 0 0 -1
    outer loop
      vertex 261 0 0
      vertex 233 17 0
      vertex 238 17 0
    endloop
  endfacet
  facet normal 0 0 -1
    outer loop
      vertex 261 0 0
      vertex 228 17 0
      vertex 233 17 0
    endloop
  endfacet
  facet normal 0 0 -1
    outer loop
      vertex 228 17 0
      vertex 223 17 0
      vertex 228 67 0
    endloop
  endfacet
  facet normal 0 0 -1
    outer loop
      vertex 261 0 0
      vertex 223 17 0
      vertex 228 17 0
    endloop
  endfacet
  facet normal 0 0 -1
    outer loop
      vertex 261 0 0
      vertex 218 17 0
      vertex 223 17 0
    endloop
  endfacet
  facet normal 0 0 -1
    outer loop
      vertex 218 17 0
      vertex 213 17 0
      vertex 218 67 0
    endloop
  endfacet
  facet normal 0 0 -1
    outer loop
      vertex 261 0 0
      vertex 213 17 0
      vertex 218 17 0
    endloop
  endfacet
  facet normal 0 0 -1
    outer loop
      vertex 261 0 0
      vertex 208 17 0
      vertex 213 17 0
    endloop
  endfacet
  facet normal 0 0 -1
    outer loop
      vertex 208 17 0
      vertex 203 17 0
      vertex 208 67 0
    endloop
  endfacet
  facet normal 0 0 -1
    outer loop
      vertex 261 0 0
      vertex 203 17 0
      vertex 208 17 0
    endloop
  endfacet
  facet normal 0 0 -1
    outer loop
      vertex 261 0 0
      vertex 198 17 0
      vertex 203 17 0
    endloop
  endfacet
  facet normal 0 0 -1
    outer loop
      vertex 198 17 0
      vertex 193 17 0
      vertex 198 67 0
    endloop
  endfacet
  facet normal 0 0 -1
    outer loop
      vertex 261 0 0
      vertex 193 17 0
      vertex 198 17 0
    endloop
  endfacet
  facet normal 0 0 -1
    outer loop
      vertex 130 0 0
      vertex 193 17 0
      vertex 261 0 0
    endloop
  endfacet
  facet normal 0 0 -1
    outer loop
      vertex 188 17 0
      vertex 183 17 0
      vertex 188 67 0
    endloop
  endfacet
  facet normal -0 0 -1
    outer loop
      vertex 193 17 0
      vertex 130 0 0
      vertex 188 17 0
    endloop
  endfacet
  facet normal -0 0 -1
    outer loop
      vertex 188 17 0
      vertex 130 0 0
      vertex 183 17 0
    endloop
  endfacet
  facet normal 0 0 -1
    outer loop
      vertex 178 17 0
      vertex 173 17 0
      vertex 178 67 0
    endloop
  endfacet
  facet normal -0 0 -1
    outer loop
      vertex 183 17 0
      vertex 130 0 0
      vertex 178 17 0
    endloop
  endfacet
  facet normal -0 0 -1
    outer loop
      vertex 178 17 0
      vertex 130 0 0
      vertex 173 17 0
    endloop
  endfacet
  facet normal 0 0 -1
    outer loop
      vertex 168 17 0
      vertex 163 17 0
      vertex 168 67 0
    endloop
  endfacet
  facet normal -0 0 -1
    outer loop
      vertex 173 17 0
      vertex 130 0 0
      vertex 168 17 0
    endloop
  endfacet
  facet normal -0 0 -1
    outer loop
      vertex 168 17 0
      vertex 130 0 0
      vertex 163 17 0
    endloop
  endfacet
  facet normal 0 0 -1
    outer loop
      vertex 158 17 0
      vertex 153 17 0
      vertex 158 67 0
    endloop
  endfacet
  facet normal -0 0 -1
    outer loop
      vertex 163 17 0
      vertex 130 0 0
      vertex 158 17 0
    endloop
  endfacet
  facet normal -0 0 -1
    outer loop
      vertex 158 17 0
      vertex 130 0 0
      vertex 153 17 0
    endloop
  endfacet
  facet normal 0 0 -1
    outer loop
      vertex 148 17 0
      vertex 143 17 0
      vertex 148 67 0
    endloop
  endfacet
  facet normal -0 0 -1
    outer loop
      vertex 153 17 0
      vertex 130 0 0
      vertex 148 17 0
    endloop
  endfacet
  facet normal -0 0 -1
    outer loop
      vertex 148 17 0
      vertex 130 0 0
      vertex 143 17 0
    endloop
  endfacet
  facet normal 0 0 -1
    outer loop
      vertex 130 75 0
      vertex 138 17 0
      vertex 130 0 0
    endloop
  endfacet
  facet normal -0 0 -1
    outer loop
      vertex 143 17 0
      vertex 130 0 0
      vertex 138 17 0
    endloop
  endfacet
  facet normal 0 0 -1
    outer loop
      vertex 253 67 0
      vertex 261 75 0
      vertex 253 17 0
    endloop
  endfacet
  facet normal 0 0 -1
    outer loop
      vertex 248 67 0
      vertex 261 75 0
      vertex 253 67 0
    endloop
  endfacet
  facet normal 0 0 -1
    outer loop
      vertex 243 67 0
      vertex 248 67 0
      vertex 243 17 0
    endloop
  endfacet
  facet normal 0 0 -1
    outer loop
      vertex 243 67 0
      vertex 261 75 0
      vertex 248 67 0
    endloop
  endfacet
  facet normal 0 0 -1
    outer loop
      vertex 238 67 0
      vertex 261 75 0
      vertex 243 67 0
    endloop
  endfacet
  facet normal 0 0 -1
    outer loop
      vertex 233 67 0
      vertex 238 67 0
      vertex 233 17 0
    endloop
  endfacet
  facet normal 0 0 -1
    outer loop
      vertex 233 67 0
      vertex 261 75 0
      vertex 238 67 0
    endloop
  endfacet
  facet normal 0 0 -1
    outer loop
      vertex 228 67 0
      vertex 261 75 0
      vertex 233 67 0
    endloop
  endfacet
  facet normal 0 0 -1
    outer loop
      vertex 223 67 0
      vertex 228 67 0
      vertex 223 17 0
    endloop
  endfacet
  facet normal 0 0 -1
    outer loop
      vertex 223 67 0
      vertex 261 75 0
      vertex 228 67 0
    endloop
  endfacet
  facet normal 0 0 -1
    outer loop
      vertex 218 67 0
      vertex 261 75 0
      vertex 223 67 0
    endloop
  endfacet
  facet normal 0 0 -1
    outer loop
      vertex 213 67 0
      vertex 218 67 0
      vertex 213 17 0
    endloop
  endfacet
  facet normal 0 0 -1
    outer loop
      vertex 213 67 0
      vertex 261 75 0
      vertex 218 67 0
    endloop
  endfacet
  facet normal 0 0 -1
    outer loop
      vertex 208 67 0
      vertex 261 75 0
      vertex 213 67 0
    endloop
  endfacet
  facet normal 0 0 -1
    outer loop
      vertex 203 67 0
      vertex 208 67 0
      vertex 203 17 0
    endloop
  endfacet
  facet normal 0 0 -1
    outer loop
      vertex 203 67 0
      vertex 261 75 0
      vertex 208 67 0
    endloop
  endfacet
  facet normal 0 0 -1
    outer loop
      vertex 198 67 0
      vertex 261 75 0
      vertex 203 67 0
    endloop
  endfacet
  facet normal 0 0 -1
    outer loop
      vertex 193 67 0
      vertex 198 67 0
      vertex 193 17 0
    endloop
  endfacet
  facet normal 0 0 -1
    outer loop
      vertex 193 67 0
      vertex 261 75 0
      vertex 198 67 0
    endloop
  endfacet
  facet normal 0 0 -1
    outer loop
      vertex 130 75 0
      vertex 193 67 0
      vertex 188 67 0
    endloop
  endfacet
  facet normal 0 0 -1
    outer loop
      vertex 183 67 0
      vertex 188 67 0
      vertex 183 17 0
    endloop
  endfacet
  facet normal 0 0 -1
    outer loop
      vertex 130 75 0
      vertex 188 67 0
      vertex 183 67 0
    endloop
  endfacet
  facet normal 0 0 -1
    outer loop
      vertex 130 75 0
      vertex 183 67 0
      vertex 178 67 0
    endloop
  endfacet
  facet normal 0 0 -1
    outer loop
      vertex 173 67 0
      vertex 178 67 0
      vertex 173 17 0
    endloop
  endfacet
  facet normal 0 0 -1
    outer loop
      vertex 130 75 0
      vertex 178 67 0
      vertex 173 67 0
    endloop
  endfacet
  facet normal 0 0 -1
    outer loop
      vertex 130 75 0
      vertex 173 67 0
      vertex 168 67 0
    endloop
  endfacet
  facet normal 0 0 -1
    outer loop
      vertex 163 67 0
      vertex 168 67 0
      vertex 163 17 0
    endloop
  endfacet
  facet normal 0 0 -1
    outer loop
      vertex 130 75 0
      vertex 168 67 0
      vertex 163 67 0
    endloop
  endfacet
  facet normal 0 0 -1
    outer loop
      vertex 130 75 0
      vertex 163 67 0
      vertex 158 67 0
    endloop
  endfacet
  facet normal 0 0 -1
    outer loop
      vertex 153 67 0
      vertex 158 67 0
      vertex 153 17 0
    endloop
  endfacet
  facet normal 0 0 -1
    outer loop
      vertex 130 75 0
      vertex 158 67 0
      vertex 153 67 0
    endloop
  endfacet
  facet normal 0 0 -1
    outer loop
      vertex 130 75 0
      vertex 153 67 0
      vertex 148 67 0
    endloop
  endfacet
  facet normal 0 0 -1
    outer loop
      vertex 143 67 0
      vertex 148 67 0
      vertex 143 17 0
    endloop
  endfacet
  facet normal 0 0 -1
    outer loop
      vertex 130 75 0
      vertex 148 67 0
      vertex 143 67 0
    endloop
  endfacet
  facet normal 0 0 -1
    outer loop
      vertex 130 75 0
      vertex 143 67 0
      vertex 138 67 0
    endloop
  endfacet
  facet normal 0 0 -1
    outer loop
      vertex 193 67 0
      vertex 130 75 0
      vertex 261 75 0
    endloop
  endfacet
  facet normal 0 0 -1
    outer loop
      vertex 138 17 0
      vertex 130 75 0
      vertex 138 67 0
    endloop
  endfacet
  facet normal 0 -1 0
    outer loop
      vertex 243 0 10
      vertex 248 0 90
      vertex 243 0 90
    endloop
  endfacet
  facet normal 0 -1 -0
    outer loop
      vertex 248 0 90
      vertex 243 0 10
      vertex 248 0 10
    endloop
  endfacet
  facet normal 0 -1 0
    outer loop
      vertex 233 0 10
      vertex 238 0 90
      vertex 233 0 90
    endloop
  endfacet
  facet normal 0 -1 -0
    outer loop
      vertex 238 0 90
      vertex 233 0 10
      vertex 238 0 10
    endloop
  endfacet
  facet normal 0 -1 0
    outer loop
      vertex 223 0 10
      vertex 228 0 90
      vertex 223 0 90
    endloop
  endfacet
  facet normal 0 -1 -0
    outer loop
      vertex 228 0 90
      vertex 223 0 10
      vertex 228 0 10
    endloop
  endfacet
  facet normal 0 -1 0
    outer loop
      vertex 213 0 10
      vertex 218 0 90
      vertex 213 0 90
    endloop
  endfacet
  facet normal 0 -1 -0
    outer loop
      vertex 218 0 90
      vertex 213 0 10
      vertex 218 0 10
    endloop
  endfacet
  facet normal 0 -1 0
    outer loop
      vertex 203 0 10
      vertex 208 0 90
      vertex 203 0 90
    endloop
  endfacet
  facet normal 0 -1 -0
    outer loop
      vertex 208 0 90
      vertex 203 0 10
      vertex 208 0 10
    endloop
  endfacet
  facet normal 0 -1 0
    outer loop
      vertex 193 0 10
      vertex 198 0 90
      vertex 193 0 90
    endloop
  endfacet
  facet normal 0 -1 -0
    outer loop
      vertex 198 0 90
      vertex 193 0 10
      vertex 198 0 10
    endloop
  endfacet
  facet normal 0 -1 0
    outer loop
      vertex 183 0 10
      vertex 188 0 90
      vertex 183 0 90
    endloop
  endfacet
  facet normal 0 -1 -0
    outer loop
      vertex 188 0 90
      vertex 183 0 10
      vertex 188 0 10
    endloop
  endfacet
  facet normal 0 -1 0
    outer loop
      vertex 173 0 10
      vertex 178 0 90
      vertex 173 0 90
    endloop
  endfacet
  facet normal 0 -1 -0
    outer loop
      vertex 178 0 90
      vertex 173 0 10
      vertex 178 0 10
    endloop
  endfacet
  facet normal 0 -1 0
    outer loop
      vertex 163 0 10
      vertex 168 0 90
      vertex 163 0 90
    endloop
  endfacet
  facet normal 0 -1 -0
    outer loop
      vertex 168 0 90
      vertex 163 0 10
      vertex 168 0 10
    endloop
  endfacet
  facet normal 0 -1 0
    outer loop
      vertex 153 0 10
      vertex 158 0 90
      vertex 153 0 90
    endloop
  endfacet
  facet normal 0 -1 -0
    outer loop
      vertex 158 0 90
      vertex 153 0 10
      vertex 158 0 10
    endloop
  endfacet
  facet normal 0 -1 0
    outer loop
      vertex 143 0 10
      vertex 148 0 90
      vertex 143 0 90
    endloop
  endfacet
  facet normal 0 -1 -0
    outer loop
      vertex 148 0 90
      vertex 143 0 10
      vertex 148 0 10
    endloop
  endfacet
  facet normal 0 -1 0
    outer loop
      vertex 143 0 90
      vertex 130 0 100
      vertex 138 0 90
    endloop
  endfacet
  facet normal 0 -1 0
    outer loop
      vertex 130 0 100
      vertex 138 0 10
      vertex 138 0 90
    endloop
  endfacet
  facet normal 0 -1 0
    outer loop
      vertex 130 0 0
      vertex 143 0 10
      vertex 138 0 10
    endloop
  endfacet
  facet normal 0 -1 -0
    outer loop
      vertex 143 0 10
      vertex 130 0 0
      vertex 148 0 10
    endloop
  endfacet
  facet normal 0 -1 -0
    outer loop
      vertex 148 0 10
      vertex 130 0 0
      vertex 153 0 10
    endloop
  endfacet
  facet normal 0 -1 -0
    outer loop
      vertex 153 0 10
      vertex 130 0 0
      vertex 158 0 10
    endloop
  endfacet
  facet normal 0 -1 -0
    outer loop
      vertex 158 0 10
      vertex 130 0 0
      vertex 163 0 10
    endloop
  endfacet
  facet normal 0 -1 -0
    outer loop
      vertex 163 0 10
      vertex 130 0 0
      vertex 168 0 10
    endloop
  endfacet
  facet normal 0 -1 -0
    outer loop
      vertex 168 0 10
      vertex 130 0 0
      vertex 173 0 10
    endloop
  endfacet
  facet normal 0 -1 -0
    outer loop
      vertex 173 0 10
      vertex 130 0 0
      vertex 178 0 10
    endloop
  endfacet
  facet normal 0 -1 -0
    outer loop
      vertex 178 0 10
      vertex 130 0 0
      vertex 183 0 10
    endloop
  endfacet
  facet normal 0 -1 -0
    outer loop
      vertex 183 0 10
      vertex 130 0 0
      vertex 188 0 10
    endloop
  endfacet
  facet normal 0 -1 -0
    outer loop
      vertex 188 0 10
      vertex 130 0 0
      vertex 193 0 10
    endloop
  endfacet
  facet normal 0 -1 -0
    outer loop
      vertex 193 0 10
      vertex 130 0 0
      vertex 198 0 10
    endloop
  endfacet
  facet normal 0 -1 0
    outer loop
      vertex 261 0 0
      vertex 198 0 10
      vertex 130 0 0
    endloop
  endfacet
  facet normal 0 -1 0
    outer loop
      vertex 198 0 10
      vertex 261 0 0
      vertex 203 0 10
    endloop
  endfacet
  facet normal 0 -1 0
    outer loop
      vertex 203 0 10
      vertex 261 0 0
      vertex 208 0 10
    endloop
  endfacet
  facet normal 0 -1 0
    outer loop
      vertex 208 0 10
      vertex 261 0 0
      vertex 213 0 10
    endloop
  endfacet
  facet normal 0 -1 0
    outer loop
      vertex 213 0 10
      vertex 261 0 0
      vertex 218 0 10
    endloop
  endfacet
  facet normal 0 -1 0
    outer loop
      vertex 218 0 10
      vertex 261 0 0
      vertex 223 0 10
    endloop
  endfacet
  facet normal 0 -1 0
    outer loop
      vertex 223 0 10
      vertex 261 0 0
      vertex 228 0 10
    endloop
  endfacet
  facet normal 0 -1 0
    outer loop
      vertex 228 0 10
      vertex 261 0 0
      vertex 233 0 10
    endloop
  endfacet
  facet normal 0 -1 0
    outer loop
      vertex 233 0 10
      vertex 261 0 0
      vertex 238 0 10
    endloop
  endfacet
  facet normal 0 -1 0
    outer loop
      vertex 238 0 10
      vertex 261 0 0
      vertex 243 0 10
    endloop
  endfacet
  facet normal 0 -1 0
    outer loop
      vertex 243 0 10
      vertex 261 0 0
      vertex 248 0 10
    endloop
  endfacet
  facet normal 0 -1 0
    outer loop
      vertex 130 0 0
      vertex 138 0 10
      vertex 130 0 100
    endloop
  endfacet
  facet normal 0 -1 0
    outer loop
      vertex 148 0 90
      vertex 130 0 100
      vertex 143 0 90
    endloop
  endfacet
  facet normal 0 -1 0
    outer loop
      vertex 153 0 90
      vertex 130 0 100
      vertex 148 0 90
    endloop
  endfacet
  facet normal 0 -1 0
    outer loop
      vertex 158 0 90
      vertex 130 0 100
      vertex 153 0 90
    endloop
  endfacet
  facet normal 0 -1 0
    outer loop
      vertex 163 0 90
      vertex 130 0 100
      vertex 158 0 90
    endloop
  endfacet
  facet normal 0 -1 0
    outer loop
      vertex 168 0 90
      vertex 130 0 100
      vertex 163 0 90
    endloop
  endfacet
  facet normal 0 -1 0
    outer loop
      vertex 173 0 90
      vertex 130 0 100
      vertex 168 0 90
    endloop
  endfacet
  facet normal 0 -1 0
    outer loop
      vertex 178 0 90
      vertex 130 0 100
      vertex 173 0 90
    endloop
  endfacet
  facet normal 0 -1 0
    outer loop
      vertex 183 0 90
      vertex 130 0 100
      vertex 178 0 90
    endloop
  endfacet
  facet normal 0 -1 0
    outer loop
      vertex 188 0 90
      vertex 130 0 100
      vertex 183 0 90
    endloop
  endfacet
  facet normal 0 -1 0
    outer loop
      vertex 193 0 90
      vertex 130 0 100
      vertex 188 0 90
    endloop
  endfacet
  facet normal 0 -1 0
    outer loop
      vertex 130 0 100
      vertex 193 0 90
      vertex 261 0 100
    endloop
  endfacet
  facet normal 0 -1 0
    outer loop
      vertex 198 0 90
      vertex 261 0 100
      vertex 193 0 90
    endloop
  endfacet
  facet normal 0 -1 0
    outer loop
      vertex 203 0 90
      vertex 261 0 100
      vertex 198 0 90
    endloop
  endfacet
  facet normal 0 -1 0
    outer loop
      vertex 208 0 90
      vertex 261 0 100
      vertex 203 0 90
    endloop
  endfacet
  facet normal 0 -1 0
    outer loop
      vertex 213 0 90
      vertex 261 0 100
      vertex 208 0 90
    endloop
  endfacet
  facet normal 0 -1 0
    outer loop
      vertex 218 0 90
      vertex 261 0 100
      vertex 213 0 90
    endloop
  endfacet
  facet normal 0 -1 0
    outer loop
      vertex 223 0 90
      vertex 261 0 100
      vertex 218 0 90
    endloop
  endfacet
  facet normal 0 -1 0
    outer loop
      vertex 228 0 90
      vertex 261 0 100
      vertex 223 0 90
    endloop
  endfacet
  facet normal 0 -1 0
    outer loop
      vertex 233 0 90
      vertex 261 0 100
      vertex 228 0 90
    endloop
  endfacet
  facet normal 0 -1 0
    outer loop
      vertex 238 0 90
      vertex 261 0 100
      vertex 233 0 90
    endloop
  endfacet
  facet normal 0 -1 0
    outer loop
      vertex 243 0 90
      vertex 261 0 100
      vertex 238 0 90
    endloop
  endfacet
  facet normal 0 -1 0
    outer loop
      vertex 248 0 90
      vertex 261 0 100
      vertex 243 0 90
    endloop
  endfacet
  facet normal 0 -1 0
    outer loop
      vertex 253 0 90
      vertex 261 0 100
      vertex 248 0 90
    endloop
  endfacet
  facet normal 0 -1 0
    outer loop
      vertex 253 0 10
      vertex 261 0 100
      vertex 253 0 90
    endloop
  endfacet
  facet normal 0 -1 0
    outer loop
      vertex 253 0 10
      vertex 261 0 0
      vertex 261 0 100
    endloop
  endfacet
  facet normal 0 -1 0
    outer loop
      vertex 248 0 10
      vertex 261 0 0
      vertex 253 0 10
    endloop
  endfacet
  facet normal 0 1 -0
    outer loop
      vertex 261 75 0
      vertex 130 75 3.5
      vertex 261 75 3.5
    endloop
  endfacet
  facet normal 0 1 0
    outer loop
      vertex 130 75 3.5
      vertex 261 75 0
      vertex 130 75 0
    endloop
  endfacet
  facet normal 1 -0 0
    outer loop
      vertex 138 0 90
      vertex 138 7 10
      vertex 138 7 90
    endloop
  endfacet
  facet normal 1 0 0
    outer loop
      vertex 138 7 10
      vertex 138 0 90
      vertex 138 0 10
    endloop
  endfacet
  facet normal 0 0 -1
    outer loop
      vertex 138 0 90
      vertex 143 7 90
      vertex 143 0 90
    endloop
  endfacet
  facet normal -0 0 -1
    outer loop
      vertex 143 7 90
      vertex 138 0 90
      vertex 138 7 90
    endloop
  endfacet
  facet normal -1 0 0
    outer loop
      vertex 143 0 10
      vertex 143 7 90
      vertex 143 7 10
    endloop
  endfacet
  facet normal -1 -0 0
    outer loop
      vertex 143 7 90
      vertex 143 0 10
      vertex 143 0 90
    endloop
  endfacet
  facet normal -0 0 1
    outer loop
      vertex 138 7 10
      vertex 143 0 10
      vertex 143 7 10
    endloop
  endfacet
  facet normal 0 0 1
    outer loop
      vertex 143 0 10
      vertex 138 7 10
      vertex 138 0 10
    endloop
  endfacet
  facet normal 1 -0 0
    outer loop
      vertex 148 0 90
      vertex 148 7 10
      vertex 148 7 90
    endloop
  endfacet
  facet normal 1 0 0
    outer loop
      vertex 148 7 10
      vertex 148 0 90
      vertex 148 0 10
    endloop
  endfacet
  facet normal 0 0 -1
    outer loop
      vertex 148 0 90
      vertex 153 7 90
      vertex 153 0 90
    endloop
  endfacet
  facet normal -0 0 -1
    outer loop
      vertex 153 7 90
      vertex 148 0 90
      vertex 148 7 90
    endloop
  endfacet
  facet normal -1 0 0
    outer loop
      vertex 153 0 10
      vertex 153 7 90
      vertex 153 7 10
    endloop
  endfacet
  facet normal -1 -0 0
    outer loop
      vertex 153 7 90
      vertex 153 0 10
      vertex 153 0 90
    endloop
  endfacet
  facet normal -0 0 1
    outer loop
      vertex 148 7 10
      vertex 153 0 10
      vertex 153 7 10
    endloop
  endfacet
  facet normal 0 0 1
    outer loop
      vertex 153 0 10
      vertex 148 7 10
      vertex 148 0 10
    endloop
  endfacet
  facet normal 1 -0 0
    outer loop
      vertex 158 0 90
      vertex 158 7 10
      vertex 158 7 90
    endloop
  endfacet
  facet normal 1 0 0
    outer loop
      vertex 158 7 10
      vertex 158 0 90
      vertex 158 0 10
    endloop
  endfacet
  facet normal 0 0 -1
    outer loop
      vertex 158 0 90
      vertex 163 7 90
      vertex 163 0 90
    endloop
  endfacet
  facet normal -0 0 -1
    outer loop
      vertex 163 7 90
      vertex 158 0 90
      vertex 158 7 90
    endloop
  endfacet
  facet normal -1 0 0
    outer loop
      vertex 163 0 10
      vertex 163 7 90
      vertex 163 7 10
    endloop
  endfacet
  facet normal -1 -0 0
    outer loop
      vertex 163 7 90
      vertex 163 0 10
      vertex 163 0 90
    endloop
  endfacet
  facet normal -0 0 1
    outer loop
      vertex 158 7 10
      vertex 163 0 10
      vertex 163 7 10
    endloop
  endfacet
  facet normal 0 0 1
    outer loop
      vertex 163 0 10
      vertex 158 7 10
      vertex 158 0 10
    endloop
  endfacet
  facet normal 1 -0 0
    outer loop
      vertex 168 0 90
      vertex 168 7 10
      vertex 168 7 90
    endloop
  endfacet
  facet normal 1 0 0
    outer loop
      vertex 168 7 10
      vertex 168 0 90
      vertex 168 0 10
    endloop
  endfacet
  facet normal 0 0 -1
    outer loop
      vertex 168 0 90
      vertex 173 7 90
      vertex 173 0 90
    endloop
  endfacet
  facet normal -0 0 -1
    outer loop
      vertex 173 7 90
      vertex 168 0 90
      vertex 168 7 90
    endloop
  endfacet
  facet normal -1 0 0
    outer loop
      vertex 173 0 10
      vertex 173 7 90
      vertex 173 7 10
    endloop
  endfacet
  facet normal -1 -0 0
    outer loop
      vertex 173 7 90
      vertex 173 0 10
      vertex 173 0 90
    endloop
  endfacet
  facet normal -0 0 1
    outer loop
      vertex 168 7 10
      vertex 173 0 10
      vertex 173 7 10
    endloop
  endfacet
  facet normal 0 0 1
    outer loop
      vertex 173 0 10
      vertex 168 7 10
      vertex 168 0 10
    endloop
  endfacet
  facet normal 1 -0 0
    outer loop
      vertex 178 0 90
      vertex 178 7 10
      vertex 178 7 90
    endloop
  endfacet
  facet normal 1 0 0
    outer loop
      vertex 178 7 10
      vertex 178 0 90
      vertex 178 0 10
    endloop
  endfacet
  facet normal 0 0 -1
    outer loop
      vertex 178 0 90
      vertex 183 7 90
      vertex 183 0 90
    endloop
  endfacet
  facet normal -0 0 -1
    outer loop
      vertex 183 7 90
      vertex 178 0 90
      vertex 178 7 90
    endloop
  endfacet
  facet normal -1 0 0
    outer loop
      vertex 183 0 10
      vertex 183 7 90
      vertex 183 7 10
    endloop
  endfacet
  facet normal -1 -0 0
    outer loop
      vertex 183 7 90
      vertex 183 0 10
      vertex 183 0 90
    endloop
  endfacet
  facet normal -0 0 1
    outer loop
      vertex 178 7 10
      vertex 183 0 10
      vertex 183 7 10
    endloop
  endfacet
  facet normal 0 0 1
    outer loop
      vertex 183 0 10
      vertex 178 7 10
      vertex 178 0 10
    endloop
  endfacet
  facet normal 1 -0 0
    outer loop
      vertex 188 0 90
      vertex 188 7 10
      vertex 188 7 90
    endloop
  endfacet
  facet normal 1 0 0
    outer loop
      vertex 188 7 10
      vertex 188 0 90
      vertex 188 0 10
    endloop
  endfacet
  facet normal 0 0 -1
    outer loop
      vertex 188 0 90
      vertex 193 7 90
      vertex 193 0 90
    endloop
  endfacet
  facet normal -0 0 -1
    outer loop
      vertex 193 7 90
      vertex 188 0 90
      vertex 188 7 90
    endloop
  endfacet
  facet normal -1 0 0
    outer loop
      vertex 193 0 10
      vertex 193 7 90
      vertex 193 7 10
    endloop
  endfacet
  facet normal -1 -0 0
    outer loop
      vertex 193 7 90
      vertex 193 0 10
      vertex 193 0 90
    endloop
  endfacet
  facet normal -0 0 1
    outer loop
      vertex 188 7 10
      vertex 193 0 10
      vertex 193 7 10
    endloop
  endfacet
  facet normal 0 0 1
    outer loop
      vertex 193 0 10
      vertex 188 7 10
      vertex 188 0 10
    endloop
  endfacet
  facet normal 1 -0 0
    outer loop
      vertex 198 0 90
      vertex 198 7 10
      vertex 198 7 90
    endloop
  endfacet
  facet normal 1 0 0
    outer loop
      vertex 198 7 10
      vertex 198 0 90
      vertex 198 0 10
    endloop
  endfacet
  facet normal 0 0 -1
    outer loop
      vertex 198 0 90
      vertex 203 7 90
      vertex 203 0 90
    endloop
  endfacet
  facet normal -0 0 -1
    outer loop
      vertex 203 7 90
      vertex 198 0 90
      vertex 198 7 90
    endloop
  endfacet
  facet normal -1 0 0
    outer loop
      vertex 203 0 10
      vertex 203 7 90
      vertex 203 7 10
    endloop
  endfacet
  facet normal -1 -0 0
    outer loop
      vertex 203 7 90
      vertex 203 0 10
      vertex 203 0 90
    endloop
  endfacet
  facet normal -0 0 1
    outer loop
      vertex 198 7 10
      vertex 203 0 10
      vertex 203 7 10
    endloop
  endfacet
  facet normal 0 0 1
    outer loop
      vertex 203 0 10
      vertex 198 7 10
      vertex 198 0 10
    endloop
  endfacet
  facet normal 1 -0 0
    outer loop
      vertex 208 0 90
      vertex 208 7 10
      vertex 208 7 90
    endloop
  endfacet
  facet normal 1 0 0
    outer loop
      vertex 208 7 10
      vertex 208 0 90
      vertex 208 0 10
    endloop
  endfacet
  facet normal 0 0 -1
    outer loop
      vertex 208 0 90
      vertex 213 7 90
      vertex 213 0 90
    endloop
  endfacet
  facet normal -0 0 -1
    outer loop
      vertex 213 7 90
      vertex 208 0 90
      vertex 208 7 90
    endloop
  endfacet
  facet normal -1 0 0
    outer loop
      vertex 213 0 10
      vertex 213 7 90
      vertex 213 7 10
    endloop
  endfacet
  facet normal -1 -0 0
    outer loop
      vertex 213 7 90
      vertex 213 0 10
      vertex 213 0 90
    endloop
  endfacet
  facet normal -0 0 1
    outer loop
      vertex 208 7 10
      vertex 213 0 10
      vertex 213 7 10
    endloop
  endfacet
  facet normal 0 0 1
    outer loop
      vertex 213 0 10
      vertex 208 7 10
      vertex 208 0 10
    endloop
  endfacet
  facet normal 1 -0 0
    outer loop
      vertex 218 0 90
      vertex 218 7 10
      vertex 218 7 90
    endloop
  endfacet
  facet normal 1 0 0
    outer loop
      vertex 218 7 10
      vertex 218 0 90
      vertex 218 0 10
    endloop
  endfacet
  facet normal 0 0 -1
    outer loop
      vertex 218 0 90
      vertex 223 7 90
      vertex 223 0 90
    endloop
  endfacet
  facet normal -0 0 -1
    outer loop
      vertex 223 7 90
      vertex 218 0 90
      vertex 218 7 90
    endloop
  endfacet
  facet normal -1 0 0
    outer loop
      vertex 223 0 10
      vertex 223 7 90
      vertex 223 7 10
    endloop
  endfacet
  facet normal -1 -0 0
    outer loop
      vertex 223 7 90
      vertex 223 0 10
      vertex 223 0 90
    endloop
  endfacet
  facet normal -0 0 1
    outer loop
      vertex 218 7 10
      vertex 223 0 10
      vertex 223 7 10
    endloop
  endfacet
  facet normal 0 0 1
    outer loop
      vertex 223 0 10
      vertex 218 7 10
      vertex 218 0 10
    endloop
  endfacet
  facet normal 1 -0 0
    outer loop
      vertex 228 0 90
      vertex 228 7 10
      vertex 228 7 90
    endloop
  endfacet
  facet normal 1 0 0
    outer loop
      vertex 228 7 10
      vertex 228 0 90
      vertex 228 0 10
    endloop
  endfacet
  facet normal 0 0 -1
    outer loop
      vertex 228 0 90
      vertex 233 7 90
      vertex 233 0 90
    endloop
  endfacet
  facet normal -0 0 -1
    outer loop
      vertex 233 7 90
      vertex 228 0 90
      vertex 228 7 90
    endloop
  endfacet
  facet normal -1 0 0
    outer loop
      vertex 233 0 10
      vertex 233 7 90
      vertex 233 7 10
    endloop
  endfacet
  facet normal -1 -0 0
    outer loop
      vertex 233 7 90
      vertex 233 0 10
      vertex 233 0 90
    endloop
  endfacet
  facet normal -0 0 1
    outer loop
      vertex 228 7 10
      vertex 233 0 10
      vertex 233 7 10
    endloop
  endfacet
  facet normal 0 0 1
    outer loop
      vertex 233 0 10
      vertex 228 7 10
      vertex 228 0 10
    endloop
  endfacet
  facet normal 1 -0 0
    outer loop
      vertex 238 0 90
      vertex 238 7 10
      vertex 238 7 90
    endloop
  endfacet
  facet normal 1 0 0
    outer loop
      vertex 238 7 10
      vertex 238 0 90
      vertex 238 0 10
    endloop
  endfacet
  facet normal 0 0 -1
    outer loop
      vertex 238 0 90
      vertex 243 7 90
      vertex 243 0 90
    endloop
  endfacet
  facet normal -0 0 -1
    outer loop
      vertex 243 7 90
      vertex 238 0 90
      vertex 238 7 90
    endloop
  endfacet
  facet normal -1 0 0
    outer loop
      vertex 243 0 10
      vertex 243 7 90
      vertex 243 7 10
    endloop
  endfacet
  facet normal -1 -0 0
    outer loop
      vertex 243 7 90
      vertex 243 0 10
      vertex 243 0 90
    endloop
  endfacet
  facet normal -0 0 1
    outer loop
      vertex 238 7 10
      vertex 243 0 10
      vertex 243 7 10
    endloop
  endfacet
  facet normal 0 0 1
    outer loop
      vertex 243 0 10
      vertex 238 7 10
      vertex 238 0 10
    endloop
  endfacet
  facet normal 1 -0 0
    outer loop
      vertex 248 0 90
      vertex 248 7 10
      vertex 248 7 90
    endloop
  endfacet
  facet normal 1 0 0
    outer loop
      vertex 248 7 10
      vertex 248 0 90
      vertex 248 0 10
    endloop
  endfacet
  facet normal 0 0 -1
    outer loop
      vertex 248 0 90
      vertex 253 7 90
      vertex 253 0 90
    endloop
  endfacet
  facet normal -0 0 -1
    outer loop
      vertex 253 7 90
      vertex 248 0 90
      vertex 248 7 90
    endloop
  endfacet
  facet normal -1 0 0
    outer loop
      vertex 253 0 10
      vertex 253 7 90
      vertex 253 7 10
    endloop
  endfacet
  facet normal -1 -0 0
    outer loop
      vertex 253 7 90
      vertex 253 0 10
      vertex 253 0 90
    endloop
  endfacet
  facet normal -0 0 1
    outer loop
      vertex 248 7 10
      vertex 253 0 10
      vertex 253 7 10
    endloop
  endfacet
  facet normal 0 0 1
    outer loop
      vertex 253 0 10
      vertex 248 7 10
      vertex 248 0 10
    endloop
  endfacet
  facet normal -0 0 1
    outer loop
      vertex 130 7 100
      vertex 261 0 100
      vertex 261 7 100
    endloop
  endfacet
  facet normal 0 0 1
    outer loop
      vertex 261 0 100
      vertex 130 7 100
      vertex 130 0 100
    endloop
  endfacet
  facet normal 0 1 -0
    outer loop
      vertex 148 7 10
      vertex 143 7 90
      vertex 148 7 90
    endloop
  endfacet
  facet normal 0 1 0
    outer loop
      vertex 143 7 90
      vertex 148 7 10
      vertex 143 7 10
    endloop
  endfacet
  facet normal 0 1 -0
    outer loop
      vertex 158 7 10
      vertex 153 7 90
      vertex 158 7 90
    endloop
  endfacet
  facet normal 0 1 0
    outer loop
      vertex 153 7 90
      vertex 158 7 10
      vertex 153 7 10
    endloop
  endfacet
  facet normal 0 1 -0
    outer loop
      vertex 168 7 10
      vertex 163 7 90
      vertex 168 7 90
    endloop
  endfacet
  facet normal 0 1 0
    outer loop
      vertex 163 7 90
      vertex 168 7 10
      vertex 163 7 10
    endloop
  endfacet
  facet normal 0 1 -0
    outer loop
      vertex 178 7 10
      vertex 173 7 90
      vertex 178 7 90
    endloop
  endfacet
  facet normal 0 1 0
    outer loop
      vertex 173 7 90
      vertex 178 7 10
      vertex 173 7 10
    endloop
  endfacet
  facet normal 0 1 -0
    outer loop
      vertex 188 7 10
      vertex 183 7 90
      vertex 188 7 90
    endloop
  endfacet
  facet normal 0 1 0
    outer loop
      vertex 183 7 90
      vertex 188 7 10
      vertex 183 7 10
    endloop
  endfacet
  facet normal 0 1 -0
    outer loop
      vertex 198 7 10
      vertex 193 7 90
      vertex 198 7 90
    endloop
  endfacet
  facet normal 0 1 0
    outer loop
      vertex 193 7 90
      vertex 198 7 10
      vertex 193 7 10
    endloop
  endfacet
  facet normal 0 1 -0
    outer loop
      vertex 208 7 10
      vertex 203 7 90
      vertex 208 7 90
    endloop
  endfacet
  facet normal 0 1 0
    outer loop
      vertex 203 7 90
      vertex 208 7 10
      vertex 203 7 10
    endloop
  endfacet
  facet normal 0 1 -0
    outer loop
      vertex 218 7 10
      vertex 213 7 90
      vertex 218 7 90
    endloop
  endfacet
  facet normal 0 1 0
    outer loop
      vertex 213 7 90
      vertex 218 7 10
      vertex 213 7 10
    endloop
  endfacet
  facet normal 0 1 -0
    outer loop
      vertex 228 7 10
      vertex 223 7 90
      vertex 228 7 90
    endloop
  endfacet
  facet normal 0 1 0
    outer loop
      vertex 223 7 90
      vertex 228 7 10
      vertex 223 7 10
    endloop
  endfacet
  facet normal 0 1 -0
    outer loop
      vertex 238 7 10
      vertex 233 7 90
      vertex 238 7 90
    endloop
  endfacet
  facet normal 0 1 0
    outer loop
      vertex 233 7 90
      vertex 238 7 10
      vertex 233 7 10
    endloop
  endfacet
  facet normal 0 1 -0
    outer loop
      vertex 248 7 10
      vertex 243 7 90
      vertex 248 7 90
    endloop
  endfacet
  facet normal 0 1 0
    outer loop
      vertex 243 7 90
      vertex 248 7 10
      vertex 243 7 10
    endloop
  endfacet
  facet normal 0 1 0
    outer loop
      vertex 248 7 90
      vertex 261 7 100
      vertex 253 7 90
    endloop
  endfacet
  facet normal 0 1 -0
    outer loop
      vertex 261 7 3.5
      vertex 253 7 90
      vertex 261 7 100
    endloop
  endfacet
  facet normal 0 1 0
    outer loop
      vertex 261 7 3.5
      vertex 248 7 10
      vertex 253 7 10
    endloop
  endfacet
  facet normal 0 1 0
    outer loop
      vertex 248 7 10
      vertex 261 7 3.5
      vertex 243 7 10
    endloop
  endfacet
  facet normal 0 1 0
    outer loop
      vertex 243 7 10
      vertex 261 7 3.5
      vertex 238 7 10
    endloop
  endfacet
  facet normal 0 1 0
    outer loop
      vertex 238 7 10
      vertex 261 7 3.5
      vertex 233 7 10
    endloop
  endfacet
  facet normal 0 1 0
    outer loop
      vertex 233 7 10
      vertex 261 7 3.5
      vertex 228 7 10
    endloop
  endfacet
  facet normal 0 1 0
    outer loop
      vertex 228 7 10
      vertex 261 7 3.5
      vertex 223 7 10
    endloop
  endfacet
  facet normal 0 1 0
    outer loop
      vertex 223 7 10
      vertex 261 7 3.5
      vertex 218 7 10
    endloop
  endfacet
  facet normal 0 1 0
    outer loop
      vertex 218 7 10
      vertex 261 7 3.5
      vertex 213 7 10
    endloop
  endfacet
  facet normal 0 1 0
    outer loop
      vertex 213 7 10
      vertex 261 7 3.5
      vertex 208 7 10
    endloop
  endfacet
  facet normal 0 1 0
    outer loop
      vertex 208 7 10
      vertex 261 7 3.5
      vertex 203 7 10
    endloop
  endfacet
  facet normal 0 1 0
    outer loop
      vertex 203 7 10
      vertex 261 7 3.5
      vertex 198 7 10
    endloop
  endfacet
  facet normal 0 1 0
    outer loop
      vertex 198 7 10
      vertex 261 7 3.5
      vertex 193 7 10
    endloop
  endfacet
  facet normal 0 1 0
    outer loop
      vertex 130 7 3.5
      vertex 193 7 10
      vertex 261 7 3.5
    endloop
  endfacet
  facet normal 0 1 0
    outer loop
      vertex 193 7 10
      vertex 130 7 3.5
      vertex 188 7 10
    endloop
  endfacet
  facet normal 0 1 0
    outer loop
      vertex 188 7 10
      vertex 130 7 3.5
      vertex 183 7 10
    endloop
  endfacet
  facet normal 0 1 0
    outer loop
      vertex 183 7 10
      vertex 130 7 3.5
      vertex 178 7 10
    endloop
  endfacet
  facet normal 0 1 0
    outer loop
      vertex 178 7 10
      vertex 130 7 3.5
      vertex 173 7 10
    endloop
  endfacet
  facet normal 0 1 0
    outer loop
      vertex 173 7 10
      vertex 130 7 3.5
      vertex 168 7 10
    endloop
  endfacet
  facet normal 0 1 0
    outer loop
      vertex 168 7 10
      vertex 130 7 3.5
      vertex 163 7 10
    endloop
  endfacet
  facet normal 0 1 0
    outer loop
      vertex 163 7 10
      vertex 130 7 3.5
      vertex 158 7 10
    endloop
  endfacet
  facet normal 0 1 0
    outer loop
      vertex 158 7 10
      vertex 130 7 3.5
      vertex 153 7 10
    endloop
  endfacet
  facet normal 0 1 0
    outer loop
      vertex 153 7 10
      vertex 130 7 3.5
      vertex 148 7 10
    endloop
  endfacet
  facet normal 0 1 0
    outer loop
      vertex 148 7 10
      vertex 130 7 3.5
      vertex 143 7 10
    endloop
  endfacet
  facet normal 0 1 0
    outer loop
      vertex 253 7 90
      vertex 261 7 3.5
      vertex 253 7 10
    endloop
  endfacet
  facet normal 0 1 0
    outer loop
      vertex 243 7 90
      vertex 261 7 100
      vertex 248 7 90
    endloop
  endfacet
  facet normal 0 1 0
    outer loop
      vertex 238 7 90
      vertex 261 7 100
      vertex 243 7 90
    endloop
  endfacet
  facet normal 0 1 0
    outer loop
      vertex 233 7 90
      vertex 261 7 100
      vertex 238 7 90
    endloop
  endfacet
  facet normal 0 1 0
    outer loop
      vertex 228 7 90
      vertex 261 7 100
      vertex 233 7 90
    endloop
  endfacet
  facet normal 0 1 0
    outer loop
      vertex 223 7 90
      vertex 261 7 100
      vertex 228 7 90
    endloop
  endfacet
  facet normal 0 1 0
    outer loop
      vertex 218 7 90
      vertex 261 7 100
      vertex 223 7 90
    endloop
  endfacet
  facet normal 0 1 0
    outer loop
      vertex 213 7 90
      vertex 261 7 100
      vertex 218 7 90
    endloop
  endfacet
  facet normal 0 1 0
    outer loop
      vertex 208 7 90
      vertex 261 7 100
      vertex 213 7 90
    endloop
  endfacet
  facet normal 0 1 0
    outer loop
      vertex 203 7 90
      vertex 261 7 100
      vertex 208 7 90
    endloop
  endfacet
  facet normal 0 1 0
    outer loop
      vertex 198 7 90
      vertex 261 7 100
      vertex 203 7 90
    endloop
  endfacet
  facet normal 0 1 0
    outer loop
      vertex 261 7 100
      vertex 198 7 90
      vertex 130 7 100
    endloop
  endfacet
  facet normal 0 1 -0
    outer loop
      vertex 193 7 90
      vertex 130 7 100
      vertex 198 7 90
    endloop
  endfacet
  facet normal 0 1 -0
    outer loop
      vertex 188 7 90
      vertex 130 7 100
      vertex 193 7 90
    endloop
  endfacet
  facet normal 0 1 -0
    outer loop
      vertex 183 7 90
      vertex 130 7 100
      vertex 188 7 90
    endloop
  endfacet
  facet normal 0 1 -0
    outer loop
      vertex 178 7 90
      vertex 130 7 100
      vertex 183 7 90
    endloop
  endfacet
  facet normal 0 1 -0
    outer loop
      vertex 173 7 90
      vertex 130 7 100
      vertex 178 7 90
    endloop
  endfacet
  facet normal 0 1 -0
    outer loop
      vertex 168 7 90
      vertex 130 7 100
      vertex 173 7 90
    endloop
  endfacet
  facet normal 0 1 -0
    outer loop
      vertex 163 7 90
      vertex 130 7 100
      vertex 168 7 90
    endloop
  endfacet
  facet normal 0 1 -0
    outer loop
      vertex 158 7 90
      vertex 130 7 100
      vertex 163 7 90
    endloop
  endfacet
  facet normal 0 1 -0
    outer loop
      vertex 153 7 90
      vertex 130 7 100
      vertex 158 7 90
    endloop
  endfacet
  facet normal 0 1 -0
    outer loop
      vertex 148 7 90
      vertex 130 7 100
      vertex 153 7 90
    endloop
  endfacet
  facet normal 0 1 -0
    outer loop
      vertex 143 7 90
      vertex 130 7 100
      vertex 148 7 90
    endloop
  endfacet
  facet normal 0 1 -0
    outer loop
      vertex 138 7 90
      vertex 130 7 100
      vertex 143 7 90
    endloop
  endfacet
  facet normal 0 1 0
    outer loop
      vertex 130 7 3.5
      vertex 138 7 90
      vertex 138 7 10
    endloop
  endfacet
  facet normal 0 1 0
    outer loop
      vertex 138 7 90
      vertex 130 7 3.5
      vertex 130 7 100
    endloop
  endfacet
  facet normal 0 1 0
    outer loop
      vertex 143 7 10
      vertex 130 7 3.5
      vertex 138 7 10
    endloop
  endfacet
  facet normal -1 0 0
    outer loop
      vertex 130 75 0
      vertex 130 7 3.5
      vertex 130 75 3.5
    endloop
  endfacet
  facet normal -1 0 0
    outer loop
      vertex 130 0 0
      vertex 130 7 3.5
      vertex 130 75 0
    endloop
  endfacet
  facet normal -1 0 0
    outer loop
      vertex 130 0 100
      vertex 130 7 3.5
      vertex 130 0 0
    endloop
  endfacet
  facet normal -1 0 0
    outer loop
      vertex 130 7 3.5
      vertex 130 0 100
      vertex 130 7 100
    endloop
  endfacet
endsolid OpenSCAD_Model
