999
Inkscape export via OpenSCAD DXF Export
  0
SECTION
  2
HEADER
  9
$ACADVER
  1
AC1014
  9
$HANDSEED
  5
FFFF
  9
$MEASUREMENT
 70
     1
  0
ENDSEC
  0
SECTION
  2
TABLES
  0
TABLE
  2
VPORT
  5
8
330
0
100
AcDbSymbolTable
 70
     4
  0
VPORT
  5
2E
330
8
100
AcDbSymbolTableRecord
100
AcDbViewportTableRecord
  2
*ACTIVE
 70
     0
 10
0.0
 20
0.0
 11
1.0
 21
1.0
 12
210.0
 22
148.5
 13
0.0
 23
0.0
 14
10.0
 24
10.0
 15
10.0
 25
10.0
 16
0.0
 26
0.0
 36
1.0
 17
0.0
 27
0.0
 37
0.0
 40
341.0
 41
1.24
 42
50.0
 43
0.0
 44
0.0
 50
0.0
 51
0.0
 71
     0
 72
   100
 73
     1
 74
     3
 75
     0
 76
     0
 77
     0
 78
     0
  0
ENDTAB
  0
TABLE
  2
LTYPE
  5
5
330
0
100
AcDbSymbolTable
 70
     1
  0
LTYPE
  5
14
330
5
100
AcDbSymbolTableRecord
100
AcDbLinetypeTableRecord
  2
BYBLOCK
 70
     0
  3

 72
    65
 73
     0
 40
0.0
  0
LTYPE
  5
15
330
5
100
AcDbSymbolTableRecord
100
AcDbLinetypeTableRecord
  2
BYLAYER
 70
     0
  3

 72
    65
 73
     0
 40
0.0
  0
LTYPE
  5
16
330
5
100
AcDbSymbolTableRecord
100
AcDbLinetypeTableRecord
  2
CONTINUOUS
 70
     0
  3
Solid line
 72
    65
 73
     0
 40
0.0
  0
ENDTAB
  0
TABLE
0
TABLE
2
LAYER
5
2
330
0
100
AcDbSymbolTable
70
1
0
LAYER
5
10
330
2
100
AcDbSymbolTableRecord
100
AcDbLayerTableRecord
2
Layer_1
70
0
62
7
6
CONTINUOUS
0
ENDTAB
0
ENDSEC
  0
ENDTAB
  0
TABLE
  2
STYLE
  5
3
330
0
100
AcDbSymbolTable
 70
     1
  0
STYLE
  5
11
330
3
100
AcDbSymbolTableRecord
100
AcDbTextStyleTableRecord
  2
STANDARD
 70
     0
 40
0.0
 41
1.0
 50
0.0
 71
     0
 42
2.5
  3
txt
  4

  0
ENDTAB
  0
TABLE
  2
VIEW
  5
6
330
0
100
AcDbSymbolTable
 70
     0
  0
ENDTAB
  0
TABLE
  2
UCS
  5
7
330
0
100
AcDbSymbolTable
 70
     0
  0
ENDTAB
  0
TABLE
  2
APPID
  5
9
330
0
100
AcDbSymbolTable
 70
     2
  0
APPID
  5
12
330
9
100
AcDbSymbolTableRecord
100
AcDbRegAppTableRecord
  2
ACAD
 70
     0
  0
ENDTAB
  0
TABLE
  2
DIMSTYLE
  5
A
330
0
100
AcDbSymbolTable
 70
     1
  0
DIMSTYLE
105
27
330
A
100
AcDbSymbolTableRecord
100
AcDbDimStyleTableRecord
  2
ISO-25
 70
     0
  3

  4

  5

  6

  7

 40
1.0
 41
2.5
 42
0.625
 43
3.75
 44
1.25
 45
0.0
 46
0.0
 47
0.0
 48
0.0
140
2.5
141
2.5
142
0.0
143
0.03937007874016
144
1.0
145
0.0
146
1.0
147
0.625
 71
     0
 72
     0
 73
     0
 74
     0
 75
     0
 76
     0
 77
     1
 78
     8
170
     0
171
     3
172
     1
173
     0
174
     0
175
     0
176
     0
177
     0
178
     0
270
     2
271
     2
272
     2
273
     2
274
     3
340
11
275
     0
280
     0
281
     0
282
     0
283
     0
284
     8
285
     0
286
     0
287
     3
288
     0
  0
ENDTAB
  0
TABLE
  2
BLOCK_RECORD
  5
1
330
0
100
AcDbSymbolTable
 70
     1
  0
BLOCK_RECORD
  5
1F
330
1
100
AcDbSymbolTableRecord
100
AcDbBlockTableRecord
  2
*MODEL_SPACE
  0
BLOCK_RECORD
  5
1B
330
1
100
AcDbSymbolTableRecord
100
AcDbBlockTableRecord
  2
*PAPER_SPACE
  0
ENDTAB
  0
ENDSEC
  0
SECTION
  2
BLOCKS
  0
BLOCK
  5
20
330
1F
100
AcDbEntity
  8
0
100
AcDbBlockBegin
  2
*MODEL_SPACE
 70
     0
 10
0.0
 20
0.0
 30
0.0
  3
*MODEL_SPACE
  1

  0
ENDBLK
  5
21
330
1F
100
AcDbEntity
  8
0
100
AcDbBlockEnd
  0
BLOCK
  5
1C
330
1B
100
AcDbEntity
 67
     1
  8
0
100
AcDbBlockBegin
  2
*PAPER_SPACE
  1

  0
ENDBLK
  5
1D
330
1B
100
AcDbEntity
 67
     1
  8
0
100
AcDbBlockEnd
  0
ENDSEC
  0
SECTION
  2
ENTITIES
0
DIMENSION
5
83
100
AcDbEntity
62
256
370
-1
6
ByLayer
1
total_width
3
Standard
70
0
71
5
72
1
41
1.0
100
AcDbAlignedDimension
13
29.894857
23
0.000000
33
0.0
14
152.404753
24
0.000000
34
0.0
50
0.000000
100
AcDbRotatedDimension
0
DIMENSION
5
83
100
AcDbEntity
62
256
370
-1
6
ByLayer
1
total_minx
3
Standard
70
0
71
5
72
1
41
1.0
100
AcDbAlignedDimension
13
29.894857
23
0.000000
33
0.0
14
0.000000
24
0.000000
34
0.0
50
0.000000
100
AcDbRotatedDimension
0
DIMENSION
5
83
100
AcDbEntity
62
256
370
-1
6
ByLayer
1
total_maxx
3
Standard
70
0
71
5
72
1
41
1.0
100
AcDbAlignedDimension
13
0.000000
23
0.000000
33
0.0
14
152.404753
24
0.000000
34
0.0
50
0.000000
100
AcDbRotatedDimension
0
DIMENSION
5
83
100
AcDbEntity
62
256
370
-1
6
ByLayer
1
total_height
3
Standard
70
0
71
5
72
1
41
1.0
100
AcDbAlignedDimension
13
0.000000
23
26.231867
33
0.0
14
0.000000
24
155.812484
34
0.0
50
90.000000
100
AcDbRotatedDimension
0
DIMENSION
5
83
100
AcDbEntity
62
256
370
-1
6
ByLayer
1
total_miny
3
Standard
70
0
71
5
72
1
41
1.0
100
AcDbAlignedDimension
13
26.231867
23
0.000000
33
0.0
14
0.000000
24
0.000000
34
0.0
50
0.000000
100
AcDbRotatedDimension
0
DIMENSION
5
83
100
AcDbEntity
62
256
370
-1
6
ByLayer
1
total_maxy
3
Standard
70
0
71
5
72
1
41
1.0
100
AcDbAlignedDimension
13
0.000000
23
0.000000
33
0.0
14
155.812484
24
0.000000
34
0.0
50
0.000000
100
AcDbRotatedDimension
0
DIMENSION
8
Layer_1
5
83
100
AcDbEntity
62
256
370
-1
6
ByLayer
1
Layer_1_width
3
Standard
70
0
71
5
72
1
41
1.0
100
AcDbAlignedDimension
13
29.894857
23
0.000000
33
0.0
14
152.404753
24
0.000000
34
0.0
50
0.000000
100
AcDbRotatedDimension
0
DIMENSION
8
Layer_1
5
83
100
AcDbEntity
62
256
370
-1
6
ByLayer
1
Layer_1_minx
3
Standard
70
0
71
5
72
1
41
1.0
100
AcDbAlignedDimension
13
29.894857
23
0.000000
33
0.0
14
0.000000
24
0.000000
34
0.0
50
0.000000
100
AcDbRotatedDimension
0
DIMENSION
8
Layer_1
5
83
100
AcDbEntity
62
256
370
-1
6
ByLayer
1
Layer_1_maxx
3
Standard
70
0
71
5
72
1
41
1.0
100
AcDbAlignedDimension
13
0.000000
23
0.000000
33
0.0
14
152.404753
24
0.000000
34
0.0
50
0.000000
100
AcDbRotatedDimension
0
DIMENSION
8
Layer_1
5
83
100
AcDbEntity
62
256
370
-1
6
ByLayer
1
Layer_1_height
3
Standard
70
0
71
5
72
1
41
1.0
100
AcDbAlignedDimension
13
0.000000
23
26.231867
33
0.0
14
0.000000
24
155.812484
34
0.0
50
90.000000
100
AcDbRotatedDimension
0
DIMENSION
8
Layer_1
5
83
100
AcDbEntity
62
256
370
-1
6
ByLayer
1
Layer_1_miny
3
Standard
70
0
71
5
72
1
41
1.0
100
AcDbAlignedDimension
13
26.231867
23
0.000000
33
0.0
14
0.000000
24
0.000000
34
0.0
50
0.000000
100
AcDbRotatedDimension
0
DIMENSION
8
Layer_1
5
83
100
AcDbEntity
62
256
370
-1
6
ByLayer
1
Layer_1_maxy
3
Standard
70
0
71
5
72
1
41
1.0
100
AcDbAlignedDimension
13
0.000000
23
0.000000
33
0.0
14
155.812484
24
0.000000
34
0.0
50
0.000000
100
AcDbRotatedDimension
62
0
0
LWPOLYLINE
100
AcDbPolyline
8
Layer_1
90
284
70
0
10
102.084570
20
26.231867
30
0.0
10
101.511573
20
26.436162
30
0.0
10
101.086991
20
26.772218
30
0.0
10
100.904957
20
27.037081
30
0.0
10
99.886646
20
26.976564
30
0.0
10
96.694094
20
26.803203
30
0.0
10
95.891539
20
26.798547
30
0.0
10
94.334957
20
26.736384
30
0.0
10
92.967787
20
26.867197
30
0.0
10
91.211916
20
27.011517
30
0.0
10
90.016955
20
27.038472
30
0.0
10
89.468514
20
27.174323
30
0.0
10
89.015505
20
27.297328
30
0.0
10
88.488551
20
27.234453
30
0.0
10
87.629731
20
27.146504
30
0.0
10
86.625585
20
27.241678
30
0.0
10
85.639065
20
27.319688
30
0.0
10
84.208631
20
27.211452
30
0.0
10
82.870340
20
27.160928
30
0.0
10
80.993951
20
27.312978
30
0.0
10
77.891109
20
27.442818
30
0.0
10
75.236852
20
27.345321
30
0.0
10
74.171663
20
27.242052
30
0.0
10
73.035724
20
27.340552
30
0.0
10
72.307913
20
27.416634
30
0.0
10
71.760915
20
27.311635
30
0.0
10
69.870268
20
26.947641
30
0.0
10
68.347511
20
27.113382
30
0.0
10
67.532130
20
27.227032
30
0.0
10
66.608082
20
27.072020
30
0.0
10
64.703593
20
26.708737
30
0.0
10
63.381046
20
26.700988
30
0.0
10
62.522546
20
26.946857
30
0.0
10
62.052338
20
27.140628
30
0.0
10
61.275234
20
26.917941
30
0.0
10
59.973573
20
26.545070
30
0.0
10
59.289690
20
26.478484
30
0.0
10
58.762222
20
26.590093
30
0.0
10
58.339380
20
26.905170
30
0.0
10
58.094444
20
27.062359
30
0.0
10
57.572622
20
26.933850
30
0.0
10
56.634975
20
26.686294
30
0.0
10
55.753895
20
26.637053
30
0.0
10
54.846851
20
26.703215
30
0.0
10
54.222599
20
27.003877
30
0.0
10
53.900940
20
27.164506
30
0.0
10
53.332586
20
27.143112
30
0.0
10
52.458580
20
27.047365
30
0.0
10
50.660794
20
26.626428
30
0.0
10
50.003058
20
26.476616
30
0.0
10
49.489218
20
26.639667
30
0.0
10
49.115260
20
27.028191
30
0.0
10
48.718941
20
27.353762
30
0.0
10
48.308021
20
27.398789
30
0.0
10
47.275177
20
27.158967
30
0.0
10
45.940751
20
26.948203
30
0.0
10
45.265504
20
27.017927
30
0.0
10
44.777550
20
27.263863
30
0.0
10
44.559795
20
27.373296
30
0.0
10
44.070826
20
27.361981
30
0.0
10
42.524731
20
27.229302
30
0.0
10
40.648596
20
27.163358
30
0.0
10
39.537519
20
27.183105
30
0.0
10
38.748406
20
27.059989
30
0.0
10
37.377384
20
26.973869
30
0.0
10
35.274614
20
26.896035
30
0.0
10
34.405406
20
26.847619
30
0.0
10
33.839480
20
27.021432
30
0.0
10
33.488254
20
27.132855
30
0.0
10
32.905198
20
27.044771
30
0.0
10
31.256206
20
26.824197
30
0.0
10
30.285713
20
27.047960
30
0.0
10
29.894857
20
27.532099
30
0.0
10
29.953879
20
28.148040
30
0.0
10
30.355652
20
28.541746
30
0.0
10
31.026975
20
28.574867
30
0.0
10
32.879467
20
28.779182
30
0.0
10
33.748555
20
28.855574
30
0.0
10
34.380751
20
28.678762
30
0.0
10
34.698330
20
28.557420
30
0.0
10
35.137742
20
28.614401
30
0.0
10
37.449543
20
28.662833
30
0.0
10
38.462450
20
28.744666
30
0.0
10
39.448800
20
28.899845
30
0.0
10
40.420389
20
28.872180
30
0.0
10
42.476626
20
28.936436
30
0.0
10
44.476515
20
29.093710
30
0.0
10
45.301891
20
29.027467
30
0.0
10
45.678358
20
28.780909
30
0.0
10
45.991176
20
28.631916
30
0.0
10
47.006293
20
28.852137
30
0.0
10
48.220822
20
29.090146
30
0.0
10
48.994997
20
29.043111
30
0.0
10
49.793364
20
28.843038
30
0.0
10
50.298932
20
28.752594
30
0.0
10
50.635222
20
28.861777
30
0.0
10
51.857306
20
29.234827
30
0.0
10
52.917566
20
29.379372
30
0.0
10
54.118293
20
29.364934
30
0.0
10
55.104467
20
29.187225
30
0.0
10
55.830546
20
29.030360
30
0.0
10
56.888880
20
29.191636
30
0.0
10
58.207303
20
29.377555
30
0.0
10
59.100461
20
29.309907
30
0.0
10
59.599043
20
29.005792
30
0.0
10
59.865440
20
28.816619
30
0.0
10
60.275188
20
28.894890
30
0.0
10
62.007685
20
29.174714
30
0.0
10
62.966400
20
28.977189
30
0.0
10
63.665261
20
28.776230
30
0.0
10
64.635459
20
28.942953
30
0.0
10
66.614840
20
29.240203
30
0.0
10
68.237422
20
29.157047
30
0.0
10
69.376689
20
29.031509
30
0.0
10
70.312571
20
29.180584
30
0.0
10
71.430566
20
29.365265
30
0.0
10
71.796797
20
29.388548
30
0.0
10
71.472552
20
29.614997
30
0.0
10
69.738734
20
31.135419
30
0.0
10
68.628870
20
32.652863
30
0.0
10
67.826710
20
34.325650
30
0.0
10
67.340292
20
36.132081
30
0.0
10
67.177649
20
38.050462
30
0.0
10
67.366027
20
40.138996
30
0.0
10
67.736805
20
41.501355
30
0.0
10
68.257751
20
42.780177
30
0.0
10
68.916898
20
43.950627
30
0.0
10
69.702279
20
44.987870
30
0.0
10
70.737574
20
46.005953
30
0.0
10
71.809127
20
46.809194
30
0.0
10
72.971156
20
47.415346
30
0.0
10
74.181444
20
47.845223
30
0.0
10
75.441339
20
48.099199
30
0.0
10
76.752193
20
48.177648
30
0.0
10
77.780113
20
48.120319
30
0.0
10
78.809607
20
47.870564
30
0.0
10
80.254191
20
47.301563
30
0.0
10
81.605717
20
46.482359
30
0.0
10
82.798062
20
45.460797
30
0.0
10
83.765105
20
44.284719
30
0.0
10
84.777679
20
42.373499
30
0.0
10
85.437842
20
39.960877
30
0.0
10
85.549942
20
37.777209
30
0.0
10
85.264464
20
35.585267
30
0.0
10
84.378127
20
33.370629
30
0.0
10
83.084811
20
31.378886
30
0.0
10
82.005176
20
30.323850
30
0.0
10
80.739917
20
29.401378
30
0.0
10
80.413891
20
29.141076
30
0.0
10
82.621131
20
28.935257
30
0.0
10
84.177516
20
29.059550
30
0.0
10
85.243592
20
29.200568
30
0.0
10
86.289687
20
29.126696
30
0.0
10
86.939468
20
29.068778
30
0.0
10
87.516391
20
29.161630
30
0.0
10
88.614258
20
29.280471
30
0.0
10
89.123700
20
29.257204
30
0.0
10
89.504218
20
29.102293
30
0.0
10
89.988014
20
28.943958
30
0.0
10
91.233329
20
28.909868
30
0.0
10
92.474857
20
28.878052
30
0.0
10
92.932146
20
28.735607
30
0.0
10
93.492627
20
28.595660
30
0.0
10
95.456502
20
28.581279
30
0.0
10
97.991018
20
28.635590
30
0.0
10
101.358443
20
28.981612
30
0.0
10
102.107702
20
28.838288
30
0.0
10
102.562214
20
28.341046
30
0.0
10
102.639080
20
28.192140
30
0.0
10
102.780677
20
28.150085
30
0.0
10
103.932115
20
28.430593
30
0.0
10
105.726640
20
28.761744
30
0.0
10
107.107115
20
28.649763
30
0.0
10
107.979329
20
28.529713
30
0.0
10
109.055411
20
28.657045
30
0.0
10
110.144494
20
28.788781
30
0.0
10
110.883443
20
28.685623
30
0.0
10
112.013935
20
28.616140
30
0.0
10
113.370400
20
28.651623
30
0.0
10
113.859431
20
28.684464
30
0.0
10
113.906331
20
28.940258
30
0.0
10
113.974993
20
29.514103
30
0.0
10
114.025951
20
29.971108
30
0.0
10
113.937398
20
31.804858
30
0.0
10
113.869882
20
33.584783
30
0.0
10
113.815021
20
34.115996
30
0.0
10
113.755331
20
34.571511
30
0.0
10
113.715755
20
38.756740
30
0.0
10
113.655718
20
44.939190
30
0.0
10
113.694701
20
47.181335
30
0.0
10
114.187824
20
47.634090
30
0.0
10
114.866764
20
47.565556
30
0.0
10
115.828885
20
47.436857
30
0.0
10
117.011871
20
47.400540
30
0.0
10
117.533070
20
47.419421
30
0.0
10
117.626960
20
48.814730
30
0.0
10
117.700055
20
50.351803
30
0.0
10
117.931585
20
50.718520
30
0.0
10
118.189443
20
51.037504
30
0.0
10
118.731470
20
51.484516
30
0.0
10
120.240069
20
51.417847
30
0.0
10
122.173819
20
51.317147
30
0.0
10
123.733850
20
51.262110
30
0.0
10
124.256927
20
51.118256
30
0.0
10
124.521510
20
51.024214
30
0.0
10
125.083096
20
50.660478
30
0.0
10
125.250710
20
49.408884
30
0.0
10
125.450544
20
47.513545
30
0.0
10
125.528671
20
47.402552
30
0.0
10
125.804490
20
47.347193
30
0.0
10
127.848400
20
47.337280
30
0.0
10
130.179995
20
47.361325
30
0.0
10
129.980408
20
50.079015
30
0.0
10
129.950948
20
50.582098
30
0.0
10
130.097733
20
50.937318
30
0.0
10
130.703139
20
51.241844
30
0.0
10
131.063935
20
51.289026
30
0.0
10
132.819806
20
51.353807
30
0.0
10
134.598229
20
51.305226
30
0.0
10
135.512243
20
51.246526
30
0.0
10
136.321948
20
51.204219
30
0.0
10
136.763142
20
50.947865
30
0.0
10
137.020653
20
50.583811
30
0.0
10
137.071673
20
49.886946
30
0.0
10
137.197871
20
48.475660
30
0.0
10
137.359415
20
47.441381
30
0.0
10
137.519642
20
47.253064
30
0.0
10
138.449002
20
47.233719
30
0.0
10
139.728620
20
47.321490
30
0.0
10
140.122265
20
47.355014
30
0.0
10
140.484789
20
47.176089
30
0.0
10
140.740980
20
46.744000
30
0.0
10
140.758551
20
45.387593
30
0.0
10
140.708391
20
38.861766
30
0.0
10
140.612058
20
32.968771
30
0.0
10
140.505361
20
31.470327
30
0.0
10
140.564139
20
30.243464
30
0.0
10
140.709969
20
29.209182
30
0.0
10
140.904217
20
28.652250
30
0.0
10
141.365958
20
28.661987
30
0.0
10
144.341207
20
28.921476
30
0.0
10
145.232176
20
28.921943
30
0.0
10
145.729427
20
28.685453
30
0.0
10
146.039438
20
28.555126
30
0.0
10
147.079826
20
28.537575
30
0.0
10
148.294192
20
28.506527
30
0.0
10
149.570942
20
28.480591
30
0.0
10
151.019931
20
28.432670
30
0.0
10
152.163760
20
27.829634
30
0.0
10
152.404753
20
27.360094
30
0.0
10
152.332103
20
26.827932
30
0.0
10
152.109850
20
26.518763
30
0.0
10
151.788180
20
26.334985
30
0.0
10
150.859577
20
26.347835
30
0.0
10
150.088913
20
26.418280
30
0.0
10
149.270898
20
26.512139
30
0.0
10
148.260046
20
26.730719
30
0.0
10
146.770561
20
26.800023
30
0.0
10
145.087453
20
26.941187
30
0.0
10
144.745648
20
27.144811
30
0.0
10
143.374025
20
27.140860
30
0.0
10
141.214311
20
26.942632
30
0.0
10
140.136849
20
26.866847
30
0.0
10
139.675001
20
26.988637
30
0.0
10
136.489465
20
27.118750
30
0.0
10
127.792723
20
27.290265
30
0.0
10
122.428897
20
27.234185
30
0.0
10
115.503130
20
27.231363
30
0.0
10
114.981824
20
27.263800
30
0.0
10
114.787282
20
27.118767
30
0.0
10
114.511557
20
26.874013
30
0.0
10
114.125447
20
26.807608
30
0.0
10
113.642710
20
26.898086
30
0.0
10
112.826577
20
26.946979
30
0.0
10
110.763177
20
26.952341
30
0.0
10
110.180373
20
27.026417
30
0.0
10
109.464314
20
26.924965
30
0.0
10
108.261661
20
26.769963
30
0.0
10
107.083064
20
26.898019
30
0.0
10
105.916708
20
27.029020
30
0.0
10
104.304567
20
26.640954
30
0.0
10
102.896784
20
26.276625
30
0.0
10
102.084570
20
26.231906
30
0.0
10
102.084570
20
26.231867
30
0.0
62
0
0
LWPOLYLINE
100
AcDbPolyline
8
Layer_1
90
32
70
0
10
139.030470
20
28.860377
30
0.0
10
138.901464
20
29.882632
30
0.0
10
138.820864
20
31.406222
30
0.0
10
138.924944
20
33.045417
30
0.0
10
139.029824
20
39.606940
30
0.0
10
139.021760
20
44.786578
30
0.0
10
138.934067
20
45.424755
30
0.0
10
138.756424
20
45.498252
30
0.0
10
138.051580
20
45.388443
30
0.0
10
137.378093
20
45.410484
30
0.0
10
135.641645
20
45.605271
30
0.0
10
130.414497
20
45.635762
30
0.0
10
124.858247
20
45.569638
30
0.0
10
121.407188
20
45.523779
30
0.0
10
117.209384
20
45.686630
30
0.0
10
115.723800
20
45.757457
30
0.0
10
115.491268
20
45.738856
30
0.0
10
115.375520
20
45.608650
30
0.0
10
115.356722
20
44.567001
30
0.0
10
115.406074
20
39.070884
30
0.0
10
115.471095
20
34.404596
30
0.0
10
115.622220
20
31.459957
30
0.0
10
115.718432
20
30.132139
30
0.0
10
115.808626
20
29.583109
30
0.0
10
115.717868
20
29.233193
30
0.0
10
115.621655
20
28.987214
30
0.0
10
115.922318
20
28.893550
30
0.0
10
122.452714
20
28.926161
30
0.0
10
128.971085
20
28.927572
30
0.0
10
137.573286
20
28.784200
30
0.0
10
139.030236
20
28.860434
30
0.0
10
139.030470
20
28.860377
30
0.0
62
0
0
LWPOLYLINE
100
AcDbPolyline
8
Layer_1
90
39
70
0
10
126.105243
20
30.136332
30
0.0
10
125.828538
20
30.412944
30
0.0
10
125.737025
20
31.109336
30
0.0
10
125.957968
20
32.696836
30
0.0
10
126.413618
20
34.572973
30
0.0
10
126.838972
20
36.304324
30
0.0
10
126.566018
20
36.436438
30
0.0
10
125.483631
20
36.510420
30
0.0
10
124.581172
20
36.613461
30
0.0
10
124.163802
20
36.922608
30
0.0
10
124.016397
20
37.451775
30
0.0
10
124.084926
20
37.870299
30
0.0
10
124.564628
20
38.734148
30
0.0
10
126.225393
20
41.259715
30
0.0
10
126.839924
20
42.216592
30
0.0
10
127.123393
20
42.673600
30
0.0
10
127.408548
20
43.076018
30
0.0
10
127.663025
20
43.421425
30
0.0
10
127.998853
20
43.597410
30
0.0
10
128.369513
20
43.592696
30
0.0
10
128.728487
20
43.396004
30
0.0
10
128.990736
20
42.822444
30
0.0
10
128.808232
20
42.072303
30
0.0
10
128.658146
20
41.716723
30
0.0
10
128.486275
20
41.259715
30
0.0
10
127.483370
20
38.257768
30
0.0
10
128.477744
20
38.228230
30
0.0
10
129.620752
20
38.156950
30
0.0
10
130.110477
20
37.785094
30
0.0
10
130.230160
20
37.206448
30
0.0
10
129.908351
20
36.283903
30
0.0
10
129.399657
20
34.864774
30
0.0
10
128.874218
20
33.322215
30
0.0
10
127.991414
20
31.436216
30
0.0
10
127.325631
20
30.420626
30
0.0
10
126.920540
20
30.119963
30
0.0
10
126.494797
20
30.026985
30
0.0
10
126.105243
20
30.136332
30
0.0
10
126.105243
20
30.136332
30
0.0
62
0
0
LWPOLYLINE
100
AcDbPolyline
8
Layer_1
90
39
70
0
10
77.436435
20
29.908689
30
0.0
10
79.003661
20
30.386068
30
0.0
10
80.458409
20
31.207487
30
0.0
10
81.508155
20
32.131985
30
0.0
10
82.328907
20
33.103871
30
0.0
10
83.530443
20
35.585321
30
0.0
10
83.813868
20
36.800183
30
0.0
10
83.890640
20
38.301193
30
0.0
10
83.834628
20
39.516690
30
0.0
10
83.578514
20
40.706494
30
0.0
10
82.950395
20
42.250832
30
0.0
10
81.968526
20
43.763636
30
0.0
10
80.454974
20
45.212526
30
0.0
10
79.597962
20
45.729700
30
0.0
10
78.662081
20
46.117267
30
0.0
10
77.687079
20
46.370821
30
0.0
10
76.583822
20
46.463520
30
0.0
10
75.159805
20
46.365513
30
0.0
10
74.073545
20
46.068726
30
0.0
10
73.101410
20
45.640395
30
0.0
10
72.209599
20
45.062270
30
0.0
10
71.364314
20
44.316100
30
0.0
10
70.608373
20
43.453435
30
0.0
10
69.988950
20
42.515821
30
0.0
10
69.498350
20
41.489640
30
0.0
10
69.128874
20
40.361277
30
0.0
10
68.880817
20
39.148731
30
0.0
10
68.835267
20
37.916344
30
0.0
10
68.907218
20
36.820244
30
0.0
10
69.133675
20
35.703465
30
0.0
10
69.578104
20
34.419714
30
0.0
10
70.244158
20
33.204458
30
0.0
10
71.093750
20
32.115598
30
0.0
10
72.088793
20
31.211037
30
0.0
10
73.649352
20
30.325020
30
0.0
10
74.702418
20
30.007345
30
0.0
10
75.862231
20
29.823018
30
0.0
10
77.436435
20
29.908689
30
0.0
10
77.436435
20
29.908689
30
0.0
62
0
0
LWPOLYLINE
100
AcDbPolyline
8
Layer_1
90
18
70
0
10
76.185801
20
37.101024
30
0.0
10
75.673287
20
37.283482
30
0.0
10
75.244198
20
37.629699
30
0.0
10
74.902617
20
38.245882
30
0.0
10
74.846501
20
38.958717
30
0.0
10
75.067006
20
39.690491
30
0.0
10
75.555289
20
40.363490
30
0.0
10
75.979839
20
40.668744
30
0.0
10
76.497832
20
40.753544
30
0.0
10
77.141771
20
40.644173
30
0.0
10
77.668936
20
40.277745
30
0.0
10
78.173830
20
39.458652
30
0.0
10
78.174540
20
38.477077
30
0.0
10
77.909712
20
37.784594
30
0.0
10
77.481153
20
37.318316
30
0.0
10
76.902102
20
37.087406
30
0.0
10
76.185801
20
37.101024
30
0.0
10
76.185801
20
37.101024
30
0.0
62
0
0
LWPOLYLINE
100
AcDbPolyline
8
Layer_1
90
19
70
0
10
123.579800
20
48.230130
30
0.0
10
123.556179
20
49.116720
30
0.0
10
123.410897
20
49.525829
30
0.0
10
122.917704
20
49.644470
30
0.0
10
121.850348
20
49.659659
30
0.0
10
119.903327
20
49.766209
30
0.0
10
119.458348
20
49.844957
30
0.0
10
119.342593
20
49.784259
30
0.0
10
119.326056
20
49.349214
30
0.0
10
119.294489
20
48.051373
30
0.0
10
119.291577
20
47.588430
30
0.0
10
119.389574
20
47.349380
30
0.0
10
120.244582
20
47.237912
30
0.0
10
122.419353
20
47.219907
30
0.0
10
123.108605
20
47.232898
30
0.0
10
123.459236
20
47.342460
30
0.0
10
123.580037
20
47.643303
30
0.0
10
123.579800
20
48.230135
30
0.0
10
123.579800
20
48.230130
30
0.0
62
0
0
LWPOLYLINE
100
AcDbPolyline
8
Layer_1
90
10
70
0
10
135.681889
20
47.356370
30
0.0
10
135.367900
20
49.494149
30
0.0
10
134.683935
20
49.628639
30
0.0
10
131.758710
20
49.683856
30
0.0
10
131.744034
20
49.286465
30
0.0
10
131.810670
20
48.162935
30
0.0
10
131.859364
20
47.358616
30
0.0
10
133.779633
20
47.310508
30
0.0
10
135.681895
20
47.356370
30
0.0
10
135.681889
20
47.356370
30
0.0
62
0
0
LWPOLYLINE
100
AcDbPolyline
8
Layer_1
90
25
70
0
10
55.272838
20
31.752788
30
0.0
10
54.566661
20
32.292585
30
0.0
10
54.017350
20
33.081685
30
0.0
10
53.829608
20
33.764406
30
0.0
10
53.807521
20
34.939541
30
0.0
10
54.050655
20
36.307982
30
0.0
10
54.502834
20
37.650696
30
0.0
10
55.107885
20
38.748651
30
0.0
10
55.839065
20
39.373878
30
0.0
10
56.678644
20
39.524759
30
0.0
10
57.394028
20
39.270691
30
0.0
10
57.861031
20
38.761235
30
0.0
10
57.970516
20
38.205128
30
0.0
10
57.861595
20
37.649215
30
0.0
10
57.586934
20
37.292486
30
0.0
10
57.189692
20
37.028989
30
0.0
10
56.879549
20
36.773897
30
0.0
10
56.332148
20
34.614508
30
0.0
10
56.199821
20
33.654749
30
0.0
10
56.375224
20
33.159082
30
0.0
10
56.586638
20
32.454088
30
0.0
10
56.300088
20
31.870210
30
0.0
10
55.824949
20
31.668928
30
0.0
10
55.273154
20
31.752788
30
0.0
10
55.272838
20
31.752788
30
0.0
62
0
0
LWPOLYLINE
100
AcDbPolyline
8
Layer_1
90
21
70
0
10
59.452307
20
32.237669
30
0.0
10
58.595390
20
33.157033
30
0.0
10
58.394948
20
34.040312
30
0.0
10
58.544008
20
35.294564
30
0.0
10
59.116493
20
36.733853
30
0.0
10
59.439198
20
37.110282
30
0.0
10
59.833071
20
37.306486
30
0.0
10
60.250034
20
37.310587
30
0.0
10
60.642009
20
37.110707
30
0.0
10
60.961228
20
36.523534
30
0.0
10
60.800889
20
35.750215
30
0.0
10
60.370946
20
34.396674
30
0.0
10
60.371517
20
34.080486
30
0.0
10
60.575021
20
33.790879
30
0.0
10
60.870108
20
33.297930
30
0.0
10
60.879538
20
32.830143
30
0.0
10
60.670409
20
32.415999
30
0.0
10
60.325404
20
32.163669
30
0.0
10
59.900658
20
32.096458
30
0.0
10
59.452307
20
32.237669
30
0.0
10
59.452307
20
32.237669
30
0.0
62
0
0
LWPOLYLINE
100
AcDbPolyline
8
Layer_1
90
21
70
0
10
88.771386
20
32.433113
30
0.0
10
88.497141
20
32.674469
30
0.0
10
88.371751
20
33.002267
30
0.0
10
88.401401
20
33.371466
30
0.0
10
88.592282
20
33.737025
30
0.0
10
88.810641
20
34.381584
30
0.0
10
88.705995
20
35.174761
30
0.0
10
88.691214
20
35.943873
30
0.0
10
88.891638
20
36.214247
30
0.0
10
89.217940
20
36.378642
30
0.0
10
89.612442
20
36.373557
30
0.0
10
89.969556
20
36.153551
30
0.0
10
90.267735
20
35.739470
30
0.0
10
90.485434
20
35.152163
30
0.0
10
90.559446
20
34.523670
30
0.0
10
90.483325
20
33.877242
30
0.0
10
90.270015
20
33.268973
30
0.0
10
89.932459
20
32.754957
30
0.0
10
89.360420
20
32.366005
30
0.0
10
88.771386
20
32.433113
30
0.0
10
88.771386
20
32.433113
30
0.0
62
0
0
LWPOLYLINE
100
AcDbPolyline
8
Layer_1
90
22
70
0
10
92.777067
20
32.454506
30
0.0
10
92.404968
20
32.667283
30
0.0
10
92.160379
20
33.004764
30
0.0
10
92.060257
20
33.429455
30
0.0
10
92.121558
20
33.903864
30
0.0
10
92.148059
20
34.927026
30
0.0
10
91.880594
20
35.324598
30
0.0
10
91.598158
20
35.722596
30
0.0
10
91.520747
20
36.155791
30
0.0
10
91.568427
20
36.529653
30
0.0
10
91.765526
20
36.831439
30
0.0
10
92.364395
20
37.181370
30
0.0
10
93.049711
20
37.079504
30
0.0
10
93.600753
20
36.623520
30
0.0
10
94.047527
20
35.981727
30
0.0
10
94.299189
20
35.220190
30
0.0
10
94.345991
20
34.308384
30
0.0
10
94.138507
20
33.173576
30
0.0
10
93.609061
20
32.544478
30
0.0
10
93.196852
20
32.415711
30
0.0
10
92.777062
20
32.454506
30
0.0
10
92.777067
20
32.454506
30
0.0
62
0
0
LWPOLYLINE
100
AcDbPolyline
8
Layer_1
90
512
70
0
10
64.181358
20
40.899732
30
0.0
10
63.687085
20
41.278183
30
0.0
10
63.535650
20
41.907068
30
0.0
10
64.484445
20
43.979638
30
0.0
10
66.149511
20
46.581404
30
0.0
10
67.443844
20
48.095150
30
0.0
10
68.832882
20
49.425735
30
0.0
10
70.278444
20
50.540226
30
0.0
10
71.742351
20
51.405688
30
0.0
10
74.182780
20
52.349253
30
0.0
10
75.054810
20
52.516969
30
0.0
10
75.587366
20
52.610484
30
0.0
10
75.475617
20
54.873731
30
0.0
10
75.424185
20
56.509336
30
0.0
10
75.351469
20
57.691588
30
0.0
10
75.231885
20
57.847589
30
0.0
10
75.004337
20
57.885530
30
0.0
10
74.226626
20
57.990974
30
0.0
10
73.641074
20
58.097634
30
0.0
10
73.203950
20
58.280389
30
0.0
10
72.899349
20
58.632573
30
0.0
10
72.798581
20
59.158996
30
0.0
10
72.779831
20
61.440207
30
0.0
10
72.742472
20
64.050664
30
0.0
10
72.603521
20
65.228560
30
0.0
10
72.547426
20
65.374569
30
0.0
10
72.373890
20
65.449546
30
0.0
10
71.117079
20
65.481115
30
0.0
10
69.312014
20
65.408968
30
0.0
10
68.515526
20
65.387011
30
0.0
10
68.039771
20
65.727914
30
0.0
10
67.853631
20
66.319143
30
0.0
10
67.591288
20
67.185055
30
0.0
10
67.039307
20
68.755297
30
0.0
10
66.431818
20
70.487117
30
0.0
10
65.737641
20
72.458286
30
0.0
10
65.063139
20
74.406582
30
0.0
10
64.317711
20
76.497394
30
0.0
10
63.619439
20
78.469744
30
0.0
10
60.877523
20
86.383190
30
0.0
10
58.758269
20
94.339049
30
0.0
10
58.269124
20
96.198199
30
0.0
10
57.894615
20
96.116010
30
0.0
10
57.095246
20
96.044577
30
0.0
10
56.707827
20
96.030014
30
0.0
10
56.627299
20
95.787018
30
0.0
10
56.384431
20
94.907972
30
0.0
10
55.926121
20
94.199699
30
0.0
10
55.397272
20
93.787835
30
0.0
10
54.654631
20
93.461580
30
0.0
10
54.832295
20
93.141950
30
0.0
10
55.276739
20
92.494252
30
0.0
10
55.477862
20
91.687376
30
0.0
10
55.336451
20
90.644073
30
0.0
10
54.788356
20
89.635988
30
0.0
10
53.733443
20
88.706531
30
0.0
10
53.525759
20
88.594940
30
0.0
10
53.632648
20
88.340537
30
0.0
10
53.946784
20
87.305059
30
0.0
10
53.930254
20
86.292958
30
0.0
10
53.651125
20
85.562913
30
0.0
10
53.187881
20
84.926139
30
0.0
10
52.556515
20
84.399631
30
0.0
10
51.773020
20
84.000388
30
0.0
10
50.416045
20
83.714017
30
0.0
10
49.366723
20
83.880537
30
0.0
10
48.539821
20
84.452460
30
0.0
10
47.950806
20
85.315517
30
0.0
10
47.939390
20
86.132097
30
0.0
10
47.974464
20
86.307676
30
0.0
10
47.852491
20
86.467208
30
0.0
10
47.628496
20
86.809213
30
0.0
10
47.523104
20
87.290910
30
0.0
10
47.485038
20
87.609872
30
0.0
10
47.215072
20
87.508032
30
0.0
10
46.549443
20
87.384831
30
0.0
10
45.771889
20
87.413869
30
0.0
10
44.066302
20
88.004972
30
0.0
10
43.288884
20
88.646020
30
0.0
10
42.647128
20
89.491902
30
0.0
10
42.346620
20
90.056648
30
0.0
10
42.163347
20
90.574744
30
0.0
10
42.114426
20
91.238277
30
0.0
10
42.196511
20
91.912336
30
0.0
10
42.406257
20
92.462009
30
0.0
10
42.491245
20
92.636267
30
0.0
10
41.899352
20
92.730083
30
0.0
10
40.902253
20
92.905731
30
0.0
10
40.268116
20
93.145460
30
0.0
10
39.310752
20
93.914693
30
0.0
10
38.792057
20
94.969305
30
0.0
10
38.789228
20
96.078040
30
0.0
10
39.061525
20
97.348159
30
0.0
10
39.181360
20
97.723243
30
0.0
10
38.904751
20
97.672514
30
0.0
10
37.641967
20
97.593712
30
0.0
10
36.402492
20
97.666431
30
0.0
10
35.331490
20
98.027580
30
0.0
10
34.290684
20
98.627149
30
0.0
10
33.338110
20
99.634362
30
0.0
10
32.960434
20
99.990698
30
0.0
10
32.665198
20
100.221753
30
0.0
10
32.467931
20
100.571608
30
0.0
10
32.498455
20
100.985185
30
0.0
10
32.824609
20
101.571098
30
0.0
10
33.616018
20
102.476951
30
0.0
10
34.532782
20
103.011580
30
0.0
10
35.124624
20
103.075325
30
0.0
10
35.789974
20
102.789330
30
0.0
10
36.306023
20
102.543167
30
0.0
10
36.598198
20
102.518255
30
0.0
10
36.712011
20
102.779932
30
0.0
10
36.534612
20
103.154548
30
0.0
10
35.699296
20
103.767975
30
0.0
10
34.961065
20
104.347236
30
0.0
10
34.851624
20
104.766961
30
0.0
10
34.943596
20
105.245800
30
0.0
10
36.564807
20
107.173674
30
0.0
10
36.727889
20
107.381367
30
0.0
10
37.121477
20
107.790147
30
0.0
10
37.663611
20
107.853336
30
0.0
10
38.136638
20
107.564420
30
0.0
10
38.979297
20
106.999230
30
0.0
10
39.477058
20
106.666138
30
0.0
10
40.129910
20
105.972927
30
0.0
10
41.384262
20
104.123820
30
0.0
10
41.768115
20
103.219400
30
0.0
10
41.924021
20
102.266171
30
0.0
10
41.802772
20
100.003570
30
0.0
10
41.731192
20
99.718249
30
0.0
10
42.272385
20
99.703094
30
0.0
10
43.407079
20
99.523194
30
0.0
10
44.285541
20
98.917771
30
0.0
10
44.798211
20
98.193225
30
0.0
10
45.438438
20
96.133398
30
0.0
10
45.442639
20
95.152483
30
0.0
10
45.196966
20
94.243395
30
0.0
10
45.171946
20
94.087777
30
0.0
10
45.535794
20
94.039464
30
0.0
10
46.351818
20
93.907265
30
0.0
10
47.078802
20
93.628183
30
0.0
10
47.732406
20
93.194129
30
0.0
10
48.328286
20
92.597015
30
0.0
10
49.043652
20
91.314157
30
0.0
10
49.067161
20
90.159532
30
0.0
10
49.391556
20
90.215754
30
0.0
10
49.700671
20
90.396153
30
0.0
10
49.794208
20
90.634284
30
0.0
10
49.831376
20
90.797042
30
0.0
10
49.669169
20
90.963829
30
0.0
10
49.402630
20
91.268392
30
0.0
10
49.366476
20
92.034411
30
0.0
10
49.654754
20
92.965276
30
0.0
10
50.100783
20
93.530973
30
0.0
10
50.711612
20
93.989471
30
0.0
10
51.448397
20
94.274877
30
0.0
10
51.825497
20
94.371710
30
0.0
10
51.675640
20
94.601357
30
0.0
10
51.336153
20
95.117924
30
0.0
10
51.236152
20
95.836029
30
0.0
10
51.348019
20
96.645567
30
0.0
10
51.721419
20
97.333630
30
0.0
10
52.291269
20
97.933239
30
0.0
10
52.912481
20
98.362637
30
0.0
10
53.908571
20
98.674287
30
0.0
10
53.965066
20
99.191428
30
0.0
10
53.989917
20
100.338047
30
0.0
10
54.180822
20
101.356134
30
0.0
10
54.529310
20
102.216191
30
0.0
10
55.026907
20
102.888720
30
0.0
10
55.826045
20
103.446933
30
0.0
10
56.406742
20
103.693095
30
0.0
10
56.513972
20
103.777233
30
0.0
10
56.527009
20
104.172091
30
0.0
10
56.651584
20
104.815248
30
0.0
10
56.949727
20
105.089991
30
0.0
10
57.219461
20
105.310596
30
0.0
10
57.808712
20
105.701171
30
0.0
10
58.592144
20
105.820427
30
0.0
10
59.818849
20
105.964256
30
0.0
10
61.574722
20
106.109397
30
0.0
10
63.258435
20
106.253763
30
0.0
10
64.220556
20
106.371367
30
0.0
10
68.790631
20
106.732076
30
0.0
10
69.530335
20
106.785653
30
0.0
10
69.668505
20
106.835852
30
0.0
10
69.661145
20
107.036035
30
0.0
10
69.585030
20
108.369933
30
0.0
10
69.509880
20
109.670328
30
0.0
10
69.434541
20
109.781117
30
0.0
10
69.022103
20
109.837854
30
0.0
10
65.791560
20
109.860475
30
0.0
10
62.534782
20
109.875112
30
0.0
10
61.863359
20
109.986039
30
0.0
10
61.384132
20
110.472514
30
0.0
10
61.326816
20
110.948644
30
0.0
10
61.538643
20
111.384952
30
0.0
10
61.554391
20
112.082490
30
0.0
10
61.452215
20
113.009892
30
0.0
10
61.094205
20
116.738112
30
0.0
10
60.947421
20
118.863564
30
0.0
10
60.847241
20
120.121697
30
0.0
10
60.767445
20
120.586102
30
0.0
10
60.401206
20
120.670407
30
0.0
10
59.097266
20
120.700123
30
0.0
10
58.049929
20
120.769028
30
0.0
10
57.560893
20
121.051904
30
0.0
10
57.305027
20
121.479477
30
0.0
10
57.303546
20
122.326753
30
0.0
10
57.359344
20
124.567789
30
0.0
10
57.557752
20
127.849957
30
0.0
10
57.654354
20
129.098624
30
0.0
10
57.707742
20
130.014303
30
0.0
10
57.939744
20
130.379158
30
0.0
10
58.304599
20
130.611160
30
0.0
10
60.343618
20
130.615478
30
0.0
10
60.801496
20
130.580234
30
0.0
10
60.775475
20
131.530725
30
0.0
10
60.731214
20
135.714207
30
0.0
10
60.964437
20
136.099836
30
0.0
10
61.303196
20
136.323110
30
0.0
10
61.543723
20
136.508741
30
0.0
10
61.815769
20
136.792490
30
0.0
10
62.293822
20
137.035289
30
0.0
10
63.851335
20
137.293878
30
0.0
10
67.636080
20
137.375299
30
0.0
10
69.625454
20
137.403669
30
0.0
10
69.985153
20
137.536391
30
0.0
10
71.794593
20
139.179887
30
0.0
10
73.011933
20
139.830463
30
0.0
10
73.338264
20
139.997183
30
0.0
10
73.385655
20
140.376453
30
0.0
10
73.433158
20
142.147770
30
0.0
10
73.454438
20
143.566899
30
0.0
10
73.137923
20
143.821825
30
0.0
10
72.661079
20
144.261175
30
0.0
10
72.287889
20
144.843596
30
0.0
10
72.159805
20
145.529588
30
0.0
10
72.294776
20
146.227641
30
0.0
10
72.836518
20
146.952806
30
0.0
10
73.525499
20
147.544870
30
0.0
10
74.249116
20
147.732462
30
0.0
10
75.197934
20
147.594507
30
0.0
10
75.999825
20
147.049933
30
0.0
10
76.464634
20
146.439374
30
0.0
10
76.608987
20
146.100496
30
0.0
10
76.631837
20
145.599421
30
0.0
10
76.607635
20
145.091020
30
0.0
10
76.453379
20
144.706543
30
0.0
10
76.031888
20
144.116944
30
0.0
10
75.446628
20
143.659081
30
0.0
10
75.209056
20
143.402591
30
0.0
10
75.146885
20
142.510620
30
0.0
10
75.067891
20
140.917631
30
0.0
10
75.047994
20
140.280226
30
0.0
10
75.325777
20
140.237921
30
0.0
10
76.276799
20
140.013890
30
0.0
10
77.462182
20
139.308171
30
0.0
10
78.289027
20
138.609790
30
0.0
10
78.864700
20
137.786274
30
0.0
10
79.064569
20
137.471271
30
0.0
10
79.306579
20
137.312720
30
0.0
10
80.548412
20
137.272189
30
0.0
10
82.645168
20
137.374342
30
0.0
10
85.651797
20
137.375471
30
0.0
10
86.788269
20
137.303730
30
0.0
10
87.494870
20
137.236846
30
0.0
10
87.922633
20
136.980924
30
0.0
10
88.330021
20
136.730427
30
0.0
10
88.728266
20
136.429180
30
0.0
10
89.012082
20
135.709192
30
0.0
10
89.428034
20
133.335280
30
0.0
10
89.644104
20
130.864074
30
0.0
10
89.670146
20
130.600292
30
0.0
10
89.849051
20
130.588120
30
0.0
10
90.826483
20
130.646712
30
0.0
10
91.788607
20
130.579018
30
0.0
10
92.060096
20
130.391422
30
0.0
10
92.187084
20
130.193312
30
0.0
10
92.253752
20
129.694930
30
0.0
10
92.296750
20
126.187541
30
0.0
10
92.295750
20
122.855413
30
0.0
10
92.182402
20
122.208107
30
0.0
10
91.909034
20
121.935209
30
0.0
10
91.637688
20
121.623176
30
0.0
10
91.313144
20
121.249911
30
0.0
10
91.058998
20
121.134123
30
0.0
10
90.477851
20
121.119719
30
0.0
10
90.107373
20
121.099847
30
0.0
10
89.917132
20
120.945398
30
0.0
10
89.837071
20
119.700593
30
0.0
10
89.934742
20
116.762025
30
0.0
10
90.069554
20
111.054715
30
0.0
10
89.638934
20
110.529359
30
0.0
10
89.288137
20
110.245452
30
0.0
10
88.899936
20
109.991163
30
0.0
10
88.347592
20
109.923780
30
0.0
10
84.641569
20
110.021590
30
0.0
10
82.188160
20
110.065625
30
0.0
10
80.948540
20
110.004925
30
0.0
10
80.798351
20
109.889097
30
0.0
10
80.785970
20
109.666380
30
0.0
10
81.028136
20
106.903667
30
0.0
10
91.183993
20
106.780017
30
0.0
10
96.365526
20
106.750405
30
0.0
10
97.179465
20
106.685102
30
0.0
10
97.538548
20
106.560990
30
0.0
10
97.884716
20
106.284260
30
0.0
10
98.113196
20
105.895531
30
0.0
10
98.203198
20
105.449307
30
0.0
10
98.133933
20
105.000092
30
0.0
10
98.079876
20
104.742296
30
0.0
10
98.280474
20
104.600993
30
0.0
10
99.105455
20
103.828844
30
0.0
10
99.533730
20
103.219157
30
0.0
10
100.056950
20
102.292207
30
0.0
10
100.258657
20
101.230836
30
0.0
10
100.310406
20
100.840898
30
0.0
10
100.478965
20
100.810963
30
0.0
10
101.671114
20
100.818357
30
0.0
10
102.365105
20
100.621029
30
0.0
10
102.956074
20
100.288700
30
0.0
10
103.438146
20
99.825724
30
0.0
10
103.805445
20
99.236457
30
0.0
10
104.011072
20
98.553684
30
0.0
10
104.059220
20
97.859382
30
0.0
10
103.602533
20
96.378990
30
0.0
10
103.499144
20
96.131690
30
0.0
10
103.944126
20
95.784289
30
0.0
10
104.813609
20
95.044932
30
0.0
10
105.467396
20
94.276937
30
0.0
10
105.757198
20
93.267824
30
0.0
10
105.465702
20
92.167462
30
0.0
10
105.035170
20
91.523948
30
0.0
10
104.410753
20
90.976930
30
0.0
10
104.362278
20
90.888580
30
0.0
10
104.603999
20
90.713543
30
0.0
10
105.039656
20
90.327540
30
0.0
10
105.353929
20
89.829662
30
0.0
10
105.529545
20
89.257635
30
0.0
10
105.549226
20
88.649183
30
0.0
10
105.392283
20
88.088404
30
0.0
10
105.059700
20
87.546091
30
0.0
10
104.584930
20
87.064664
30
0.0
10
104.001420
20
86.686537
30
0.0
10
103.657544
20
86.457131
30
0.0
10
103.864489
20
86.154074
30
0.0
10
104.458800
20
85.293880
30
0.0
10
104.688476
20
84.307965
30
0.0
10
104.583189
20
83.084499
30
0.0
10
104.205699
20
81.958578
30
0.0
10
103.734734
20
81.354414
30
0.0
10
103.149973
20
80.906352
30
0.0
10
102.942300
20
80.762367
30
0.0
10
103.149973
20
80.564632
30
0.0
10
103.642345
20
80.113040
30
0.0
10
103.944595
20
79.620568
30
0.0
10
104.069453
20
79.055706
30
0.0
10
104.029645
20
78.386948
30
0.0
10
103.717694
20
77.336589
30
0.0
10
103.167547
20
76.545350
30
0.0
10
102.341295
20
75.976482
30
0.0
10
101.437502
20
75.775653
30
0.0
10
101.238213
20
75.753334
30
0.0
10
101.411538
20
75.597100
30
0.0
10
102.961999
20
74.313889
30
0.0
10
103.373700
20
73.834614
30
0.0
10
103.825125
20
73.009557
30
0.0
10
104.420104
20
71.542097
30
0.0
10
104.691773
20
70.205140
30
0.0
10
104.683955
20
68.776223
30
0.0
10
104.582591
20
67.894551
30
0.0
10
104.364578
20
67.460328
30
0.0
10
104.220639
20
67.045719
30
0.0
10
104.148924
20
66.649524
30
0.0
10
103.899383
20
66.361381
30
0.0
10
103.334083
20
66.230573
30
0.0
10
101.267461
20
66.657635
30
0.0
10
100.267612
20
67.036557
30
0.0
10
99.687741
20
67.398378
30
0.0
10
99.517453
20
67.713377
30
0.0
10
99.491944
20
68.070044
30
0.0
10
99.456048
20
68.371232
30
0.0
10
99.357908
20
69.097192
30
0.0
10
99.176823
20
70.000640
30
0.0
10
98.963927
20
70.187903
30
0.0
10
98.626436
20
70.267709
30
0.0
10
97.974503
20
70.218373
30
0.0
10
97.259250
20
69.807458
30
0.0
10
96.674330
20
69.398117
30
0.0
10
96.226116
20
69.227943
30
0.0
10
95.607307
20
69.160978
30
0.0
10
94.692504
20
69.488476
30
0.0
10
93.854815
20
69.861814
30
0.0
10
93.242493
20
70.202185
30
0.0
10
92.968197
20
70.547295
30
0.0
10
92.931014
20
71.208113
30
0.0
10
92.975935
20
71.713243
30
0.0
10
93.218926
20
72.203220
30
0.0
10
94.204266
20
73.556783
30
0.0
10
95.657763
20
74.787887
30
0.0
10
97.386800
20
75.694713
30
0.0
10
99.109372
20
76.120800
30
0.0
10
99.313822
20
76.157963
30
0.0
10
99.085318
20
76.304902
30
0.0
10
98.124339
20
77.175644
30
0.0
10
97.454438
20
78.267162
30
0.0
10
97.401038
20
79.358857
30
0.0
10
97.677337
20
80.440214
30
0.0
10
98.127048
20
81.001817
30
0.0
10
98.760602
20
81.381117
30
0.0
10
99.022368
20
81.485949
30
0.0
10
98.801978
20
81.754020
30
0.0
10
98.191521
20
82.546753
30
0.0
10
97.841133
20
83.382965
30
0.0
10
97.777208
20
84.432635
30
0.0
10
97.989873
20
85.415343
30
0.0
10
98.244381
20
86.094403
30
0.0
10
98.583635
20
86.853670
30
0.0
10
98.960830
20
87.300754
30
0.0
10
99.183238
20
87.466890
30
0.0
10
98.963071
20
87.908584
30
0.0
10
98.566057
20
88.722273
30
0.0
10
98.428480
20
89.774629
30
0.0
10
98.552579
20
90.692026
30
0.0
10
98.886275
20
91.130848
30
0.0
10
99.635316
20
91.554441
30
0.0
10
99.704880
20
91.638139
30
0.0
10
99.510370
20
91.929452
30
0.0
10
98.637731
20
93.429895
30
0.0
10
98.462469
20
94.145354
30
0.0
10
98.457379
20
94.825632
30
0.0
10
98.617108
20
95.426388
30
0.0
10
98.936305
20
95.903277
30
0.0
10
99.108671
20
96.143511
30
0.0
10
98.911328
20
96.410537
30
0.0
10
98.397545
20
97.267037
30
0.0
10
98.308002
20
97.471233
30
0.0
10
96.721371
20
97.109811
30
0.0
10
96.063359
20
96.942320
30
0.0
10
95.824473
20
96.871664
30
0.0
10
95.635425
20
96.377074
30
0.0
10
93.613831
20
90.712586
30
0.0
10
92.518265
20
87.702821
30
0.0
10
91.861471
20
85.493078
30
0.0
10
90.762026
20
82.029441
30
0.0
10
88.895349
20
76.425086
30
0.0
10
88.432914
20
75.107106
30
0.0
10
87.622764
20
72.533431
30
0.0
10
86.836196
20
69.952969
30
0.0
10
86.374630
20
68.461681
30
0.0
10
86.014512
20
67.212774
30
0.0
10
85.846686
20
66.578359
30
0.0
10
85.677086
20
66.145801
30
0.0
10
85.357397
20
65.865807
30
0.0
10
84.983915
20
65.614513
30
0.0
10
84.631651
20
65.434156
30
0.0
10
84.214002
20
65.406408
30
0.0
10
83.462870
20
65.456110
30
0.0
10
82.164007
20
65.524321
30
0.0
10
80.768932
20
65.584928
30
0.0
10
80.407374
20
65.555381
30
0.0
10
80.221640
20
65.299021
30
0.0
10
80.142870
20
63.218427
30
0.0
10
79.970664
20
58.572138
30
0.0
10
79.678411
20
57.989156
30
0.0
10
79.123275
20
57.708490
30
0.0
10
78.764757
20
57.734638
30
0.0
10
78.383000
20
57.937228
30
0.0
10
78.153156
20
58.061675
30
0.0
10
77.785364
20
58.055310
30
0.0
10
77.244600
20
57.995543
30
0.0
10
77.123715
20
57.945674
30
0.0
10
77.164503
20
57.773985
30
0.0
10
77.403017
20
54.633041
30
0.0
10
77.495837
20
52.658131
30
0.0
10
78.122458
20
52.549888
30
0.0
10
79.755108
20
52.262041
30
0.0
10
81.265141
20
51.696631
30
0.0
10
83.133000
20
50.555457
30
0.0
10
85.003245
20
48.790318
30
0.0
10
85.959057
20
47.688036
30
0.0
10
86.750353
20
46.551223
30
0.0
10
87.582307
20
45.252358
30
0.0
10
88.415028
20
43.738128
30
0.0
10
88.730483
20
42.675144
30
0.0
10
88.832444
20
42.192448
30
0.0
10
88.904451
20
41.692043
30
0.0
10
88.702405
20
41.285485
30
0.0
10
88.385581
20
41.045724
30
0.0
10
87.988067
20
41.004733
30
0.0
10
87.553973
20
41.159142
30
0.0
10
87.262812
20
41.542905
30
0.0
10
87.021103
20
41.908987
30
0.0
10
86.011789
20
43.568775
30
0.0
10
85.321783
20
44.809283
30
0.0
10
83.347131
20
47.156867
30
0.0
10
81.803212
20
48.434199
30
0.0
10
79.906952
20
49.503527
30
0.0
10
78.026887
20
50.214812
30
0.0
10
76.511545
20
50.343418
30
0.0
10
75.046204
20
50.267777
30
0.0
10
73.955303
20
49.989565
30
0.0
10
71.364196
20
48.703876
30
0.0
10
69.804227
20
47.473476
30
0.0
10
68.273952
20
45.865109
30
0.0
10
66.833452
20
43.950033
30
0.0
10
65.542809
20
41.799507
30
0.0
10
65.078644
20
41.103282
30
0.0
10
64.653963
20
40.879739
30
0.0
10
64.181239
20
40.899574
30
0.0
10
64.181358
20
40.899732
30
0.0
62
0
0
LWPOLYLINE
100
AcDbPolyline
8
Layer_1
90
21
70
0
10
76.054656
20
59.779885
30
0.0
10
77.064881
20
59.875888
30
0.0
10
78.032604
20
59.973978
30
0.0
10
78.192150
20
60.778051
30
0.0
10
78.273845
20
61.704790
30
0.0
10
78.325241
20
63.738709
30
0.0
10
78.309993
20
64.830645
30
0.0
10
78.100386
20
65.388168
30
0.0
10
77.512350
20
65.585466
30
0.0
10
76.361812
20
65.596730
30
0.0
10
74.332742
20
65.530628
30
0.0
10
74.342140
20
65.187954
30
0.0
10
74.420722
20
64.302519
30
0.0
10
74.469041
20
63.612731
30
0.0
10
74.519014
20
62.169548
30
0.0
10
74.565352
20
60.694564
30
0.0
10
74.583245
20
60.122150
30
0.0
10
74.669582
20
59.751710
30
0.0
10
75.248877
20
59.727183
30
0.0
10
76.054656
20
59.779885
30
0.0
10
76.054656
20
59.779885
30
0.0
62
0
0
LWPOLYLINE
100
AcDbPolyline
8
Layer_1
90
50
70
0
10
84.411058
20
67.701448
30
0.0
10
84.828671
20
69.137177
30
0.0
10
85.290293
20
70.604411
30
0.0
10
86.012412
20
72.985661
30
0.0
10
86.688456
20
75.222594
30
0.0
10
87.155065
20
76.569564
30
0.0
10
87.924186
20
78.854602
30
0.0
10
88.666746
20
81.115586
30
0.0
10
89.234493
20
82.775244
30
0.0
10
90.371414
20
86.402655
30
0.0
10
91.013547
20
88.511487
30
0.0
10
92.280799
20
91.963502
30
0.0
10
93.655449
20
95.757882
30
0.0
10
94.478986
20
98.409715
30
0.0
10
95.034097
20
100.406115
30
0.0
10
95.652074
20
102.715207
30
0.0
10
96.087554
20
104.278653
30
0.0
10
96.234566
20
104.723636
30
0.0
10
94.900202
20
104.736533
30
0.0
10
91.015639
20
104.786323
30
0.0
10
83.318669
20
104.855789
30
0.0
10
72.333930
20
104.850801
30
0.0
10
67.155035
20
104.519764
30
0.0
10
64.509201
20
104.301538
30
0.0
10
62.536852
20
104.125990
30
0.0
10
60.083440
20
103.982687
30
0.0
10
58.555526
20
103.859290
30
0.0
10
58.348982
20
103.680881
30
0.0
10
59.047572
20
100.766917
30
0.0
10
60.603725
20
94.176387
30
0.0
10
61.500560
20
90.784909
30
0.0
10
62.802042
20
86.029944
30
0.0
10
65.165506
20
79.095137
30
0.0
10
65.933024
20
76.921507
30
0.0
10
66.694866
20
74.797573
30
0.0
10
67.254027
20
73.170824
30
0.0
10
67.887449
20
71.350062
30
0.0
10
68.646621
20
69.209341
30
0.0
10
69.220582
20
67.578681
30
0.0
10
69.397193
20
67.334323
30
0.0
10
69.863524
20
67.325937
30
0.0
10
73.360715
20
67.432476
30
0.0
10
74.515260
20
67.379167
30
0.0
10
78.419669
20
67.311346
30
0.0
10
82.292207
20
67.241502
30
0.0
10
83.016324
20
67.188103
30
0.0
10
83.858179
20
67.098240
30
0.0
10
84.160527
20
67.072925
30
0.0
10
84.411058
20
67.701442
30
0.0
10
84.411058
20
67.701448
30
0.0
62
0
0
LWPOLYLINE
100
AcDbPolyline
8
Layer_1
90
16
70
0
10
77.243265
20
72.531348
30
0.0
10
76.433799
20
72.910218
30
0.0
10
76.031053
20
73.489160
30
0.0
10
75.997449
20
74.009035
30
0.0
10
76.120190
20
74.537516
30
0.0
10
76.455140
20
75.012799
30
0.0
10
76.919610
20
75.383297
30
0.0
10
77.594048
20
75.510788
30
0.0
10
78.328960
20
75.371791
30
0.0
10
78.938375
20
74.858657
30
0.0
10
79.126972
20
74.043994
30
0.0
10
79.020116
20
73.367135
30
0.0
10
78.684041
20
72.849150
30
0.0
10
78.051325
20
72.490769
30
0.0
10
77.243265
20
72.531348
30
0.0
10
77.243265
20
72.531348
30
0.0
62
0
0
LWPOLYLINE
100
AcDbPolyline
8
Layer_1
90
17
70
0
10
74.374629
20
78.091688
30
0.0
10
73.098889
20
78.396857
30
0.0
10
72.716114
20
78.768595
30
0.0
10
72.566965
20
79.287085
30
0.0
10
72.790733
20
79.909896
30
0.0
10
73.357811
20
80.242890
30
0.0
10
76.223027
20
80.292996
30
0.0
10
79.686664
20
80.327966
30
0.0
10
80.618032
20
80.317574
30
0.0
10
81.086500
20
80.141154
30
0.0
10
81.352530
20
79.821597
30
0.0
10
81.466586
20
79.412815
30
0.0
10
81.262862
20
78.859649
30
0.0
10
80.741060
20
78.516666
30
0.0
10
76.078709
20
78.086540
30
0.0
10
74.374629
20
78.091676
30
0.0
10
74.374629
20
78.091688
30
0.0
62
0
0
LWPOLYLINE
100
AcDbPolyline
8
Layer_1
90
17
70
0
10
72.954224
20
81.891243
30
0.0
10
72.571638
20
82.225799
30
0.0
10
72.423706
20
82.698237
30
0.0
10
72.717835
20
83.325242
30
0.0
10
73.117431
20
83.532757
30
0.0
10
74.034201
20
83.543278
30
0.0
10
76.150868
20
83.564868
30
0.0
10
81.442746
20
83.618925
30
0.0
10
81.881447
20
83.315516
30
0.0
10
82.043860
20
82.823349
30
0.0
10
81.795219
20
82.236344
30
0.0
10
81.421991
20
82.037959
30
0.0
10
80.695332
20
81.958637
30
0.0
10
78.652381
20
81.858886
30
0.0
10
75.191157
20
81.801281
30
0.0
10
72.954224
20
81.891240
30
0.0
10
72.954224
20
81.891243
30
0.0
62
0
0
LWPOLYLINE
100
AcDbPolyline
8
Layer_1
90
19
70
0
10
67.323406
20
86.103796
30
0.0
10
66.807176
20
86.278280
30
0.0
10
66.504515
20
86.601814
30
0.0
10
66.413493
20
86.943863
30
0.0
10
66.474382
20
87.287484
30
0.0
10
66.976312
20
87.757370
30
0.0
10
68.237422
20
87.776166
30
0.0
10
73.072080
20
88.075307
30
0.0
10
79.590451
20
88.210746
30
0.0
10
85.146868
20
88.256426
30
0.0
10
85.674702
20
88.238513
30
0.0
10
86.063616
20
88.033868
30
0.0
10
86.348563
20
87.575692
30
0.0
10
86.299413
20
87.044886
30
0.0
10
85.868290
20
86.582544
30
0.0
10
79.927193
20
86.475700
30
0.0
10
73.312610
20
86.392515
30
0.0
10
67.323406
20
86.103807
30
0.0
10
67.323406
20
86.103796
30
0.0
62
0
0
LWPOLYLINE
100
AcDbPolyline
8
Layer_1
90
27
70
0
10
66.633925
20
91.286107
30
0.0
10
66.132809
20
91.574570
30
0.0
10
65.928330
20
92.003174
30
0.0
10
65.760425
20
92.392935
30
0.0
10
65.526765
20
93.047826
30
0.0
10
65.521896
20
94.705548
30
0.0
10
65.523590
20
97.234677
30
0.0
10
65.581454
20
98.028427
30
0.0
10
65.863360
20
98.391060
30
0.0
10
66.182438
20
98.784339
30
0.0
10
66.723438
20
99.196339
30
0.0
10
67.484989
20
99.183901
30
0.0
10
68.322464
20
99.206592
30
0.0
10
71.818724
20
99.483530
30
0.0
10
73.343805
20
99.458990
30
0.0
10
74.382726
20
99.319492
30
0.0
10
74.915566
20
98.930712
30
0.0
10
75.031580
20
98.302434
30
0.0
10
75.000479
20
97.014654
30
0.0
10
75.237879
20
93.232839
30
0.0
10
75.278316
20
92.318823
30
0.0
10
74.912609
20
91.669134
30
0.0
10
74.226747
20
91.455782
30
0.0
10
73.673527
20
91.476158
30
0.0
10
69.993414
20
91.291687
30
0.0
10
66.634047
20
91.286099
30
0.0
10
66.633925
20
91.286107
30
0.0
62
0
0
LWPOLYLINE
100
AcDbPolyline
8
Layer_1
90
18
70
0
10
69.322529
20
93.123625
30
0.0
10
71.815873
20
93.195586
30
0.0
10
73.028091
20
93.252186
30
0.0
10
73.171278
20
93.398000
30
0.0
10
73.175848
20
93.683097
30
0.0
10
73.088700
20
95.754588
30
0.0
10
72.947735
20
97.131984
30
0.0
10
72.726151
20
97.296199
30
0.0
10
72.305994
20
97.304499
30
0.0
10
69.520881
20
97.258296
30
0.0
10
67.435174
20
97.214605
30
0.0
10
67.495158
20
96.235816
30
0.0
10
67.582601
20
94.164356
30
0.0
10
67.623738
20
93.185698
30
0.0
10
67.718105
20
93.063366
30
0.0
10
67.901538
20
93.045890
30
0.0
10
69.322529
20
93.123625
30
0.0
10
69.322529
20
93.123625
30
0.0
62
0
0
LWPOLYLINE
100
AcDbPolyline
8
Layer_1
90
19
70
0
10
83.487040
20
91.608250
30
0.0
10
82.933822
20
91.792659
30
0.0
10
82.212259
20
92.367898
30
0.0
10
81.975088
20
93.163336
30
0.0
10
82.180283
20
94.061679
30
0.0
10
82.435831
20
94.342700
30
0.0
10
82.791658
20
94.508868
30
0.0
10
83.390830
20
94.691891
30
0.0
10
83.989346
20
94.797634
30
0.0
10
84.478633
20
94.693867
30
0.0
10
84.918802
20
94.318822
30
0.0
10
85.200690
20
93.826649
30
0.0
10
85.259684
20
93.156034
30
0.0
10
85.113272
20
92.511073
30
0.0
10
84.826262
20
92.061370
30
0.0
10
84.450358
20
91.755915
30
0.0
10
83.999353
20
91.602363
30
0.0
10
83.487040
20
91.608371
30
0.0
10
83.487040
20
91.608250
30
0.0
62
0
0
LWPOLYLINE
100
AcDbPolyline
8
Layer_1
90
18
70
0
10
83.607306
20
96.622613
30
0.0
10
83.046108
20
96.933134
30
0.0
10
82.643401
20
97.506649
30
0.0
10
82.509227
20
98.028171
30
0.0
10
82.592670
20
98.550067
30
0.0
10
82.871524
20
99.012040
30
0.0
10
83.323585
20
99.353791
30
0.0
10
84.084183
20
99.514067
30
0.0
10
84.785906
20
99.391027
30
0.0
10
85.209408
20
99.127155
30
0.0
10
85.496411
20
98.777467
30
0.0
10
85.627015
20
98.121078
30
0.0
10
85.531349
20
97.478668
30
0.0
10
85.204038
20
97.001894
30
0.0
10
84.741250
20
96.673836
30
0.0
10
84.184580
20
96.570591
30
0.0
10
83.607306
20
96.622613
30
0.0
10
83.607306
20
96.622613
30
0.0
62
0
0
LWPOLYLINE
100
AcDbPolyline
8
Layer_1
90
28
70
0
10
103.000229
20
68.403560
30
0.0
10
103.037781
20
69.642290
30
0.0
10
102.857692
20
70.989261
30
0.0
10
102.375035
20
72.186645
30
0.0
10
101.863330
20
73.052491
30
0.0
10
100.136587
20
74.421675
30
0.0
10
99.009917
20
74.425560
30
0.0
10
97.646276
20
73.995582
30
0.0
10
96.518564
20
73.277845
30
0.0
10
95.518582
20
72.429311
30
0.0
10
94.756261
20
71.336899
30
0.0
10
95.058219
20
71.173574
30
0.0
10
95.549110
20
70.962105
30
0.0
10
95.808577
20
70.868994
30
0.0
10
96.256709
20
71.245902
30
0.0
10
97.193803
20
71.872675
30
0.0
10
98.350572
20
72.011616
30
0.0
10
99.313743
20
71.855920
30
0.0
10
99.908039
20
71.587805
30
0.0
10
100.370016
20
71.151138
30
0.0
10
100.870546
20
70.252065
30
0.0
10
101.021281
20
68.654210
30
0.0
10
101.047910
20
68.519628
30
0.0
10
101.367655
20
68.378045
30
0.0
10
102.512989
20
68.011588
30
0.0
10
102.917574
20
67.966397
30
0.0
10
103.000229
20
68.403560
30
0.0
10
103.000229
20
68.403560
30
0.0
62
0
0
LWPOLYLINE
100
AcDbPolyline
8
Layer_1
90
15
70
0
10
101.795924
20
77.682180
30
0.0
10
102.040289
20
77.886631
30
0.0
10
102.287682
20
78.809703
30
0.0
10
102.231560
20
79.021101
30
0.0
10
101.973665
20
79.223266
30
0.0
10
100.853327
20
79.681081
30
0.0
10
99.537893
20
79.630504
30
0.0
10
99.428712
20
79.364120
30
0.0
10
99.504164
20
78.909799
30
0.0
10
99.596694
20
78.298410
30
0.0
10
99.726332
20
77.909299
30
0.0
10
100.028073
20
77.743033
30
0.0
10
101.267545
20
77.560670
30
0.0
10
101.795924
20
77.682180
30
0.0
10
101.795924
20
77.682180
30
0.0
62
0
0
LWPOLYLINE
100
AcDbPolyline
8
Layer_1
90
19
70
0
10
102.168178
20
82.748123
30
0.0
10
102.406720
20
83.029930
30
0.0
10
102.547460
20
83.635339
30
0.0
10
102.541995
20
84.268158
30
0.0
10
102.285744
20
84.705596
30
0.0
10
101.693751
20
85.112623
30
0.0
10
100.882210
20
85.444852
30
0.0
10
100.572032
20
85.509600
30
0.0
10
100.392284
20
85.399936
30
0.0
10
100.146925
20
85.231698
30
0.0
10
99.928615
20
84.986089
30
0.0
10
99.627631
20
84.669653
30
0.0
10
99.437297
20
84.458114
30
0.0
10
99.423420
20
84.044942
30
0.0
10
99.752030
20
83.326974
30
0.0
10
100.471526
20
82.826595
30
0.0
10
101.357699
20
82.681494
30
0.0
10
102.168178
20
82.748123
30
0.0
10
102.168178
20
82.748123
30
0.0
62
0
0
LWPOLYLINE
100
AcDbPolyline
8
Layer_1
90
17
70
0
10
51.276047
20
86.154695
30
0.0
10
51.484908
20
86.874243
30
0.0
10
51.528174
20
87.508262
30
0.0
10
51.249563
20
87.860869
30
0.0
10
50.813172
20
88.139677
30
0.0
10
50.362474
20
88.259869
30
0.0
10
49.860906
20
88.146215
30
0.0
10
49.535135
20
87.806946
30
0.0
10
49.446208
20
87.236684
30
0.0
10
49.453990
20
86.838143
30
0.0
10
49.570606
20
86.720804
30
0.0
10
49.971308
20
86.357387
30
0.0
10
50.351392
20
86.055561
30
0.0
10
50.930581
20
85.979957
30
0.0
10
51.141898
20
86.002169
30
0.0
10
51.276047
20
86.154695
30
0.0
10
51.276047
20
86.154695
30
0.0
62
0
0
LWPOLYLINE
100
AcDbPolyline
8
Layer_1
90
14
70
0
10
102.933709
20
88.421868
30
0.0
10
103.499161
20
88.940389
30
0.0
10
103.053305
20
89.336552
30
0.0
10
102.248572
20
89.733196
30
0.0
10
101.452656
20
89.834372
30
0.0
10
100.745090
20
89.781391
30
0.0
10
100.612798
20
89.545510
30
0.0
10
100.516586
20
89.173352
30
0.0
10
100.420373
20
88.950405
30
0.0
10
101.034839
20
88.466414
30
0.0
10
101.563741
20
88.280067
30
0.0
10
102.152885
20
88.253322
30
0.0
10
102.933709
20
88.421868
30
0.0
10
102.933709
20
88.421868
30
0.0
62
0
0
LWPOLYLINE
100
AcDbPolyline
8
Layer_1
90
18
70
0
10
46.292307
20
89.337955
30
0.0
10
46.643758
20
89.515803
30
0.0
10
46.933281
20
89.960034
30
0.0
10
47.098373
20
90.496269
30
0.0
10
46.938963
20
91.049486
30
0.0
10
46.447736
20
91.613455
30
0.0
10
45.917389
20
92.002864
30
0.0
10
45.348356
20
92.121286
30
0.0
10
44.749014
20
92.065097
30
0.0
10
44.000564
20
91.543657
30
0.0
10
43.953809
20
91.408879
30
0.0
10
44.072308
20
91.255020
30
0.0
10
44.466634
20
90.405314
30
0.0
10
44.671957
20
89.835362
30
0.0
10
44.921955
20
89.510963
30
0.0
10
45.543170
20
89.329298
30
0.0
10
46.292307
20
89.337955
30
0.0
10
46.292307
20
89.337955
30
0.0
62
0
0
LWPOLYLINE
100
AcDbPolyline
8
Layer_1
90
14
70
0
10
52.541365
20
90.494855
30
0.0
10
52.966918
20
91.002240
30
0.0
10
53.180223
20
91.626890
30
0.0
10
53.023535
20
91.917419
30
0.0
10
52.656483
20
92.217898
30
0.0
10
52.001626
20
92.346577
30
0.0
10
51.412778
20
92.261391
30
0.0
10
51.164907
20
92.019564
30
0.0
10
50.959365
20
91.320343
30
0.0
10
51.100172
20
91.199657
30
0.0
10
51.699857
20
90.705043
30
0.0
10
52.075250
20
90.418869
30
0.0
10
52.541365
20
90.494855
30
0.0
10
52.541365
20
90.494855
30
0.0
62
0
0
LWPOLYLINE
100
AcDbPolyline
8
Layer_1
90
17
70
0
10
103.348892
20
92.415970
30
0.0
10
103.798378
20
92.806269
30
0.0
10
103.980223
20
93.290336
30
0.0
10
103.607402
20
93.813497
30
0.0
10
102.849333
20
94.403839
30
0.0
10
101.994871
20
94.634871
30
0.0
10
101.315909
20
94.619943
30
0.0
10
100.808683
20
94.280516
30
0.0
10
100.398524
20
93.924715
30
0.0
10
100.366683
20
93.736019
30
0.0
10
100.991374
20
92.837282
30
0.0
10
101.376283
20
92.549689
30
0.0
10
101.863556
20
92.378629
30
0.0
10
102.224352
20
92.303608
30
0.0
10
102.729465
20
92.294521
30
0.0
10
103.348892
20
92.415975
30
0.0
10
103.348892
20
92.415970
30
0.0
62
0
0
LWPOLYLINE
100
AcDbPolyline
8
Layer_1
90
18
70
0
10
42.996200
20
94.524060
30
0.0
10
43.514055
20
94.872827
30
0.0
10
43.724505
20
95.318747
30
0.0
10
43.702101
20
95.849477
30
0.0
10
43.497658
20
96.532116
30
0.0
10
43.182319
20
97.175985
30
0.0
10
42.811189
20
97.559306
30
0.0
10
42.120687
20
97.716350
30
0.0
10
41.356754
20
97.341207
30
0.0
10
40.894676
20
96.633217
30
0.0
10
40.620484
20
95.509882
30
0.0
10
40.585734
20
95.059294
30
0.0
10
40.698200
20
94.872356
30
0.0
10
41.098579
20
94.610806
30
0.0
10
41.767881
20
94.441831
30
0.0
10
42.523234
20
94.358105
30
0.0
10
42.996200
20
94.524060
30
0.0
10
42.996200
20
94.524060
30
0.0
62
0
0
LWPOLYLINE
100
AcDbPolyline
8
Layer_1
90
12
70
0
10
54.118293
20
95.108985
30
0.0
10
54.557581
20
95.486901
30
0.0
10
54.677149
20
96.177171
30
0.0
10
54.626895
20
96.582304
30
0.0
10
54.441618
20
96.736100
30
0.0
10
53.828085
20
96.753968
30
0.0
10
53.318557
20
96.522447
30
0.0
10
53.012622
20
96.081186
30
0.0
10
53.036780
20
95.541366
30
0.0
10
53.565072
20
95.057699
30
0.0
10
54.118293
20
95.108985
30
0.0
10
54.118293
20
95.108985
30
0.0
62
0
0
LWPOLYLINE
100
AcDbPolyline
8
Layer_1
90
15
70
0
10
102.041082
20
96.998398
30
0.0
10
102.245533
20
97.431154
30
0.0
10
102.392270
20
98.060757
30
0.0
10
102.260434
20
98.581433
30
0.0
10
101.842527
20
99.023686
30
0.0
10
101.121100
20
99.155089
30
0.0
10
100.801774
20
99.126943
30
0.0
10
100.567879
20
98.926531
30
0.0
10
100.002933
20
97.874159
30
0.0
10
100.015191
20
97.682578
30
0.0
10
100.202596
20
97.477986
30
0.0
10
100.692229
20
97.149443
30
0.0
10
101.478556
20
96.938801
30
0.0
10
102.041085
20
96.998398
30
0.0
10
102.041082
20
96.998398
30
0.0
62
0
0
LWPOLYLINE
100
AcDbPolyline
8
Layer_1
90
12
70
0
10
57.743731
20
98.413765
30
0.0
10
57.116466
20
101.622541
30
0.0
10
56.966928
20
102.011462
30
0.0
10
56.611466
20
101.842934
30
0.0
10
56.057488
20
101.155991
30
0.0
10
55.845865
20
99.969295
30
0.0
10
55.856197
20
99.279098
30
0.0
10
56.129143
20
98.880673
30
0.0
10
56.682731
20
98.442497
30
0.0
10
57.341395
20
98.370271
30
0.0
10
57.743731
20
98.413765
30
0.0
10
57.743731
20
98.413765
30
0.0
62
0
0
LWPOLYLINE
100
AcDbPolyline
8
Layer_1
90
13
70
0
10
97.125110
20
99.036180
30
0.0
10
97.668966
20
99.133620
30
0.0
10
98.024303
20
99.539839
30
0.0
10
98.358119
20
100.226865
30
0.0
10
98.440488
20
101.116827
30
0.0
10
98.303159
20
101.884824
30
0.0
10
97.492924
20
103.003723
30
0.0
10
97.227483
20
102.077681
30
0.0
10
96.686618
20
100.069373
30
0.0
10
96.379792
20
98.930212
30
0.0
10
96.535810
20
98.918528
30
0.0
10
97.125110
20
99.036166
30
0.0
10
97.125110
20
99.036180
30
0.0
62
0
0
LWPOLYLINE
100
AcDbPolyline
8
Layer_1
90
33
70
0
10
39.072148
20
99.497729
30
0.0
10
39.747003
20
99.819122
30
0.0
10
40.065142
20
100.134155
30
0.0
10
40.227288
20
100.603442
30
0.0
10
40.263202
20
101.632820
30
0.0
10
40.212171
20
102.602804
30
0.0
10
39.945993
20
103.299903
30
0.0
10
38.975242
20
104.742348
30
0.0
10
38.126659
20
105.601570
30
0.0
10
37.806463
20
105.721635
30
0.0
10
37.562985
20
105.841899
30
0.0
10
36.877800
20
105.003267
30
0.0
10
37.186478
20
104.772093
30
0.0
10
38.217757
20
103.704441
30
0.0
10
38.385875
20
103.123541
30
0.0
10
38.352549
20
102.482433
30
0.0
10
38.166448
20
101.886248
30
0.0
10
37.821633
20
101.391895
30
0.0
10
37.316719
20
100.970543
30
0.0
10
36.675895
20
100.847042
30
0.0
10
36.008916
20
100.892654
30
0.0
10
35.299692
20
101.170960
30
0.0
10
34.931146
20
101.320846
30
0.0
10
34.715196
20
101.223967
30
0.0
10
34.492094
20
101.033233
30
0.0
10
35.015475
20
100.229501
30
0.0
10
35.613843
20
99.746578
30
0.0
10
36.391209
20
99.404193
30
0.0
10
36.776056
20
99.280695
30
0.0
10
37.690072
20
99.266330
30
0.0
10
38.494225
20
99.302916
30
0.0
10
39.072148
20
99.497721
30
0.0
10
39.072148
20
99.497729
30
0.0
62
0
0
LWPOLYLINE
100
AcDbPolyline
8
Layer_1
90
15
70
0
10
76.295185
20
106.929338
30
0.0
10
78.820484
20
106.992109
30
0.0
10
79.135544
20
107.090351
30
0.0
10
79.179403
20
107.276567
30
0.0
10
79.065879
20
110.079115
30
0.0
10
78.941018
20
110.106406
30
0.0
10
76.463556
20
110.138800
30
0.0
10
71.741803
20
110.051825
30
0.0
10
71.373674
20
109.995103
30
0.0
10
71.294348
20
109.808699
30
0.0
10
71.470243
20
107.603155
30
0.0
10
71.675679
20
106.938265
30
0.0
10
72.491391
20
106.871076
30
0.0
10
76.295185
20
106.929329
30
0.0
10
76.295185
20
106.929338
30
0.0
62
0
0
LWPOLYLINE
100
AcDbPolyline
8
Layer_1
90
35
70
0
10
69.512231
20
111.614664
30
0.0
10
71.484580
20
111.745308
30
0.0
10
75.477381
20
111.830124
30
0.0
10
79.325868
20
111.795357
30
0.0
10
82.500868
20
111.753317
30
0.0
10
85.651814
20
111.679180
30
0.0
10
88.085354
20
111.729859
30
0.0
10
88.284217
20
111.803030
30
0.0
10
88.313920
20
111.931329
30
0.0
10
88.254188
20
113.611231
30
0.0
10
88.106603
20
116.418064
30
0.0
10
88.001938
20
122.936435
30
0.0
10
87.946421
20
129.916981
30
0.0
10
87.717859
20
133.286610
30
0.0
10
87.387388
20
135.234903
30
0.0
10
87.226380
20
135.385981
30
0.0
10
86.609388
20
135.433285
30
0.0
10
84.858064
20
135.519626
30
0.0
10
76.391397
20
135.384405
30
0.0
10
72.975868
20
135.442731
30
0.0
10
69.442564
20
135.579093
30
0.0
10
64.629465
20
135.555993
30
0.0
10
62.856830
20
135.415282
30
0.0
10
62.480105
20
135.253795
30
0.0
10
62.510975
20
134.672911
30
0.0
10
62.680020
20
126.551761
30
0.0
10
62.773648
20
122.226269
30
0.0
10
62.969600
20
119.269180
30
0.0
10
63.211337
20
116.208957
30
0.0
10
63.474487
20
113.515019
30
0.0
10
63.596715
20
112.168048
30
0.0
10
63.648347
20
111.571230
30
0.0
10
66.134155
20
111.535616
30
0.0
10
69.512231
20
111.614664
30
0.0
10
69.512231
20
111.614664
30
0.0
62
0
0
LWPOLYLINE
100
AcDbPolyline
8
Layer_1
90
23
70
0
10
76.439502
20
115.372348
30
0.0
10
75.333064
20
115.690729
30
0.0
10
73.999132
20
116.704508
30
0.0
10
73.703984
20
117.135102
30
0.0
10
73.741878
20
117.552970
30
0.0
10
74.349616
20
118.226626
30
0.0
10
75.772431
20
118.979086
30
0.0
10
77.354592
20
119.722719
30
0.0
10
78.101802
20
120.261081
30
0.0
10
79.194096
20
121.466748
30
0.0
10
80.014304
20
122.380762
30
0.0
10
80.537245
20
122.462744
30
0.0
10
81.058831
20
122.339069
30
0.0
10
81.271881
20
121.841374
30
0.0
10
81.333348
20
120.667907
30
0.0
10
81.230577
20
119.191532
30
0.0
10
80.573750
20
117.475550
30
0.0
10
80.114520
20
116.803612
30
0.0
10
79.608169
20
116.326508
30
0.0
10
78.119690
20
115.556721
30
0.0
10
77.266853
20
115.352439
30
0.0
10
76.439502
20
115.372348
30
0.0
10
76.439502
20
115.372348
30
0.0
62
0
0
LWPOLYLINE
100
AcDbPolyline
8
Layer_1
90
6
70
0
10
79.350887
20
119.769969
30
0.0
10
79.386628
20
119.864789
30
0.0
10
79.278026
20
119.793168
30
0.0
10
79.240363
20
119.696662
30
0.0
10
79.350887
20
119.769983
30
0.0
10
79.350887
20
119.769969
30
0.0
62
0
0
LWPOLYLINE
100
AcDbPolyline
8
Layer_1
90
22
70
0
10
81.418481
20
126.070383
30
0.0
10
80.482630
20
126.414995
30
0.0
10
79.783889
20
126.996476
30
0.0
10
79.365226
20
127.762993
30
0.0
10
79.269607
20
128.662712
30
0.0
10
79.619534
20
129.799769
30
0.0
10
80.461815
20
130.633097
30
0.0
10
81.109093
20
130.930160
30
0.0
10
81.907902
20
131.038758
30
0.0
10
82.739779
20
130.979188
30
0.0
10
83.418505
20
130.674262
30
0.0
10
83.877727
20
130.276755
30
0.0
10
84.211896
20
129.776073
30
0.0
10
84.402199
20
129.210462
30
0.0
10
84.429823
20
128.618172
30
0.0
10
84.267550
20
127.843795
30
0.0
10
83.960285
20
127.164812
30
0.0
10
83.531828
20
126.620789
30
0.0
10
83.005981
20
126.251290
30
0.0
10
82.240744
20
126.023477
30
0.0
10
81.418481
20
126.070383
30
0.0
10
81.418481
20
126.070383
30
0.0
62
0
0
LWPOLYLINE
100
AcDbPolyline
8
Layer_1
90
23
70
0
10
69.873027
20
126.101097
30
0.0
10
69.081614
20
126.321841
30
0.0
10
68.422364
20
126.693033
30
0.0
10
67.923259
20
127.193612
30
0.0
10
67.612283
20
127.802519
30
0.0
10
67.509565
20
128.047970
30
0.0
10
67.478839
20
128.815733
30
0.0
10
67.607087
20
129.191041
30
0.0
10
67.839933
20
129.759706
30
0.0
10
68.226430
20
130.285941
30
0.0
10
68.718286
20
130.717107
30
0.0
10
69.267208
20
131.000565
30
0.0
10
70.295284
20
131.075777
30
0.0
10
71.379419
20
130.751659
30
0.0
10
72.032874
20
130.244743
30
0.0
10
72.460064
20
129.649395
30
0.0
10
72.644327
20
128.646560
30
0.0
10
72.484230
20
127.681858
30
0.0
10
72.014771
20
126.854892
30
0.0
10
71.270949
20
126.265265
30
0.0
10
70.629108
20
126.072390
30
0.0
10
69.873027
20
126.101097
30
0.0
10
69.873027
20
126.101097
30
0.0
62
0
0
LWPOLYLINE
100
AcDbPolyline
8
Layer_1
90
16
70
0
10
64.608179
20
129.618435
30
0.0
10
64.198809
20
129.890186
30
0.0
10
63.918569
20
130.309614
30
0.0
10
63.914331
20
130.967518
30
0.0
10
64.477725
20
131.862260
30
0.0
10
65.686034
20
133.642628
30
0.0
10
66.108574
20
134.207998
30
0.0
10
66.746470
20
134.414870
30
0.0
10
67.383691
20
134.207433
30
0.0
10
67.669979
20
133.899613
30
0.0
10
67.815656
20
133.531021
30
0.0
10
67.669808
20
132.692899
30
0.0
10
65.709453
20
129.884497
30
0.0
10
65.208170
20
129.600554
30
0.0
10
64.608179
20
129.618438
30
0.0
10
64.608179
20
129.618435
30
0.0
62
0
0
LWPOLYLINE
100
AcDbPolyline
8
Layer_1
90
19
70
0
10
85.627760
20
130.287186
30
0.0
10
85.215835
20
130.565673
30
0.0
10
84.470113
20
131.390046
30
0.0
10
83.666688
20
132.271849
30
0.0
10
83.342723
20
132.396436
30
0.0
10
82.929474
20
132.592139
30
0.0
10
82.630117
20
132.922436
30
0.0
10
82.502138
20
133.479032
30
0.0
10
82.572904
20
133.932560
30
0.0
10
82.846243
20
134.295738
30
0.0
10
83.267072
20
134.537391
30
0.0
10
83.738054
20
134.589373
30
0.0
10
84.484856
20
134.230358
30
0.0
10
86.792977
20
131.661340
30
0.0
10
86.871222
20
130.967799
30
0.0
10
86.463172
20
130.411107
30
0.0
10
86.037351
20
130.261528
30
0.0
10
85.627760
20
130.287186
30
0.0
10
85.627760
20
130.287186
30
0.0
62
0
0
LWPOLYLINE
100
AcDbPolyline
8
Layer_1
90
16
70
0
10
60.751243
20
123.593236
30
0.0
10
60.792739
20
128.433175
30
0.0
10
60.646000
20
128.916113
30
0.0
10
60.319251
20
128.956274
30
0.0
10
59.425283
20
128.979399
30
0.0
10
59.321565
20
128.506965
30
0.0
10
59.219335
20
127.586040
30
0.0
10
59.052550
20
124.256583
30
0.0
10
59.100529
20
122.667125
30
0.0
10
59.225201
20
122.463697
30
0.0
10
59.469060
20
122.425598
30
0.0
10
60.310130
20
122.411685
30
0.0
10
60.552777
20
122.431829
30
0.0
10
60.679609
20
122.561623
30
0.0
10
60.751243
20
123.593239
30
0.0
10
60.751243
20
123.593236
30
0.0
62
0
0
LWPOLYLINE
100
AcDbPolyline
8
Layer_1
90
11
70
0
10
90.594711
20
123.004233
30
0.0
10
90.654107
20
125.847342
30
0.0
10
90.611779
20
128.734078
30
0.0
10
90.181433
20
128.765317
30
0.0
10
89.752582
20
128.675615
30
0.0
10
89.746006
20
127.489828
30
0.0
10
89.835434
20
123.626090
30
0.0
10
89.880501
20
123.045789
30
0.0
10
90.185810
20
122.971803
30
0.0
10
90.594711
20
123.004233
30
0.0
10
90.594711
20
123.004233
30
0.0
62
0
0
LWPOLYLINE
100
AcDbPolyline
8
Layer_1
90
17
70
0
10
81.825521
20
145.678330
30
0.0
10
81.168474
20
145.994340
30
0.0
10
80.937140
20
146.383479
30
0.0
10
80.902543
20
146.807636
30
0.0
10
81.055461
20
147.202941
30
0.0
10
81.386672
20
147.505524
30
0.0
10
82.092495
20
147.648188
30
0.0
10
83.467140
20
147.974897
30
0.0
10
84.478676
20
148.271648
30
0.0
10
84.850251
20
148.152059
30
0.0
10
85.157169
20
147.893450
30
0.0
10
85.297641
20
147.333188
30
0.0
10
85.007394
20
146.802777
30
0.0
10
84.045058
20
146.259496
30
0.0
10
82.714650
20
145.734531
30
0.0
10
81.825521
20
145.678330
30
0.0
10
81.825521
20
145.678330
30
0.0
62
0
0
LWPOLYLINE
100
AcDbPolyline
8
Layer_1
90
17
70
0
10
65.880223
20
146.395920
30
0.0
10
64.544981
20
146.743355
30
0.0
10
64.101261
20
147.140392
30
0.0
10
63.963607
20
147.674989
30
0.0
10
64.128355
20
148.203377
30
0.0
10
64.591842
20
148.581785
30
0.0
10
64.995324
20
148.652006
30
0.0
10
65.519582
20
148.558699
30
0.0
10
66.794239
20
148.385406
30
0.0
10
68.150028
20
148.217748
30
0.0
10
68.649108
20
147.863371
30
0.0
10
68.801509
20
147.460143
30
0.0
10
68.770477
20
147.008627
30
0.0
10
68.521978
20
146.652237
30
0.0
10
68.123723
20
146.418828
30
0.0
10
65.880223
20
146.395911
30
0.0
10
65.880223
20
146.395920
30
0.0
62
0
0
LWPOLYLINE
100
AcDbPolyline
8
Layer_1
90
19
70
0
10
70.570564
20
150.142287
30
0.0
10
70.324602
20
150.233803
30
0.0
10
69.866758
20
150.766481
30
0.0
10
69.465906
20
151.702226
30
0.0
10
69.090783
20
152.258130
30
0.0
10
68.651116
20
152.843637
30
0.0
10
68.526508
20
153.336727
30
0.0
10
68.728211
20
153.967304
30
0.0
10
69.218481
20
154.288668
30
0.0
10
69.821246
20
154.254548
30
0.0
10
70.360433
20
153.818675
30
0.0
10
70.641275
20
153.254558
30
0.0
10
71.073964
20
152.432822
30
0.0
10
71.729202
20
151.219654
30
0.0
10
71.701276
20
150.815902
30
0.0
10
71.499318
20
150.457219
30
0.0
10
71.066817
20
150.162720
30
0.0
10
70.570564
20
150.142287
30
0.0
10
70.570564
20
150.142287
30
0.0
62
0
0
LWPOLYLINE
100
AcDbPolyline
8
Layer_1
90
17
70
0
10
79.649656
20
150.640982
30
0.0
10
79.327217
20
150.878986
30
0.0
10
79.130807
20
151.227299
30
0.0
10
79.129678
20
151.563211
30
0.0
10
80.446186
20
153.611419
30
0.0
10
80.987866
20
154.443077
30
0.0
10
81.327216
20
154.848750
30
0.0
10
81.774961
20
154.979006
30
0.0
10
82.199149
20
154.869999
30
0.0
10
82.481391
20
154.581832
30
0.0
10
82.589088
20
154.172789
30
0.0
10
82.489644
20
153.701152
30
0.0
10
81.418808
20
152.072027
30
0.0
10
80.902974
20
151.350435
30
0.0
10
80.205450
20
150.655449
30
0.0
10
79.649757
20
150.640971
30
0.0
10
79.649656
20
150.640982
30
0.0
62
0
0
LWPOLYLINE
100
AcDbPolyline
8
Layer_1
90
17
70
0
10
75.429277
20
151.522512
30
0.0
10
75.249758
20
151.563400
30
0.0
10
74.948957
20
151.741084
30
0.0
10
74.696863
20
152.206240
30
0.0
10
74.592025
20
153.370890
30
0.0
10
74.542833
20
154.912592
30
0.0
10
74.632030
20
155.384486
30
0.0
10
74.899916
20
155.693306
30
0.0
10
75.305864
20
155.812484
30
0.0
10
75.729098
20
155.746386
30
0.0
10
76.041326
20
155.463502
30
0.0
10
76.238796
20
154.859270
30
0.0
10
76.289724
20
153.394943
30
0.0
10
76.186101
20
151.920660
30
0.0
10
75.960732
20
151.669050
30
0.0
10
75.429277
20
151.522512
30
0.0
10
75.429277
20
151.522512
30
0.0
  0
ENDSEC
  0
SECTION
  2
OBJECTS
  0
DICTIONARY
  5
C
330
0
100
AcDbDictionary
  3
ACAD_GROUP
350
D
  3
ACAD_MLINESTYLE
350
17
  0
DICTIONARY
  5
D
330
C
100
AcDbDictionary
  0
DICTIONARY
  5
1A
330
C
100
AcDbDictionary
  0
DICTIONARY
  5
17
330
C
100
AcDbDictionary
  3
STANDARD
350
18
  0
DICTIONARY
  5
19
330
C
100
AcDbDictionary
  0
ENDSEC
  0
EOF
