999
Inkscape export via OpenSCAD DXF Export
  0
SECTION
  2
HEADER
  9
$ACADVER
  1
AC1014
  9
$HANDSEED
  5
FFFF
  9
$MEASUREMENT
 70
     1
  0
ENDSEC
  0
SECTION
  2
TABLES
  0
TABLE
  2
VPORT
  5
8
330
0
100
AcDbSymbolTable
 70
     4
  0
VPORT
  5
2E
330
8
100
AcDbSymbolTableRecord
100
AcDbViewportTableRecord
  2
*ACTIVE
 70
     0
 10
0.0
 20
0.0
 11
1.0
 21
1.0
 12
210.0
 22
148.5
 13
0.0
 23
0.0
 14
10.0
 24
10.0
 15
10.0
 25
10.0
 16
0.0
 26
0.0
 36
1.0
 17
0.0
 27
0.0
 37
0.0
 40
341.0
 41
1.24
 42
50.0
 43
0.0
 44
0.0
 50
0.0
 51
0.0
 71
     0
 72
   100
 73
     1
 74
     3
 75
     0
 76
     0
 77
     0
 78
     0
  0
ENDTAB
  0
TABLE
  2
LTYPE
  5
5
330
0
100
AcDbSymbolTable
 70
     1
  0
LTYPE
  5
14
330
5
100
AcDbSymbolTableRecord
100
AcDbLinetypeTableRecord
  2
BYBLOCK
 70
     0
  3

 72
    65
 73
     0
 40
0.0
  0
LTYPE
  5
15
330
5
100
AcDbSymbolTableRecord
100
AcDbLinetypeTableRecord
  2
BYLAYER
 70
     0
  3

 72
    65
 73
     0
 40
0.0
  0
LTYPE
  5
16
330
5
100
AcDbSymbolTableRecord
100
AcDbLinetypeTableRecord
  2
CONTINUOUS
 70
     0
  3
Solid line
 72
    65
 73
     0
 40
0.0
  0
ENDTAB
  0
TABLE
0
TABLE
2
LAYER
5
2
330
0
100
AcDbSymbolTable
70
1
0
LAYER
5
10
330
2
100
AcDbSymbolTableRecord
100
AcDbLayerTableRecord
2
Layer_1
70
0
62
7
6
CONTINUOUS
0
ENDTAB
0
ENDSEC
  0
ENDTAB
  0
TABLE
  2
STYLE
  5
3
330
0
100
AcDbSymbolTable
 70
     1
  0
STYLE
  5
11
330
3
100
AcDbSymbolTableRecord
100
AcDbTextStyleTableRecord
  2
STANDARD
 70
     0
 40
0.0
 41
1.0
 50
0.0
 71
     0
 42
2.5
  3
txt
  4

  0
ENDTAB
  0
TABLE
  2
VIEW
  5
6
330
0
100
AcDbSymbolTable
 70
     0
  0
ENDTAB
  0
TABLE
  2
UCS
  5
7
330
0
100
AcDbSymbolTable
 70
     0
  0
ENDTAB
  0
TABLE
  2
APPID
  5
9
330
0
100
AcDbSymbolTable
 70
     2
  0
APPID
  5
12
330
9
100
AcDbSymbolTableRecord
100
AcDbRegAppTableRecord
  2
ACAD
 70
     0
  0
ENDTAB
  0
TABLE
  2
DIMSTYLE
  5
A
330
0
100
AcDbSymbolTable
 70
     1
  0
DIMSTYLE
105
27
330
A
100
AcDbSymbolTableRecord
100
AcDbDimStyleTableRecord
  2
ISO-25
 70
     0
  3

  4

  5

  6

  7

 40
1.0
 41
2.5
 42
0.625
 43
3.75
 44
1.25
 45
0.0
 46
0.0
 47
0.0
 48
0.0
140
2.5
141
2.5
142
0.0
143
0.03937007874016
144
1.0
145
0.0
146
1.0
147
0.625
 71
     0
 72
     0
 73
     0
 74
     0
 75
     0
 76
     0
 77
     1
 78
     8
170
     0
171
     3
172
     1
173
     0
174
     0
175
     0
176
     0
177
     0
178
     0
270
     2
271
     2
272
     2
273
     2
274
     3
340
11
275
     0
280
     0
281
     0
282
     0
283
     0
284
     8
285
     0
286
     0
287
     3
288
     0
  0
ENDTAB
  0
TABLE
  2
BLOCK_RECORD
  5
1
330
0
100
AcDbSymbolTable
 70
     1
  0
BLOCK_RECORD
  5
1F
330
1
100
AcDbSymbolTableRecord
100
AcDbBlockTableRecord
  2
*MODEL_SPACE
  0
BLOCK_RECORD
  5
1B
330
1
100
AcDbSymbolTableRecord
100
AcDbBlockTableRecord
  2
*PAPER_SPACE
  0
ENDTAB
  0
ENDSEC
  0
SECTION
  2
BLOCKS
  0
BLOCK
  5
20
330
1F
100
AcDbEntity
  8
0
100
AcDbBlockBegin
  2
*MODEL_SPACE
 70
     0
 10
0.0
 20
0.0
 30
0.0
  3
*MODEL_SPACE
  1

  0
ENDBLK
  5
21
330
1F
100
AcDbEntity
  8
0
100
AcDbBlockEnd
  0
BLOCK
  5
1C
330
1B
100
AcDbEntity
 67
     1
  8
0
100
AcDbBlockBegin
  2
*PAPER_SPACE
  1

  0
ENDBLK
  5
1D
330
1B
100
AcDbEntity
 67
     1
  8
0
100
AcDbBlockEnd
  0
ENDSEC
  0
SECTION
  2
ENTITIES
0
DIMENSION
5
83
100
AcDbEntity
62
256
370
-1
6
ByLayer
1
total_width
3
Standard
70
0
71
5
72
1
41
1.0
100
AcDbAlignedDimension
13
1.871981
23
0.000000
33
0.0
14
165.893953
24
0.000000
34
0.0
50
0.000000
100
AcDbRotatedDimension
0
DIMENSION
5
83
100
AcDbEntity
62
256
370
-1
6
ByLayer
1
total_minx
3
Standard
70
0
71
5
72
1
41
1.0
100
AcDbAlignedDimension
13
1.871981
23
0.000000
33
0.0
14
0.000000
24
0.000000
34
0.0
50
0.000000
100
AcDbRotatedDimension
0
DIMENSION
5
83
100
AcDbEntity
62
256
370
-1
6
ByLayer
1
total_maxx
3
Standard
70
0
71
5
72
1
41
1.0
100
AcDbAlignedDimension
13
0.000000
23
0.000000
33
0.0
14
165.893953
24
0.000000
34
0.0
50
0.000000
100
AcDbRotatedDimension
0
DIMENSION
5
83
100
AcDbEntity
62
256
370
-1
6
ByLayer
1
total_height
3
Standard
70
0
71
5
72
1
41
1.0
100
AcDbAlignedDimension
13
0.000000
23
3.127531
33
0.0
14
0.000000
24
171.615397
34
0.0
50
90.000000
100
AcDbRotatedDimension
0
DIMENSION
5
83
100
AcDbEntity
62
256
370
-1
6
ByLayer
1
total_miny
3
Standard
70
0
71
5
72
1
41
1.0
100
AcDbAlignedDimension
13
3.127531
23
0.000000
33
0.0
14
0.000000
24
0.000000
34
0.0
50
0.000000
100
AcDbRotatedDimension
0
DIMENSION
5
83
100
AcDbEntity
62
256
370
-1
6
ByLayer
1
total_maxy
3
Standard
70
0
71
5
72
1
41
1.0
100
AcDbAlignedDimension
13
0.000000
23
0.000000
33
0.0
14
171.615397
24
0.000000
34
0.0
50
0.000000
100
AcDbRotatedDimension
0
DIMENSION
8
Layer_1
5
83
100
AcDbEntity
62
256
370
-1
6
ByLayer
1
Layer_1_width
3
Standard
70
0
71
5
72
1
41
1.0
100
AcDbAlignedDimension
13
1.871981
23
0.000000
33
0.0
14
165.893953
24
0.000000
34
0.0
50
0.000000
100
AcDbRotatedDimension
0
DIMENSION
8
Layer_1
5
83
100
AcDbEntity
62
256
370
-1
6
ByLayer
1
Layer_1_minx
3
Standard
70
0
71
5
72
1
41
1.0
100
AcDbAlignedDimension
13
1.871981
23
0.000000
33
0.0
14
0.000000
24
0.000000
34
0.0
50
0.000000
100
AcDbRotatedDimension
0
DIMENSION
8
Layer_1
5
83
100
AcDbEntity
62
256
370
-1
6
ByLayer
1
Layer_1_maxx
3
Standard
70
0
71
5
72
1
41
1.0
100
AcDbAlignedDimension
13
0.000000
23
0.000000
33
0.0
14
165.893953
24
0.000000
34
0.0
50
0.000000
100
AcDbRotatedDimension
0
DIMENSION
8
Layer_1
5
83
100
AcDbEntity
62
256
370
-1
6
ByLayer
1
Layer_1_height
3
Standard
70
0
71
5
72
1
41
1.0
100
AcDbAlignedDimension
13
0.000000
23
3.127531
33
0.0
14
0.000000
24
171.615397
34
0.0
50
90.000000
100
AcDbRotatedDimension
0
DIMENSION
8
Layer_1
5
83
100
AcDbEntity
62
256
370
-1
6
ByLayer
1
Layer_1_miny
3
Standard
70
0
71
5
72
1
41
1.0
100
AcDbAlignedDimension
13
3.127531
23
0.000000
33
0.0
14
0.000000
24
0.000000
34
0.0
50
0.000000
100
AcDbRotatedDimension
0
DIMENSION
8
Layer_1
5
83
100
AcDbEntity
62
256
370
-1
6
ByLayer
1
Layer_1_maxy
3
Standard
70
0
71
5
72
1
41
1.0
100
AcDbAlignedDimension
13
0.000000
23
0.000000
33
0.0
14
171.615397
24
0.000000
34
0.0
50
0.000000
100
AcDbRotatedDimension
62
0
0
LWPOLYLINE
100
AcDbPolyline
8
Layer_1
90
328
70
0
10
164.494543
20
3.376247
30
0.0
10
164.197338
20
4.032414
30
0.0
10
163.649450
20
7.317823
30
0.0
10
162.917508
20
10.629014
30
0.0
10
161.795846
20
14.575748
30
0.0
10
160.424411
20
18.450176
30
0.0
10
158.806068
20
22.246994
30
0.0
10
156.943682
20
25.960900
30
0.0
10
154.840118
20
29.586592
30
0.0
10
152.498241
20
33.118765
30
0.0
10
149.920917
20
36.552118
30
0.0
10
147.111012
20
39.881347
30
0.0
10
141.598086
20
45.469347
30
0.0
10
139.822659
20
47.036172
30
0.0
10
134.475705
20
51.306386
30
0.0
10
129.060806
20
54.951193
30
0.0
10
122.699333
20
58.542871
30
0.0
10
116.318473
20
61.535364
30
0.0
10
109.685440
20
64.068422
30
0.0
10
102.601347
20
66.116855
30
0.0
10
96.887473
20
67.442235
30
0.0
10
88.632473
20
68.625960
30
0.0
10
84.483806
20
68.964373
30
0.0
10
82.898437
20
69.056752
30
0.0
10
74.323804
20
69.058446
30
0.0
10
72.715137
20
68.963255
30
0.0
10
71.318137
20
68.878537
30
0.0
10
70.386804
20
68.795733
30
0.0
10
65.984137
20
68.330228
30
0.0
10
65.095137
20
68.201551
30
0.0
10
59.676470
20
67.272673
30
0.0
10
57.898470
20
66.887677
30
0.0
10
53.428649
20
65.784749
30
0.0
10
48.788099
20
64.360196
30
0.0
10
44.194235
20
62.686953
30
0.0
10
39.864470
20
60.837956
30
0.0
10
34.709905
20
58.222601
30
0.0
10
29.740614
20
55.254513
30
0.0
10
25.060169
20
52.000475
30
0.0
10
20.772139
20
48.527270
30
0.0
10
16.990777
20
44.954772
30
0.0
10
13.789772
20
41.532254
30
0.0
10
12.600154
20
40.135254
30
0.0
10
9.623080
20
36.222867
30
0.0
10
6.666884
20
31.586391
30
0.0
10
4.089723
20
26.751173
30
0.0
10
3.373912
20
25.277507
30
0.0
10
2.838309
20
24.844686
30
0.0
10
2.264441
20
24.904863
30
0.0
10
1.871981
20
25.344431
30
0.0
10
1.880604
20
26.049786
30
0.0
10
4.321467
20
30.948921
30
0.0
10
6.289132
20
34.298959
30
0.0
10
8.161171
20
37.129587
30
0.0
10
10.439548
20
40.188806
30
0.0
10
10.823805
20
40.652449
30
0.0
10
11.755139
20
41.780166
30
0.0
10
13.058740
20
43.341344
30
0.0
10
15.798147
20
46.224074
30
0.0
10
19.541080
20
49.787254
30
0.0
10
20.513002
20
50.639729
30
0.0
10
21.745805
20
51.653062
30
0.0
10
22.727230
20
52.451587
30
0.0
10
23.102275
20
52.750587
30
0.0
10
23.771850
20
53.264243
30
0.0
10
29.916137
20
57.490676
30
0.0
10
34.484083
20
60.118000
30
0.0
10
38.972351
20
62.373099
30
0.0
10
43.564641
20
64.341414
30
0.0
10
48.444652
20
66.108388
30
0.0
10
49.362501
20
66.414289
30
0.0
10
48.783319
20
66.704577
30
0.0
10
47.657484
20
67.445070
30
0.0
10
46.666244
20
68.446994
30
0.0
10
45.858317
20
69.650628
30
0.0
10
45.282420
20
70.996254
30
0.0
10
45.036392
20
72.761088
30
0.0
10
45.190893
20
74.622925
30
0.0
10
45.892834
20
76.450718
30
0.0
10
47.048096
20
78.015461
30
0.0
10
48.567818
20
79.224996
30
0.0
10
50.363137
20
79.987160
30
0.0
10
52.021528
20
80.137344
30
0.0
10
53.806005
20
80.066814
30
0.0
10
54.243207
20
79.993374
30
0.0
10
55.372339
20
81.073458
30
0.0
10
57.305804
20
82.808998
30
0.0
10
59.083804
20
84.468787
30
0.0
10
62.002416
20
87.442178
30
0.0
10
63.947362
20
89.411262
30
0.0
10
63.399416
20
89.412956
30
0.0
10
58.950468
20
89.543424
30
0.0
10
58.475759
20
89.819746
30
0.0
10
58.164668
20
90.372997
30
0.0
10
58.162975
20
92.716415
30
0.0
10
58.222165
20
94.946083
30
0.0
10
58.194789
20
95.158944
30
0.0
10
57.432789
20
94.727133
30
0.0
10
54.596456
20
93.370423
30
0.0
10
51.368853
20
91.796286
30
0.0
10
50.215583
20
91.147048
30
0.0
10
50.168443
20
90.702297
30
0.0
10
49.989180
20
90.005855
30
0.0
10
49.633746
20
89.328970
30
0.0
10
49.160415
20
88.759289
30
0.0
10
48.627456
20
88.384459
30
0.0
10
48.100992
20
88.240327
30
0.0
10
47.515984
20
88.261955
30
0.0
10
46.172123
20
88.802187
30
0.0
10
45.184119
20
89.598346
30
0.0
10
44.995965
20
90.033300
30
0.0
10
44.944456
20
90.590819
30
0.0
10
45.142997
20
91.623460
30
0.0
10
45.723387
20
92.475871
30
0.0
10
46.226184
20
93.218198
30
0.0
10
46.422378
20
94.449048
30
0.0
10
46.763700
20
97.981587
30
0.0
10
46.726902
20
98.217213
30
0.0
10
46.426083
20
98.470740
30
0.0
10
45.809717
20
99.060707
30
0.0
10
45.518045
20
99.819968
30
0.0
10
45.414215
20
100.225484
30
0.0
10
45.288767
20
100.288290
30
0.0
10
44.312399
20
100.148003
30
0.0
10
43.104935
20
100.161409
30
0.0
10
41.995676
20
100.360518
30
0.0
10
41.009657
20
100.783954
30
0.0
10
40.067581
20
101.405921
30
0.0
10
39.359386
20
102.165574
30
0.0
10
38.898885
20
103.043559
30
0.0
10
38.699892
20
104.020521
30
0.0
10
38.697277
20
104.668046
30
0.0
10
38.849565
20
105.119339
30
0.0
10
39.078391
20
105.469486
30
0.0
10
39.407945
20
105.680154
30
0.0
10
40.027314
20
105.784060
30
0.0
10
40.549576
20
105.558638
30
0.0
10
40.911020
20
105.056355
30
0.0
10
41.047930
20
104.329676
30
0.0
10
41.176699
20
103.635553
30
0.0
10
41.716689
20
103.088032
30
0.0
10
42.591919
20
102.713280
30
0.0
10
43.646380
20
102.554434
30
0.0
10
44.724066
20
102.654633
30
0.0
10
45.814178
20
103.076817
30
0.0
10
46.689333
20
103.746790
30
0.0
10
47.287689
20
104.600596
30
0.0
10
47.547400
20
105.574284
30
0.0
10
47.491511
20
106.332224
30
0.0
10
47.225601
20
106.980634
30
0.0
10
46.768292
20
107.489707
30
0.0
10
46.138208
20
107.829632
30
0.0
10
45.105406
20
108.361728
30
0.0
10
44.884162
20
108.686132
30
0.0
10
44.817453
20
109.089738
30
0.0
10
44.945828
20
109.674104
30
0.0
10
45.347794
20
110.083820
30
0.0
10
45.688637
20
110.220656
30
0.0
10
46.212551
20
110.219831
30
0.0
10
47.469883
20
109.855545
30
0.0
10
48.570436
20
109.024753
30
0.0
10
49.404466
20
107.841698
30
0.0
10
49.862226
20
106.420624
30
0.0
10
49.898646
20
105.276422
30
0.0
10
49.673116
20
104.142253
30
0.0
10
49.207585
20
103.087639
30
0.0
10
48.524002
20
102.182100
30
0.0
10
48.140106
20
101.787184
30
0.0
10
48.484708
20
101.611379
30
0.0
10
49.079375
20
101.103093
30
0.0
10
49.329193
20
100.379062
30
0.0
10
49.259438
20
99.631900
30
0.0
10
48.873658
20
98.931885
30
0.0
10
48.584891
20
98.237116
30
0.0
10
48.172624
20
93.375184
30
0.0
10
48.173488
20
93.187765
30
0.0
10
48.481231
20
93.034897
30
0.0
10
48.984566
20
92.969638
30
0.0
10
50.193787
20
93.608728
30
0.0
10
52.704718
20
94.821894
30
0.0
10
55.879718
20
96.334859
30
0.0
10
57.877287
20
97.317557
30
0.0
10
58.406453
20
97.548844
30
0.0
10
58.406453
20
98.541149
30
0.0
10
58.489187
20
100.208568
30
0.0
10
58.608516
20
101.307358
30
0.0
10
58.756938
20
101.955584
30
0.0
10
59.112170
20
102.329073
30
0.0
10
59.543088
20
102.460838
30
0.0
10
60.565453
20
102.486344
30
0.0
10
62.902538
20
102.421272
30
0.0
10
64.054284
20
102.359968
30
0.0
10
64.038141
20
103.442158
30
0.0
10
64.008226
20
105.984847
30
0.0
10
63.994482
20
107.445347
30
0.0
10
62.846625
20
107.445347
30
0.0
10
61.108819
20
107.347918
30
0.0
10
60.161178
20
107.355736
30
0.0
10
59.706213
20
107.576842
30
0.0
10
59.381034
20
107.910371
30
0.0
10
59.215392
20
108.311778
30
0.0
10
59.239037
20
108.736514
30
0.0
10
59.371986
20
110.027680
30
0.0
10
59.502300
20
112.056858
30
0.0
10
59.566415
20
113.083823
30
0.0
10
55.146815
20
113.248999
30
0.0
10
52.503225
20
113.332607
30
0.0
10
50.979225
20
113.379436
30
0.0
10
48.638769
20
113.522730
30
0.0
10
48.149252
20
113.728132
30
0.0
10
47.901688
20
114.070254
30
0.0
10
47.951212
20
120.695680
30
0.0
10
48.130628
20
124.254498
30
0.0
10
48.324713
20
124.823438
30
0.0
10
48.669815
20
125.082506
30
0.0
10
49.293498
20
125.204604
30
0.0
10
51.379148
20
125.186496
30
0.0
10
54.723482
20
125.097650
30
0.0
10
57.686815
20
125.013449
30
0.0
10
60.650148
20
124.926460
30
0.0
10
64.756482
20
124.800075
30
0.0
10
68.110192
20
124.673824
30
0.0
10
69.010064
20
124.431267
30
0.0
10
69.293864
20
124.162219
30
0.0
10
69.433309
20
123.611598
30
0.0
10
69.418152
20
120.236807
30
0.0
10
69.225590
20
114.439449
30
0.0
10
69.094730
20
113.601859
30
0.0
10
68.872326
20
113.263276
30
0.0
10
68.223893
20
112.937326
30
0.0
10
66.926745
20
112.899740
30
0.0
10
64.498595
20
112.993718
30
0.0
10
63.097706
20
113.040106
30
0.0
10
62.952740
20
111.830225
30
0.0
10
62.808460
20
110.271969
30
0.0
10
62.809024
20
109.923597
30
0.0
10
64.311857
20
109.825104
30
0.0
10
66.243920
20
109.634672
30
0.0
10
66.665849
20
109.498198
30
0.0
10
66.912380
20
109.296110
30
0.0
10
67.121276
20
108.732485
30
0.0
10
67.028955
20
107.657014
30
0.0
10
66.924798
20
104.720579
30
0.0
10
66.915343
20
102.376811
30
0.0
10
67.635010
20
102.345685
30
0.0
10
76.374264
20
102.295966
30
0.0
10
84.393845
20
102.277367
30
0.0
10
84.375247
20
105.009521
30
0.0
10
84.480465
20
108.283424
30
0.0
10
84.725006
20
109.023379
30
0.0
10
85.174678
20
109.609382
30
0.0
10
85.562545
20
109.954880
30
0.0
10
86.081096
20
110.142557
30
0.0
10
88.505329
20
110.229802
30
0.0
10
90.918329
20
110.276812
30
0.0
10
94.506541
20
110.346195
30
0.0
10
98.749996
20
110.206036
30
0.0
10
100.866662
20
110.114094
30
0.0
10
103.513148
20
110.026676
30
0.0
10
104.447452
20
109.948543
30
0.0
10
104.728817
20
109.805522
30
0.0
10
104.915433
20
109.517980
30
0.0
10
105.091743
20
108.283681
30
0.0
10
105.151033
20
105.794344
30
0.0
10
105.164918
20
102.196011
30
0.0
10
104.959398
20
101.757838
30
0.0
10
104.845598
20
101.501693
30
0.0
10
104.979267
20
101.080505
30
0.0
10
105.239279
20
99.284736
30
0.0
10
105.231887
20
97.238795
30
0.0
10
105.246421
20
94.732215
30
0.0
10
105.299120
20
92.642091
30
0.0
10
105.202465
20
91.135145
30
0.0
10
104.945173
20
90.131345
30
0.0
10
104.515960
20
89.550655
30
0.0
10
104.108555
20
89.282737
30
0.0
10
103.622588
20
89.138583
30
0.0
10
101.444414
20
89.069545
30
0.0
10
99.300340
20
89.021928
30
0.0
10
100.517415
20
87.129874
30
0.0
10
102.292073
20
84.297423
30
0.0
10
104.809363
20
79.547678
30
0.0
10
105.237557
20
78.796473
30
0.0
10
106.716651
20
79.210985
30
0.0
10
108.046209
20
79.388081
30
0.0
10
109.280773
20
79.330297
30
0.0
10
110.474884
20
79.040169
30
0.0
10
111.733158
20
78.470547
30
0.0
10
112.886692
20
77.675904
30
0.0
10
113.865167
20
76.714172
30
0.0
10
114.598261
20
75.643283
30
0.0
10
115.063677
20
74.571968
30
0.0
10
115.348339
20
73.468827
30
0.0
10
115.454927
20
72.352809
30
0.0
10
115.386120
20
71.242862
30
0.0
10
115.144597
20
70.157933
30
0.0
10
114.733037
20
69.116969
30
0.0
10
114.154120
20
68.138920
30
0.0
10
113.410523
20
67.242732
30
0.0
10
112.560979
20
66.485048
30
0.0
10
111.535647
20
65.859304
30
0.0
10
111.060315
20
65.580369
30
0.0
10
111.154647
20
65.467188
30
0.0
10
112.254340
20
65.069669
30
0.0
10
118.088646
20
62.750133
30
0.0
10
123.773519
20
60.030656
30
0.0
10
129.223303
20
56.955815
30
0.0
10
134.352343
20
53.570183
30
0.0
10
137.281998
20
51.421791
30
0.0
10
140.448343
20
48.828714
30
0.0
10
144.969569
20
44.663724
30
0.0
10
148.164078
20
41.306793
30
0.0
10
151.119134
20
37.809642
30
0.0
10
153.859181
20
34.141521
30
0.0
10
156.408662
20
30.271678
30
0.0
10
158.284229
20
27.021954
30
0.0
10
160.038018
20
23.555967
30
0.0
10
161.604160
20
20.012782
30
0.0
10
162.916785
20
16.531463
30
0.0
10
164.235439
20
12.239185
30
0.0
10
165.257268
20
7.855263
30
0.0
10
165.626068
20
5.803011
30
0.0
10
165.893953
20
4.076531
30
0.0
10
165.841336
20
3.721990
30
0.0
10
165.569003
20
3.326511
30
0.0
10
165.051167
20
3.127531
30
0.0
10
164.494413
20
3.376244
30
0.0
10
164.494543
20
3.376247
30
0.0
62
0
0
LWPOLYLINE
100
AcDbPolyline
8
Layer_1
90
30
70
0
10
109.799140
20
66.936716
30
0.0
10
111.008027
20
67.477026
30
0.0
10
112.076096
20
68.307942
30
0.0
10
112.944691
20
69.372067
30
0.0
10
113.555156
20
70.612003
30
0.0
10
113.741177
20
72.133488
30
0.0
10
113.538731
20
73.748014
30
0.0
10
112.941578
20
75.012231
30
0.0
10
112.019718
20
76.131110
30
0.0
10
111.081958
20
76.875610
30
0.0
10
110.001502
20
77.358497
30
0.0
10
109.267169
20
77.549961
30
0.0
10
108.275140
20
77.589349
30
0.0
10
107.283126
20
77.550298
30
0.0
10
106.539473
20
77.364517
30
0.0
10
105.565520
20
76.956361
30
0.0
10
104.733077
20
76.421420
30
0.0
10
104.026124
20
75.747111
30
0.0
10
103.428642
20
74.920850
30
0.0
10
102.888717
20
73.687483
30
0.0
10
102.692616
20
72.407142
30
0.0
10
102.814312
20
71.134659
30
0.0
10
103.227780
20
69.924868
30
0.0
10
103.906992
20
68.832601
30
0.0
10
104.825923
20
67.912690
30
0.0
10
105.958545
20
67.219968
30
0.0
10
107.278833
20
66.809267
30
0.0
10
108.555928
20
66.768826
30
0.0
10
109.799140
20
66.936716
30
0.0
10
109.799140
20
66.936716
30
0.0
62
0
0
LWPOLYLINE
100
AcDbPolyline
8
Layer_1
90
20
70
0
10
107.766589
20
70.181414
30
0.0
10
107.068017
20
70.553936
30
0.0
10
106.542987
20
71.119567
30
0.0
10
106.238232
20
71.807695
30
0.0
10
106.200485
20
72.547711
30
0.0
10
106.528854
20
73.472390
30
0.0
10
107.143888
20
74.128764
30
0.0
10
107.957756
20
74.456348
30
0.0
10
108.882623
20
74.394655
30
0.0
10
109.504986
20
74.123369
30
0.0
10
109.992310
20
73.716517
30
0.0
10
110.334065
20
73.186003
30
0.0
10
110.519721
20
72.543732
30
0.0
10
110.495635
20
71.925464
30
0.0
10
110.269151
20
71.314564
30
0.0
10
109.878204
20
70.781325
30
0.0
10
109.360727
20
70.396044
30
0.0
10
108.529441
20
70.153905
30
0.0
10
107.766589
20
70.181414
30
0.0
10
107.766589
20
70.181414
30
0.0
62
0
0
LWPOLYLINE
100
AcDbPolyline
8
Layer_1
90
31
70
0
10
53.989800
20
67.843699
30
0.0
10
55.078190
20
68.344519
30
0.0
10
55.825376
20
68.908103
30
0.0
10
56.506775
20
69.640131
30
0.0
10
57.076271
20
70.482560
30
0.0
10
57.487747
20
71.377347
30
0.0
10
57.697305
20
72.956730
30
0.0
10
57.526913
20
74.510014
30
0.0
10
56.894294
20
75.850263
30
0.0
10
56.012072
20
76.939043
30
0.0
10
54.900660
20
77.756834
30
0.0
10
53.580470
20
78.284115
30
0.0
10
52.123683
20
78.439413
30
0.0
10
50.701804
20
78.245905
30
0.0
10
49.564123
20
77.781008
30
0.0
10
48.548832
20
77.155703
30
0.0
10
47.618806
20
76.093927
30
0.0
10
46.923568
20
74.702351
30
0.0
10
46.721986
20
73.913760
30
0.0
10
46.685795
20
72.943680
30
0.0
10
46.732149
20
71.980572
30
0.0
10
46.950647
20
71.241237
30
0.0
10
47.478830
20
70.165719
30
0.0
10
48.183046
20
69.254564
30
0.0
10
49.048275
20
68.523491
30
0.0
10
50.059494
20
67.988217
30
0.0
10
51.149697
20
67.647299
30
0.0
10
52.395137
20
67.600062
30
0.0
10
53.299846
20
67.662302
30
0.0
10
53.989800
20
67.843699
30
0.0
10
53.989800
20
67.843699
30
0.0
62
0
0
LWPOLYLINE
100
AcDbPolyline
8
Layer_1
90
22
70
0
10
51.548470
20
70.879524
30
0.0
10
50.999733
20
71.169856
30
0.0
10
50.541654
20
71.643404
30
0.0
10
50.227357
20
72.227428
30
0.0
10
50.109964
20
72.849192
30
0.0
10
50.202594
20
73.538014
30
0.0
10
50.461734
20
74.119357
30
0.0
10
50.854843
20
74.578158
30
0.0
10
51.349379
20
74.899355
30
0.0
10
51.912804
20
75.067883
30
0.0
10
52.512574
20
75.068681
30
0.0
10
53.116152
20
74.886684
30
0.0
10
53.690994
20
74.506830
30
0.0
10
54.199185
20
73.824677
30
0.0
10
54.358289
20
72.943680
30
0.0
10
54.278214
20
72.342639
30
0.0
10
54.050970
20
71.806718
30
0.0
10
53.690307
20
71.358969
30
0.0
10
53.209977
20
71.022441
30
0.0
10
52.392887
20
70.824926
30
0.0
10
51.548470
20
70.879524
30
0.0
10
51.548470
20
70.879524
30
0.0
62
0
0
LWPOLYLINE
100
AcDbPolyline
8
Layer_1
90
50
70
0
10
102.179868
20
68.328323
30
0.0
10
101.657154
20
69.340263
30
0.0
10
101.244657
20
70.566224
30
0.0
10
101.074138
20
72.104510
30
0.0
10
101.192392
20
73.627855
30
0.0
10
101.902150
20
75.573354
30
0.0
10
102.430312
20
76.426553
30
0.0
10
103.030048
20
77.116613
30
0.0
10
103.343040
20
77.497358
30
0.0
10
103.208382
20
77.821759
30
0.0
10
102.687097
20
78.701014
30
0.0
10
102.054172
20
79.801680
30
0.0
10
101.374891
20
80.987014
30
0.0
10
100.488338
20
82.511014
30
0.0
10
99.644431
20
83.947892
30
0.0
10
98.114623
20
86.278680
30
0.0
10
96.258510
20
89.056120
30
0.0
10
96.110697
20
89.210344
30
0.0
10
95.805569
20
89.225453
30
0.0
10
95.497667
20
89.158203
30
0.0
10
95.386367
20
88.903347
30
0.0
10
95.240554
20
86.400338
30
0.0
10
95.065319
20
83.980158
30
0.0
10
94.718923
20
83.619512
30
0.0
10
93.800228
20
83.496073
30
0.0
10
89.926713
20
83.477340
30
0.0
10
85.462883
20
83.414145
30
0.0
10
87.001152
20
81.939491
30
0.0
10
87.830671
20
80.575669
30
0.0
10
88.307464
20
79.152060
30
0.0
10
88.470497
20
77.645170
30
0.0
10
88.371494
20
76.325267
30
0.0
10
88.061247
20
75.121814
30
0.0
10
87.524986
20
73.994084
30
0.0
10
86.747937
20
72.901347
30
0.0
10
85.798551
20
71.980932
30
0.0
10
84.538383
20
71.193510
30
0.0
10
83.764140
20
70.790023
30
0.0
10
84.145140
20
70.780879
30
0.0
10
84.653140
20
70.747834
30
0.0
10
85.669140
20
70.668408
30
0.0
10
86.939140
20
70.574352
30
0.0
10
90.156473
20
70.232044
30
0.0
10
90.876140
20
70.144109
30
0.0
10
96.002562
20
69.384501
30
0.0
10
100.866806
20
68.376938
30
0.0
10
102.206072
20
68.081231
30
0.0
10
102.308993
20
68.114891
30
0.0
10
102.179882
20
68.328323
30
0.0
10
102.179868
20
68.328323
30
0.0
62
0
0
LWPOLYLINE
100
AcDbPolyline
8
Layer_1
90
50
70
0
10
59.306579
20
68.999577
30
0.0
10
67.042470
20
70.233890
30
0.0
10
67.804470
20
70.320690
30
0.0
10
71.529804
20
70.657037
30
0.0
10
77.436588
20
70.904535
30
0.0
10
78.352427
20
70.975079
30
0.0
10
78.103208
20
71.119478
30
0.0
10
77.249799
20
71.576358
30
0.0
10
76.335182
20
72.347788
30
0.0
10
75.488346
20
73.307032
30
0.0
10
74.838283
20
74.327354
30
0.0
10
74.383748
20
75.464251
30
0.0
10
74.135190
20
76.639542
30
0.0
10
74.087175
20
77.827298
30
0.0
10
74.234270
20
79.001589
30
0.0
10
74.571042
20
80.136484
30
0.0
10
75.092056
20
81.206054
30
0.0
10
75.791881
20
82.184369
30
0.0
10
76.665082
20
83.045498
30
0.0
10
77.449982
20
83.637690
30
0.0
10
77.713933
20
83.798210
30
0.0
10
77.064427
20
83.853107
30
0.0
10
73.374857
20
83.908014
30
0.0
10
69.960609
20
84.002231
30
0.0
10
69.420266
20
84.274003
30
0.0
10
69.008481
20
84.785259
30
0.0
10
68.724833
20
85.536762
30
0.0
10
68.568900
20
86.529277
30
0.0
10
68.570311
20
89.072680
30
0.0
10
68.492670
20
89.178468
30
0.0
10
68.058482
20
89.219137
30
0.0
10
67.508148
20
89.238582
30
0.0
10
67.127148
20
88.765617
30
0.0
10
64.753318
20
86.290827
30
0.0
10
61.578318
20
83.024641
30
0.0
10
59.507148
20
81.002497
30
0.0
10
57.704510
20
79.399452
30
0.0
10
56.790872
20
78.554182
30
0.0
10
57.298864
20
78.094476
30
0.0
10
57.994319
20
77.327823
30
0.0
10
58.577055
20
76.404048
30
0.0
10
59.023842
20
75.367384
30
0.0
10
59.311453
20
74.262065
30
0.0
10
59.404115
20
72.940936
30
0.0
10
59.243364
20
71.581492
30
0.0
10
58.849323
20
70.280237
30
0.0
10
58.242115
20
69.133678
30
0.0
10
58.100090
20
68.752678
30
0.0
10
59.306590
20
68.999574
30
0.0
10
59.306579
20
68.999577
30
0.0
62
0
0
LWPOLYLINE
100
AcDbPolyline
8
Layer_1
90
31
70
0
10
82.349540
20
72.184060
30
0.0
10
83.868814
20
72.734103
30
0.0
10
85.156475
20
73.664524
30
0.0
10
85.853451
20
74.452830
30
0.0
10
86.614358
20
76.094653
30
0.0
10
86.790685
20
77.515680
30
0.0
10
86.641631
20
78.770196
30
0.0
10
86.227522
20
79.914215
30
0.0
10
85.583837
20
80.919142
30
0.0
10
84.746057
20
81.756383
30
0.0
10
83.749664
20
82.397344
30
0.0
10
82.630137
20
82.813430
30
0.0
10
81.422957
20
82.976046
30
0.0
10
80.163605
20
82.856598
30
0.0
10
79.236893
20
82.578404
30
0.0
10
78.359622
20
82.161415
30
0.0
10
77.591108
20
81.639469
30
0.0
10
76.990665
20
81.046407
30
0.0
10
76.375233
20
80.113839
30
0.0
10
75.965699
20
79.121570
30
0.0
10
75.759649
20
78.095799
30
0.0
10
75.754669
20
77.062727
30
0.0
10
75.948343
20
76.048552
30
0.0
10
76.338257
20
75.079474
30
0.0
10
76.921995
20
74.181692
30
0.0
10
77.697144
20
73.381407
30
0.0
10
78.724666
20
72.692918
30
0.0
10
79.876881
20
72.255036
30
0.0
10
81.102327
20
72.081002
30
0.0
10
82.349540
20
72.184060
30
0.0
10
82.349540
20
72.184060
30
0.0
62
0
0
LWPOLYLINE
100
AcDbPolyline
8
Layer_1
90
20
70
0
10
80.736502
20
75.472504
30
0.0
10
79.947171
20
75.989724
30
0.0
10
79.468326
20
76.762434
30
0.0
10
79.346037
20
77.662434
30
0.0
10
79.626378
20
78.561525
30
0.0
10
80.370596
20
79.396211
30
0.0
10
80.841457
20
79.574982
30
0.0
10
81.435804
20
79.628706
30
0.0
10
82.409470
20
79.445623
30
0.0
10
82.935688
20
79.084421
30
0.0
10
83.303437
20
78.649590
30
0.0
10
83.519349
20
78.130291
30
0.0
10
83.590057
20
77.515680
30
0.0
10
83.514306
20
76.908609
30
0.0
10
83.289457
20
76.380383
30
0.0
10
82.920384
20
75.938888
30
0.0
10
82.411962
20
75.592011
30
0.0
10
81.573972
20
75.390110
30
0.0
10
80.736502
20
75.472504
30
0.0
10
80.736502
20
75.472504
30
0.0
62
0
0
LWPOLYLINE
100
AcDbPolyline
8
Layer_1
90
18
70
0
10
93.128569
20
85.159514
30
0.0
10
93.518332
20
85.178000
30
0.0
10
93.575110
20
86.596166
30
0.0
10
93.681400
20
88.530300
30
0.0
10
93.730913
20
89.046259
30
0.0
10
93.079166
20
89.101351
30
0.0
10
70.448667
20
89.020952
30
0.0
10
70.138742
20
88.893723
30
0.0
10
70.224080
20
87.861992
30
0.0
10
70.456171
20
85.745673
30
0.0
10
71.316648
20
85.633646
30
0.0
10
74.874137
20
85.571124
30
0.0
10
79.446137
20
85.483181
30
0.0
10
81.224137
20
85.393993
30
0.0
10
83.425470
20
85.295500
30
0.0
10
88.316213
20
85.149474
30
0.0
10
93.128569
20
85.159500
30
0.0
10
93.128569
20
85.159514
30
0.0
62
0
0
LWPOLYLINE
100
AcDbPolyline
8
Layer_1
90
54
70
0
10
103.444847
20
90.894668
30
0.0
10
103.552019
20
91.347307
30
0.0
10
103.576140
20
92.906771
30
0.0
10
103.547285
20
95.846014
30
0.0
10
103.556627
20
97.708680
30
0.0
10
103.533874
20
99.519389
30
0.0
10
103.354155
20
100.549287
30
0.0
10
103.167381
20
100.643109
30
0.0
10
102.238007
20
100.682258
30
0.0
10
94.449635
20
100.630160
30
0.0
10
86.593135
20
100.559517
30
0.0
10
86.635545
20
100.340600
30
0.0
10
86.702711
20
97.327680
30
0.0
10
86.700335
20
94.893081
30
0.0
10
86.558143
20
94.309384
30
0.0
10
86.281048
20
94.014440
30
0.0
10
85.767507
20
93.869174
30
0.0
10
82.454821
20
93.851964
30
0.0
10
79.547612
20
93.915861
30
0.0
10
78.776505
20
94.051191
30
0.0
10
78.483860
20
94.281890
30
0.0
10
78.327965
20
94.746432
30
0.0
10
78.235556
20
97.645180
30
0.0
10
78.210297
20
100.587347
30
0.0
10
76.153171
20
100.587347
30
0.0
10
74.356824
20
100.562673
30
0.0
10
73.934755
20
100.407986
30
0.0
10
72.122465
20
99.126794
30
0.0
10
69.963465
20
97.628270
30
0.0
10
68.283565
20
96.447455
30
0.0
10
67.111666
20
95.663334
30
0.0
10
67.166250
20
94.886842
30
0.0
10
67.253917
20
93.814014
30
0.0
10
67.343277
20
92.290014
30
0.0
10
67.418435
20
91.041310
30
0.0
10
70.090465
20
90.875985
30
0.0
10
79.960845
20
90.818214
30
0.0
10
91.066634
20
90.934721
30
0.0
10
91.087801
20
92.081618
30
0.0
10
91.347812
20
96.405062
30
0.0
10
91.647778
20
96.870729
30
0.0
10
91.983288
20
97.043768
30
0.0
10
92.894147
20
97.072331
30
0.0
10
94.813134
20
96.967881
30
0.0
10
97.150349
20
96.829592
30
0.0
10
98.852919
20
96.662867
30
0.0
10
99.126845
20
96.450187
30
0.0
10
99.270754
20
96.003157
30
0.0
10
99.312795
20
93.374244
30
0.0
10
99.282781
20
90.775477
30
0.0
10
99.736128
20
90.745039
30
0.0
10
101.751508
20
90.739028
30
0.0
10
103.444842
20
90.894656
30
0.0
10
103.444847
20
90.894668
30
0.0
62
0
0
LWPOLYLINE
100
AcDbPolyline
8
Layer_1
90
20
70
0
10
65.510317
20
93.538847
30
0.0
10
65.556538
20
96.065570
30
0.0
10
65.684633
20
96.572225
30
0.0
10
65.919288
20
96.872445
30
0.0
10
67.253296
20
97.790483
30
0.0
10
68.798530
20
98.857316
30
0.0
10
70.216768
20
99.876294
30
0.0
10
71.169200
20
100.548477
30
0.0
10
66.905158
20
100.621033
30
0.0
10
62.478903
20
100.712724
30
0.0
10
61.381911
20
100.805750
30
0.0
10
60.467528
20
100.863609
30
0.0
10
60.466963
20
97.656311
30
0.0
10
60.401556
20
92.820651
30
0.0
10
60.336678
20
91.192291
30
0.0
10
62.483060
20
91.168133
30
0.0
10
65.081757
20
91.124326
30
0.0
10
65.534049
20
91.104683
30
0.0
10
65.510258
20
93.538850
30
0.0
10
65.510317
20
93.538847
30
0.0
62
0
0
LWPOLYLINE
100
AcDbPolyline
8
Layer_1
90
37
70
0
10
88.040535
20
102.535053
30
0.0
10
87.974190
20
104.439680
30
0.0
10
88.050972
20
106.368579
30
0.0
10
88.253365
20
106.749646
30
0.0
10
88.631017
20
106.998632
30
0.0
10
89.040911
20
107.144665
30
0.0
10
89.598418
20
107.145280
30
0.0
10
93.204473
20
107.066289
30
0.0
10
96.506473
20
106.987707
30
0.0
10
98.722166
20
106.901460
30
0.0
10
100.807222
20
106.755564
30
0.0
10
101.199637
20
106.549460
30
0.0
10
101.436528
20
106.180808
30
0.0
10
101.602938
20
105.594450
30
0.0
10
101.684136
20
104.241414
30
0.0
10
101.771343
20
102.660258
30
0.0
10
102.433851
20
102.611403
30
0.0
10
103.068140
20
102.590772
30
0.0
10
103.137406
20
103.091897
30
0.0
10
103.222072
20
105.963686
30
0.0
10
103.237482
20
108.334353
30
0.0
10
102.221482
20
108.354899
30
0.0
10
98.953340
20
108.503065
30
0.0
10
94.384713
20
108.624595
30
0.0
10
90.622148
20
108.504476
30
0.0
10
87.851271
20
108.379300
30
0.0
10
86.435051
20
108.376760
30
0.0
10
86.284937
20
108.147928
30
0.0
10
86.157711
20
107.704845
30
0.0
10
86.105427
20
106.560428
30
0.0
10
86.170900
20
104.312760
30
0.0
10
86.274964
20
102.889626
30
0.0
10
86.284164
20
102.355492
30
0.0
10
87.183146
20
102.381993
30
0.0
10
87.907098
20
102.427129
30
0.0
10
88.040532
20
102.535126
30
0.0
10
88.040535
20
102.535053
30
0.0
62
0
0
LWPOLYLINE
100
AcDbPolyline
8
Layer_1
90
19
70
0
10
67.557901
20
115.167726
30
0.0
10
67.667669
20
119.298680
30
0.0
10
67.723738
20
122.950498
30
0.0
10
60.988804
20
123.191801
30
0.0
10
56.586137
20
123.317601
30
0.0
10
50.371886
20
123.485072
30
0.0
10
49.727127
20
123.362680
30
0.0
10
49.653213
20
120.399347
30
0.0
10
49.546815
20
116.360719
30
0.0
10
49.495826
20
115.158421
30
0.0
10
49.696649
20
115.116579
30
0.0
10
52.268137
20
115.025859
30
0.0
10
55.781804
20
114.937721
30
0.0
10
62.428137
20
114.759802
30
0.0
10
64.995507
20
114.681508
30
0.0
10
66.286674
20
114.646467
30
0.0
10
67.550470
20
114.635094
30
0.0
10
67.557893
20
115.167715
30
0.0
10
67.557901
20
115.167726
30
0.0
62
0
0
LWPOLYLINE
100
AcDbPolyline
8
Layer_1
90
21
70
0
10
61.696640
20
116.463081
30
0.0
10
60.869217
20
116.987838
30
0.0
10
60.201361
20
117.807904
30
0.0
10
60.012149
20
118.303314
30
0.0
10
59.973444
20
119.044680
30
0.0
10
60.131450
20
120.138623
30
0.0
10
60.808286
20
121.034206
30
0.0
10
61.624712
20
121.592513
30
0.0
10
62.676055
20
121.753187
30
0.0
10
63.394452
20
121.653702
30
0.0
10
64.048088
20
121.368079
30
0.0
10
64.610569
20
120.912395
30
0.0
10
65.055502
20
120.302726
30
0.0
10
65.266038
20
119.799089
30
0.0
10
65.306377
20
119.087014
30
0.0
10
65.122648
20
117.927388
30
0.0
10
64.540425
20
117.139500
30
0.0
10
63.757096
20
116.568217
30
0.0
10
62.738401
20
116.364657
30
0.0
10
61.696640
20
116.463081
30
0.0
10
61.696640
20
116.463081
30
0.0
62
0
0
LWPOLYLINE
100
AcDbPolyline
8
Layer_1
90
14
70
0
10
63.107299
20
118.331556
30
0.0
10
63.484473
20
118.690354
30
0.0
10
63.655804
20
119.167515
30
0.0
10
63.513663
20
119.573381
30
0.0
10
63.214117
20
119.928541
30
0.0
10
62.679376
20
120.055847
30
0.0
10
62.141698
20
119.922615
30
0.0
10
61.880152
20
119.634303
30
0.0
10
61.764521
20
119.272193
30
0.0
10
61.800742
20
118.891787
30
0.0
10
61.994751
20
118.548587
30
0.0
10
62.505665
20
118.224727
30
0.0
10
63.107299
20
118.331556
30
0.0
10
63.107299
20
118.331556
30
0.0
62
0
0
LWPOLYLINE
100
AcDbPolyline
8
Layer_1
90
21
70
0
10
53.595137
20
116.681803
30
0.0
10
52.896895
20
117.100196
30
0.0
10
52.353210
20
117.714557
30
0.0
10
52.001008
20
118.468489
30
0.0
10
51.877214
20
119.305598
30
0.0
10
52.018151
20
120.197013
30
0.0
10
52.495515
20
121.051980
30
0.0
10
52.920752
20
121.516072
30
0.0
10
53.421062
20
121.842627
30
0.0
10
54.696893
20
122.107091
30
0.0
10
55.457749
20
121.996277
30
0.0
10
56.171891
20
121.670886
30
0.0
10
56.779655
20
121.168288
30
0.0
10
57.221377
20
120.525856
30
0.0
10
57.465892
20
119.446251
30
0.0
10
57.301689
20
118.329295
30
0.0
10
56.761421
20
117.461111
30
0.0
10
55.932008
20
116.798513
30
0.0
10
54.789169
20
116.514903
30
0.0
10
53.595137
20
116.681803
30
0.0
10
53.595137
20
116.681803
30
0.0
62
0
0
LWPOLYLINE
100
AcDbPolyline
8
Layer_1
90
14
70
0
10
55.103536
20
118.493865
30
0.0
10
55.488495
20
118.836996
30
0.0
10
55.612470
20
119.348436
30
0.0
10
55.444696
20
119.904509
30
0.0
10
54.984142
20
120.217367
30
0.0
10
54.446220
20
120.234129
30
0.0
10
54.003931
20
119.920887
30
0.0
10
53.791516
20
119.538869
30
0.0
10
53.772655
20
119.140552
30
0.0
10
53.937093
20
118.779425
30
0.0
10
54.274576
20
118.508978
30
0.0
10
54.703927
20
118.376777
30
0.0
10
55.103536
20
118.493850
30
0.0
10
55.103536
20
118.493865
30
0.0
62
0
0
LWPOLYLINE
100
AcDbPolyline
8
Layer_1
90
29
70
0
10
53.563359
20
14.570103
30
0.0
10
53.358223
20
14.841165
30
0.0
10
53.349835
20
15.160442
30
0.0
10
53.590128
20
15.727852
30
0.0
10
58.914470
20
19.906398
30
0.0
10
66.122163
20
25.420502
30
0.0
10
71.487470
20
29.975940
30
0.0
10
73.345153
20
31.585873
30
0.0
10
75.015144
20
32.818975
30
0.0
10
76.708591
20
33.815196
30
0.0
10
78.636642
20
34.714488
30
0.0
10
80.811011
20
35.519265
30
0.0
10
81.277116
20
35.482755
30
0.0
10
81.626233
20
35.202100
30
0.0
10
81.819329
20
34.930998
30
0.0
10
81.828623
20
34.646111
30
0.0
10
81.594318
20
34.178386
30
0.0
10
80.860036
20
33.822846
30
0.0
10
77.065618
20
32.129995
30
0.0
10
75.137768
20
30.858804
30
0.0
10
72.509346
20
28.626463
30
0.0
10
67.439433
20
24.308353
30
0.0
10
60.980024
20
19.341781
30
0.0
10
56.225872
20
15.694214
30
0.0
10
54.720428
20
14.523337
30
0.0
10
54.166194
20
14.312014
30
0.0
10
53.839195
20
14.364871
30
0.0
10
53.563359
20
14.570103
30
0.0
10
53.563359
20
14.570103
30
0.0
62
0
0
LWPOLYLINE
100
AcDbPolyline
8
Layer_1
90
25
70
0
10
95.969644
20
31.510413
30
0.0
10
95.692969
20
31.891388
30
0.0
10
95.682201
20
32.442872
30
0.0
10
95.990880
20
32.940147
30
0.0
10
96.728057
20
33.677199
30
0.0
10
99.509083
20
35.889712
30
0.0
10
105.249205
20
39.901705
30
0.0
10
110.942140
20
43.495945
30
0.0
10
115.504890
20
46.039720
30
0.0
10
118.057967
20
47.247347
30
0.0
10
118.444638
20
47.159353
30
0.0
10
118.727717
20
46.926949
30
0.0
10
118.871234
20
46.597509
30
0.0
10
118.839220
20
46.218402
30
0.0
10
118.445163
20
45.757915
30
0.0
10
116.776985
20
44.847792
30
0.0
10
110.894453
20
41.546760
30
0.0
10
105.184806
20
37.821560
30
0.0
10
102.814140
20
36.202513
30
0.0
10
99.505664
20
33.823020
30
0.0
10
97.248881
20
31.901514
30
0.0
10
96.792565
20
31.499929
30
0.0
10
96.444548
20
31.417254
30
0.0
10
95.969644
20
31.510413
30
0.0
10
95.969644
20
31.510413
30
0.0
62
0
0
LWPOLYLINE
100
AcDbPolyline
8
Layer_1
90
16
70
0
10
123.418290
20
34.760402
30
0.0
10
123.123825
20
35.105160
30
0.0
10
123.067067
20
35.584658
30
0.0
10
123.208179
20
35.871692
30
0.0
10
123.646988
20
36.276582
30
0.0
10
126.143218
20
38.012568
30
0.0
10
128.929167
20
39.712014
30
0.0
10
129.479973
20
39.553159
30
0.0
10
129.750697
20
39.161402
30
0.0
10
129.708627
20
38.663951
30
0.0
10
129.321055
20
38.188014
30
0.0
10
125.436548
20
35.538404
30
0.0
10
124.069171
20
34.706434
30
0.0
10
123.722398
20
34.648977
30
0.0
10
123.418290
20
34.760402
30
0.0
10
123.418290
20
34.760402
30
0.0
62
0
0
LWPOLYLINE
100
AcDbPolyline
8
Layer_1
90
29
70
0
10
36.840851
20
35.038668
30
0.0
10
36.354018
20
35.320972
30
0.0
10
36.153928
20
35.671552
30
0.0
10
36.204720
20
36.053337
30
0.0
10
37.239804
20
37.318335
30
0.0
10
39.059759
20
39.331014
30
0.0
10
41.655048
20
42.190615
30
0.0
10
45.364914
20
45.678288
30
0.0
10
46.211580
20
46.449575
30
0.0
10
48.458137
20
48.428608
30
0.0
10
50.490236
20
50.200055
30
0.0
10
51.546969
20
51.057347
30
0.0
10
53.191893
20
52.359741
30
0.0
10
54.817831
20
53.562591
30
0.0
10
55.374453
20
53.594531
30
0.0
10
55.821642
20
53.321215
30
0.0
10
55.944981
20
52.911170
30
0.0
10
55.899513
20
52.460663
30
0.0
10
53.804013
20
50.697920
30
0.0
10
51.548470
20
48.888975
30
0.0
10
46.517173
20
44.457750
30
0.0
10
45.543507
20
43.555279
30
0.0
10
44.764923
20
42.835613
30
0.0
10
42.650976
20
40.798296
30
0.0
10
40.665386
20
38.611347
30
0.0
10
38.359139
20
36.031489
30
0.0
10
37.273806
20
35.046770
30
0.0
10
36.840851
20
35.038642
30
0.0
10
36.840851
20
35.038668
30
0.0
62
0
0
LWPOLYLINE
100
AcDbPolyline
8
Layer_1
90
26
70
0
10
56.149717
20
42.584838
30
0.0
10
55.826031
20
43.005913
30
0.0
10
55.923166
20
43.577445
30
0.0
10
56.133661
20
43.854429
30
0.0
10
56.501470
20
44.041452
30
0.0
10
57.813804
20
44.966012
30
0.0
10
61.621460
20
48.069741
30
0.0
10
65.093816
20
50.711348
30
0.0
10
69.494864
20
53.579927
30
0.0
10
73.577433
20
55.958286
30
0.0
10
74.864085
20
56.501870
30
0.0
10
75.222728
20
56.450746
30
0.0
10
75.514843
20
56.199704
30
0.0
10
75.672627
20
55.862369
30
0.0
10
75.626994
20
55.502304
30
0.0
10
75.390019
20
55.149946
30
0.0
10
74.973778
20
54.835733
30
0.0
10
73.096137
20
53.769026
30
0.0
10
68.324986
20
50.865984
30
0.0
10
64.192133
20
47.950470
30
0.0
10
59.150877
20
43.895182
30
0.0
10
58.096665
20
43.036706
30
0.0
10
57.299179
20
42.555782
30
0.0
10
56.677252
20
42.416972
30
0.0
10
56.149717
20
42.584838
30
0.0
10
56.149717
20
42.584838
30
0.0
62
0
0
LWPOLYLINE
100
AcDbPolyline
8
Layer_1
90
22
70
0
10
87.144126
20
48.891481
30
0.0
10
86.853834
20
49.131473
30
0.0
10
86.719870
20
49.480911
30
0.0
10
86.753177
20
49.860540
30
0.0
10
86.964701
20
50.191106
30
0.0
10
87.955140
20
50.762800
30
0.0
10
90.456642
20
52.165448
30
0.0
10
94.015532
20
54.224582
30
0.0
10
97.903473
20
56.135959
30
0.0
10
101.795473
20
57.661347
30
0.0
10
102.199373
20
57.519799
30
0.0
10
102.515300
20
57.242704
30
0.0
10
102.597313
20
56.818108
30
0.0
10
102.469877
20
56.409051
30
0.0
10
102.035790
20
56.074186
30
0.0
10
100.909140
20
55.587378
30
0.0
10
96.320601
20
53.562477
30
0.0
10
91.638140
20
50.948373
30
0.0
10
88.998292
20
49.449997
30
0.0
10
87.546174
20
48.774658
30
0.0
10
87.144126
20
48.891481
30
0.0
10
87.144126
20
48.891481
30
0.0
62
0
0
LWPOLYLINE
100
AcDbPolyline
8
Layer_1
90
40
70
0
10
14.141440
20
91.110012
30
0.0
10
13.612628
20
91.417928
30
0.0
10
12.928537
20
92.345612
30
0.0
10
12.425301
20
93.120873
30
0.0
10
11.518718
20
93.175672
30
0.0
10
10.574319
20
93.289083
30
0.0
10
9.957940
20
93.512744
30
0.0
10
9.622581
20
93.875621
30
0.0
10
9.521240
20
94.406680
30
0.0
10
9.653488
20
94.963354
30
0.0
10
10.410547
20
95.989230
30
0.0
10
10.891790
20
96.598113
30
0.0
10
10.646206
20
97.513230
30
0.0
10
10.416050
20
98.552726
30
0.0
10
10.530940
20
99.125134
30
0.0
10
10.827865
20
99.566175
30
0.0
10
11.281857
20
99.765386
30
0.0
10
11.928962
20
99.728066
30
0.0
10
12.805231
20
99.459517
30
0.0
10
13.772658
20
99.189320
30
0.0
10
14.654535
20
99.716099
30
0.0
10
15.347343
20
100.107127
30
0.0
10
15.853671
20
100.230387
30
0.0
10
16.278026
20
100.218736
30
0.0
10
16.607811
20
99.997071
30
0.0
10
16.990802
20
99.391321
30
0.0
10
17.036394
20
98.156768
30
0.0
10
16.999282
20
97.158347
30
0.0
10
17.729811
20
96.575296
30
0.0
10
18.564974
20
95.786734
30
0.0
10
18.782153
20
95.143309
30
0.0
10
18.707994
20
94.675428
30
0.0
10
18.446415
20
94.323251
30
0.0
10
17.131472
20
93.776018
30
0.0
10
16.189169
20
93.445951
30
0.0
10
15.820330
20
92.628680
30
0.0
10
15.427372
20
91.676979
30
0.0
10
14.889221
20
91.195271
30
0.0
10
14.141440
20
91.110012
30
0.0
10
14.141440
20
91.110012
30
0.0
62
0
0
LWPOLYLINE
100
AcDbPolyline
8
Layer_1
90
43
70
0
10
132.675209
20
96.694851
30
0.0
10
132.406150
20
96.922118
30
0.0
10
132.246798
20
97.266290
30
0.0
10
132.151140
20
98.714055
30
0.0
10
132.151140
20
99.978868
30
0.0
10
131.124997
20
100.760942
30
0.0
10
130.267409
20
101.462948
30
0.0
10
129.933855
20
101.916027
30
0.0
10
129.822121
20
102.354687
30
0.0
10
129.876607
20
102.760326
30
0.0
10
130.088647
20
103.108434
30
0.0
10
130.449577
20
103.374503
30
0.0
10
131.727806
20
103.845405
30
0.0
10
132.797180
20
104.259295
30
0.0
10
133.253356
20
105.448492
30
0.0
10
133.840541
20
106.792390
30
0.0
10
134.158830
20
107.063896
30
0.0
10
134.569389
20
107.167460
30
0.0
10
134.950759
20
107.150717
30
0.0
10
135.297220
20
106.990017
30
0.0
10
136.156076
20
106.045322
30
0.0
10
137.106116
20
104.924003
30
0.0
10
137.527125
20
104.821000
30
0.0
10
138.260669
20
104.820209
30
0.0
10
139.628324
20
104.736460
30
0.0
10
140.231388
20
104.388344
30
0.0
10
140.488954
20
103.968897
30
0.0
10
140.504339
20
103.519942
30
0.0
10
139.711018
20
102.105624
30
0.0
10
138.977965
20
101.066465
30
0.0
10
139.108251
20
100.594073
30
0.0
10
139.471369
20
99.335505
30
0.0
10
139.648820
20
98.295847
30
0.0
10
139.313940
20
97.657880
30
0.0
10
138.989869
20
97.404413
30
0.0
10
138.607887
20
97.320328
30
0.0
10
137.154466
20
97.661070
30
0.0
10
135.894389
20
98.055989
30
0.0
10
135.007073
20
97.424353
30
0.0
10
133.859324
20
96.658035
30
0.0
10
133.260269
20
96.530465
30
0.0
10
132.675209
20
96.694859
30
0.0
10
132.675209
20
96.694851
30
0.0
62
0
0
LWPOLYLINE
100
AcDbPolyline
8
Layer_1
90
33
70
0
10
41.981137
20
106.172418
30
0.0
10
40.626470
20
106.261227
30
0.0
10
38.383636
20
106.333166
30
0.0
10
37.420192
20
106.408496
30
0.0
10
37.185989
20
106.598680
30
0.0
10
36.685206
20
110.789680
30
0.0
10
36.459945
20
112.601969
30
0.0
10
36.289191
20
112.820358
30
0.0
10
35.979368
20
112.876892
30
0.0
10
35.378317
20
113.091930
30
0.0
10
35.010657
20
113.519780
30
0.0
10
34.906764
20
114.095779
30
0.0
10
35.097012
20
114.755267
30
0.0
10
35.615982
20
115.177248
30
0.0
10
36.565070
20
115.335183
30
0.0
10
40.626470
20
115.359214
30
0.0
10
44.590725
20
115.335720
30
0.0
10
45.641901
20
115.205806
30
0.0
10
46.257420
20
114.754378
30
0.0
10
46.426137
20
113.903029
30
0.0
10
46.386933
20
113.343838
30
0.0
10
46.165426
20
113.030110
30
0.0
10
45.494394
20
112.664505
30
0.0
10
45.084080
20
112.559832
30
0.0
10
44.927195
20
111.928755
30
0.0
10
44.643997
20
110.535680
30
0.0
10
44.273490
20
108.673014
30
0.0
10
43.978641
20
107.276014
30
0.0
10
43.763019
20
106.717561
30
0.0
10
43.403345
20
106.314962
30
0.0
10
42.712816
20
106.150796
30
0.0
10
41.981137
20
106.172418
30
0.0
10
41.981137
20
106.172418
30
0.0
62
0
0
LWPOLYLINE
100
AcDbPolyline
8
Layer_1
90
22
70
0
10
36.706073
20
115.987949
30
0.0
10
35.718224
20
116.630537
30
0.0
10
34.738784
20
117.531405
30
0.0
10
33.561560
20
118.928386
30
0.0
10
33.036897
20
120.103014
30
0.0
10
32.926693
20
121.029218
30
0.0
10
33.013670
20
121.778370
30
0.0
10
33.238429
20
122.057786
30
0.0
10
33.596150
20
122.229141
30
0.0
10
34.623299
20
122.223555
30
0.0
10
36.198682
20
121.594100
30
0.0
10
37.613088
20
120.378993
30
0.0
10
38.379105
20
119.236425
30
0.0
10
38.910215
20
117.756469
30
0.0
10
39.082029
20
116.958958
30
0.0
10
39.031943
20
116.518535
30
0.0
10
38.693102
20
116.046040
30
0.0
10
38.152465
20
115.945378
30
0.0
10
37.762025
20
115.922998
30
0.0
10
37.266756
20
115.792786
30
0.0
10
36.706059
20
115.987951
30
0.0
10
36.706073
20
115.987949
30
0.0
62
0
0
LWPOLYLINE
100
AcDbPolyline
8
Layer_1
90
20
70
0
10
40.767485
20
116.092131
30
0.0
10
40.272549
20
116.703390
30
0.0
10
39.932932
20
117.224347
30
0.0
10
39.970826
20
118.071014
30
0.0
10
40.245954
20
119.621517
30
0.0
10
40.848870
20
120.960264
30
0.0
10
41.436288
20
121.661435
30
0.0
10
42.174946
20
122.298124
30
0.0
10
42.917070
20
122.760637
30
0.0
10
43.514885
20
122.939279
30
0.0
10
43.870075
20
122.822719
30
0.0
10
44.190584
20
122.503198
30
0.0
10
44.676035
20
121.437523
30
0.0
10
44.868176
20
120.106744
30
0.0
10
44.663950
20
118.875347
30
0.0
10
43.828036
20
117.479787
30
0.0
10
42.820096
20
116.457482
30
0.0
10
41.700842
20
116.049221
30
0.0
10
40.767485
20
116.092131
30
0.0
10
40.767485
20
116.092131
30
0.0
62
0
0
LWPOLYLINE
100
AcDbPolyline
8
Layer_1
90
35
70
0
10
114.256264
20
121.505540
30
0.0
10
113.677522
20
121.743463
30
0.0
10
113.266604
20
122.158015
30
0.0
10
113.098037
20
122.517082
30
0.0
10
113.058806
20
123.060144
30
0.0
10
113.290030
20
124.198410
30
0.0
10
113.555222
20
124.581628
30
0.0
10
113.898945
20
124.797095
30
0.0
10
114.666445
20
124.935978
30
0.0
10
115.379367
20
124.899335
30
0.0
10
115.881799
20
124.897672
30
0.0
10
116.988034
20
125.287058
30
0.0
10
120.636473
20
126.639481
30
0.0
10
125.734357
20
128.386344
30
0.0
10
130.360196
20
129.810069
30
0.0
10
142.226473
20
132.847012
30
0.0
10
148.845425
20
134.462486
30
0.0
10
152.217436
20
135.216014
30
0.0
10
152.824295
20
134.979389
30
0.0
10
153.063806
20
134.379843
30
0.0
10
152.940556
20
133.798136
30
0.0
10
152.521618
20
133.443991
30
0.0
10
148.645240
20
132.330051
30
0.0
10
142.094097
20
130.736188
30
0.0
10
132.717993
20
128.490768
30
0.0
10
126.393806
20
126.665722
30
0.0
10
123.896140
20
125.858199
30
0.0
10
117.228640
20
123.467983
30
0.0
10
117.080473
20
123.219743
30
0.0
10
116.833019
20
122.630078
30
0.0
10
116.363092
20
122.021380
30
0.0
10
115.771035
20
121.633683
30
0.0
10
115.014926
20
121.471787
30
0.0
10
114.256264
20
121.505540
30
0.0
10
114.256264
20
121.505540
30
0.0
62
0
0
LWPOLYLINE
100
AcDbPolyline
8
Layer_1
90
42
70
0
10
26.698805
20
132.836852
30
0.0
10
26.168184
20
133.409588
30
0.0
10
25.291659
20
135.270302
30
0.0
10
24.345264
20
137.303039
30
0.0
10
22.169139
20
137.842377
30
0.0
10
19.858227
20
138.405294
30
0.0
10
19.528132
20
138.694360
30
0.0
10
19.337043
20
139.108598
30
0.0
10
19.304488
20
139.571422
30
0.0
10
19.449995
20
140.006245
30
0.0
10
21.227679
20
141.688538
30
0.0
10
22.848210
20
143.205976
30
0.0
10
22.625170
20
145.386780
30
0.0
10
22.455114
20
147.763581
30
0.0
10
22.633081
20
148.170254
30
0.0
10
22.962351
20
148.474952
30
0.0
10
23.386975
20
148.642619
30
0.0
10
23.851002
20
148.638199
30
0.0
10
25.988525
20
147.483423
30
0.0
10
27.971574
20
146.423695
30
0.0
10
30.018764
20
147.316290
30
0.0
10
32.010283
20
148.105820
30
0.0
10
32.485834
20
148.166125
30
0.0
10
32.834597
20
148.061699
30
0.0
10
33.251016
20
147.639936
30
0.0
10
33.429804
20
147.057902
30
0.0
10
32.540338
20
142.774738
30
0.0
10
32.782447
20
142.318856
30
0.0
10
33.905357
20
141.039071
30
0.0
10
35.472429
20
139.237680
30
0.0
10
35.630821
20
138.584460
30
0.0
10
35.580289
20
138.204861
30
0.0
10
35.369404
20
137.887140
30
0.0
10
34.797904
20
137.508906
30
0.0
10
32.456137
20
137.243563
30
0.0
10
30.790168
20
137.065730
30
0.0
10
30.293505
20
136.911458
30
0.0
10
29.177894
20
135.037788
30
0.0
10
27.936652
20
133.066132
30
0.0
10
27.274262
20
132.791731
30
0.0
10
26.698805
20
132.836852
30
0.0
10
26.698805
20
132.836852
30
0.0
62
0
0
LWPOLYLINE
100
AcDbPolyline
8
Layer_1
90
41
70
0
10
103.088502
20
145.414379
30
0.0
10
102.634973
20
145.652911
30
0.0
10
102.383305
20
146.103550
30
0.0
10
102.283847
20
147.631212
30
0.0
10
102.311810
20
148.381504
30
0.0
10
102.228671
20
148.810742
30
0.0
10
101.184273
20
149.761643
30
0.0
10
100.241017
20
150.658979
30
0.0
10
100.092668
20
151.000317
30
0.0
10
100.087035
20
151.377302
30
0.0
10
100.200569
20
151.776661
30
0.0
10
100.485134
20
152.088764
30
0.0
10
101.853698
20
152.658927
30
0.0
10
103.080035
20
153.109563
30
0.0
10
103.521547
20
154.158601
30
0.0
10
104.115306
20
155.542298
30
0.0
10
104.380506
20
155.816316
30
0.0
10
104.723974
20
155.960732
30
0.0
10
105.179887
20
156.005958
30
0.0
10
105.613275
20
155.810747
30
0.0
10
106.777556
20
154.426209
30
0.0
10
107.353162
20
153.612737
30
0.0
10
108.593029
20
153.552459
30
0.0
10
109.965351
20
153.406274
30
0.0
10
110.548761
20
153.034850
30
0.0
10
110.784981
20
152.614916
30
0.0
10
110.783070
20
152.167874
30
0.0
10
109.957856
20
150.785057
30
0.0
10
109.192918
20
149.759456
30
0.0
10
109.496033
20
148.643640
30
0.0
10
109.786645
20
147.228584
30
0.0
10
109.610189
20
146.507738
30
0.0
10
109.280168
20
146.179098
30
0.0
10
108.824227
20
146.059329
30
0.0
10
107.170951
20
146.435660
30
0.0
10
106.031473
20
146.817974
30
0.0
10
105.100140
20
146.189441
30
0.0
10
103.794464
20
145.400004
30
0.0
10
103.436326
20
145.333611
30
0.0
10
103.088502
20
145.414379
30
0.0
10
103.088502
20
145.414379
30
0.0
62
0
0
LWPOLYLINE
100
AcDbPolyline
8
Layer_1
90
38
70
0
10
55.157367
20
152.781732
30
0.0
10
54.573308
20
153.152623
30
0.0
10
54.123582
20
153.690309
30
0.0
10
54.003804
20
154.336907
30
0.0
10
54.279814
20
155.182924
30
0.0
10
55.062137
20
155.856661
30
0.0
10
55.575980
20
156.084273
30
0.0
10
56.114470
20
156.098027
30
0.0
10
56.489823
20
156.087110
30
0.0
10
56.961679
20
156.248012
30
0.0
10
59.845804
20
157.868685
30
0.0
10
66.890930
20
161.776949
30
0.0
10
72.750883
20
164.593557
30
0.0
10
75.593804
20
165.865079
30
0.0
10
80.168695
20
167.778224
30
0.0
10
85.330473
20
169.636392
30
0.0
10
88.117530
20
170.599560
30
0.0
10
89.512860
20
170.946757
30
0.0
10
89.885944
20
170.860345
30
0.0
10
90.117272
20
170.600633
30
0.0
10
90.229424
20
170.190185
30
0.0
10
90.145791
20
169.811697
30
0.0
10
89.881825
20
169.496023
30
0.0
10
89.452978
20
169.274022
30
0.0
10
88.209140
20
168.843582
30
0.0
10
85.457473
20
167.894751
30
0.0
10
80.125315
20
165.953743
30
0.0
10
74.239137
20
163.412429
30
0.0
10
68.172507
20
160.531062
30
0.0
10
61.369804
20
156.782264
30
0.0
10
57.662479
20
154.671753
30
0.0
10
57.317334
20
154.438946
30
0.0
10
57.264695
20
154.262162
30
0.0
10
57.202621
20
153.704690
30
0.0
10
56.896296
20
153.133761
30
0.0
10
56.118230
20
152.694244
30
0.0
10
55.157367
20
152.781739
30
0.0
10
55.157367
20
152.781732
30
0.0
62
0
0
LWPOLYLINE
100
AcDbPolyline
8
Layer_1
90
42
70
0
10
136.596140
20
158.049999
30
0.0
10
136.158718
20
158.215377
30
0.0
10
135.858771
20
158.588036
30
0.0
10
135.398835
20
160.516506
30
0.0
10
135.032321
20
162.256031
30
0.0
10
133.442222
20
163.110745
30
0.0
10
131.867789
20
164.038510
30
0.0
10
131.615599
20
164.396903
30
0.0
10
131.558473
20
164.832709
30
0.0
10
131.620324
20
165.244895
30
0.0
10
131.888019
20
165.600398
30
0.0
10
133.533780
20
166.576409
30
0.0
10
135.086753
20
167.384750
30
0.0
10
135.273350
20
168.678215
30
0.0
10
135.652849
20
170.827172
30
0.0
10
135.854011
20
171.221697
30
0.0
10
136.156237
20
171.457072
30
0.0
10
136.693968
20
171.615397
30
0.0
10
137.256514
20
171.486273
30
0.0
10
138.727572
20
170.165806
30
0.0
10
139.775121
20
169.177644
30
0.0
10
140.166906
20
169.031616
30
0.0
10
143.349576
20
169.506014
30
0.0
10
143.821226
20
169.424719
30
0.0
10
144.188755
20
169.196604
30
0.0
10
144.427419
20
168.845320
30
0.0
10
144.512473
20
168.394519
30
0.0
10
144.371651
20
167.775881
30
0.0
10
143.738298
20
166.432148
30
0.0
10
142.964114
20
164.881103
30
0.0
10
143.780631
20
163.300054
30
0.0
10
144.543226
20
161.638337
30
0.0
10
144.588168
20
161.215767
30
0.0
10
144.466033
20
160.862065
30
0.0
10
144.041723
20
160.436909
30
0.0
10
143.411806
20
160.277376
30
0.0
10
141.498526
20
160.502962
30
0.0
10
139.966246
20
160.729153
30
0.0
10
138.792545
20
159.522544
30
0.0
10
137.403826
20
158.207857
30
0.0
10
136.596140
20
158.049999
30
0.0
10
136.596140
20
158.049999
30
0.0
  0
ENDSEC
  0
SECTION
  2
OBJECTS
  0
DICTIONARY
  5
C
330
0
100
AcDbDictionary
  3
ACAD_GROUP
350
D
  3
ACAD_MLINESTYLE
350
17
  0
DICTIONARY
  5
D
330
C
100
AcDbDictionary
  0
DICTIONARY
  5
1A
330
C
100
AcDbDictionary
  0
DICTIONARY
  5
17
330
C
100
AcDbDictionary
  3
STANDARD
350
18
  0
DICTIONARY
  5
19
330
C
100
AcDbDictionary
  0
ENDSEC
  0
EOF
