999
Inkscape export via OpenSCAD DXF Export
  0
SECTION
  2
HEADER
  9
$ACADVER
  1
AC1014
  9
$HANDSEED
  5
FFFF
  9
$MEASUREMENT
 70
     1
  0
ENDSEC
  0
SECTION
  2
TABLES
  0
TABLE
  2
VPORT
  5
8
330
0
100
AcDbSymbolTable
 70
     4
  0
VPORT
  5
2E
330
8
100
AcDbSymbolTableRecord
100
AcDbViewportTableRecord
  2
*ACTIVE
 70
     0
 10
0.0
 20
0.0
 11
1.0
 21
1.0
 12
210.0
 22
148.5
 13
0.0
 23
0.0
 14
10.0
 24
10.0
 15
10.0
 25
10.0
 16
0.0
 26
0.0
 36
1.0
 17
0.0
 27
0.0
 37
0.0
 40
341.0
 41
1.24
 42
50.0
 43
0.0
 44
0.0
 50
0.0
 51
0.0
 71
     0
 72
   100
 73
     1
 74
     3
 75
     0
 76
     0
 77
     0
 78
     0
  0
ENDTAB
  0
TABLE
  2
LTYPE
  5
5
330
0
100
AcDbSymbolTable
 70
     1
  0
LTYPE
  5
14
330
5
100
AcDbSymbolTableRecord
100
AcDbLinetypeTableRecord
  2
BYBLOCK
 70
     0
  3

 72
    65
 73
     0
 40
0.0
  0
LTYPE
  5
15
330
5
100
AcDbSymbolTableRecord
100
AcDbLinetypeTableRecord
  2
BYLAYER
 70
     0
  3

 72
    65
 73
     0
 40
0.0
  0
LTYPE
  5
16
330
5
100
AcDbSymbolTableRecord
100
AcDbLinetypeTableRecord
  2
CONTINUOUS
 70
     0
  3
Solid line
 72
    65
 73
     0
 40
0.0
  0
ENDTAB
  0
TABLE
0
TABLE
2
LAYER
5
2
330
0
100
AcDbSymbolTable
70
1
0
LAYER
5
10
330
2
100
AcDbSymbolTableRecord
100
AcDbLayerTableRecord
2
Layer_1
70
0
62
7
6
CONTINUOUS
0
ENDTAB
0
ENDSEC
  0
ENDTAB
  0
TABLE
  2
STYLE
  5
3
330
0
100
AcDbSymbolTable
 70
     1
  0
STYLE
  5
11
330
3
100
AcDbSymbolTableRecord
100
AcDbTextStyleTableRecord
  2
STANDARD
 70
     0
 40
0.0
 41
1.0
 50
0.0
 71
     0
 42
2.5
  3
txt
  4

  0
ENDTAB
  0
TABLE
  2
VIEW
  5
6
330
0
100
AcDbSymbolTable
 70
     0
  0
ENDTAB
  0
TABLE
  2
UCS
  5
7
330
0
100
AcDbSymbolTable
 70
     0
  0
ENDTAB
  0
TABLE
  2
APPID
  5
9
330
0
100
AcDbSymbolTable
 70
     2
  0
APPID
  5
12
330
9
100
AcDbSymbolTableRecord
100
AcDbRegAppTableRecord
  2
ACAD
 70
     0
  0
ENDTAB
  0
TABLE
  2
DIMSTYLE
  5
A
330
0
100
AcDbSymbolTable
 70
     1
  0
DIMSTYLE
105
27
330
A
100
AcDbSymbolTableRecord
100
AcDbDimStyleTableRecord
  2
ISO-25
 70
     0
  3

  4

  5

  6

  7

 40
1.0
 41
2.5
 42
0.625
 43
3.75
 44
1.25
 45
0.0
 46
0.0
 47
0.0
 48
0.0
140
2.5
141
2.5
142
0.0
143
0.03937007874016
144
1.0
145
0.0
146
1.0
147
0.625
 71
     0
 72
     0
 73
     0
 74
     0
 75
     0
 76
     0
 77
     1
 78
     8
170
     0
171
     3
172
     1
173
     0
174
     0
175
     0
176
     0
177
     0
178
     0
270
     2
271
     2
272
     2
273
     2
274
     3
340
11
275
     0
280
     0
281
     0
282
     0
283
     0
284
     8
285
     0
286
     0
287
     3
288
     0
  0
ENDTAB
  0
TABLE
  2
BLOCK_RECORD
  5
1
330
0
100
AcDbSymbolTable
 70
     1
  0
BLOCK_RECORD
  5
1F
330
1
100
AcDbSymbolTableRecord
100
AcDbBlockTableRecord
  2
*MODEL_SPACE
  0
BLOCK_RECORD
  5
1B
330
1
100
AcDbSymbolTableRecord
100
AcDbBlockTableRecord
  2
*PAPER_SPACE
  0
ENDTAB
  0
ENDSEC
  0
SECTION
  2
BLOCKS
  0
BLOCK
  5
20
330
1F
100
AcDbEntity
  8
0
100
AcDbBlockBegin
  2
*MODEL_SPACE
 70
     0
 10
0.0
 20
0.0
 30
0.0
  3
*MODEL_SPACE
  1

  0
ENDBLK
  5
21
330
1F
100
AcDbEntity
  8
0
100
AcDbBlockEnd
  0
BLOCK
  5
1C
330
1B
100
AcDbEntity
 67
     1
  8
0
100
AcDbBlockBegin
  2
*PAPER_SPACE
  1

  0
ENDBLK
  5
1D
330
1B
100
AcDbEntity
 67
     1
  8
0
100
AcDbBlockEnd
  0
ENDSEC
  0
SECTION
  2
ENTITIES
0
DIMENSION
5
83
100
AcDbEntity
62
256
370
-1
6
ByLayer
1
total_width
3
Standard
70
0
71
5
72
1
41
1.0
100
AcDbAlignedDimension
13
2.907953
23
0.000000
33
0.0
14
166.678894
24
0.000000
34
0.0
50
0.000000
100
AcDbRotatedDimension
0
DIMENSION
5
83
100
AcDbEntity
62
256
370
-1
6
ByLayer
1
total_minx
3
Standard
70
0
71
5
72
1
41
1.0
100
AcDbAlignedDimension
13
2.907953
23
0.000000
33
0.0
14
0.000000
24
0.000000
34
0.0
50
0.000000
100
AcDbRotatedDimension
0
DIMENSION
5
83
100
AcDbEntity
62
256
370
-1
6
ByLayer
1
total_maxx
3
Standard
70
0
71
5
72
1
41
1.0
100
AcDbAlignedDimension
13
0.000000
23
0.000000
33
0.0
14
166.678894
24
0.000000
34
0.0
50
0.000000
100
AcDbRotatedDimension
0
DIMENSION
5
83
100
AcDbEntity
62
256
370
-1
6
ByLayer
1
total_height
3
Standard
70
0
71
5
72
1
41
1.0
100
AcDbAlignedDimension
13
0.000000
23
2.817212
33
0.0
14
0.000000
24
171.089249
34
0.0
50
90.000000
100
AcDbRotatedDimension
0
DIMENSION
5
83
100
AcDbEntity
62
256
370
-1
6
ByLayer
1
total_miny
3
Standard
70
0
71
5
72
1
41
1.0
100
AcDbAlignedDimension
13
2.817212
23
0.000000
33
0.0
14
0.000000
24
0.000000
34
0.0
50
0.000000
100
AcDbRotatedDimension
0
DIMENSION
5
83
100
AcDbEntity
62
256
370
-1
6
ByLayer
1
total_maxy
3
Standard
70
0
71
5
72
1
41
1.0
100
AcDbAlignedDimension
13
0.000000
23
0.000000
33
0.0
14
171.089249
24
0.000000
34
0.0
50
0.000000
100
AcDbRotatedDimension
0
DIMENSION
8
Layer_1
5
83
100
AcDbEntity
62
256
370
-1
6
ByLayer
1
Layer_1_width
3
Standard
70
0
71
5
72
1
41
1.0
100
AcDbAlignedDimension
13
2.907953
23
0.000000
33
0.0
14
166.678894
24
0.000000
34
0.0
50
0.000000
100
AcDbRotatedDimension
0
DIMENSION
8
Layer_1
5
83
100
AcDbEntity
62
256
370
-1
6
ByLayer
1
Layer_1_minx
3
Standard
70
0
71
5
72
1
41
1.0
100
AcDbAlignedDimension
13
2.907953
23
0.000000
33
0.0
14
0.000000
24
0.000000
34
0.0
50
0.000000
100
AcDbRotatedDimension
0
DIMENSION
8
Layer_1
5
83
100
AcDbEntity
62
256
370
-1
6
ByLayer
1
Layer_1_maxx
3
Standard
70
0
71
5
72
1
41
1.0
100
AcDbAlignedDimension
13
0.000000
23
0.000000
33
0.0
14
166.678894
24
0.000000
34
0.0
50
0.000000
100
AcDbRotatedDimension
0
DIMENSION
8
Layer_1
5
83
100
AcDbEntity
62
256
370
-1
6
ByLayer
1
Layer_1_height
3
Standard
70
0
71
5
72
1
41
1.0
100
AcDbAlignedDimension
13
0.000000
23
2.817212
33
0.0
14
0.000000
24
171.089249
34
0.0
50
90.000000
100
AcDbRotatedDimension
0
DIMENSION
8
Layer_1
5
83
100
AcDbEntity
62
256
370
-1
6
ByLayer
1
Layer_1_miny
3
Standard
70
0
71
5
72
1
41
1.0
100
AcDbAlignedDimension
13
2.817212
23
0.000000
33
0.0
14
0.000000
24
0.000000
34
0.0
50
0.000000
100
AcDbRotatedDimension
0
DIMENSION
8
Layer_1
5
83
100
AcDbEntity
62
256
370
-1
6
ByLayer
1
Layer_1_maxy
3
Standard
70
0
71
5
72
1
41
1.0
100
AcDbAlignedDimension
13
0.000000
23
0.000000
33
0.0
14
171.089249
24
0.000000
34
0.0
50
0.000000
100
AcDbRotatedDimension
62
0
0
LWPOLYLINE
100
AcDbPolyline
8
Layer_1
90
615
70
0
10
165.314404
20
3.015375
30
0.0
10
164.720417
20
5.767042
30
0.0
10
163.747537
20
10.231294
30
0.0
10
162.482829
20
14.589285
30
0.0
10
160.925375
20
18.842898
30
0.0
10
159.074256
20
22.994017
30
0.0
10
156.928554
20
27.044526
30
0.0
10
154.487352
20
30.996309
30
0.0
10
151.749731
20
34.851249
30
0.0
10
148.714773
20
38.611231
30
0.0
10
147.682887
20
39.814630
30
0.0
10
139.683662
20
38.670270
30
0.0
10
130.696662
20
37.471353
30
0.0
10
129.506079
20
37.117220
30
0.0
10
127.932877
20
36.197901
30
0.0
10
125.180977
20
34.477993
30
0.0
10
124.565031
20
34.341182
30
0.0
10
124.190915
20
34.571345
30
0.0
10
124.042515
20
34.818199
30
0.0
10
124.048245
20
35.066704
30
0.0
10
124.595057
20
35.788402
30
0.0
10
125.352838
20
36.579353
30
0.0
10
121.374580
20
40.449116
30
0.0
10
117.396322
20
44.318882
30
0.0
10
115.509271
20
43.267670
30
0.0
10
111.316160
20
40.775541
30
0.0
10
106.634502
20
37.760413
30
0.0
10
102.320908
20
34.792085
30
0.0
10
99.231989
20
32.440358
30
0.0
10
98.092550
20
31.566271
30
0.0
10
97.299427
20
31.168962
30
0.0
10
96.841952
20
31.245696
30
0.0
10
96.709456
20
31.793739
30
0.0
10
96.667825
20
32.122897
30
0.0
10
96.443551
20
32.326742
30
0.0
10
95.016122
20
32.551288
30
0.0
10
86.952218
20
32.828343
30
0.0
10
80.602218
20
32.956929
30
0.0
10
78.826383
20
32.112424
30
0.0
10
76.891761
20
30.937153
30
0.0
10
74.734160
20
29.297407
30
0.0
10
67.967911
20
23.674564
30
0.0
10
61.232607
20
18.397959
30
0.0
10
55.549701
20
14.130111
30
0.0
10
54.889882
20
13.869127
30
0.0
10
54.591424
20
14.159106
30
0.0
10
54.325056
20
14.597726
30
0.0
10
54.398943
20
15.036848
30
0.0
10
55.707464
20
16.275865
30
0.0
10
58.588885
20
18.527322
30
0.0
10
58.932386
20
18.879967
30
0.0
10
58.800551
20
19.084276
30
0.0
10
58.633702
20
19.415446
30
0.0
10
58.524729
20
20.341502
30
0.0
10
58.447082
20
24.487782
30
0.0
10
58.261442
20
35.880472
30
0.0
10
58.021140
20
41.174650
30
0.0
10
57.824113
20
41.917437
30
0.0
10
57.488904
20
42.089361
30
0.0
10
56.949900
20
42.313695
30
0.0
10
56.840404
20
42.730403
30
0.0
10
57.148487
20
43.281363
30
0.0
10
57.862222
20
43.908452
30
0.0
10
59.006192
20
44.925375
30
0.0
10
57.456016
20
45.076090
30
0.0
10
53.720551
20
45.141213
30
0.0
10
48.428885
20
45.145390
30
0.0
10
43.290436
20
39.897081
30
0.0
10
40.296514
20
36.899377
30
0.0
10
38.470447
20
35.268521
30
0.0
10
37.501533
20
34.767529
30
0.0
10
37.241415
20
34.866674
30
0.0
10
37.079072
20
35.159417
30
0.0
10
37.276990
20
35.644696
30
0.0
10
37.962270
20
36.576914
30
0.0
10
40.429203
20
39.388432
30
0.0
10
43.748442
20
42.806492
30
0.0
10
47.188563
20
46.043619
30
0.0
10
53.546851
20
51.469503
30
0.0
10
55.219330
20
52.667656
30
0.0
10
56.119440
20
53.037695
30
0.0
10
56.525726
20
52.989658
30
0.0
10
56.743043
20
52.841486
30
0.0
10
56.769867
20
52.590799
30
0.0
10
56.604678
20
52.235221
30
0.0
10
55.692165
20
51.199877
30
0.0
10
53.993325
20
49.716428
30
0.0
10
51.622480
20
47.764174
30
0.0
10
51.076371
20
47.196038
30
0.0
10
50.993080
20
46.836992
30
0.0
10
51.400065
20
46.639858
30
0.0
10
52.324782
20
46.557459
30
0.0
10
55.837246
20
46.548153
30
0.0
10
61.198052
20
46.548153
30
0.0
10
62.997913
20
47.992064
30
0.0
10
66.620741
20
50.673805
30
0.0
10
71.288885
20
53.632241
30
0.0
10
74.393329
20
55.505550
30
0.0
10
74.633509
20
61.910931
30
0.0
10
74.697536
20
68.492463
30
0.0
10
73.183257
20
68.474672
30
0.0
10
69.789906
20
68.184533
30
0.0
10
65.887058
20
67.705817
30
0.0
10
62.043007
20
67.075385
30
0.0
10
58.262254
20
66.295342
30
0.0
10
54.549300
20
65.367788
30
0.0
10
50.908648
20
64.294825
30
0.0
10
47.344799
20
63.078557
30
0.0
10
43.862254
20
61.721084
30
0.0
10
40.465515
20
60.224509
30
0.0
10
37.159083
20
58.590934
30
0.0
10
33.947460
20
56.822461
30
0.0
10
30.835148
20
54.921191
30
0.0
10
27.826648
20
52.889228
30
0.0
10
24.926462
20
50.728673
30
0.0
10
22.139091
20
48.441629
30
0.0
10
19.469036
20
46.030196
30
0.0
10
16.920800
20
43.496478
30
0.0
10
13.684442
20
39.907131
30
0.0
10
10.891106
20
36.317045
30
0.0
10
8.374083
20
32.493483
30
0.0
10
5.966665
20
28.203708
30
0.0
10
4.371469
20
25.389383
30
0.0
10
3.879151
20
24.793830
30
0.0
10
3.484993
20
24.585747
30
0.0
10
3.148692
20
24.598747
30
0.0
10
2.939604
20
24.755074
30
0.0
10
2.907953
20
25.520783
30
0.0
10
3.399813
20
26.929037
30
0.0
10
4.424955
20
29.025997
30
0.0
10
6.639842
20
32.911831
30
0.0
10
9.115290
20
36.667212
30
0.0
10
11.838363
20
40.277956
30
0.0
10
14.796129
20
43.729877
30
0.0
10
17.975654
20
47.008791
30
0.0
10
21.364004
20
50.100513
30
0.0
10
24.948245
20
52.990859
30
0.0
10
28.715442
20
55.665644
30
0.0
10
33.146460
20
58.383119
30
0.0
10
38.014593
20
60.970591
30
0.0
10
43.002727
20
63.270804
30
0.0
10
47.793746
20
65.126503
30
0.0
10
49.811513
20
65.965669
30
0.0
10
49.888732
20
66.219598
30
0.0
10
49.438616
20
66.437851
30
0.0
10
48.721896
20
66.908901
30
0.0
10
47.834126
20
67.801582
30
0.0
10
46.995424
20
68.866333
30
0.0
10
46.425906
20
69.853590
30
0.0
10
46.137773
20
71.033575
30
0.0
10
46.044387
20
72.522734
30
0.0
10
46.145007
20
74.014590
30
0.0
10
46.438888
20
75.202663
30
0.0
10
47.016885
20
76.326479
30
0.0
10
47.750227
20
77.306781
30
0.0
10
48.634505
20
78.138628
30
0.0
10
49.665306
20
78.817078
30
0.0
10
51.182545
20
79.426215
30
0.0
10
53.151634
20
79.568153
30
0.0
10
55.257996
20
79.568153
30
0.0
10
60.004432
20
84.154264
30
0.0
10
64.750868
20
88.740375
30
0.0
10
63.504321
20
88.931123
30
0.0
10
60.973662
20
89.142790
30
0.0
10
59.967276
20
89.257051
30
0.0
10
59.350885
20
89.502375
30
0.0
10
59.103175
20
90.379205
30
0.0
10
59.012218
20
92.183486
30
0.0
10
58.889638
20
94.525931
30
0.0
10
54.962033
20
92.696408
30
0.0
10
51.758944
20
91.033074
30
0.0
10
51.189901
20
90.535458
30
0.0
10
50.974865
20
90.037598
30
0.0
10
50.664108
20
89.267145
30
0.0
10
50.142847
20
88.527612
30
0.0
10
49.543314
20
87.971821
30
0.0
10
48.997740
20
87.752597
30
0.0
10
48.256913
20
87.889959
30
0.0
10
47.433188
20
88.245881
30
0.0
10
46.683245
20
88.736115
30
0.0
10
46.163766
20
89.276417
30
0.0
10
45.840752
20
90.035153
30
0.0
10
46.004229
20
90.904441
30
0.0
10
46.729325
20
92.261272
30
0.0
10
47.103464
20
93.303582
30
0.0
10
47.424238
20
95.221343
30
0.0
10
47.583843
20
97.397484
30
0.0
10
47.462449
20
97.828690
30
0.0
10
47.184019
20
98.096093
30
0.0
10
46.765530
20
98.545685
30
0.0
10
46.496726
20
99.110162
30
0.0
10
46.360567
20
99.455639
30
0.0
10
46.092904
20
99.652098
30
0.0
10
44.700591
20
99.767122
30
0.0
10
43.313055
20
99.916121
30
0.0
10
42.054638
20
100.319996
30
0.0
10
41.007915
20
100.942000
30
0.0
10
40.255458
20
101.745390
30
0.0
10
39.861825
20
102.582963
30
0.0
10
39.629026
20
103.528747
30
0.0
10
39.592792
20
104.348283
30
0.0
10
39.788854
20
104.807108
30
0.0
10
40.074713
20
105.115355
30
0.0
10
40.086481
20
105.445001
30
0.0
10
39.856706
20
105.707629
30
0.0
10
39.417933
20
105.814820
30
0.0
10
38.851810
20
105.928766
30
0.0
10
38.346908
20
106.226189
30
0.0
10
37.984423
20
106.640468
30
0.0
10
37.845551
20
107.104979
30
0.0
10
37.680378
20
107.508153
30
0.0
10
27.661488
20
102.957452
30
0.0
10
19.217835
20
98.949382
30
0.0
10
18.028617
20
98.173209
30
0.0
10
17.846524
20
97.905851
30
0.0
10
17.807772
20
97.648031
30
0.0
10
18.034768
20
96.872294
30
0.0
10
18.666933
20
96.066181
30
0.0
10
19.333007
20
95.224906
30
0.0
10
19.469483
20
94.493641
30
0.0
10
19.078504
20
93.883680
30
0.0
10
18.162212
20
93.406316
30
0.0
10
17.146111
20
92.887361
30
0.0
10
16.657943
20
92.063595
30
0.0
10
16.333582
20
91.391895
30
0.0
10
15.895547
20
90.924594
30
0.0
10
15.391872
20
90.697131
30
0.0
10
14.870593
20
90.744946
30
0.0
10
14.386964
20
91.145602
30
0.0
10
13.839353
20
91.872822
30
0.0
10
13.163006
20
92.657633
30
0.0
10
12.196753
20
92.832597
30
0.0
10
11.129050
20
93.008442
30
0.0
10
10.565841
20
93.498792
30
0.0
10
10.533907
20
94.247875
30
0.0
10
11.060028
20
95.199917
30
0.0
10
11.503715
20
96.063856
30
0.0
10
11.463857
20
97.303900
30
0.0
10
11.416497
20
98.410291
30
0.0
10
11.683053
20
99.040817
30
0.0
10
12.315217
20
99.243398
30
0.0
10
13.364682
20
99.065952
30
0.0
10
14.548642
20
98.890574
30
0.0
10
15.680222
20
99.312030
30
0.0
10
17.232445
20
99.885040
30
0.0
10
27.613487
20
104.471151
30
0.0
10
37.560315
20
109.060375
30
0.0
10
37.561726
20
110.278373
30
0.0
10
37.492971
20
111.204574
30
0.0
10
37.299319
20
111.935750
30
0.0
10
37.003501
20
112.415682
30
0.0
10
36.628248
20
112.588153
30
0.0
10
36.118975
20
112.788796
30
0.0
10
35.703908
20
113.380314
30
0.0
10
35.390349
20
114.347091
30
0.0
10
35.185601
20
115.673508
30
0.0
10
34.888693
20
117.397523
30
0.0
10
34.440252
20
118.610769
30
0.0
10
34.057926
20
119.447880
30
0.0
10
33.902345
20
120.208153
30
0.0
10
33.103400
20
122.385233
30
0.0
10
31.174253
20
126.628708
30
0.0
10
28.910913
20
131.128586
30
0.0
10
28.301849
20
132.066631
30
0.0
10
27.919535
20
132.343708
30
0.0
10
27.622468
20
132.466575
30
0.0
10
27.273936
20
132.853620
30
0.0
10
26.342683
20
134.530931
30
0.0
10
25.023884
20
136.907507
30
0.0
10
22.938386
20
137.440783
30
0.0
10
21.588637
20
137.792592
30
0.0
10
20.687409
20
138.244544
30
0.0
10
20.260439
20
138.777552
30
0.0
10
20.333463
20
139.372532
30
0.0
10
22.103821
20
141.238760
30
0.0
10
23.593328
20
142.580216
30
0.0
10
23.593328
20
145.293628
30
0.0
10
23.681466
20
147.615448
30
0.0
10
23.858901
20
147.978198
30
0.0
10
24.185035
20
148.091552
30
0.0
10
25.206511
20
147.823727
30
0.0
10
26.831492
20
147.061131
30
0.0
10
28.886243
20
145.946198
30
0.0
10
30.711095
20
146.764953
30
0.0
10
32.066053
20
147.307308
30
0.0
10
33.054804
20
147.542906
30
0.0
10
33.726269
20
147.476740
30
0.0
10
34.129365
20
147.113802
30
0.0
10
34.272119
20
146.996506
30
0.0
10
34.577653
20
146.973159
30
0.0
10
35.991607
20
147.301691
30
0.0
10
44.232833
20
150.113321
30
0.0
10
54.548106
20
153.828484
30
0.0
10
54.932075
20
154.155347
30
0.0
10
55.188530
20
154.596135
30
0.0
10
55.478085
20
155.020239
30
0.0
10
56.002920
20
155.396345
30
0.0
10
56.655192
20
155.665350
30
0.0
10
57.327061
20
155.768152
30
0.0
10
58.854130
20
156.420955
30
0.0
10
61.758782
20
157.990460
30
0.0
10
69.298427
20
162.028459
30
0.0
10
76.933329
20
165.588912
30
0.0
10
84.964639
20
168.728892
30
0.0
10
88.493593
20
169.952364
30
0.0
10
90.316640
20
170.443708
30
0.0
10
90.714617
20
170.353074
30
0.0
10
90.956191
20
170.107506
30
0.0
10
91.021385
20
169.746507
30
0.0
10
90.890220
20
169.309579
30
0.0
10
91.152052
20
168.719177
30
0.0
10
92.268445
20
167.318116
30
0.0
10
97.596915
20
161.461479
30
0.0
10
103.577979
20
155.196798
30
0.0
10
104.510544
20
154.496283
30
0.0
10
104.716647
20
154.516551
30
0.0
10
104.846176
20
154.693386
30
0.0
10
105.307636
20
155.278678
30
0.0
10
105.878361
20
155.423595
30
0.0
10
106.539035
20
155.130463
30
0.0
10
107.270341
20
154.401605
30
0.0
10
108.224707
20
153.478418
30
0.0
10
109.342755
20
153.111184
30
0.0
10
110.301665
20
153.150463
30
0.0
10
112.123872
20
153.685573
30
0.0
10
121.524440
20
157.343302
30
0.0
10
133.506625
20
162.155275
30
0.0
10
134.482140
20
162.561398
30
0.0
10
133.567703
20
163.117502
30
0.0
10
132.649495
20
163.847228
30
0.0
10
132.471853
20
164.191111
30
0.0
10
132.487037
20
164.537133
30
0.0
10
133.111437
20
165.283974
30
0.0
10
134.553805
20
166.184505
30
0.0
10
135.282226
20
166.613918
30
0.0
10
135.719540
20
167.003896
30
0.0
10
135.968261
20
167.484535
30
0.0
10
136.130902
20
168.185930
30
0.0
10
136.601426
20
170.347161
30
0.0
10
136.835592
20
170.759994
30
0.0
10
137.168819
20
170.998008
30
0.0
10
137.506735
20
171.089249
30
0.0
10
137.918525
20
170.974706
30
0.0
10
139.352709
20
169.939789
30
0.0
10
140.997773
20
168.593200
30
0.0
10
142.756673
20
168.851597
30
0.0
10
144.224170
20
168.975552
30
0.0
10
144.943895
20
168.754516
30
0.0
10
145.264949
20
168.380742
30
0.0
10
145.328114
20
167.903794
30
0.0
10
144.611364
20
166.082641
30
0.0
10
143.850512
20
164.531292
30
0.0
10
144.641020
20
162.877360
30
0.0
10
145.266383
20
161.394856
30
0.0
10
145.353357
20
160.912900
30
0.0
10
145.270058
20
160.572025
30
0.0
10
145.001633
20
160.348395
30
0.0
10
144.533229
20
160.218171
30
0.0
10
142.937078
20
160.142597
30
0.0
10
140.657639
20
160.142597
30
0.0
10
139.416595
20
158.934334
30
0.0
10
138.299305
20
158.021145
30
0.0
10
137.474542
20
157.805445
30
0.0
10
137.090663
20
157.908238
30
0.0
10
136.819882
20
158.190433
30
0.0
10
136.345653
20
159.765141
30
0.0
10
135.917773
20
161.645463
30
0.0
10
123.855333
20
156.801808
30
0.0
10
111.792896
20
151.958152
30
0.0
10
110.948970
20
150.616157
30
0.0
10
110.271548
20
149.266372
30
0.0
10
110.266292
20
148.686990
30
0.0
10
110.427409
20
147.877608
30
0.0
10
110.580855
20
146.558005
30
0.0
10
110.482169
20
146.123266
30
0.0
10
110.258918
20
145.832736
30
0.0
10
109.905383
20
145.682040
30
0.0
10
109.415845
20
145.666803
30
0.0
10
108.005888
20
146.025208
30
0.0
10
106.918357
20
146.258537
30
0.0
10
105.894262
20
145.730598
30
0.0
10
104.969954
20
145.217602
30
0.0
10
104.228403
20
145.057925
30
0.0
10
103.671832
20
145.251507
30
0.0
10
103.302466
20
145.798292
30
0.0
10
103.150808
20
146.563233
30
0.0
10
103.189052
20
147.342715
30
0.0
10
103.234856
20
147.788976
30
0.0
10
103.117250
20
148.186348
30
0.0
10
102.186630
20
149.218340
30
0.0
10
101.319169
20
150.192788
30
0.0
10
101.074948
20
150.972194
30
0.0
10
101.187976
20
151.303152
30
0.0
10
101.458521
20
151.602625
30
0.0
10
102.474440
20
152.130145
30
0.0
10
103.337928
20
152.532466
30
0.0
10
103.630569
20
152.842584
30
0.0
10
96.348115
20
160.761528
30
0.0
10
89.179533
20
168.436014
30
0.0
10
85.878653
20
167.301781
30
0.0
10
80.449156
20
165.261542
30
0.0
10
74.733838
20
162.786304
30
0.0
10
68.892684
20
159.949606
30
0.0
10
63.085681
20
156.824984
30
0.0
10
59.134216
20
154.462141
30
0.0
10
58.328578
20
153.796584
30
0.0
10
57.976146
20
153.245986
30
0.0
10
57.760533
20
152.763087
30
0.0
10
57.492580
20
152.504724
30
0.0
10
56.282813
20
152.404887
30
0.0
10
55.193975
20
152.272998
30
0.0
10
53.295447
20
151.761271
30
0.0
10
45.606662
20
149.152750
30
0.0
10
35.119970
20
145.426108
30
0.0
10
34.127985
20
144.887926
30
0.0
10
33.901022
20
144.525991
30
0.0
10
33.762865
20
144.007510
30
0.0
10
33.439704
20
142.664753
30
0.0
10
33.807859
20
141.861551
30
0.0
10
34.888777
20
140.440641
30
0.0
10
36.175427
20
138.734495
30
0.0
10
36.404358
20
138.146430
30
0.0
10
36.335293
20
137.697185
30
0.0
10
35.951937
20
137.358370
30
0.0
10
35.237989
20
137.101596
30
0.0
10
32.753131
20
136.720614
30
0.0
10
31.845200
20
136.596150
30
0.0
10
31.276350
20
136.373631
30
0.0
10
30.829301
20
135.905299
30
0.0
10
30.286777
20
135.043395
30
0.0
10
29.385065
20
133.535838
30
0.0
10
32.171651
20
127.789218
30
0.0
10
34.958234
20
122.042597
30
0.0
10
36.613561
20
121.266069
30
0.0
10
38.267344
20
120.664164
30
0.0
10
39.917356
20
120.489957
30
0.0
10
41.484583
20
120.652563
30
0.0
10
42.053635
20
120.950739
30
0.0
10
42.719820
20
121.478153
30
0.0
10
43.704551
20
122.208934
30
0.0
10
44.419787
20
122.432076
30
0.0
10
44.952574
20
122.142978
30
0.0
10
45.389955
20
121.337042
30
0.0
10
45.669626
20
120.689494
30
0.0
10
45.966804
20
120.353789
30
0.0
10
46.455808
20
120.227489
30
0.0
10
47.310957
20
120.208153
30
0.0
10
48.788523
20
120.208153
30
0.0
10
48.899860
20
122.178530
30
0.0
10
49.076979
20
123.668598
30
0.0
10
49.346477
20
124.484189
30
0.0
10
50.346333
20
124.619515
30
0.0
10
52.680977
20
124.665004
30
0.0
10
59.583914
20
124.542388
30
0.0
10
66.513861
20
124.228178
30
0.0
10
68.882266
20
124.034173
30
0.0
10
69.929389
20
123.834206
30
0.0
10
70.158942
20
123.471177
30
0.0
10
70.273808
20
122.665974
30
0.0
10
70.227314
20
118.518816
30
0.0
10
69.876337
20
113.082042
30
0.0
10
69.669653
20
112.825213
30
0.0
10
69.193460
20
112.675401
30
0.0
10
66.743134
20
112.588153
30
0.0
10
63.809996
20
112.588153
30
0.0
10
63.809996
20
111.063642
30
0.0
10
63.809996
20
109.539128
30
0.0
10
65.573885
20
109.338872
30
0.0
10
67.650137
20
108.886811
30
0.0
10
67.851339
20
107.863947
30
0.0
10
67.823063
20
105.249359
30
0.0
10
67.683626
20
101.863708
30
0.0
10
76.471255
20
101.863708
30
0.0
10
85.258885
20
101.863708
30
0.0
10
85.258885
20
104.946498
30
0.0
10
85.366876
20
107.712208
30
0.0
10
85.590583
20
108.352796
30
0.0
10
86.006294
20
108.917537
30
0.0
10
86.753703
20
109.805780
30
0.0
10
95.469292
20
109.741338
30
0.0
10
104.184882
20
109.676892
30
0.0
10
109.224039
20
115.344742
30
0.0
10
114.263198
20
121.012591
30
0.0
10
114.117927
20
122.301429
30
0.0
10
114.096674
20
123.318455
30
0.0
10
114.333815
20
123.978251
30
0.0
10
114.870335
20
124.334650
30
0.0
10
115.747221
20
124.441486
30
0.0
10
117.612474
20
124.850267
30
0.0
10
120.597120
20
125.833079
30
0.0
10
125.178050
20
127.434407
30
0.0
10
130.000507
20
128.930247
30
0.0
10
142.398736
20
132.197721
30
0.0
10
149.145098
20
133.842563
30
0.0
10
152.526667
20
134.558306
30
0.0
10
153.318424
20
134.621394
30
0.0
10
153.704308
20
134.516562
30
0.0
10
153.829425
20
134.265262
30
0.0
10
153.838885
20
133.888946
30
0.0
10
153.861109
20
133.570050
30
0.0
10
153.757711
20
133.306944
30
0.0
10
153.273581
20
133.024075
30
0.0
10
152.153612
20
132.645892
30
0.0
10
136.213178
20
128.668972
30
0.0
10
130.267808
20
127.064519
30
0.0
10
124.277662
20
125.232930
30
0.0
10
119.146735
20
123.426028
30
0.0
10
118.231211
20
122.917709
30
0.0
10
117.830349
20
122.417194
30
0.0
10
117.335439
20
121.747728
30
0.0
10
116.742755
20
121.293024
30
0.0
10
114.794758
20
119.412894
30
0.0
10
111.041330
20
115.316347
30
0.0
10
106.002218
20
109.641440
30
0.0
10
106.002218
20
99.696386
30
0.0
10
105.986910
20
93.033200
30
0.0
10
105.894236
20
91.075929
30
0.0
10
105.679511
20
89.820422
30
0.0
10
105.293709
20
89.105839
30
0.0
10
104.687802
20
88.771344
30
0.0
10
102.619570
20
88.599264
30
0.0
10
100.242390
20
88.458153
30
0.0
10
101.518762
20
86.482597
30
0.0
10
104.373697
20
81.543708
30
0.0
10
106.017977
20
78.492598
30
0.0
10
107.736293
20
78.745492
30
0.0
10
109.654611
20
78.866697
30
0.0
10
111.457744
20
78.476108
30
0.0
10
113.076401
20
77.650099
30
0.0
10
114.441289
20
76.465048
30
0.0
10
115.483116
20
74.997330
30
0.0
10
116.132591
20
73.323320
30
0.0
10
116.320422
20
71.519396
30
0.0
10
115.977317
20
69.661933
30
0.0
10
115.509893
20
68.614824
30
0.0
10
114.845377
20
67.596838
30
0.0
10
114.027640
20
66.665664
30
0.0
10
113.100550
20
65.878989
30
0.0
10
112.251692
20
65.167626
30
0.0
10
112.263319
20
64.991755
30
0.0
10
112.516516
20
64.849113
30
0.0
10
115.738885
20
63.601814
30
0.0
10
122.441662
20
60.648150
30
0.0
10
125.281964
20
59.345792
30
0.0
10
126.463329
20
58.921108
30
0.0
10
129.988776
20
77.693260
30
0.0
10
132.662438
20
92.225046
30
0.0
10
133.179266
20
95.565325
30
0.0
10
133.234331
20
96.788066
30
0.0
10
133.036658
20
97.490262
30
0.0
10
132.954440
20
98.444126
30
0.0
10
132.776678
20
99.506570
30
0.0
10
131.977728
20
100.322180
30
0.0
10
131.020556
20
101.269628
30
0.0
10
130.811425
20
101.698202
30
0.0
10
130.781599
20
102.094566
30
0.0
10
130.930827
20
102.457136
30
0.0
10
131.258861
20
102.784328
30
0.0
10
132.450352
20
103.326246
30
0.0
10
133.058830
20
103.553271
30
0.0
10
133.492283
20
103.866071
30
0.0
10
134.235785
20
105.161989
30
0.0
10
134.808317
20
106.199986
30
0.0
10
135.387904
20
106.631268
30
0.0
10
136.054971
20
106.473480
30
0.0
10
136.889942
20
105.744264
30
0.0
10
137.750911
20
104.615375
30
0.0
10
138.160475
20
104.465886
30
0.0
10
139.143170
20
104.403708
30
0.0
10
140.082394
20
104.315546
30
0.0
10
140.802776
20
104.066975
30
0.0
10
141.259950
20
103.681869
30
0.0
10
141.409550
20
103.184105
30
0.0
10
140.607728
20
101.745604
30
0.0
10
140.163259
20
101.088616
30
0.0
10
139.974302
20
100.601833
30
0.0
10
140.006773
20
100.061555
30
0.0
10
140.226587
20
99.244079
30
0.0
10
140.493794
20
97.977370
30
0.0
10
140.384001
20
97.641895
30
0.0
10
140.099215
20
97.311938
30
0.0
10
139.769470
20
97.026560
30
0.0
10
139.436441
20
96.917482
30
0.0
10
138.179034
20
97.191872
30
0.0
10
136.861791
20
97.462032
30
0.0
10
136.411656
20
97.340654
30
0.0
10
135.862672
20
97.031875
30
0.0
10
134.929996
20
96.383554
30
0.0
10
127.745693
20
58.520234
30
0.0
10
127.730742
20
58.205249
30
0.0
10
127.871671
20
57.921651
30
0.0
10
128.750986
20
57.289717
30
0.0
10
133.189266
20
54.469419
30
0.0
10
136.726651
20
51.998303
30
0.0
10
140.105252
20
49.366157
30
0.0
10
143.325285
20
46.572760
30
0.0
10
146.386968
20
43.617891
30
0.0
10
149.290520
20
40.501328
30
0.0
10
152.036156
20
37.222850
30
0.0
10
154.624096
20
33.782236
30
0.0
10
157.054556
20
30.179264
30
0.0
10
158.689119
20
27.322357
30
0.0
10
160.548312
20
23.639764
30
0.0
10
162.283408
20
19.855895
30
0.0
10
163.545684
20
16.695163
30
0.0
10
164.777531
20
12.718676
30
0.0
10
165.847195
20
8.528438
30
0.0
10
166.540412
20
5.055816
30
0.0
10
166.678894
20
3.879662
30
0.0
10
166.642915
20
3.232175
30
0.0
10
166.396119
20
2.959234
30
0.0
10
166.001082
20
2.817212
30
0.0
10
165.594834
20
2.828472
30
0.0
10
165.314404
20
3.015375
30
0.0
10
165.314404
20
3.015375
30
0.0
62
0
0
LWPOLYLINE
100
AcDbPolyline
8
Layer_1
90
88
70
0
10
62.486103
20
21.485479
30
0.0
10
67.527868
20
25.456460
30
0.0
10
72.982218
20
30.015601
30
0.0
10
76.038173
20
32.334817
30
0.0
10
78.950634
20
34.023759
30
0.0
10
80.212781
20
34.564039
30
0.0
10
81.270726
20
34.865344
30
0.0
10
82.068359
20
34.900540
30
0.0
10
82.549571
20
34.642490
30
0.0
10
83.013571
20
34.422535
30
0.0
10
84.261211
20
34.268531
30
0.0
10
90.552151
20
34.051728
30
0.0
10
98.244304
20
33.883013
30
0.0
10
101.699929
20
36.355130
30
0.0
10
107.084904
20
40.012968
30
0.0
10
112.527520
20
43.410868
30
0.0
10
116.911936
20
45.882370
30
0.0
10
118.358619
20
46.562454
30
0.0
10
119.122311
20
46.761016
30
0.0
10
119.480613
20
46.543296
30
0.0
10
119.629565
20
46.144523
30
0.0
10
119.557855
20
45.689721
30
0.0
10
119.254168
20
45.303917
30
0.0
10
119.115089
20
44.998329
30
0.0
10
119.491354
20
44.381438
30
0.0
10
122.652601
20
41.162447
30
0.0
10
125.478967
20
38.512689
30
0.0
10
126.820343
20
37.459229
30
0.0
10
128.345768
20
38.396728
30
0.0
10
129.508866
20
39.039984
30
0.0
10
130.441446
20
39.063332
30
0.0
10
133.296896
20
39.264053
30
0.0
10
138.677032
20
39.928312
30
0.0
10
143.883735
20
40.692152
30
0.0
10
146.218885
20
41.191612
30
0.0
10
145.352701
20
42.210315
30
0.0
10
143.238500
20
44.248257
30
0.0
10
138.172142
20
48.678095
30
0.0
10
134.536696
20
51.411234
30
0.0
10
130.738562
20
53.967352
30
0.0
10
126.793191
20
56.338681
30
0.0
10
122.716033
20
58.517456
30
0.0
10
118.522539
20
60.495910
30
0.0
10
114.228159
20
62.266279
30
0.0
10
109.848343
20
63.820794
30
0.0
10
105.398542
20
65.151691
30
0.0
10
99.415534
20
66.643609
30
0.0
10
94.113521
20
67.628714
30
0.0
10
88.813097
20
68.207202
30
0.0
10
82.834858
20
68.479266
30
0.0
10
76.318610
20
68.630882
30
0.0
10
76.132080
20
64.741560
30
0.0
10
75.955332
20
58.196492
30
0.0
10
76.035868
20
56.459611
30
0.0
10
76.227773
20
55.861486
30
0.0
10
76.427093
20
55.741084
30
0.0
10
76.509996
20
55.451606
30
0.0
10
76.877868
20
55.237201
30
0.0
10
78.331775
20
55.100565
30
0.0
10
86.599440
20
54.957718
30
0.0
10
96.688885
20
54.873708
30
0.0
10
99.732205
20
56.083979
30
0.0
10
101.961685
20
56.889208
30
0.0
10
103.048316
20
57.125656
30
0.0
10
103.343897
20
56.749137
30
0.0
10
103.285714
20
56.276614
30
0.0
10
102.912446
20
55.793737
30
0.0
10
102.262773
20
55.386159
30
0.0
10
96.782286
20
52.795961
30
0.0
10
91.771986
20
50.128399
30
0.0
10
89.098545
20
48.706540
30
0.0
10
88.430282
20
48.497715
30
0.0
10
88.032542
20
48.549698
30
0.0
10
87.616949
20
48.906952
30
0.0
10
87.584993
20
49.314280
30
0.0
10
87.930063
20
49.753807
30
0.0
10
88.645551
20
50.207655
30
0.0
10
94.199083
20
53.506474
30
0.0
10
84.335750
20
53.625400
30
0.0
10
74.533139
20
53.683606
30
0.0
10
71.540009
20
51.879768
30
0.0
10
65.869753
20
48.035125
30
0.0
10
60.607558
20
43.966745
30
0.0
10
59.521787
20
43.018357
30
0.0
10
59.730208
20
31.377701
30
0.0
10
60.056528
20
19.737042
30
0.0
10
62.486103
20
21.485479
30
0.0
10
62.486103
20
21.485479
30
0.0
62
0
0
LWPOLYLINE
100
AcDbPolyline
8
Layer_1
90
29
70
0
10
108.126728
20
69.922946
30
0.0
10
107.717154
20
70.279388
30
0.0
10
107.366115
20
70.940204
30
0.0
10
107.152908
20
71.705033
30
0.0
10
107.156834
20
72.373515
30
0.0
10
107.481063
20
73.032386
30
0.0
10
108.009490
20
73.616013
30
0.0
10
108.553830
20
74.321133
30
0.0
10
108.683329
20
75.587104
30
0.0
10
108.584587
20
76.780984
30
0.0
10
108.410332
20
76.980497
30
0.0
10
108.107641
20
77.028153
30
0.0
10
107.392545
20
76.875094
30
0.0
10
106.490039
20
76.486405
30
0.0
10
105.608086
20
75.967822
30
0.0
10
104.954649
20
75.425077
30
0.0
10
104.211619
20
74.357162
30
0.0
10
103.772696
20
73.178405
30
0.0
10
103.625798
20
71.943538
30
0.0
10
103.758846
20
70.707291
30
0.0
10
104.159759
20
69.524395
30
0.0
10
104.816456
20
68.449581
30
0.0
10
105.716858
20
67.537580
30
0.0
10
106.848885
20
66.843123
30
0.0
10
107.977773
20
66.328109
30
0.0
10
108.203221
20
68.075203
30
0.0
10
108.298534
20
69.416035
30
0.0
10
108.126728
20
69.922946
30
0.0
10
108.126728
20
69.922946
30
0.0
62
0
0
LWPOLYLINE
100
AcDbPolyline
8
Layer_1
90
30
70
0
10
111.157986
20
66.740512
30
0.0
10
112.197050
20
67.298659
30
0.0
10
113.062938
20
68.016852
30
0.0
10
113.744848
20
68.867191
30
0.0
10
114.231978
20
69.821773
30
0.0
10
114.513527
20
70.852696
30
0.0
10
114.578691
20
71.932060
30
0.0
10
114.416670
20
73.031961
30
0.0
10
114.016660
20
74.124498
30
0.0
10
113.422775
20
75.079393
30
0.0
10
112.656665
20
75.898129
30
0.0
10
111.784026
20
76.522842
30
0.0
10
110.870551
20
76.895664
30
0.0
10
110.094440
20
77.089344
30
0.0
10
110.094440
20
75.481208
30
0.0
10
110.213549
20
74.089868
30
0.0
10
110.400416
20
73.692521
30
0.0
10
110.705923
20
73.377925
30
0.0
10
111.204907
20
72.710239
30
0.0
10
111.333481
20
71.898469
30
0.0
10
111.099250
20
71.061322
30
0.0
10
110.509820
20
70.317501
30
0.0
10
110.092211
20
69.899402
30
0.0
10
109.828907
20
69.445081
30
0.0
10
109.582198
20
67.963280
30
0.0
10
109.542052
20
66.896341
30
0.0
10
109.706735
20
66.402522
30
0.0
10
110.203097
20
66.383390
30
0.0
10
111.157986
20
66.740512
30
0.0
10
111.157986
20
66.740512
30
0.0
62
0
0
LWPOLYLINE
100
AcDbPolyline
8
Layer_1
90
28
70
0
10
52.642316
20
68.764164
30
0.0
10
52.339169
20
70.139239
30
0.0
10
51.775340
20
70.901314
30
0.0
10
51.294547
20
71.523875
30
0.0
10
51.114989
20
72.324066
30
0.0
10
51.240381
20
73.187732
30
0.0
10
51.674440
20
74.000718
30
0.0
10
52.111017
20
74.913271
30
0.0
10
52.238885
20
76.296557
30
0.0
10
52.202050
20
77.285077
30
0.0
10
52.016064
20
77.753649
30
0.0
10
51.567703
20
77.792918
30
0.0
10
50.743745
20
77.493526
30
0.0
10
50.003164
20
77.087939
30
0.0
10
49.331057
20
76.533161
30
0.0
10
48.252940
20
75.088406
30
0.0
10
47.630739
20
73.384008
30
0.0
10
47.528529
20
72.504675
30
0.0
10
47.585802
20
71.644710
30
0.0
10
47.971628
20
70.477067
30
0.0
10
48.675993
20
69.342533
30
0.0
10
49.597192
20
68.372766
30
0.0
10
50.633520
20
67.699424
30
0.0
10
51.837506
20
67.212929
30
0.0
10
52.487700
20
67.182674
30
0.0
10
52.713004
20
67.676978
30
0.0
10
52.642316
20
68.764164
30
0.0
10
52.642316
20
68.764164
30
0.0
62
0
0
LWPOLYLINE
100
AcDbPolyline
8
Layer_1
90
30
70
0
10
56.340931
20
68.170544
30
0.0
10
57.008356
20
68.740701
30
0.0
10
57.560943
20
69.477550
30
0.0
10
57.989035
20
70.339140
30
0.0
10
58.282979
20
71.283521
30
0.0
10
58.433120
20
72.268741
30
0.0
10
58.429803
20
73.252850
30
0.0
10
58.263373
20
74.193897
30
0.0
10
57.924175
20
75.049930
30
0.0
10
57.280313
20
75.969570
30
0.0
10
56.431481
20
76.788349
30
0.0
10
55.489471
20
77.415975
30
0.0
10
54.566075
20
77.762159
30
0.0
10
53.649996
20
77.945375
30
0.0
10
53.649996
20
76.344337
30
0.0
10
53.782020
20
74.911632
30
0.0
10
54.009416
20
74.489819
30
0.0
10
54.399838
20
74.098314
30
0.0
10
54.927995
20
73.404848
30
0.0
10
55.125727
20
72.584479
30
0.0
10
54.989203
20
71.741314
30
0.0
10
54.514592
20
70.979459
30
0.0
10
54.157281
20
70.399656
30
0.0
10
53.964384
20
69.633484
30
0.0
10
53.944308
20
68.746214
30
0.0
10
54.105460
20
67.803113
30
0.0
10
54.365085
20
67.347110
30
0.0
10
54.946530
20
67.442687
30
0.0
10
56.340931
20
68.170544
30
0.0
10
56.340931
20
68.170544
30
0.0
62
0
0
LWPOLYLINE
100
AcDbPolyline
8
Layer_1
90
38
70
0
10
102.889852
20
68.208708
30
0.0
10
102.083536
20
70.632199
30
0.0
10
101.939393
20
71.692135
30
0.0
10
101.973779
20
72.697139
30
0.0
10
102.191084
20
73.681915
30
0.0
10
102.595699
20
74.681171
30
0.0
10
103.984417
20
76.861941
30
0.0
10
103.819033
20
77.542957
30
0.0
10
103.114520
20
78.987174
30
0.0
10
100.739759
20
83.100819
30
0.0
10
98.163444
20
87.074093
30
0.0
10
97.206988
20
88.342846
30
0.0
10
96.688885
20
88.778213
30
0.0
10
96.406662
20
87.957253
30
0.0
10
96.124440
20
86.096904
30
0.0
10
95.807540
20
84.069976
30
0.0
10
95.418885
20
83.229921
30
0.0
10
93.844457
20
83.040465
30
0.0
10
90.653602
20
82.959140
30
0.0
10
86.311653
20
82.954822
30
0.0
10
87.030537
20
82.389348
30
0.0
10
87.893972
20
81.438303
30
0.0
10
88.585061
20
80.144564
30
0.0
10
89.043753
20
78.653574
30
0.0
10
89.209996
20
77.110779
30
0.0
10
88.999840
20
75.201216
30
0.0
10
88.345754
20
73.554505
30
0.0
10
87.212313
20
72.109369
30
0.0
10
85.564088
20
70.804532
30
0.0
10
85.280723
20
70.553128
30
0.0
10
85.542211
20
70.378749
30
0.0
10
88.675202
20
70.012842
30
0.0
10
95.728534
20
69.076055
30
0.0
10
101.204440
20
68.023890
30
0.0
10
102.666801
20
67.741796
30
0.0
10
102.926106
20
67.880846
30
0.0
10
102.889852
20
68.208711
30
0.0
10
102.889852
20
68.208708
30
0.0
62
0
0
LWPOLYLINE
100
AcDbPolyline
8
Layer_1
90
41
70
0
10
63.386662
20
69.111783
30
0.0
10
68.634674
20
69.795693
30
0.0
10
76.609581
20
70.424926
30
0.0
10
79.108057
20
70.592549
30
0.0
10
78.290886
20
71.089497
30
0.0
10
77.483590
20
71.708879
30
0.0
10
76.681038
20
72.545108
30
0.0
10
75.980550
20
73.483290
30
0.0
10
75.479450
20
74.408532
30
0.0
10
75.174763
20
75.667874
30
0.0
10
75.112755
20
77.218113
30
0.0
10
75.284005
20
78.789984
30
0.0
10
75.679091
20
80.114225
30
0.0
10
76.422703
20
81.314468
30
0.0
10
77.413186
20
82.442558
30
0.0
10
78.579469
20
83.519264
30
0.0
10
74.625141
20
83.519264
30
0.0
10
71.796145
20
83.579702
30
0.0
10
70.909524
20
83.709237
30
0.0
10
70.299595
20
83.952974
30
0.0
10
69.909936
20
84.346904
30
0.0
10
69.684127
20
84.927021
30
0.0
10
69.498374
20
86.789782
30
0.0
10
69.332223
20
88.374821
30
0.0
10
69.202185
20
88.756853
30
0.0
10
69.037254
20
88.881486
30
0.0
10
67.206086
20
87.305869
30
0.0
10
63.302693
20
83.517684
30
0.0
10
57.923625
20
78.153881
30
0.0
10
58.880900
20
76.731376
30
0.0
10
59.611417
20
75.436542
30
0.0
10
60.023505
20
74.320987
30
0.0
10
60.130782
20
73.103768
30
0.0
10
60.062461
20
71.746858
30
0.0
10
59.840837
20
70.453991
30
0.0
10
59.488205
20
69.428902
30
0.0
10
59.047896
20
68.397004
30
0.0
10
59.163937
20
68.308615
30
0.0
10
59.506098
20
68.389782
30
0.0
10
63.386654
20
69.111783
30
0.0
10
63.386662
20
69.111783
30
0.0
62
0
0
LWPOLYLINE
100
AcDbPolyline
8
Layer_1
90
30
70
0
10
81.589996
20
73.247967
30
0.0
10
81.450578
20
74.683084
30
0.0
10
80.884440
20
75.668511
30
0.0
10
80.386142
20
76.382815
30
0.0
10
80.178885
20
76.922712
30
0.0
10
80.624915
20
78.186740
30
0.0
10
81.000207
20
78.762376
30
0.0
10
81.315021
20
79.003708
30
0.0
10
81.509222
20
79.501125
30
0.0
10
81.589996
20
80.697042
30
0.0
10
81.540889
20
81.790388
30
0.0
10
81.310932
20
82.312506
30
0.0
10
80.776165
20
82.354903
30
0.0
10
79.812634
20
82.009082
30
0.0
10
78.866581
20
81.424813
30
0.0
10
77.972668
20
80.541089
30
0.0
10
77.240961
20
79.488977
30
0.0
10
76.781525
20
78.399547
30
0.0
10
76.630593
20
77.506595
30
0.0
10
76.646251
20
76.606798
30
0.0
10
76.818379
20
75.721623
30
0.0
10
77.136860
20
74.872543
30
0.0
10
78.172404
20
73.368541
30
0.0
10
78.869230
20
72.756561
30
0.0
10
79.671934
20
72.266553
30
0.0
10
80.729136
20
71.790760
30
0.0
10
81.304302
20
71.746144
30
0.0
10
81.542800
20
72.207087
30
0.0
10
81.589996
20
73.247967
30
0.0
10
81.589996
20
73.247967
30
0.0
62
0
0
LWPOLYLINE
100
AcDbPolyline
8
Layer_1
90
26
70
0
10
85.584357
20
72.825616
30
0.0
10
86.220462
20
73.398742
30
0.0
10
86.742200
20
74.112001
30
0.0
10
87.412891
20
75.825030
30
0.0
10
87.537060
20
77.696938
30
0.0
10
87.375645
20
78.608794
30
0.0
10
87.055336
20
79.459957
30
0.0
10
86.429613
20
80.401074
30
0.0
10
85.580829
20
81.250670
30
0.0
10
84.631843
20
81.905903
30
0.0
10
83.705519
20
82.263931
30
0.0
10
82.859996
20
82.433360
30
0.0
10
82.957489
20
80.845536
30
0.0
10
83.178330
20
79.450697
30
0.0
10
83.733600
20
78.579094
30
0.0
10
84.244412
20
77.834296
30
0.0
10
84.409730
20
77.020219
30
0.0
10
84.230245
20
76.215967
30
0.0
10
83.706648
20
75.500648
30
0.0
10
83.140049
20
74.699370
30
0.0
10
83.001093
20
73.444495
30
0.0
10
83.171222
20
71.872097
30
0.0
10
83.503299
20
71.824317
30
0.0
10
84.086786
20
71.995210
30
0.0
10
85.584343
20
72.825616
30
0.0
10
85.584357
20
72.825616
30
0.0
62
0
0
LWPOLYLINE
100
AcDbPolyline
8
Layer_1
90
14
70
0
10
94.394336
20
85.283153
30
0.0
10
94.568366
20
87.258708
30
0.0
10
94.572204
20
88.599264
30
0.0
10
82.859982
20
88.599264
30
0.0
10
71.147759
20
88.599264
30
0.0
10
71.147759
20
87.038186
30
0.0
10
71.239610
20
85.852731
30
0.0
10
71.500537
20
85.358732
30
0.0
10
78.853622
20
84.989899
30
0.0
10
89.953177
20
84.693723
30
0.0
10
93.688998
20
84.736968
30
0.0
10
94.221452
20
84.920779
30
0.0
10
94.394322
20
85.283153
30
0.0
10
94.394336
20
85.283153
30
0.0
62
0
0
LWPOLYLINE
100
AcDbPolyline
8
Layer_1
90
49
70
0
10
89.872970
20
90.475122
30
0.0
10
92.032218
20
90.657643
30
0.0
10
92.032218
20
93.102292
30
0.0
10
92.094169
20
95.139748
30
0.0
10
92.247245
20
95.757978
30
0.0
10
92.548952
20
96.162408
30
0.0
10
93.049716
20
96.392937
30
0.0
10
93.799960
20
96.489463
30
0.0
10
96.250588
20
96.440103
30
0.0
10
98.983458
20
96.241040
30
0.0
10
99.658715
20
96.095062
30
0.0
10
99.959823
20
95.905636
30
0.0
10
100.136382
20
94.858355
30
0.0
10
100.212342
20
92.890789
30
0.0
10
100.216660
20
90.267869
30
0.0
10
102.262771
20
90.350789
30
0.0
10
104.308882
20
90.433708
30
0.0
10
104.308882
20
95.231486
30
0.0
10
104.308882
20
100.029264
30
0.0
10
95.912771
20
100.104019
30
0.0
10
87.516660
20
100.178774
30
0.0
10
87.516660
20
96.959214
30
0.0
10
87.432567
20
94.313862
30
0.0
10
87.296501
20
93.781989
30
0.0
10
87.070243
20
93.568348
30
0.0
10
85.667083
20
93.427117
30
0.0
10
83.246507
20
93.407404
30
0.0
10
80.873848
20
93.494281
30
0.0
10
79.614437
20
93.672821
30
0.0
10
79.406891
20
93.952148
30
0.0
10
79.260874
20
94.546132
30
0.0
10
79.095577
20
97.055167
30
0.0
10
79.000056
20
100.170375
30
0.0
10
77.071629
20
100.170375
30
0.0
10
75.143205
20
100.170375
30
0.0
10
71.593267
20
97.714641
30
0.0
10
69.337510
20
96.117607
30
0.0
10
68.672395
20
95.543865
30
0.0
10
68.257335
20
95.019166
30
0.0
10
68.048489
20
94.467901
30
0.0
10
68.002015
20
93.814466
30
0.0
10
68.220821
20
91.898659
30
0.0
10
68.342805
20
91.155546
30
0.0
10
68.526505
20
90.758332
30
0.0
10
68.892503
20
90.580983
30
0.0
10
69.561377
20
90.497465
30
0.0
10
79.674694
20
90.344401
30
0.0
10
89.872970
20
90.475113
30
0.0
10
89.872970
20
90.475122
30
0.0
62
0
0
LWPOLYLINE
100
AcDbPolyline
8
Layer_1
90
15
70
0
10
66.349996
20
93.235772
30
0.0
10
66.440627
20
95.356993
30
0.0
10
66.734199
20
96.269660
30
0.0
10
69.549391
20
98.335931
30
0.0
10
71.164715
20
99.548023
30
0.0
10
71.634635
20
100.084328
30
0.0
10
66.279440
20
100.241653
30
0.0
10
61.269996
20
100.343914
30
0.0
10
61.269996
20
95.619223
30
0.0
10
61.269996
20
90.894532
30
0.0
10
62.046107
20
90.776961
30
0.0
10
64.586107
20
90.617105
30
0.0
10
66.349996
20
90.574820
30
0.0
10
66.349996
20
93.235772
30
0.0
10
66.349996
20
93.235772
30
0.0
62
0
0
LWPOLYLINE
100
AcDbPolyline
8
Layer_1
90
54
70
0
10
54.555057
20
94.827079
30
0.0
10
59.153329
20
97.103779
30
0.0
10
59.357754
20
99.270569
30
0.0
10
59.589060
20
100.908575
30
0.0
10
59.778323
20
101.423051
30
0.0
10
60.059691
20
101.768876
30
0.0
10
60.465435
20
101.971827
30
0.0
10
61.027830
20
102.057679
30
0.0
10
62.751662
20
101.981186
30
0.0
10
64.938885
20
101.790825
30
0.0
10
64.938885
20
104.367265
30
0.0
10
64.938885
20
106.943708
30
0.0
10
62.856773
20
106.943708
30
0.0
10
61.273287
20
107.012695
30
0.0
10
60.782461
20
107.147921
30
0.0
10
60.457196
20
107.393854
30
0.0
10
60.271204
20
107.783156
30
0.0
10
60.198196
20
108.348489
30
0.0
10
60.285986
20
110.137900
30
0.0
10
60.483214
20
112.505620
30
0.0
10
59.571328
20
112.687997
30
0.0
10
54.831152
20
112.870375
30
0.0
10
51.638942
20
112.971269
30
0.0
10
49.339952
20
113.213842
30
0.0
10
47.853185
20
113.420163
30
0.0
10
47.506568
20
113.287346
30
0.0
10
47.206298
20
112.972537
30
0.0
10
46.241662
20
112.214592
30
0.0
10
45.891722
20
111.944611
30
0.0
10
45.743921
20
111.538676
30
0.0
10
45.579860
20
110.439042
30
0.0
10
45.535887
20
110.114208
30
0.0
10
45.678086
20
109.916005
30
0.0
10
46.862924
20
109.703475
30
0.0
10
48.031253
20
109.417865
30
0.0
10
49.020165
20
108.839332
30
0.0
10
49.806137
20
108.024936
30
0.0
10
50.365648
20
107.031736
30
0.0
10
50.675175
20
105.916794
30
0.0
10
50.711198
20
104.737170
30
0.0
10
50.450193
20
103.549923
30
0.0
10
49.868638
20
102.412114
30
0.0
10
49.211969
20
101.453767
30
0.0
10
49.790234
20
100.671622
30
0.0
10
50.218203
20
99.867143
30
0.0
10
49.922980
20
98.955211
30
0.0
10
49.548094
20
97.491895
30
0.0
10
49.272390
20
95.285662
30
0.0
10
49.179438
20
93.022340
30
0.0
10
49.285588
20
92.641884
30
0.0
10
49.512051
20
92.550375
30
0.0
10
51.176887
20
93.219157
30
0.0
10
54.555057
20
94.827079
30
0.0
10
54.555057
20
94.827079
30
0.0
62
0
0
LWPOLYLINE
100
AcDbPolyline
8
Layer_1
90
33
70
0
10
88.927773
20
103.945820
30
0.0
10
89.025323
20
105.642315
30
0.0
10
89.363096
20
106.389215
30
0.0
10
91.505507
20
106.598079
30
0.0
10
95.725465
20
106.582942
30
0.0
10
99.932802
20
106.394338
30
0.0
10
101.378560
20
106.250776
30
0.0
10
102.037348
20
106.082798
30
0.0
10
102.287836
20
105.360650
30
0.0
10
102.474440
20
104.039741
30
0.0
10
102.691416
20
102.613085
30
0.0
10
102.875160
20
102.314911
30
0.0
10
103.146177
20
102.191419
30
0.0
10
103.647932
20
102.237454
30
0.0
10
103.958356
20
102.688284
30
0.0
10
104.117010
20
103.664241
30
0.0
10
104.163453
20
105.285653
30
0.0
10
104.167771
20
107.719820
30
0.0
10
103.285826
20
107.896208
30
0.0
10
94.849357
20
108.072597
30
0.0
10
89.988815
20
108.064129
30
0.0
10
88.572930
20
107.994167
30
0.0
10
87.677131
20
107.827606
30
0.0
10
87.184288
20
107.524861
30
0.0
10
86.977275
20
107.046349
30
0.0
10
86.952218
20
105.403681
30
0.0
10
87.000147
20
103.628429
30
0.0
10
87.177044
20
102.547356
30
0.0
10
87.532569
20
102.009452
30
0.0
10
88.116385
20
101.863708
30
0.0
10
88.927773
20
101.863708
30
0.0
10
88.927773
20
103.945820
30
0.0
10
88.927773
20
103.945820
30
0.0
62
0
0
LWPOLYLINE
100
AcDbPolyline
8
Layer_1
90
26
70
0
10
47.109352
20
102.909068
30
0.0
10
47.661531
20
103.431858
30
0.0
10
48.050253
20
104.036349
30
0.0
10
48.276389
20
104.687078
30
0.0
10
48.340815
20
105.348584
30
0.0
10
48.244403
20
105.985403
30
0.0
10
47.988028
20
106.562075
30
0.0
10
47.572563
20
107.043136
30
0.0
10
46.998882
20
107.393125
30
0.0
10
45.891526
20
108.068322
30
0.0
10
45.638383
20
108.326376
30
0.0
10
45.387024
20
108.264992
30
0.0
10
44.857331
20
107.155375
30
0.0
10
44.613000
20
106.461769
30
0.0
10
44.326205
20
106.089878
30
0.0
10
43.815800
20
105.915596
30
0.0
10
42.900642
20
105.814820
30
0.0
10
41.323511
20
105.673708
30
0.0
10
41.771753
20
104.268998
30
0.0
10
42.284483
20
103.123328
30
0.0
10
42.925551
20
102.493183
30
0.0
10
43.853308
20
102.247000
30
0.0
10
45.026725
20
102.250840
30
0.0
10
46.195504
20
102.479823
30
0.0
10
47.109352
20
102.909068
30
0.0
10
47.109352
20
102.909068
30
0.0
62
0
0
LWPOLYLINE
100
AcDbPolyline
8
Layer_1
90
42
70
0
10
68.431385
20
115.163431
30
0.0
10
68.607773
20
116.997875
30
0.0
10
68.585723
20
117.543578
30
0.0
10
68.443139
20
117.826903
30
0.0
10
68.065372
20
117.933839
30
0.0
10
67.337773
20
117.950375
30
0.0
10
66.440836
20
117.878777
30
0.0
10
66.067773
20
117.706637
30
0.0
10
65.323734
20
116.718859
30
0.0
10
64.810114
20
116.313829
30
0.0
10
64.245392
20
116.056346
30
0.0
10
63.058401
20
115.968618
30
0.0
10
61.954282
20
116.424870
30
0.0
10
61.493151
20
116.847362
30
0.0
10
61.124558
20
117.394296
30
0.0
10
60.856383
20
117.834531
30
0.0
10
60.556148
20
118.088336
30
0.0
10
59.473603
20
118.232597
30
0.0
10
58.418292
20
118.101285
30
0.0
10
58.141744
20
117.882310
30
0.0
10
57.927999
20
117.512378
30
0.0
10
57.517687
20
116.907227
30
0.0
10
56.952215
20
116.477399
30
0.0
10
56.282576
20
116.222439
30
0.0
10
55.559761
20
116.141895
30
0.0
10
54.834762
20
116.235313
30
0.0
10
54.158572
20
116.502239
30
0.0
10
53.582183
20
116.942221
30
0.0
10
53.156587
20
117.554804
30
0.0
10
52.593414
20
118.351349
30
0.0
10
51.622170
20
118.514820
30
0.0
10
50.545551
20
118.514820
30
0.0
10
50.495155
20
117.244820
30
0.0
10
50.422249
20
115.641256
30
0.0
10
50.495466
20
115.180928
30
0.0
10
50.731113
20
114.890183
30
0.0
10
51.957653
20
114.643272
30
0.0
10
54.637773
20
114.552194
30
0.0
10
63.563051
20
114.340527
30
0.0
10
68.254996
20
114.281486
30
0.0
10
68.431385
20
115.163431
30
0.0
10
68.431385
20
115.163431
30
0.0
62
0
0
LWPOLYLINE
100
AcDbPolyline
8
Layer_1
90
17
70
0
10
48.655862
20
115.116754
30
0.0
10
48.790942
20
115.754797
30
0.0
10
48.796973
20
116.992019
30
0.0
10
48.711107
20
118.655931
30
0.0
10
47.088329
20
118.740569
30
0.0
10
45.792586
20
118.722885
30
0.0
10
45.537478
20
118.606528
30
0.0
10
45.465551
20
118.402080
30
0.0
10
45.092489
20
117.708314
30
0.0
10
44.195551
20
116.634508
30
0.0
10
42.925551
20
115.080892
30
0.0
10
43.150520
20
114.925021
30
0.0
10
43.748035
20
114.816418
30
0.0
10
45.596368
20
114.738111
30
0.0
10
47.541870
20
114.840160
30
0.0
10
48.655862
20
115.116754
30
0.0
10
48.655862
20
115.116754
30
0.0
62
0
0
LWPOLYLINE
100
AcDbPolyline
8
Layer_1
90
11
70
0
10
38.854154
20
115.094458
30
0.0
10
38.061389
20
115.481498
30
0.0
10
36.948920
20
115.819710
30
0.0
10
36.602146
20
115.860644
30
0.0
10
36.629058
20
115.432671
30
0.0
10
36.753555
20
115.143133
30
0.0
10
36.974570
20
114.963426
30
0.0
10
37.895124
20
114.845933
30
0.0
10
38.635799
20
114.918938
30
0.0
10
38.854154
20
115.094458
30
0.0
10
38.854154
20
115.094458
30
0.0
62
0
0
LWPOLYLINE
100
AcDbPolyline
8
Layer_1
90
18
70
0
10
41.514440
20
115.393718
30
0.0
10
41.431537
20
115.831831
30
0.0
10
41.232218
20
116.115931
30
0.0
10
41.032898
20
116.648739
30
0.0
10
40.949996
20
117.684810
30
0.0
10
40.835075
20
118.896505
30
0.0
10
40.574093
20
119.054306
30
0.0
10
40.073134
20
119.079264
30
0.0
10
39.401596
20
118.984685
30
0.0
10
39.391590
20
118.585375
30
0.0
10
39.748765
20
117.103708
30
0.0
10
39.971407
20
116.246234
30
0.0
10
40.310018
20
115.526201
30
0.0
10
40.711703
20
115.030476
30
0.0
10
41.123565
20
114.845931
30
0.0
10
41.399620
20
115.006843
30
0.0
10
41.514440
20
115.393718
30
0.0
10
41.514440
20
115.393718
30
0.0
62
0
0
LWPOLYLINE
100
AcDbPolyline
8
Layer_1
90
7
70
0
10
55.978329
20
118.137285
30
0.0
10
55.272773
20
118.137285
30
0.0
10
55.230881
20
118.036751
30
0.0
10
55.625551
20
117.994935
30
0.0
10
56.020221
20
118.036751
30
0.0
10
55.978329
20
118.137285
30
0.0
10
55.978329
20
118.137285
30
0.0
62
0
0
LWPOLYLINE
100
AcDbPolyline
8
Layer_1
90
27
70
0
10
61.589381
20
120.349264
30
0.0
10
62.629778
20
121.098497
30
0.0
10
63.556809
20
121.337042
30
0.0
10
64.457362
20
121.107019
30
0.0
10
65.418662
20
120.349264
30
0.0
10
66.428977
20
119.558680
30
0.0
10
67.507107
20
119.361486
30
0.0
10
68.607773
20
119.361486
30
0.0
10
68.607773
20
120.896417
30
0.0
10
68.607773
20
122.431344
30
0.0
10
67.408329
20
122.579745
30
0.0
10
58.377218
20
122.905478
30
0.0
10
50.545551
20
123.082812
30
0.0
10
50.545551
20
121.504371
30
0.0
10
50.545551
20
119.925931
30
0.0
10
51.652732
20
119.925931
30
0.0
10
52.704999
20
120.104394
30
0.0
10
53.606576
20
120.772597
30
0.0
10
54.546576
20
121.450584
30
0.0
10
55.522871
20
121.655452
30
0.0
10
56.514222
20
121.387876
30
0.0
10
57.499391
20
120.648535
30
0.0
10
58.452572
20
119.910532
30
0.0
10
59.376169
20
119.564810
30
0.0
10
60.389124
20
119.406653
30
0.0
10
61.589381
20
120.349264
30
0.0
10
61.589381
20
120.349264
30
0.0
62
0
0
LWPOLYLINE
100
AcDbPolyline
8
Layer_1
90
7
70
0
10
64.015784
20
119.531996
30
0.0
10
63.474857
20
119.554264
30
0.0
10
63.352395
20
119.440304
30
0.0
10
63.645367
20
119.383756
30
0.0
10
63.977308
20
119.418110
30
0.0
10
64.015784
20
119.531985
30
0.0
10
64.015784
20
119.531996
30
0.0
  0
ENDSEC
  0
SECTION
  2
OBJECTS
  0
DICTIONARY
  5
C
330
0
100
AcDbDictionary
  3
ACAD_GROUP
350
D
  3
ACAD_MLINESTYLE
350
17
  0
DICTIONARY
  5
D
330
C
100
AcDbDictionary
  0
DICTIONARY
  5
1A
330
C
100
AcDbDictionary
  0
DICTIONARY
  5
17
330
C
100
AcDbDictionary
  3
STANDARD
350
18
  0
DICTIONARY
  5
19
330
C
100
AcDbDictionary
  0
ENDSEC
  0
EOF
