<?xml version="1.0" encoding="UTF-8" standalone="no"?>
<!-- Created with Inkscape (http://www.inkscape.org/) -->

<svg
   xmlns:dc="http://purl.org/dc/elements/1.1/"
   xmlns:cc="http://creativecommons.org/ns#"
   xmlns:rdf="http://www.w3.org/1999/02/22-rdf-syntax-ns#"
   xmlns:svg="http://www.w3.org/2000/svg"
   xmlns="http://www.w3.org/2000/svg"
   xmlns:sodipodi="http://sodipodi.sourceforge.net/DTD/sodipodi-0.dtd"
   xmlns:inkscape="http://www.inkscape.org/namespaces/inkscape"
   id="svg3390"
   version="1.1"
   inkscape:version="0.91 r13725"
   width="465"
   height="500"
   viewBox="0 0 465 500"
   sodipodi:docname="EMR_logo_pre_processed.svg">
  <metadata
     id="metadata3396">
    <rdf:RDF>
      <cc:Work
         rdf:about="">
        <dc:format>image/svg+xml</dc:format>
        <dc:type
           rdf:resource="http://purl.org/dc/dcmitype/StillImage" />
        <dc:title></dc:title>
      </cc:Work>
    </rdf:RDF>
  </metadata>
  <defs
     id="defs3394" />
  <sodipodi:namedview
     pagecolor="#ffffff"
     bordercolor="#666666"
     borderopacity="1"
     objecttolerance="10"
     gridtolerance="10"
     guidetolerance="10"
     inkscape:pageopacity="0"
     inkscape:pageshadow="2"
     inkscape:window-width="1440"
     inkscape:window-height="851"
     id="namedview3392"
     showgrid="false"
     inkscape:zoom="1.298"
     inkscape:cx="232.5"
     inkscape:cy="250"
     inkscape:window-x="0"
     inkscape:window-y="1"
     inkscape:window-maximized="1"
     inkscape:current-layer="svg3390" />
  <path
     style="fill:#000000"
     d="m 230.90289,498.33548 c -2.09513,-1.76294 -4.38515,-5.27856 -5.08893,-7.8125 -0.7131,-2.56751 -1.28269,-18.2921 -1.28657,-35.51889 l -0.007,-30.91173 -35.05619,-36.83088 -35.05618,-36.83089 -66.506326,-0.38237 -66.50631,-0.38239 -7.12281,-3.49779 c -4.7980499,-2.35617 -8.0618699,-5.00802 -9.9999999,-8.125 l -2.87719,-4.62721 0,-72.5 0,-72.5 2.92129,-4.69856 c 1.6067,-2.5842 5.5442,-6.24045 8.7499999,-8.125 l 5.82871,-3.42644 72.738583,-0.625 72.738583,-0.625 4.76142,-5.57553 c 2.61878,-3.06653 16.15204,-18.80433 30.07392,-34.97288 l 25.3125,-29.39737 0.007,-41.902108 c 0.004,-24.724004 0.53155,-43.79085 1.28656,-46.509265 0.70379,-2.533935 2.9938,-6.0495604 5.08894,-7.8125 l 3.80934,-3.2053449 37.46618,0 c 41.44927,0 42.85517,0.2342839 47.00835,7.8336586 1.91316,3.5006523 2.29227,8.7008353 2.83366,38.8684113 l 0.625,34.82707 19.31544,12.50699 c 15.64909,10.132978 19.68264,12.238478 21.25,11.092408 9.20344,-6.729696 6.48961,-6.36883 47.93414,-6.37387 42.12195,-0.005 42.55307,0.061 48.80348,7.48925 1.77423,2.10854 3.80684,5.92562 4.51693,8.4824 0.74722,2.69048 1.29401,19.54057 1.29803,40.00133 0.007,39.20184 -0.3599,41.43954 -7.6641,46.64902 -3.83863,2.7378 -5.64306,3.0339 -20.76642,3.40768 l -16.5625,0.40935 0,40.52815 0,40.52815 16.69015,0 c 15.30347,0 17.04151,0.23679 20.91929,2.85002 7.23121,4.87312 7.35196,5.61018 7.37214,45.00263 0.0215,41.94907 -0.23373,43.24066 -9.33993,47.26876 -5.38684,2.38286 -8.0402,2.5064 -49.37114,2.29875 l -43.67835,-0.21943 -20.35859,16.78387 -20.35857,16.78389 -0.625,35.55325 c -0.54256,30.864 -0.91631,36.08629 -2.83366,39.5946 -4.15318,7.59937 -5.55908,7.83366 -47.00835,7.83366 l -37.46618,0 -3.80934,-3.20535 z m 2.47162,-103.0745 c 2.33992,-0.67109 14.94562,-1.23796 28.01266,-1.25973 l 23.75825,-0.0396 15.97267,-33.25859 c 8.78498,-18.29222 15.81623,-33.39836 15.625,-33.56919 -0.54078,-0.48313 -125.14873,-25.6281 -126.91017,-25.60955 -1.166,0.0125 -1.5625,3.9916 -1.5625,15.68162 0,17.84776 -1.25408,22.2731 -8.38605,29.5924 l -4.51399,4.63253 24.13743,25.09679 24.13742,25.0968 2.73743,-2.57168 c 1.5056,-1.41444 4.65192,-3.12077 6.99185,-3.79184 z m 106.11758,-11.53265 18.70129,-15.3125 0.0385,-16.45892 0.0385,-16.45892 -6.5625,-1.41395 c -3.60937,-0.77767 -8.83022,-1.72765 -11.60187,-2.11105 l -5.03939,-0.6971 -15.07134,31.06996 -15.07134,31.06998 5.58498,1.47425 c 3.07172,0.81084 6.18717,2.07646 6.92321,2.8125 0.73604,0.73604 1.79284,1.33825 2.34845,1.33825 0.55561,0 9.42578,-6.89063 19.71148,-15.3125 z m 21.99053,-91.80212 c 1.40754,-1.9307 4.88465,-4.70139 7.72691,-6.15708 l 5.16775,-2.6467 -3.80023,-7.9783 -3.80023,-7.9783 -11.62115,23.125 c -6.39164,12.71875 -11.44208,23.31662 -11.2232,23.55084 0.21887,0.23421 3.39384,1.09381 7.05545,1.91023 l 6.6575,1.4844 0.63902,-10.89986 c 0.48648,-8.29791 1.24993,-11.73782 3.19818,-14.41024 z m -20.94209,-12.57288 c 8.39904,-17.01563 15.26173,-31.64598 15.25043,-32.5119 -0.0165,-1.26604 -24.36527,-51.14793 -25.66263,-52.57355 -0.27125,-0.29808 -127.16329,44.40156 -139.67101,49.20122 -1.95147,0.74885 -2.1869,2.91057 -2.1869,20.08047 0,10.58269 0.42187,19.27017 0.9375,19.30551 0.51562,0.0354 30.46875,6.15999 66.5625,13.61034 36.09375,7.45034 66.49669,13.60892 67.56208,13.68575 1.33412,0.0961 6.69048,-9.4903 17.20803,-30.79784 z m 62.43481,-32.5805 0.32993,-40.393 -3.92239,0.393 c -3.76699,0.37742 -4.29499,1.19929 -13.32703,20.74446 l -9.40464,20.35148 9.16542,20.02301 c 9.10978,19.90145 9.18868,20.02074 12.9971,19.64854 l 3.83169,-0.37449 0.32992,-40.393 z m -343.454926,30.04893 0,-4.71908 -13.125,0.48585 -13.125,0.48585 0,-7.01678 0,-7.01677 11.25,0 11.25,0 0,-4.375 0,-4.375 -11.25,0 -11.25,0 0,-5.69635 0,-5.69636 12.8125,0.24445 12.8125,0.24443 0.39252,-5.3398 c 0.37073,-5.0434 0.23196,-5.2968 -2.5,-4.56516 -1.59088,0.42606 -9.92377,0.78234 -18.51752,0.79173 l -15.625,0.0171 0,25.625 0,25.625 18.4375,0 18.4375,0 0,-4.71907 z m 16.54803,-13.09166 -0.32697,-17.81427 5.16437,13.125 c 2.84041,7.21875 5.77563,15.23437 6.52271,17.8125 1.2475,4.30498 1.72818,4.6875 5.890376,4.6875 4.00618,0 4.686766,-0.47138 5.86559,-4.0625 0.733455,-2.23438 3.62288,-9.96875 6.42093,-17.1875 l 5.08737,-13.125 0.0388,17.1875 0.0388,17.1875 5,0 5,0 0,-25.625 0,-25.625 -6.68633,0 -6.68633,0 -6.70642,18.10725 c -3.68853,9.95899 -7.073287,17.69336 -7.521679,17.1875 -1.319639,-1.48878 -12.399247,-31.33841 -12.399247,-33.40489 0,-1.46736 -1.60682,-1.88986 -7.1875,-1.88986 l -7.1875,0 0,25.625 0,25.625 5,10e-4 5,10e-4 -0.32697,-17.81428 z m 63.451976,7.18573 0,-10.625 5.05681,0 c 6.70889,0 10.4492,3.82747 13.33433,13.64509 l 2.23386,7.60145 5.9375,10e-4 c 3.26562,9.6e-4 5.9375,-0.31035 5.9375,-0.69178 0,-2.14611 -8.03358,-19.0864 -10.08961,-21.27583 -2.42139,-2.57849 -2.41795,-2.60415 0.56359,-4.19983 6.71013,-3.59115 7.80155,-14.0225 2.13166,-20.3736 l -3.64437,-4.08175 -16.04313,-0.40562 -16.04314,-0.40563 0,25.71813 0,25.71812 5.3125,0 5.3125,0 0,-10.625 z m 0,-25.625 0,-6.25 7.25,0 c 8.07904,0 10.25,1.36739 10.25,6.45602 0,4.41253 -3.01453,6.04398 -11.16783,6.04398 l -6.33217,0 0,-6.25 z m 231.51646,-38.45156 c -8.24134,-2.90302 -12.76646,-9.44889 -12.76646,-18.46753 0,-4.83565 -0.0276,-4.84117 -8.44614,-1.69165 -2.77285,1.03736 -2.65546,1.38759 6.85779,20.46107 l 9.67892,19.40563 4.57578,-9.06548 4.57579,-9.06548 -4.47568,-1.57656 z m -114.27027,-5.88015 c 35.26665,-12.57795 64.37521,-23.12303 64.68571,-23.43351 0.31049,-0.3105 -6.88621,-15.84659 -15.99266,-34.52466 l -16.55719,-33.96012 -25.06956,0 -25.06955,0 -28.95493,33.38499 c -25.68421,29.61387 -28.75319,33.60788 -27.16914,35.35825 4.49564,4.96761 5.63113,10.91118 5.63113,29.47535 0,16.92373 0.16439,18.23387 2.1875,17.43378 1.20312,-0.47581 31.04204,-11.15615 66.30869,-23.73408 z m 93.06631,-33.19568 8.4375,-2.93494 0,-17.82553 0,-17.82554 -15.3125,-11.09735 c -22.87888,-16.58088 -21.83114,-15.99923 -24.4882,-13.59462 -1.23015,1.11328 -3.96658,2.62719 -6.08095,3.36427 l -3.84433,1.34014 15.17549,31.17451 c 8.34653,17.14597 15.73799,30.98539 16.42549,30.75425 0.6875,-0.23114 5.04688,-1.74098 9.6875,-3.35519 z"
     id="path3400"
     inkscape:connector-curvature="0" />
</svg>
