999
Inkscape export via OpenSCAD DXF Export
  0
SECTION
  2
HEADER
  9
$ACADVER
  1
AC1014
  9
$HANDSEED
  5
FFFF
  9
$MEASUREMENT
 70
     1
  0
ENDSEC
  0
SECTION
  2
TABLES
  0
TABLE
  2
VPORT
  5
8
330
0
100
AcDbSymbolTable
 70
     4
  0
VPORT
  5
2E
330
8
100
AcDbSymbolTableRecord
100
AcDbViewportTableRecord
  2
*ACTIVE
 70
     0
 10
0.0
 20
0.0
 11
1.0
 21
1.0
 12
210.0
 22
148.5
 13
0.0
 23
0.0
 14
10.0
 24
10.0
 15
10.0
 25
10.0
 16
0.0
 26
0.0
 36
1.0
 17
0.0
 27
0.0
 37
0.0
 40
341.0
 41
1.24
 42
50.0
 43
0.0
 44
0.0
 50
0.0
 51
0.0
 71
     0
 72
   100
 73
     1
 74
     3
 75
     0
 76
     0
 77
     0
 78
     0
  0
ENDTAB
  0
TABLE
  2
LTYPE
  5
5
330
0
100
AcDbSymbolTable
 70
     1
  0
LTYPE
  5
14
330
5
100
AcDbSymbolTableRecord
100
AcDbLinetypeTableRecord
  2
BYBLOCK
 70
     0
  3

 72
    65
 73
     0
 40
0.0
  0
LTYPE
  5
15
330
5
100
AcDbSymbolTableRecord
100
AcDbLinetypeTableRecord
  2
BYLAYER
 70
     0
  3

 72
    65
 73
     0
 40
0.0
  0
LTYPE
  5
16
330
5
100
AcDbSymbolTableRecord
100
AcDbLinetypeTableRecord
  2
CONTINUOUS
 70
     0
  3
Solid line
 72
    65
 73
     0
 40
0.0
  0
ENDTAB
  0
TABLE
0
TABLE
2
LAYER
5
2
330
0
100
AcDbSymbolTable
70
1
0
LAYER
5
10
330
2
100
AcDbSymbolTableRecord
100
AcDbLayerTableRecord
2
Layer_1
70
0
62
7
6
CONTINUOUS
0
ENDTAB
0
ENDSEC
  0
ENDTAB
  0
TABLE
  2
STYLE
  5
3
330
0
100
AcDbSymbolTable
 70
     1
  0
STYLE
  5
11
330
3
100
AcDbSymbolTableRecord
100
AcDbTextStyleTableRecord
  2
STANDARD
 70
     0
 40
0.0
 41
1.0
 50
0.0
 71
     0
 42
2.5
  3
txt
  4

  0
ENDTAB
  0
TABLE
  2
VIEW
  5
6
330
0
100
AcDbSymbolTable
 70
     0
  0
ENDTAB
  0
TABLE
  2
UCS
  5
7
330
0
100
AcDbSymbolTable
 70
     0
  0
ENDTAB
  0
TABLE
  2
APPID
  5
9
330
0
100
AcDbSymbolTable
 70
     2
  0
APPID
  5
12
330
9
100
AcDbSymbolTableRecord
100
AcDbRegAppTableRecord
  2
ACAD
 70
     0
  0
ENDTAB
  0
TABLE
  2
DIMSTYLE
  5
A
330
0
100
AcDbSymbolTable
 70
     1
  0
DIMSTYLE
105
27
330
A
100
AcDbSymbolTableRecord
100
AcDbDimStyleTableRecord
  2
ISO-25
 70
     0
  3

  4

  5

  6

  7

 40
1.0
 41
2.5
 42
0.625
 43
3.75
 44
1.25
 45
0.0
 46
0.0
 47
0.0
 48
0.0
140
2.5
141
2.5
142
0.0
143
0.03937007874016
144
1.0
145
0.0
146
1.0
147
0.625
 71
     0
 72
     0
 73
     0
 74
     0
 75
     0
 76
     0
 77
     1
 78
     8
170
     0
171
     3
172
     1
173
     0
174
     0
175
     0
176
     0
177
     0
178
     0
270
     2
271
     2
272
     2
273
     2
274
     3
340
11
275
     0
280
     0
281
     0
282
     0
283
     0
284
     8
285
     0
286
     0
287
     3
288
     0
  0
ENDTAB
  0
TABLE
  2
BLOCK_RECORD
  5
1
330
0
100
AcDbSymbolTable
 70
     1
  0
BLOCK_RECORD
  5
1F
330
1
100
AcDbSymbolTableRecord
100
AcDbBlockTableRecord
  2
*MODEL_SPACE
  0
BLOCK_RECORD
  5
1B
330
1
100
AcDbSymbolTableRecord
100
AcDbBlockTableRecord
  2
*PAPER_SPACE
  0
ENDTAB
  0
ENDSEC
  0
SECTION
  2
BLOCKS
  0
BLOCK
  5
20
330
1F
100
AcDbEntity
  8
0
100
AcDbBlockBegin
  2
*MODEL_SPACE
 70
     0
 10
0.0
 20
0.0
 30
0.0
  3
*MODEL_SPACE
  1

  0
ENDBLK
  5
21
330
1F
100
AcDbEntity
  8
0
100
AcDbBlockEnd
  0
BLOCK
  5
1C
330
1B
100
AcDbEntity
 67
     1
  8
0
100
AcDbBlockBegin
  2
*PAPER_SPACE
  1

  0
ENDBLK
  5
1D
330
1B
100
AcDbEntity
 67
     1
  8
0
100
AcDbBlockEnd
  0
ENDSEC
  0
SECTION
  2
ENTITIES
0
DIMENSION
5
83
100
AcDbEntity
62
256
370
-1
6
ByLayer
1
total_width
3
Standard
70
0
71
5
72
1
41
1.0
100
AcDbAlignedDimension
13
0.393808
23
0.000000
33
0.0
14
131.448793
24
0.000000
34
0.0
50
0.000000
100
AcDbRotatedDimension
0
DIMENSION
5
83
100
AcDbEntity
62
256
370
-1
6
ByLayer
1
total_minx
3
Standard
70
0
71
5
72
1
41
1.0
100
AcDbAlignedDimension
13
0.393808
23
0.000000
33
0.0
14
0.000000
24
0.000000
34
0.0
50
0.000000
100
AcDbRotatedDimension
0
DIMENSION
5
83
100
AcDbEntity
62
256
370
-1
6
ByLayer
1
total_maxx
3
Standard
70
0
71
5
72
1
41
1.0
100
AcDbAlignedDimension
13
0.000000
23
0.000000
33
0.0
14
131.448793
24
0.000000
34
0.0
50
0.000000
100
AcDbRotatedDimension
0
DIMENSION
5
83
100
AcDbEntity
62
256
370
-1
6
ByLayer
1
total_height
3
Standard
70
0
71
5
72
1
41
1.0
100
AcDbAlignedDimension
13
0.000000
23
-0.434856
33
0.0
14
0.000000
24
140.676254
34
0.0
50
90.000000
100
AcDbRotatedDimension
0
DIMENSION
5
83
100
AcDbEntity
62
256
370
-1
6
ByLayer
1
total_miny
3
Standard
70
0
71
5
72
1
41
1.0
100
AcDbAlignedDimension
13
-0.434856
23
0.000000
33
0.0
14
0.000000
24
0.000000
34
0.0
50
0.000000
100
AcDbRotatedDimension
0
DIMENSION
5
83
100
AcDbEntity
62
256
370
-1
6
ByLayer
1
total_maxy
3
Standard
70
0
71
5
72
1
41
1.0
100
AcDbAlignedDimension
13
0.000000
23
0.000000
33
0.0
14
140.676254
24
0.000000
34
0.0
50
0.000000
100
AcDbRotatedDimension
0
DIMENSION
8
Layer_1
5
83
100
AcDbEntity
62
256
370
-1
6
ByLayer
1
Layer_1_width
3
Standard
70
0
71
5
72
1
41
1.0
100
AcDbAlignedDimension
13
0.393808
23
0.000000
33
0.0
14
131.448793
24
0.000000
34
0.0
50
0.000000
100
AcDbRotatedDimension
0
DIMENSION
8
Layer_1
5
83
100
AcDbEntity
62
256
370
-1
6
ByLayer
1
Layer_1_minx
3
Standard
70
0
71
5
72
1
41
1.0
100
AcDbAlignedDimension
13
0.393808
23
0.000000
33
0.0
14
0.000000
24
0.000000
34
0.0
50
0.000000
100
AcDbRotatedDimension
0
DIMENSION
8
Layer_1
5
83
100
AcDbEntity
62
256
370
-1
6
ByLayer
1
Layer_1_maxx
3
Standard
70
0
71
5
72
1
41
1.0
100
AcDbAlignedDimension
13
0.000000
23
0.000000
33
0.0
14
131.448793
24
0.000000
34
0.0
50
0.000000
100
AcDbRotatedDimension
0
DIMENSION
8
Layer_1
5
83
100
AcDbEntity
62
256
370
-1
6
ByLayer
1
Layer_1_height
3
Standard
70
0
71
5
72
1
41
1.0
100
AcDbAlignedDimension
13
0.000000
23
-0.434856
33
0.0
14
0.000000
24
140.676254
34
0.0
50
90.000000
100
AcDbRotatedDimension
0
DIMENSION
8
Layer_1
5
83
100
AcDbEntity
62
256
370
-1
6
ByLayer
1
Layer_1_miny
3
Standard
70
0
71
5
72
1
41
1.0
100
AcDbAlignedDimension
13
-0.434856
23
0.000000
33
0.0
14
0.000000
24
0.000000
34
0.0
50
0.000000
100
AcDbRotatedDimension
0
DIMENSION
8
Layer_1
5
83
100
AcDbEntity
62
256
370
-1
6
ByLayer
1
Layer_1_maxy
3
Standard
70
0
71
5
72
1
41
1.0
100
AcDbAlignedDimension
13
0.000000
23
0.000000
33
0.0
14
140.676254
24
0.000000
34
0.0
50
0.000000
100
AcDbRotatedDimension
62
0
0
LWPOLYLINE
100
AcDbPolyline
8
Layer_1
90
108
70
0
10
65.165927
20
0.469765
30
0.0
10
64.300571
20
1.490598
30
0.0
10
63.729718
20
2.674626
30
0.0
10
63.473109
20
6.135295
30
0.0
10
63.366619
20
12.698846
30
0.0
10
63.364643
20
21.422823
30
0.0
10
53.471008
20
31.817316
30
0.0
10
43.577375
20
42.211811
30
0.0
10
24.807811
20
42.319725
30
0.0
10
6.038253
20
42.427644
30
0.0
10
4.028038
20
43.414798
30
0.0
10
2.314252
20
44.480806
30
0.0
10
1.205815
20
45.707853
30
0.0
10
0.393808
20
47.013755
30
0.0
10
0.393808
20
67.474866
30
0.0
10
0.393808
20
87.935977
30
0.0
10
1.218261
20
89.262015
30
0.0
10
2.283745
20
90.482589
30
0.0
10
3.687706
20
91.555070
30
0.0
10
5.332697
20
92.522088
30
0.0
10
25.861142
20
92.698477
30
0.0
10
46.389586
20
92.874866
30
0.0
10
47.733365
20
94.448404
30
0.0
10
56.220893
20
104.318528
30
0.0
10
63.364643
20
112.615119
30
0.0
10
63.366619
20
124.440825
30
0.0
10
63.468685
20
133.332724
30
0.0
10
63.729715
20
137.566773
30
0.0
10
64.300570
20
138.750801
30
0.0
10
65.165927
20
139.771634
30
0.0
10
66.241007
20
140.676254
30
0.0
10
76.814796
20
140.676254
30
0.0
10
83.657958
20
140.632412
30
0.0
10
87.395366
20
140.375105
30
0.0
10
88.453215
20
140.107443
30
0.0
10
89.159189
20
139.715665
30
0.0
10
89.654809
20
139.176185
30
0.0
10
90.081597
20
138.465422
30
0.0
10
90.412852
20
137.531912
30
0.0
10
90.626637
20
135.802906
30
0.0
10
90.881319
20
127.495892
30
0.0
10
91.057707
20
117.666919
30
0.0
10
96.508954
20
114.137169
30
0.0
10
100.997881
20
111.378207
30
0.0
10
102.003570
20
110.957182
30
0.0
10
102.506176
20
111.006644
30
0.0
10
104.070893
20
112.088769
30
0.0
10
104.843931
20
112.410076
30
0.0
10
105.858034
20
112.617761
30
0.0
10
109.351265
20
112.790907
30
0.0
10
116.034256
20
112.805492
30
0.0
10
122.953435
20
112.770641
30
0.0
10
126.717373
20
112.535361
30
0.0
10
127.808952
20
112.282275
30
0.0
10
128.583110
20
111.906739
30
0.0
10
129.196976
20
111.384639
30
0.0
10
129.807682
20
110.691859
30
0.0
10
130.557693
20
109.542337
30
0.0
10
131.082460
20
108.297938
30
0.0
10
131.344282
20
104.533994
30
0.0
10
131.448793
20
97.008673
30
0.0
10
131.401546
20
90.490863
30
0.0
10
131.141072
20
86.828454
30
0.0
10
130.876607
20
85.737824
30
0.0
10
130.493713
20
84.964806
30
0.0
10
129.970685
20
84.377319
30
0.0
10
129.285814
20
83.843283
30
0.0
10
128.513244
20
83.381879
30
0.0
10
127.549742
20
83.112230
30
0.0
10
123.425069
20
82.881560
30
0.0
10
118.750763
20
82.766033
30
0.0
10
118.750763
20
71.328088
30
0.0
10
118.750763
20
59.890144
30
0.0
10
123.461094
20
59.890144
30
0.0
10
127.622257
20
59.764541
30
0.0
10
128.588158
20
59.522620
30
0.0
10
129.364983
20
59.085805
30
0.0
10
130.040084
20
58.601195
30
0.0
10
130.550239
20
58.084496
30
0.0
10
130.918630
20
57.394181
30
0.0
10
131.168441
20
56.388729
30
0.0
10
131.405060
20
52.866315
30
0.0
10
131.445564
20
46.385062
30
0.0
10
131.397662
20
39.465945
30
0.0
10
131.093611
20
35.701612
30
0.0
10
130.774637
20
34.643698
30
0.0
10
130.306554
20
33.943931
30
0.0
10
129.661003
20
33.458793
30
0.0
10
128.809629
20
33.044768
30
0.0
10
127.631450
20
32.651449
30
0.0
10
125.646896
20
32.446226
30
0.0
10
114.875996
20
32.396009
30
0.0
10
102.548995
20
32.457938
30
0.0
10
96.803348
20
27.721156
30
0.0
10
91.057707
20
22.984370
30
0.0
10
90.881319
20
12.950452
30
0.0
10
90.626956
20
4.468071
30
0.0
10
90.413305
20
2.714782
30
0.0
10
90.081597
20
1.775976
30
0.0
10
89.654809
20
1.065213
30
0.0
10
89.159189
20
0.525734
30
0.0
10
88.453215
20
0.133955
30
0.0
10
87.395366
20
-0.133707
30
0.0
10
83.657958
20
-0.391014
30
0.0
10
76.814796
20
-0.434856
30
0.0
10
66.241007
20
-0.434856
30
0.0
10
65.165927
20
0.469765
30
0.0
10
65.165927
20
0.469765
30
0.0
62
0
0
LWPOLYLINE
100
AcDbPolyline
8
Layer_1
90
22
70
0
10
65.863473
20
29.559679
30
0.0
10
68.681084
20
29.806161
30
0.0
10
73.769268
20
29.915203
30
0.0
10
80.474374
20
29.926379
30
0.0
10
84.982217
20
39.312692
30
0.0
10
89.391939
20
48.786663
30
0.0
10
71.612690
20
52.453550
30
0.0
10
53.575069
20
56.014247
30
0.0
10
53.367340
20
55.785191
30
0.0
10
53.231181
20
55.037268
30
0.0
10
53.134096
20
51.588546
30
0.0
10
53.047345
20
48.449089
30
0.0
10
52.705532
20
46.298467
30
0.0
10
51.986318
20
44.704977
30
0.0
10
50.767367
20
43.236913
30
0.0
10
49.493418
20
41.929510
30
0.0
10
56.305537
20
34.846638
30
0.0
10
63.117654
20
27.763764
30
0.0
10
63.890217
20
28.489549
30
0.0
10
64.788545
20
29.103293
30
0.0
10
65.863473
20
29.559690
30
0.0
10
65.863473
20
29.559679
30
0.0
62
0
0
LWPOLYLINE
100
AcDbPolyline
8
Layer_1
90
15
70
0
10
95.812212
20
32.814449
30
0.0
10
101.090132
20
37.135977
30
0.0
10
101.100997
20
41.781050
30
0.0
10
101.111863
20
46.426123
30
0.0
10
99.259779
20
46.825171
30
0.0
10
95.985474
20
47.420956
30
0.0
10
94.563246
20
47.617693
30
0.0
10
90.309779
20
38.849060
30
0.0
10
86.056312
20
30.080421
30
0.0
10
87.632517
20
29.664355
30
0.0
10
88.856652
20
29.259564
30
0.0
10
89.586401
20
28.870605
30
0.0
10
90.249186
20
28.492921
30
0.0
10
95.812204
20
32.814449
30
0.0
10
95.812212
20
32.814449
30
0.0
62
0
0
LWPOLYLINE
100
AcDbPolyline
8
Layer_1
90
15
70
0
10
102.018428
20
58.723047
30
0.0
10
102.956940
20
59.642152
30
0.0
10
104.199134
20
60.460712
30
0.0
10
105.657588
20
61.207670
30
0.0
10
104.585079
20
63.459323
30
0.0
10
103.512569
20
65.710977
30
0.0
10
100.232822
20
59.184588
30
0.0
10
97.065386
20
52.538018
30
0.0
10
99.056591
20
51.998908
30
0.0
10
100.935485
20
51.579978
30
0.0
10
101.115831
20
54.656160
30
0.0
10
101.412426
20
57.284970
30
0.0
10
101.664741
20
58.098737
30
0.0
10
102.018428
20
58.723050
30
0.0
10
102.018428
20
58.723047
30
0.0
62
0
0
LWPOLYLINE
100
AcDbPolyline
8
Layer_1
90
18
70
0
10
96.108105
20
62.271394
30
0.0
10
99.150205
20
68.568362
30
0.0
10
100.412115
20
71.446974
30
0.0
10
96.926391
20
78.848797
30
0.0
10
93.169551
20
86.284398
30
0.0
10
74.755446
20
79.881070
30
0.0
10
53.751288
20
72.398721
30
0.0
10
53.422505
20
72.105498
30
0.0
10
53.236162
20
71.303038
30
0.0
10
53.134096
20
66.731566
30
0.0
10
53.211817
20
62.891083
30
0.0
10
53.398680
20
61.283122
30
0.0
10
72.184096
20
57.441981
30
0.0
10
91.251617
20
53.579559
30
0.0
10
91.751871
20
54.080573
30
0.0
10
92.707948
20
55.660258
30
0.0
10
96.108105
20
62.271394
30
0.0
10
96.108105
20
62.271394
30
0.0
62
0
0
LWPOLYLINE
100
AcDbPolyline
8
Layer_1
90
16
70
0
10
113.728596
20
71.466335
30
0.0
10
113.821710
20
82.866137
30
0.0
10
112.714724
20
82.755224
30
0.0
10
112.036991
20
82.571213
30
0.0
10
111.391350
20
81.856537
30
0.0
10
110.467100
20
80.127567
30
0.0
10
108.953540
20
76.900676
30
0.0
10
106.299341
20
71.157036
30
0.0
10
108.886027
20
65.506098
30
0.0
10
110.392649
20
62.255364
30
0.0
10
111.281123
20
60.587842
30
0.0
10
111.889066
20
59.993135
30
0.0
10
112.554097
20
59.960843
30
0.0
10
113.635485
20
60.066532
30
0.0
10
113.728596
20
71.466335
30
0.0
10
113.728596
20
71.466335
30
0.0
62
0
0
LWPOLYLINE
100
AcDbPolyline
8
Layer_1
90
29
70
0
10
16.797984
20
62.985859
30
0.0
10
16.797984
20
64.317688
30
0.0
10
13.093817
20
64.180570
30
0.0
10
9.389650
20
64.043453
30
0.0
10
9.389650
20
66.023744
30
0.0
10
9.389650
20
68.004032
30
0.0
10
12.564650
20
68.004032
30
0.0
10
15.739650
20
68.004032
30
0.0
10
15.739650
20
69.238755
30
0.0
10
15.739650
20
70.473477
30
0.0
10
12.564650
20
70.473477
30
0.0
10
9.389650
20
70.473477
30
0.0
10
9.389650
20
72.081113
30
0.0
10
9.389650
20
73.688753
30
0.0
10
13.005622
20
73.619764
30
0.0
10
16.621595
20
73.550780
30
0.0
10
16.732372
20
75.057790
30
0.0
10
16.707963
20
76.313177
30
0.0
10
16.477047
20
76.432140
30
0.0
10
16.026817
20
76.346180
30
0.0
10
14.154926
20
76.190360
30
0.0
10
10.800761
20
76.122736
30
0.0
10
6.391039
20
76.117910
30
0.0
10
6.391039
20
68.885966
30
0.0
10
6.391039
20
61.654021
30
0.0
10
11.594511
20
61.654021
30
0.0
10
16.797984
20
61.654021
30
0.0
10
16.797984
20
62.985848
30
0.0
10
16.797984
20
62.985859
30
0.0
62
0
0
LWPOLYLINE
100
AcDbPolyline
8
Layer_1
90
37
70
0
10
21.468205
20
66.680616
30
0.0
10
21.375927
20
71.708199
30
0.0
10
22.833427
20
68.004032
30
0.0
10
24.674281
20
62.976949
30
0.0
10
24.917373
20
62.257682
30
0.0
10
25.197006
20
61.859880
30
0.0
10
25.630875
20
61.689884
30
0.0
10
26.336676
20
61.654032
30
0.0
10
27.025533
20
61.690655
30
0.0
10
27.463604
20
61.847236
30
0.0
10
27.752061
20
62.193848
30
0.0
10
27.992076
20
62.800560
30
0.0
10
29.804205
20
67.651255
30
0.0
10
31.239974
20
71.355421
30
0.0
10
31.250924
20
66.504727
30
0.0
10
31.261874
20
61.654032
30
0.0
10
32.672985
20
61.654032
30
0.0
10
34.084096
20
61.654032
30
0.0
10
34.084096
20
68.885977
30
0.0
10
34.084096
20
76.117921
30
0.0
10
32.197065
20
76.117921
30
0.0
10
30.310034
20
76.117921
30
0.0
10
28.417334
20
71.007653
30
0.0
10
27.013027
20
67.474776
30
0.0
10
26.294549
20
66.156959
30
0.0
10
24.405215
20
70.809620
30
0.0
10
22.795206
20
75.584561
30
0.0
10
22.699740
20
75.842606
30
0.0
10
22.371592
20
76.006537
30
0.0
10
20.766734
20
76.117921
30
0.0
10
18.738261
20
76.117921
30
0.0
10
18.738261
20
68.885977
30
0.0
10
18.738261
20
61.654032
30
0.0
10
20.149372
20
61.653750
30
0.0
10
21.560484
20
61.653468
30
0.0
10
21.468205
20
66.681054
30
0.0
10
21.468205
20
66.680616
30
0.0
62
0
0
LWPOLYLINE
100
AcDbPolyline
8
Layer_1
90
36
70
0
10
39.375763
20
64.652644
30
0.0
10
39.375763
20
67.651255
30
0.0
10
40.802907
20
67.651255
30
0.0
10
42.075188
20
67.439181
30
0.0
10
43.089211
20
66.764812
30
0.0
10
43.900893
20
65.570928
30
0.0
10
44.566151
20
63.800307
30
0.0
10
45.196596
20
61.655009
30
0.0
10
46.872291
20
61.654727
30
0.0
10
48.055749
20
61.711875
30
0.0
10
48.547985
20
61.849962
30
0.0
10
48.184660
20
62.956796
30
0.0
10
47.341826
20
64.847634
30
0.0
10
46.390193
20
66.740764
30
0.0
10
45.700473
20
67.854474
30
0.0
10
45.318699
20
68.283348
30
0.0
10
45.208192
20
68.551131
30
0.0
10
45.383589
20
68.766907
30
0.0
10
45.859531
20
69.039760
30
0.0
10
46.494725
20
69.504294
30
0.0
10
46.977480
20
70.113691
30
0.0
10
47.304014
20
70.831834
30
0.0
10
47.470550
20
71.622606
30
0.0
10
47.473309
20
72.449890
30
0.0
10
47.308512
20
73.277569
30
0.0
10
46.972379
20
74.069526
30
0.0
10
46.461132
20
74.789642
30
0.0
10
45.432610
20
75.941603
30
0.0
10
40.904882
20
76.056078
30
0.0
10
36.377152
20
76.170556
30
0.0
10
36.377152
20
68.912328
30
0.0
10
36.377152
20
61.654103
30
0.0
10
37.876457
20
61.654103
30
0.0
10
39.375763
20
61.654103
30
0.0
10
39.375763
20
64.652714
30
0.0
10
39.375763
20
64.652644
30
0.0
62
0
0
LWPOLYLINE
100
AcDbPolyline
8
Layer_1
90
14
70
0
10
39.375763
20
71.884588
30
0.0
10
39.375763
20
73.648477
30
0.0
10
41.421874
20
73.648477
30
0.0
10
42.835781
20
73.565739
30
0.0
10
43.723295
20
73.276007
30
0.0
10
44.183292
20
72.717002
30
0.0
10
44.314652
20
71.826445
30
0.0
10
44.145766
20
71.034555
30
0.0
10
43.601638
20
70.506579
30
0.0
10
42.626065
20
70.212100
30
0.0
10
41.162842
20
70.120699
30
0.0
10
39.375763
20
70.120699
30
0.0
10
39.375763
20
71.884588
30
0.0
10
39.375763
20
71.884588
30
0.0
62
0
0
LWPOLYLINE
100
AcDbPolyline
8
Layer_1
90
17
70
0
10
104.714853
20
82.736473
30
0.0
10
103.170653
20
83.538553
30
0.0
10
102.041155
20
84.695210
30
0.0
10
101.347761
20
86.175485
30
0.0
10
101.111874
20
87.948420
30
0.0
10
101.073534
20
88.723758
30
0.0
10
100.810992
20
89.032228
30
0.0
10
100.102969
20
88.918149
30
0.0
10
98.728186
20
88.425841
30
0.0
10
98.322896
20
88.157033
30
0.0
10
98.395617
20
87.447380
30
0.0
10
100.663606
20
82.651273
30
0.0
10
103.395213
20
77.174573
30
0.0
10
104.686600
20
79.733053
30
0.0
10
105.977989
20
82.291532
30
0.0
10
104.714853
20
82.736473
30
0.0
10
104.714853
20
82.736473
30
0.0
62
0
0
LWPOLYLINE
100
AcDbPolyline
8
Layer_1
90
21
70
0
10
72.465243
20
84.395982
30
0.0
10
90.720988
20
91.009439
30
0.0
10
89.460872
20
93.937351
30
0.0
10
86.207504
20
100.753065
30
0.0
10
81.534697
20
110.337366
30
0.0
10
74.459510
20
110.337366
30
0.0
10
67.384326
20
110.337366
30
0.0
10
59.212601
20
100.915380
30
0.0
10
52.492843
20
92.977051
30
0.0
10
51.535007
20
91.528799
30
0.0
10
51.448678
20
91.164310
30
0.0
10
51.544866
20
90.936496
30
0.0
10
52.328446
20
89.782024
30
0.0
10
52.815270
20
88.216166
30
0.0
10
53.064200
20
85.930823
30
0.0
10
53.134096
20
82.617897
30
0.0
10
53.228664
20
78.282026
30
0.0
10
53.414118
20
77.699557
30
0.0
10
53.751457
20
77.697697
30
0.0
10
72.465243
20
84.395982
30
0.0
10
72.465243
20
84.395982
30
0.0
62
0
0
LWPOLYLINE
100
AcDbPolyline
8
Layer_1
90
16
70
0
10
98.730624
20
93.764540
30
0.0
10
101.111874
20
94.592846
30
0.0
10
101.111874
20
99.623606
30
0.0
10
101.111874
20
104.654370
30
0.0
10
96.790346
20
107.786289
30
0.0
10
91.194647
20
111.713938
30
0.0
10
90.367444
20
111.967860
30
0.0
10
89.879232
20
111.622992
30
0.0
10
89.114722
20
111.108442
30
0.0
10
88.163053
20
110.673521
30
0.0
10
87.078098
20
110.295303
30
0.0
10
91.360958
20
101.497164
30
0.0
10
94.489358
20
95.318320
30
0.0
10
95.996596
20
92.817631
30
0.0
10
98.730624
20
93.764540
30
0.0
10
98.730624
20
93.764540
30
0.0
  0
ENDSEC
  0
SECTION
  2
OBJECTS
  0
DICTIONARY
  5
C
330
0
100
AcDbDictionary
  3
ACAD_GROUP
350
D
  3
ACAD_MLINESTYLE
350
17
  0
DICTIONARY
  5
D
330
C
100
AcDbDictionary
  0
DICTIONARY
  5
1A
330
C
100
AcDbDictionary
  0
DICTIONARY
  5
17
330
C
100
AcDbDictionary
  3
STANDARD
350
18
  0
DICTIONARY
  5
19
330
C
100
AcDbDictionary
  0
ENDSEC
  0
EOF
