solid OpenSCAD_Model
  facet normal 0 0 -1
    outer loop
      vertex 53.5752 56.0146 0
      vertex 60 59.9335 0
      vertex 60 54.746 0
    endloop
  endfacet
  facet normal 0 0 -1
    outer loop
      vertex 53.5752 56.0146 0
      vertex 53.3984 61.2832 0
      vertex 60 59.9335 0
    endloop
  endfacet
  facet normal 0 0 -1
    outer loop
      vertex 48.5479 61.8496 0
      vertex 53.5752 56.0146 0
      vertex 53.3672 55.7852 0
    endloop
  endfacet
  facet normal 0 0 -1
    outer loop
      vertex 48.0557 61.7119 0
      vertex 53.3672 55.7852 0
      vertex 53.2314 55.0371 0
    endloop
  endfacet
  facet normal 0 0 -1
    outer loop
      vertex 53.5752 56.0146 0
      vertex 48.5479 61.8496 0
      vertex 53.3984 61.2832 0
    endloop
  endfacet
  facet normal 0 0 -1
    outer loop
      vertex 45.1963 61.6553 0
      vertex 53.2314 55.0371 0
      vertex 53.1338 51.5889 0
    endloop
  endfacet
  facet normal 0 0 -1
    outer loop
      vertex 53.3984 61.2832 0
      vertex 48.5479 61.8496 0
      vertex 53.2119 62.8906 0
    endloop
  endfacet
  facet normal 0 0 -1
    outer loop
      vertex 48.1846 62.957 0
      vertex 53.2119 62.8906 0
      vertex 48.5479 61.8496 0
    endloop
  endfacet
  facet normal 0 0 -1
    outer loop
      vertex 53.2119 62.8906 0
      vertex 48.1846 62.957 0
      vertex 53.1338 66.7314 0
    endloop
  endfacet
  facet normal 0 0 -1
    outer loop
      vertex 43.5771 42.2119 0
      vertex 53.1338 51.5889 0
      vertex 53.0469 48.4492 0
    endloop
  endfacet
  facet normal 0 0 -1
    outer loop
      vertex 47.3418 64.8477 0
      vertex 53.1338 66.7314 0
      vertex 48.1846 62.957 0
    endloop
  endfacet
  facet normal 0 0 -1
    outer loop
      vertex 43.5771 42.2119 0
      vertex 53.0469 48.4492 0
      vertex 52.7051 46.2988 0
    endloop
  endfacet
  facet normal 0 0 -1
    outer loop
      vertex 47.3086 73.2773 0
      vertex 53.1338 66.7314 0
      vertex 47.4736 72.4502 0
    endloop
  endfacet
  facet normal 0 0 -1
    outer loop
      vertex 43.5771 42.2119 0
      vertex 52.7051 46.2988 0
      vertex 51.9863 44.7051 0
    endloop
  endfacet
  facet normal 0 0 -1
    outer loop
      vertex 53.1338 66.7314 0
      vertex 47.3086 73.2773 0
      vertex 53.1338 82.6182 0
    endloop
  endfacet
  facet normal 0 0 -1
    outer loop
      vertex 46.9727 74.0693 0
      vertex 53.1338 82.6182 0
      vertex 47.3086 73.2773 0
    endloop
  endfacet
  facet normal 0 0 -1
    outer loop
      vertex 43.5771 42.2119 0
      vertex 51.9863 44.7051 0
      vertex 50.7676 43.2373 0
    endloop
  endfacet
  facet normal 0 0 -1
    outer loop
      vertex 53.751 77.6973 0
      vertex 60 74.6245 0
      vertex 53.751 72.3984 0
    endloop
  endfacet
  facet normal 0 0 -1
    outer loop
      vertex 60 74.6245 0
      vertex 53.751 77.6973 0
      vertex 60 79.934 0
    endloop
  endfacet
  facet normal 0 0 -1
    outer loop
      vertex 53.4141 77.6992 0
      vertex 53.751 72.3984 0
      vertex 53.4229 72.1055 0
    endloop
  endfacet
  facet normal 0 0 -1
    outer loop
      vertex 53.751 72.3984 0
      vertex 53.4141 77.6992 0
      vertex 53.751 77.6973 0
    endloop
  endfacet
  facet normal 0 0 -1
    outer loop
      vertex 53.2285 78.2822 0
      vertex 53.4229 72.1055 0
      vertex 53.2363 71.3027 0
    endloop
  endfacet
  facet normal 0 0 -1
    outer loop
      vertex 53.4229 72.1055 0
      vertex 53.2285 78.2822 0
      vertex 53.4141 77.6992 0
    endloop
  endfacet
  facet normal 0 0 -1
    outer loop
      vertex 53.1338 66.7314 0
      vertex 53.2285 78.2822 0
      vertex 53.2363 71.3027 0
    endloop
  endfacet
  facet normal -0 0 -1
    outer loop
      vertex 53.2285 78.2822 0
      vertex 53.1338 66.7314 0
      vertex 53.1338 82.6182 0
    endloop
  endfacet
  facet normal 0 0 -1
    outer loop
      vertex 56.2207 104.318 0
      vertex 60 101.823 0
      vertex 59.2129 100.915 0
    endloop
  endfacet
  facet normal 0 0 -1
    outer loop
      vertex 60 101.823 0
      vertex 56.2207 104.318 0
      vertex 60 108.708 0
    endloop
  endfacet
  facet normal 0 0 -1
    outer loop
      vertex 52.4932 92.9775 0
      vertex 56.2207 104.318 0
      vertex 59.2129 100.915 0
    endloop
  endfacet
  facet normal 0 0 -1
    outer loop
      vertex 47.7334 94.4482 0
      vertex 52.4932 92.9775 0
      vertex 51.5352 91.5283 0
    endloop
  endfacet
  facet normal 0 0 -1
    outer loop
      vertex 43.5771 42.2119 0
      vertex 50.7676 43.2373 0
      vertex 49.4932 41.9297 0
    endloop
  endfacet
  facet normal 0 0 -1
    outer loop
      vertex 45.4326 75.9414 0
      vertex 53.1338 82.6182 0
      vertex 46.4609 74.79 0
    endloop
  endfacet
  facet normal 0 -0 -1
    outer loop
      vertex 47.4736 72.4502 0
      vertex 53.1338 66.7314 0
      vertex 47.4707 71.623 0
    endloop
  endfacet
  facet normal 0 0 -1
    outer loop
      vertex 52.4932 92.9775 0
      vertex 47.7334 94.4482 0
      vertex 56.2207 104.318 0
    endloop
  endfacet
  facet normal 0 0 -1
    outer loop
      vertex 46.3896 92.875 0
      vertex 51.5352 91.5283 0
      vertex 51.4482 91.1641 0
    endloop
  endfacet
  facet normal -0 0 -1
    outer loop
      vertex 53.1338 82.6182 0
      vertex 45.4326 75.9414 0
      vertex 53.0645 85.9307 0
    endloop
  endfacet
  facet normal 0 -0 -1
    outer loop
      vertex 46.3896 92.875 0
      vertex 53.0645 85.9307 0
      vertex 45.4326 75.9414 0
    endloop
  endfacet
  facet normal 0 0 -1
    outer loop
      vertex 46.4609 74.79 0
      vertex 53.1338 82.6182 0
      vertex 46.9727 74.0693 0
    endloop
  endfacet
  facet normal 0 0 -1
    outer loop
      vertex 46.3906 66.7412 0
      vertex 53.1338 66.7314 0
      vertex 47.3418 64.8477 0
    endloop
  endfacet
  facet normal 0 0 -1
    outer loop
      vertex 53.1338 66.7314 0
      vertex 47.3037 70.832 0
      vertex 47.4707 71.623 0
    endloop
  endfacet
  facet normal 0 0 -1
    outer loop
      vertex 53.1338 66.7314 0
      vertex 46.9775 70.1133 0
      vertex 47.3037 70.832 0
    endloop
  endfacet
  facet normal 0 0 -1
    outer loop
      vertex 53.1338 66.7314 0
      vertex 46.3906 66.7412 0
      vertex 46.9775 70.1133 0
    endloop
  endfacet
  facet normal 0 0 -1
    outer loop
      vertex 46.9775 70.1133 0
      vertex 46.3906 66.7412 0
      vertex 46.4951 69.5039 0
    endloop
  endfacet
  facet normal 0 0 -1
    outer loop
      vertex 45.7002 67.8545 0
      vertex 46.4951 69.5039 0
      vertex 46.3906 66.7412 0
    endloop
  endfacet
  facet normal 0 0 -1
    outer loop
      vertex 46.4951 69.5039 0
      vertex 45.7002 67.8545 0
      vertex 45.8594 69.04 0
    endloop
  endfacet
  facet normal 0 0 -1
    outer loop
      vertex 45.3184 68.2832 0
      vertex 45.8594 69.04 0
      vertex 45.7002 67.8545 0
    endloop
  endfacet
  facet normal 0 0 -1
    outer loop
      vertex 45.8594 69.04 0
      vertex 45.3184 68.2832 0
      vertex 45.3838 68.7666 0
    endloop
  endfacet
  facet normal 0 0 -1
    outer loop
      vertex 45.3838 68.7666 0
      vertex 45.3184 68.2832 0
      vertex 45.208 68.5508 0
    endloop
  endfacet
  facet normal 0 0 -1
    outer loop
      vertex 18.7383 76.1182 0
      vertex 16.6221 73.5508 0
      vertex 16.7324 75.0576 0
    endloop
  endfacet
  facet normal 0 0 -1
    outer loop
      vertex 15.7393 70.4736 0
      vertex 18.7383 76.1182 0
      vertex 15.7393 68.0039 0
    endloop
  endfacet
  facet normal 0 0 -1
    outer loop
      vertex 9.38965 64.043 0
      vertex 15.7393 68.0039 0
      vertex 16.7979 64.3174 0
    endloop
  endfacet
  facet normal -0 0 -1
    outer loop
      vertex 15.7393 68.0039 0
      vertex 9.38965 64.043 0
      vertex 9.38965 68.0039 0
    endloop
  endfacet
  facet normal 0 0 -1
    outer loop
      vertex 39.376 70.1211 0
      vertex 39.4 73.6484 0
      vertex 39.4 70.1211 0
    endloop
  endfacet
  facet normal -0 0 -1
    outer loop
      vertex 39.4 73.6484 0
      vertex 39.376 70.1211 0
      vertex 39.376 73.6484 0
    endloop
  endfacet
  facet normal 0 0 -1
    outer loop
      vertex 60 24.9575 0
      vertex 49.4932 41.9297 0
      vertex 60 31.0049 0
    endloop
  endfacet
  facet normal 0 0 -1
    outer loop
      vertex 53.3672 55.7852 0
      vertex 48.0557 61.7119 0
      vertex 48.5479 61.8496 0
    endloop
  endfacet
  facet normal 0 0 -1
    outer loop
      vertex 53.2314 55.0371 0
      vertex 46.8721 61.6543 0
      vertex 48.0557 61.7119 0
    endloop
  endfacet
  facet normal -0 0 -1
    outer loop
      vertex 53.1338 51.5889 0
      vertex 43.5771 42.2119 0
      vertex 45.1963 61.6553 0
    endloop
  endfacet
  facet normal 0 0 -1
    outer loop
      vertex 53.2314 55.0371 0
      vertex 45.1963 61.6553 0
      vertex 46.8721 61.6543 0
    endloop
  endfacet
  facet normal 0 0 -1
    outer loop
      vertex 39.376 61.6543 0
      vertex 45.1963 61.6553 0
      vertex 43.5771 42.2119 0
    endloop
  endfacet
  facet normal 0 0 -1
    outer loop
      vertex 43.5771 42.2119 0
      vertex 49.4932 41.9297 0
      vertex 60 24.9575 0
    endloop
  endfacet
  facet normal -0 0 -1
    outer loop
      vertex 45.1963 61.6553 0
      vertex 39.376 61.6543 0
      vertex 44.5664 63.8008 0
    endloop
  endfacet
  facet normal -0 0 -1
    outer loop
      vertex 44.5664 63.8008 0
      vertex 39.376 61.6543 0
      vertex 43.9014 65.5713 0
    endloop
  endfacet
  facet normal -0 0 -1
    outer loop
      vertex 43.9014 65.5713 0
      vertex 39.376 61.6543 0
      vertex 43.0889 66.7646 0
    endloop
  endfacet
  facet normal 0 -0 -1
    outer loop
      vertex 40.8027 67.6514 0
      vertex 43.0889 66.7646 0
      vertex 39.376 61.6543 0
    endloop
  endfacet
  facet normal 0 0 -1
    outer loop
      vertex 43.0889 66.7646 0
      vertex 40.8027 67.6514 0
      vertex 42.0752 67.4395 0
    endloop
  endfacet
  facet normal 0 0 -1
    outer loop
      vertex 39.4 70.1211 0
      vertex 40 70.1211 0
      vertex 40 67.6514 0
    endloop
  endfacet
  facet normal 0 0 -1
    outer loop
      vertex 40 70.1211 0
      vertex 39.4 70.1211 0
      vertex 40 73.6484 0
    endloop
  endfacet
  facet normal 0 0 -1
    outer loop
      vertex 39.4 70.1211 0
      vertex 40 67.6514 0
      vertex 39.4 67.6514 0
    endloop
  endfacet
  facet normal -0 0 -1
    outer loop
      vertex 40.8027 67.6514 0
      vertex 39.376 61.6543 0
      vertex 40 67.6514 0
    endloop
  endfacet
  facet normal -0 0 -1
    outer loop
      vertex 40 67.6514 0
      vertex 39.376 61.6543 0
      vertex 39.4 67.6514 0
    endloop
  endfacet
  facet normal 0 0 -1
    outer loop
      vertex 43.5771 42.2119 0
      vertex 36.377 61.6543 0
      vertex 39.376 61.6543 0
    endloop
  endfacet
  facet normal 0 0 -1
    outer loop
      vertex 34.084 76.1182 0
      vertex 36.377 61.6543 0
      vertex 34.084 61.6543 0
    endloop
  endfacet
  facet normal 0 0 -1
    outer loop
      vertex 43.5771 42.2119 0
      vertex 34.084 61.6543 0
      vertex 36.377 61.6543 0
    endloop
  endfacet
  facet normal 0 0 -1
    outer loop
      vertex 43.5771 42.2119 0
      vertex 31.2617 61.6543 0
      vertex 34.084 61.6543 0
    endloop
  endfacet
  facet normal 0 0 -1
    outer loop
      vertex 31.2617 61.6543 0
      vertex 29.8047 67.6514 0
      vertex 31.2402 71.3555 0
    endloop
  endfacet
  facet normal 0 0 -1
    outer loop
      vertex 31.2617 61.6543 0
      vertex 27.9922 62.8008 0
      vertex 29.8047 67.6514 0
    endloop
  endfacet
  facet normal 0 0 -1
    outer loop
      vertex 27.0254 61.6904 0
      vertex 31.2617 61.6543 0
      vertex 43.5771 42.2119 0
    endloop
  endfacet
  facet normal 0 0 -1
    outer loop
      vertex 31.2617 61.6543 0
      vertex 27.752 62.1943 0
      vertex 27.9922 62.8008 0
    endloop
  endfacet
  facet normal 0 0 -1
    outer loop
      vertex 31.2617 61.6543 0
      vertex 27.4639 61.8477 0
      vertex 27.752 62.1943 0
    endloop
  endfacet
  facet normal 0 0 -1
    outer loop
      vertex 31.2617 61.6543 0
      vertex 27.0254 61.6904 0
      vertex 27.4639 61.8477 0
    endloop
  endfacet
  facet normal 0 0 -1
    outer loop
      vertex 43.5771 42.2119 0
      vertex 26.3369 61.6543 0
      vertex 27.0254 61.6904 0
    endloop
  endfacet
  facet normal 0 0 -1
    outer loop
      vertex 43.5771 42.2119 0
      vertex 25.6309 61.6895 0
      vertex 26.3369 61.6543 0
    endloop
  endfacet
  facet normal 0 0 -1
    outer loop
      vertex 6.03809 42.4277 0
      vertex 25.6309 61.6895 0
      vertex 43.5771 42.2119 0
    endloop
  endfacet
  facet normal 0 0 -1
    outer loop
      vertex 21.5605 61.6533 0
      vertex 24.6738 62.9766 0
      vertex 24.917 62.2578 0
    endloop
  endfacet
  facet normal -0 0 -1
    outer loop
      vertex 24.6738 62.9766 0
      vertex 21.5605 61.6533 0
      vertex 22.833 68.0039 0
    endloop
  endfacet
  facet normal -0 0 -1
    outer loop
      vertex 25.1973 61.8604 0
      vertex 21.5605 61.6533 0
      vertex 24.917 62.2578 0
    endloop
  endfacet
  facet normal 0 -0 -1
    outer loop
      vertex 21.5605 61.6533 0
      vertex 25.6309 61.6895 0
      vertex 6.03809 42.4277 0
    endloop
  endfacet
  facet normal -0 0 -1
    outer loop
      vertex 25.6309 61.6895 0
      vertex 21.5605 61.6533 0
      vertex 25.1973 61.8604 0
    endloop
  endfacet
  facet normal 0 0 -1
    outer loop
      vertex 16.7979 64.3174 0
      vertex 18.7383 61.6543 0
      vertex 16.7979 61.6543 0
    endloop
  endfacet
  facet normal -0 0 -1
    outer loop
      vertex 21.5605 61.6533 0
      vertex 6.03809 42.4277 0
      vertex 18.7383 61.6543 0
    endloop
  endfacet
  facet normal -0 0 -1
    outer loop
      vertex 18.7383 61.6543 0
      vertex 6.03809 42.4277 0
      vertex 16.7979 61.6543 0
    endloop
  endfacet
  facet normal 0 0 -1
    outer loop
      vertex 4.02832 43.415 0
      vertex 6.39062 61.6543 0
      vertex 6.03809 42.4277 0
    endloop
  endfacet
  facet normal -0 0 -1
    outer loop
      vertex 16.7979 61.6543 0
      vertex 6.03809 42.4277 0
      vertex 6.39062 61.6543 0
    endloop
  endfacet
  facet normal 0 0 -1
    outer loop
      vertex 53.0645 85.9307 0
      vertex 46.3896 92.875 0
      vertex 52.8154 88.2158 0
    endloop
  endfacet
  facet normal -0 -0 -1
    outer loop
      vertex 51.5449 90.9365 0
      vertex 52.8154 88.2158 0
      vertex 46.3896 92.875 0
    endloop
  endfacet
  facet normal 0 0 -1
    outer loop
      vertex 52.8154 88.2158 0
      vertex 51.5449 90.9365 0
      vertex 52.3281 89.7822 0
    endloop
  endfacet
  facet normal 0 0 -1
    outer loop
      vertex 51.5352 91.5283 0
      vertex 46.3896 92.875 0
      vertex 47.7334 94.4482 0
    endloop
  endfacet
  facet normal 0 0 -1
    outer loop
      vertex 51.5449 90.9365 0
      vertex 46.3896 92.875 0
      vertex 51.4482 91.1641 0
    endloop
  endfacet
  facet normal 0 0 -1
    outer loop
      vertex 40 76.0791 0
      vertex 46.3896 92.875 0
      vertex 45.4326 75.9414 0
    endloop
  endfacet
  facet normal 0 0 -1
    outer loop
      vertex 39.4 73.6484 0
      vertex 40 73.6484 0
      vertex 39.4 70.1211 0
    endloop
  endfacet
  facet normal 0 0 -1
    outer loop
      vertex 40 73.6484 0
      vertex 39.4 73.6484 0
      vertex 40 76.0791 0
    endloop
  endfacet
  facet normal 0 0 -1
    outer loop
      vertex 39.4 76.0943 0
      vertex 40 76.0791 0
      vertex 39.4 73.6484 0
    endloop
  endfacet
  facet normal 0 0 -1
    outer loop
      vertex 39.4 76.0943 0
      vertex 46.3896 92.875 0
      vertex 40 76.0791 0
    endloop
  endfacet
  facet normal 0 0 -1
    outer loop
      vertex 36.377 76.1709 0
      vertex 46.3896 92.875 0
      vertex 39.4 76.0943 0
    endloop
  endfacet
  facet normal 0 0 -1
    outer loop
      vertex 36.377 61.6543 0
      vertex 34.084 76.1182 0
      vertex 36.377 76.1709 0
    endloop
  endfacet
  facet normal 0 0 -1
    outer loop
      vertex 34.084 76.1182 0
      vertex 46.3896 92.875 0
      vertex 36.377 76.1709 0
    endloop
  endfacet
  facet normal 0 0 -1
    outer loop
      vertex 30.3096 76.1182 0
      vertex 46.3896 92.875 0
      vertex 34.084 76.1182 0
    endloop
  endfacet
  facet normal 0 0 -1
    outer loop
      vertex 24.4053 70.8096 0
      vertex 28.417 71.0078 0
      vertex 27.0127 67.4746 0
    endloop
  endfacet
  facet normal 0 0 -1
    outer loop
      vertex 24.4053 70.8096 0
      vertex 27.0127 67.4746 0
      vertex 26.2949 66.1572 0
    endloop
  endfacet
  facet normal 0 0 -1
    outer loop
      vertex 22.7949 75.585 0
      vertex 28.417 71.0078 0
      vertex 24.4053 70.8096 0
    endloop
  endfacet
  facet normal 0 0 -1
    outer loop
      vertex 28.417 71.0078 0
      vertex 22.7949 75.585 0
      vertex 30.3096 76.1182 0
    endloop
  endfacet
  facet normal 0 0 -1
    outer loop
      vertex 22.7002 75.8428 0
      vertex 30.3096 76.1182 0
      vertex 22.7949 75.585 0
    endloop
  endfacet
  facet normal 0 0 -1
    outer loop
      vertex 22.3721 76.0068 0
      vertex 30.3096 76.1182 0
      vertex 22.7002 75.8428 0
    endloop
  endfacet
  facet normal -0 0 -1
    outer loop
      vertex 30.3096 76.1182 0
      vertex 22.3721 76.0068 0
      vertex 46.3896 92.875 0
    endloop
  endfacet
  facet normal 0 0 -1
    outer loop
      vertex 5.33301 92.5225 0
      vertex 22.3721 76.0068 0
      vertex 20.7666 76.1182 0
    endloop
  endfacet
  facet normal 0 0 -1
    outer loop
      vertex 5.33301 92.5225 0
      vertex 20.7666 76.1182 0
      vertex 18.7383 76.1182 0
    endloop
  endfacet
  facet normal 0 0 -1
    outer loop
      vertex 18.7383 61.6543 0
      vertex 16.7979 64.3174 0
      vertex 18.7383 76.1182 0
    endloop
  endfacet
  facet normal 0 0 -1
    outer loop
      vertex 15.7393 68.0039 0
      vertex 18.7383 76.1182 0
      vertex 16.7979 64.3174 0
    endloop
  endfacet
  facet normal 0 0 -1
    outer loop
      vertex 16.708 76.3135 0
      vertex 18.7383 76.1182 0
      vertex 16.7324 75.0576 0
    endloop
  endfacet
  facet normal 0 0 -1
    outer loop
      vertex 16.4766 76.4326 0
      vertex 18.7383 76.1182 0
      vertex 16.708 76.3135 0
    endloop
  endfacet
  facet normal 0 0 -1
    outer loop
      vertex 5.33301 92.5225 0
      vertex 18.7383 76.1182 0
      vertex 16.4766 76.4326 0
    endloop
  endfacet
  facet normal 0 0 -1
    outer loop
      vertex 5.33301 92.5225 0
      vertex 16.4766 76.4326 0
      vertex 16.0264 76.3457 0
    endloop
  endfacet
  facet normal 0 0 -1
    outer loop
      vertex 5.33301 92.5225 0
      vertex 16.0264 76.3457 0
      vertex 14.1553 76.1904 0
    endloop
  endfacet
  facet normal 0 0 -1
    outer loop
      vertex 5.33301 92.5225 0
      vertex 14.1553 76.1904 0
      vertex 10.8008 76.123 0
    endloop
  endfacet
  facet normal 0 0 -1
    outer loop
      vertex 3.6875 91.5547 0
      vertex 10.8008 76.123 0
      vertex 6.39062 76.1182 0
    endloop
  endfacet
  facet normal 0 0 -1
    outer loop
      vertex 22.3721 76.0068 0
      vertex 5.33301 92.5225 0
      vertex 46.3896 92.875 0
    endloop
  endfacet
  facet normal 0 0 -1
    outer loop
      vertex 0.393555 87.9355 0
      vertex 6.39062 61.6543 0
      vertex 0.393555 47.0137 0
    endloop
  endfacet
  facet normal 0 0 -1
    outer loop
      vertex 6.39062 61.6543 0
      vertex 4.02832 43.415 0
      vertex 0.393555 47.0137 0
    endloop
  endfacet
  facet normal 0 -0 -1
    outer loop
      vertex 1.21777 89.2617 0
      vertex 6.39062 76.1182 0
      vertex 0.393555 87.9355 0
    endloop
  endfacet
  facet normal 0 0 -1
    outer loop
      vertex 1.20605 45.708 0
      vertex 4.02832 43.415 0
      vertex 2.31445 44.4805 0
    endloop
  endfacet
  facet normal 0 0 -1
    outer loop
      vertex 6.39062 61.6543 0
      vertex 0.393555 87.9355 0
      vertex 6.39062 76.1182 0
    endloop
  endfacet
  facet normal 0 0 -1
    outer loop
      vertex 6.39062 76.1182 0
      vertex 1.21777 89.2617 0
      vertex 3.6875 91.5547 0
    endloop
  endfacet
  facet normal 0 0 -1
    outer loop
      vertex 4.02832 43.415 0
      vertex 1.20605 45.708 0
      vertex 0.393555 47.0137 0
    endloop
  endfacet
  facet normal 0 0 -1
    outer loop
      vertex 10.8008 76.123 0
      vertex 3.6875 91.5547 0
      vertex 5.33301 92.5225 0
    endloop
  endfacet
  facet normal 0 0 -1
    outer loop
      vertex 3.6875 91.5547 0
      vertex 1.21777 89.2617 0
      vertex 2.28418 90.4824 0
    endloop
  endfacet
  facet normal 0 0 -1
    outer loop
      vertex 43.6016 70.5068 0
      vertex 44.3145 71.8262 0
      vertex 44.1455 71.0342 0
    endloop
  endfacet
  facet normal 0 0 -1
    outer loop
      vertex 42.626 70.2119 0
      vertex 44.3145 71.8262 0
      vertex 43.6016 70.5068 0
    endloop
  endfacet
  facet normal 0 0 -1
    outer loop
      vertex 44.3145 71.8262 0
      vertex 42.8359 73.5654 0
      vertex 44.1836 72.7168 0
    endloop
  endfacet
  facet normal 0 0 -1
    outer loop
      vertex 44.1836 72.7168 0
      vertex 42.8359 73.5654 0
      vertex 43.7236 73.2764 0
    endloop
  endfacet
  facet normal -0 0 -1
    outer loop
      vertex 44.3145 71.8262 0
      vertex 42.626 70.2119 0
      vertex 42.8359 73.5654 0
    endloop
  endfacet
  facet normal 0 0 -1
    outer loop
      vertex 42.626 70.2119 0
      vertex 41.4219 73.6484 0
      vertex 42.8359 73.5654 0
    endloop
  endfacet
  facet normal 0 0 -1
    outer loop
      vertex 41.1631 70.1211 0
      vertex 41.4219 73.6484 0
      vertex 42.626 70.2119 0
    endloop
  endfacet
  facet normal 0 0 -1
    outer loop
      vertex 40 73.6484 0
      vertex 41.1631 70.1211 0
      vertex 40 70.1211 0
    endloop
  endfacet
  facet normal 0 0 -1
    outer loop
      vertex 41.1631 70.1211 0
      vertex 40 73.6484 0
      vertex 41.4219 73.6484 0
    endloop
  endfacet
  facet normal -0 0 -1
    outer loop
      vertex 39.4 67.6514 0
      vertex 39.376 61.6543 0
      vertex 39.376 67.6514 0
    endloop
  endfacet
  facet normal -0 0 -1
    outer loop
      vertex 22.833 68.0039 0
      vertex 21.5605 61.6533 0
      vertex 21.376 71.708 0
    endloop
  endfacet
  facet normal 0 0 -1
    outer loop
      vertex 18.7383 76.1182 0
      vertex 15.7393 70.4736 0
      vertex 16.6221 73.5508 0
    endloop
  endfacet
  facet normal 0 0 -1
    outer loop
      vertex 9.38965 73.6885 0
      vertex 15.7393 70.4736 0
      vertex 9.38965 70.4736 0
    endloop
  endfacet
  facet normal 0 0 -1
    outer loop
      vertex 15.7393 70.4736 0
      vertex 9.38965 73.6885 0
      vertex 16.6221 73.5508 0
    endloop
  endfacet
  facet normal 0 0 1
    outer loop
      vertex 9.38965 73.6885 10
      vertex 15.7393 70.4736 10
      vertex 16.6221 73.5508 10
    endloop
  endfacet
  facet normal 0 0 1
    outer loop
      vertex 15.7393 70.4736 10
      vertex 9.38965 73.6885 10
      vertex 9.38965 70.4736 10
    endloop
  endfacet
  facet normal 0 0 1
    outer loop
      vertex 22.833 68.0039 10
      vertex 21.376 71.708 10
      vertex 21.5605 61.6533 10
    endloop
  endfacet
  facet normal 0 0 1
    outer loop
      vertex 53.4229 72.1055 10
      vertex 47.3086 73.2773 10
      vertex 47.4736 72.4502 10
    endloop
  endfacet
  facet normal 0 0 1
    outer loop
      vertex 51.4482 91.1641 10
      vertex 46.9727 74.0693 10
      vertex 47.3086 73.2773 10
    endloop
  endfacet
  facet normal 0 0 1
    outer loop
      vertex 51.4482 91.1641 10
      vertex 46.4609 74.79 10
      vertex 46.9727 74.0693 10
    endloop
  endfacet
  facet normal 0 0 1
    outer loop
      vertex 45.4326 75.9414 10
      vertex 51.4482 91.1641 10
      vertex 46.3896 92.875 10
    endloop
  endfacet
  facet normal 0 0 1
    outer loop
      vertex 51.4482 91.1641 10
      vertex 45.4326 75.9414 10
      vertex 46.4609 74.79 10
    endloop
  endfacet
  facet normal 0 0 1
    outer loop
      vertex 46.3896 92.875 10
      vertex 36.377 76.1709 10
      vertex 45.4326 75.9414 10
    endloop
  endfacet
  facet normal 0 0 1
    outer loop
      vertex 36.377 76.1709 10
      vertex 34.084 76.1182 10
      vertex 36.377 61.6543 10
    endloop
  endfacet
  facet normal 0 0 1
    outer loop
      vertex 46.3896 92.875 10
      vertex 34.084 76.1182 10
      vertex 36.377 76.1709 10
    endloop
  endfacet
  facet normal 0 0 1
    outer loop
      vertex 46.3896 92.875 10
      vertex 30.3096 76.1182 10
      vertex 34.084 76.1182 10
    endloop
  endfacet
  facet normal -0 0 1
    outer loop
      vertex 22.7949 75.585 10
      vertex 28.417 71.0078 10
      vertex 30.3096 76.1182 10
    endloop
  endfacet
  facet normal 0 0 1
    outer loop
      vertex 28.417 71.0078 10
      vertex 24.4053 70.8096 10
      vertex 27.0127 67.4746 10
    endloop
  endfacet
  facet normal 0 0 1
    outer loop
      vertex 27.0127 67.4746 10
      vertex 24.4053 70.8096 10
      vertex 26.2949 66.1572 10
    endloop
  endfacet
  facet normal 0 0 1
    outer loop
      vertex 22.3721 76.0068 10
      vertex 30.3096 76.1182 10
      vertex 46.3896 92.875 10
    endloop
  endfacet
  facet normal 0 0 1
    outer loop
      vertex 28.417 71.0078 10
      vertex 22.7949 75.585 10
      vertex 24.4053 70.8096 10
    endloop
  endfacet
  facet normal 0 0 1
    outer loop
      vertex 30.3096 76.1182 10
      vertex 22.7002 75.8428 10
      vertex 22.7949 75.585 10
    endloop
  endfacet
  facet normal 0 0 1
    outer loop
      vertex 30.3096 76.1182 10
      vertex 22.3721 76.0068 10
      vertex 22.7002 75.8428 10
    endloop
  endfacet
  facet normal -0 0 1
    outer loop
      vertex 5.33301 92.5225 10
      vertex 22.3721 76.0068 10
      vertex 46.3896 92.875 10
    endloop
  endfacet
  facet normal 0 0 1
    outer loop
      vertex 22.3721 76.0068 10
      vertex 5.33301 92.5225 10
      vertex 20.7666 76.1182 10
    endloop
  endfacet
  facet normal 0 0 1
    outer loop
      vertex 18.7383 76.1182 10
      vertex 16.7979 64.3174 10
      vertex 18.7383 61.6543 10
    endloop
  endfacet
  facet normal 0 0 1
    outer loop
      vertex 16.6221 73.5508 10
      vertex 18.7383 76.1182 10
      vertex 16.7324 75.0576 10
    endloop
  endfacet
  facet normal 0 0 1
    outer loop
      vertex 20.7666 76.1182 10
      vertex 5.33301 92.5225 10
      vertex 18.7383 76.1182 10
    endloop
  endfacet
  facet normal 0 0 1
    outer loop
      vertex 18.7383 76.1182 10
      vertex 16.708 76.3135 10
      vertex 16.7324 75.0576 10
    endloop
  endfacet
  facet normal 0 0 1
    outer loop
      vertex 18.7383 76.1182 10
      vertex 16.4766 76.4326 10
      vertex 16.708 76.3135 10
    endloop
  endfacet
  facet normal 0 0 1
    outer loop
      vertex 18.7383 76.1182 10
      vertex 5.33301 92.5225 10
      vertex 16.4766 76.4326 10
    endloop
  endfacet
  facet normal 0 0 1
    outer loop
      vertex 16.4766 76.4326 10
      vertex 5.33301 92.5225 10
      vertex 16.0264 76.3457 10
    endloop
  endfacet
  facet normal 0 0 1
    outer loop
      vertex 16.0264 76.3457 10
      vertex 5.33301 92.5225 10
      vertex 14.1553 76.1904 10
    endloop
  endfacet
  facet normal 0 0 1
    outer loop
      vertex 14.1553 76.1904 10
      vertex 5.33301 92.5225 10
      vertex 10.8008 76.123 10
    endloop
  endfacet
  facet normal 0 0 1
    outer loop
      vertex 0.393555 87.9355 10
      vertex 6.39062 61.6543 10
      vertex 6.39062 76.1182 10
    endloop
  endfacet
  facet normal -0 0 1
    outer loop
      vertex 3.6875 91.5547 10
      vertex 10.8008 76.123 10
      vertex 5.33301 92.5225 10
    endloop
  endfacet
  facet normal 0 0 1
    outer loop
      vertex 10.8008 76.123 10
      vertex 3.6875 91.5547 10
      vertex 6.39062 76.1182 10
    endloop
  endfacet
  facet normal 0 0 1
    outer loop
      vertex 6.39062 61.6543 10
      vertex 0.393555 87.9355 10
      vertex 0.393555 47.0137 10
    endloop
  endfacet
  facet normal -0 0 1
    outer loop
      vertex 1.21777 89.2617 10
      vertex 6.39062 76.1182 10
      vertex 3.6875 91.5547 10
    endloop
  endfacet
  facet normal 0 -0 1
    outer loop
      vertex 4.02832 43.415 10
      vertex 6.39062 61.6543 10
      vertex 0.393555 47.0137 10
    endloop
  endfacet
  facet normal 0 0 1
    outer loop
      vertex 1.21777 89.2617 10
      vertex 3.6875 91.5547 10
      vertex 2.28418 90.4824 10
    endloop
  endfacet
  facet normal 0 0 1
    outer loop
      vertex 6.39062 76.1182 10
      vertex 1.21777 89.2617 10
      vertex 0.393555 87.9355 10
    endloop
  endfacet
  facet normal 0 0 1
    outer loop
      vertex 6.39062 61.6543 10
      vertex 4.02832 43.415 10
      vertex 6.03809 42.4277 10
    endloop
  endfacet
  facet normal -0 -0 1
    outer loop
      vertex 1.20605 45.708 10
      vertex 4.02832 43.415 10
      vertex 0.393555 47.0137 10
    endloop
  endfacet
  facet normal 0 0 1
    outer loop
      vertex 4.02832 43.415 10
      vertex 1.20605 45.708 10
      vertex 2.31445 44.4805 10
    endloop
  endfacet
  facet normal -0 0 1
    outer loop
      vertex 56.2207 104.318 10
      vertex 60 101.823 10
      vertex 60 108.708 10
    endloop
  endfacet
  facet normal 0 0 1
    outer loop
      vertex 60 101.823 10
      vertex 56.2207 104.318 10
      vertex 59.2129 100.915 10
    endloop
  endfacet
  facet normal 0 0 1
    outer loop
      vertex 56.2207 104.318 10
      vertex 52.4932 92.9775 10
      vertex 59.2129 100.915 10
    endloop
  endfacet
  facet normal -0 0 1
    outer loop
      vertex 47.7334 94.4482 10
      vertex 52.4932 92.9775 10
      vertex 56.2207 104.318 10
    endloop
  endfacet
  facet normal 0 0 1
    outer loop
      vertex 53.0469 48.4492 10
      vertex 49.4932 41.9297 10
      vertex 50.7676 43.2373 10
    endloop
  endfacet
  facet normal 0 0 1
    outer loop
      vertex 53.1338 66.7314 10
      vertex 48.5479 61.8496 10
      vertex 49.4932 41.9297 10
    endloop
  endfacet
  facet normal 0 0 1
    outer loop
      vertex 47.3037 70.832 10
      vertex 53.2363 71.3027 10
      vertex 47.4707 71.623 10
    endloop
  endfacet
  facet normal 0 0 1
    outer loop
      vertex 52.4932 92.9775 10
      vertex 47.7334 94.4482 10
      vertex 51.5352 91.5283 10
    endloop
  endfacet
  facet normal -0 0 1
    outer loop
      vertex 46.3896 92.875 10
      vertex 51.5352 91.5283 10
      vertex 47.7334 94.4482 10
    endloop
  endfacet
  facet normal 0 0 1
    outer loop
      vertex 51.5352 91.5283 10
      vertex 46.3896 92.875 10
      vertex 51.4482 91.1641 10
    endloop
  endfacet
  facet normal 0 0 1
    outer loop
      vertex 53.2363 71.3027 10
      vertex 47.3037 70.832 10
      vertex 53.1338 66.7314 10
    endloop
  endfacet
  facet normal 0 0 1
    outer loop
      vertex 53.1338 66.7314 10
      vertex 48.1846 62.957 10
      vertex 48.5479 61.8496 10
    endloop
  endfacet
  facet normal -0 0 1
    outer loop
      vertex 46.9775 70.1133 10
      vertex 53.1338 66.7314 10
      vertex 47.3037 70.832 10
    endloop
  endfacet
  facet normal 0 0 1
    outer loop
      vertex 53.1338 66.7314 10
      vertex 47.3418 64.8477 10
      vertex 48.1846 62.957 10
    endloop
  endfacet
  facet normal -0 0 1
    outer loop
      vertex 46.3906 66.7412 10
      vertex 53.1338 66.7314 10
      vertex 46.9775 70.1133 10
    endloop
  endfacet
  facet normal 0 0 1
    outer loop
      vertex 46.3906 66.7412 10
      vertex 46.9775 70.1133 10
      vertex 46.4951 69.5039 10
    endloop
  endfacet
  facet normal 0 0 1
    outer loop
      vertex 53.1338 66.7314 10
      vertex 46.3906 66.7412 10
      vertex 47.3418 64.8477 10
    endloop
  endfacet
  facet normal 0 0 1
    outer loop
      vertex 45.7002 67.8545 10
      vertex 46.4951 69.5039 10
      vertex 45.8594 69.04 10
    endloop
  endfacet
  facet normal 0 0 1
    outer loop
      vertex 46.4951 69.5039 10
      vertex 45.7002 67.8545 10
      vertex 46.3906 66.7412 10
    endloop
  endfacet
  facet normal 0 0 1
    outer loop
      vertex 45.3184 68.2832 10
      vertex 45.8594 69.04 10
      vertex 45.3838 68.7666 10
    endloop
  endfacet
  facet normal 0 0 1
    outer loop
      vertex 45.8594 69.04 10
      vertex 45.3184 68.2832 10
      vertex 45.7002 67.8545 10
    endloop
  endfacet
  facet normal 0 -0 1
    outer loop
      vertex 45.3184 68.2832 10
      vertex 45.3838 68.7666 10
      vertex 45.208 68.5508 10
    endloop
  endfacet
  facet normal -0 0 1
    outer loop
      vertex 53.751 77.6973 10
      vertex 60 74.6245 10
      vertex 60 79.934 10
    endloop
  endfacet
  facet normal 0 0 1
    outer loop
      vertex 53.751 77.6973 10
      vertex 53.751 72.3984 10
      vertex 60 74.6245 10
    endloop
  endfacet
  facet normal 0 0 1
    outer loop
      vertex 53.4141 77.6992 10
      vertex 53.751 72.3984 10
      vertex 53.751 77.6973 10
    endloop
  endfacet
  facet normal 0 0 1
    outer loop
      vertex 53.751 72.3984 10
      vertex 53.4141 77.6992 10
      vertex 53.4229 72.1055 10
    endloop
  endfacet
  facet normal 0 0 1
    outer loop
      vertex 47.3086 73.2773 10
      vertex 53.4141 77.6992 10
      vertex 53.2285 78.2822 10
    endloop
  endfacet
  facet normal -0 0 1
    outer loop
      vertex 47.3086 73.2773 10
      vertex 53.4229 72.1055 10
      vertex 53.4141 77.6992 10
    endloop
  endfacet
  facet normal 0 0 1
    outer loop
      vertex 47.3086 73.2773 10
      vertex 53.1338 82.6182 10
      vertex 53.0645 85.9307 10
    endloop
  endfacet
  facet normal 0 0 1
    outer loop
      vertex 47.3086 73.2773 10
      vertex 53.2285 78.2822 10
      vertex 53.1338 82.6182 10
    endloop
  endfacet
  facet normal 0 0 1
    outer loop
      vertex 53.4229 72.1055 10
      vertex 47.4736 72.4502 10
      vertex 53.2363 71.3027 10
    endloop
  endfacet
  facet normal 0 0 1
    outer loop
      vertex 47.3086 73.2773 10
      vertex 53.0645 85.9307 10
      vertex 51.5449 90.9365 10
    endloop
  endfacet
  facet normal -0 0 1
    outer loop
      vertex 47.4707 71.623 10
      vertex 53.2363 71.3027 10
      vertex 47.4736 72.4502 10
    endloop
  endfacet
  facet normal 0 0 1
    outer loop
      vertex 51.5449 90.9365 10
      vertex 53.0645 85.9307 10
      vertex 52.8154 88.2158 10
    endloop
  endfacet
  facet normal 0 0 1
    outer loop
      vertex 47.3086 73.2773 10
      vertex 51.5449 90.9365 10
      vertex 51.4482 91.1641 10
    endloop
  endfacet
  facet normal 0 0 1
    outer loop
      vertex 51.5449 90.9365 10
      vertex 52.8154 88.2158 10
      vertex 52.3281 89.7822 10
    endloop
  endfacet
  facet normal 0 0 1
    outer loop
      vertex 49.4932 41.9297 10
      vertex 53.0469 48.4492 10
      vertex 53.1338 51.5889 10
    endloop
  endfacet
  facet normal 0 0 1
    outer loop
      vertex 53.0469 48.4492 10
      vertex 50.7676 43.2373 10
      vertex 52.7051 46.2988 10
    endloop
  endfacet
  facet normal 0 0 1
    outer loop
      vertex 53.2314 55.0371 10
      vertex 49.4932 41.9297 10
      vertex 53.1338 51.5889 10
    endloop
  endfacet
  facet normal 0 0 1
    outer loop
      vertex 52.7051 46.2988 10
      vertex 50.7676 43.2373 10
      vertex 51.9863 44.7051 10
    endloop
  endfacet
  facet normal 0 0 1
    outer loop
      vertex 60 59.9335 10
      vertex 53.5752 56.0146 10
      vertex 60 54.746 10
    endloop
  endfacet
  facet normal 0 0 1
    outer loop
      vertex 53.3984 61.2832 10
      vertex 53.5752 56.0146 10
      vertex 60 59.9335 10
    endloop
  endfacet
  facet normal 0 0 1
    outer loop
      vertex 53.3984 61.2832 10
      vertex 53.3672 55.7852 10
      vertex 53.5752 56.0146 10
    endloop
  endfacet
  facet normal 0 0 1
    outer loop
      vertex 53.3984 61.2832 10
      vertex 53.2314 55.0371 10
      vertex 53.3672 55.7852 10
    endloop
  endfacet
  facet normal 0 0 1
    outer loop
      vertex 53.2119 62.8906 10
      vertex 53.2314 55.0371 10
      vertex 53.3984 61.2832 10
    endloop
  endfacet
  facet normal 0 0 1
    outer loop
      vertex 49.4932 41.9297 10
      vertex 53.2119 62.8906 10
      vertex 53.1338 66.7314 10
    endloop
  endfacet
  facet normal 0 0 1
    outer loop
      vertex 49.4932 41.9297 10
      vertex 53.2314 55.0371 10
      vertex 53.2119 62.8906 10
    endloop
  endfacet
  facet normal 0 0 1
    outer loop
      vertex 49.4932 41.9297 10
      vertex 60 24.9575 10
      vertex 60 31.0049 10
    endloop
  endfacet
  facet normal -0 0 1
    outer loop
      vertex 48.0557 61.7119 10
      vertex 49.4932 41.9297 10
      vertex 48.5479 61.8496 10
    endloop
  endfacet
  facet normal -0 0 1
    outer loop
      vertex 46.8721 61.6543 10
      vertex 49.4932 41.9297 10
      vertex 48.0557 61.7119 10
    endloop
  endfacet
  facet normal 0 0 1
    outer loop
      vertex 43.5771 42.2119 10
      vertex 46.8721 61.6543 10
      vertex 45.1963 61.6553 10
    endloop
  endfacet
  facet normal 0 0 1
    outer loop
      vertex 39.376 61.6543 10
      vertex 45.1963 61.6553 10
      vertex 44.5664 63.8008 10
    endloop
  endfacet
  facet normal 0 0 1
    outer loop
      vertex 39.376 61.6543 10
      vertex 44.5664 63.8008 10
      vertex 43.9014 65.5713 10
    endloop
  endfacet
  facet normal 0 0 1
    outer loop
      vertex 49.4932 41.9297 10
      vertex 43.5771 42.2119 10
      vertex 60 24.9575 10
    endloop
  endfacet
  facet normal 0 0 1
    outer loop
      vertex 45.1963 61.6553 10
      vertex 39.376 61.6543 10
      vertex 43.5771 42.2119 10
    endloop
  endfacet
  facet normal 0 0 1
    outer loop
      vertex 39.376 61.6543 10
      vertex 43.9014 65.5713 10
      vertex 43.0889 66.7646 10
    endloop
  endfacet
  facet normal 0 0 1
    outer loop
      vertex 40.8027 67.6514 10
      vertex 43.0889 66.7646 10
      vertex 42.0752 67.4395 10
    endloop
  endfacet
  facet normal 0 0 1
    outer loop
      vertex 43.0889 66.7646 10
      vertex 40.8027 67.6514 10
      vertex 39.376 61.6543 10
    endloop
  endfacet
  facet normal 0 0 1
    outer loop
      vertex 39.376 61.6543 10
      vertex 40.8027 67.6514 10
      vertex 39.376 67.6514 10
    endloop
  endfacet
  facet normal 0 0 1
    outer loop
      vertex 46.8721 61.6543 10
      vertex 43.5771 42.2119 10
      vertex 49.4932 41.9297 10
    endloop
  endfacet
  facet normal -0 0 1
    outer loop
      vertex 36.377 61.6543 10
      vertex 43.5771 42.2119 10
      vertex 39.376 61.6543 10
    endloop
  endfacet
  facet normal 0 0 1
    outer loop
      vertex 34.084 61.6543 10
      vertex 36.377 61.6543 10
      vertex 34.084 76.1182 10
    endloop
  endfacet
  facet normal -0 0 1
    outer loop
      vertex 34.084 61.6543 10
      vertex 43.5771 42.2119 10
      vertex 36.377 61.6543 10
    endloop
  endfacet
  facet normal -0 0 1
    outer loop
      vertex 31.2617 61.6543 10
      vertex 43.5771 42.2119 10
      vertex 34.084 61.6543 10
    endloop
  endfacet
  facet normal -0 0 1
    outer loop
      vertex 29.8047 67.6514 10
      vertex 31.2617 61.6543 10
      vertex 31.2402 71.3555 10
    endloop
  endfacet
  facet normal -0 0 1
    outer loop
      vertex 27.9922 62.8008 10
      vertex 31.2617 61.6543 10
      vertex 29.8047 67.6514 10
    endloop
  endfacet
  facet normal -0 0 1
    outer loop
      vertex 27.752 62.1943 10
      vertex 31.2617 61.6543 10
      vertex 27.9922 62.8008 10
    endloop
  endfacet
  facet normal -0 0 1
    outer loop
      vertex 27.4639 61.8477 10
      vertex 31.2617 61.6543 10
      vertex 27.752 62.1943 10
    endloop
  endfacet
  facet normal -0 0 1
    outer loop
      vertex 27.0254 61.6904 10
      vertex 31.2617 61.6543 10
      vertex 27.4639 61.8477 10
    endloop
  endfacet
  facet normal 0 0 1
    outer loop
      vertex 31.2617 61.6543 10
      vertex 27.0254 61.6904 10
      vertex 43.5771 42.2119 10
    endloop
  endfacet
  facet normal -0 0 1
    outer loop
      vertex 26.3369 61.6543 10
      vertex 43.5771 42.2119 10
      vertex 27.0254 61.6904 10
    endloop
  endfacet
  facet normal 0 0 1
    outer loop
      vertex 25.6309 61.6895 10
      vertex 43.5771 42.2119 10
      vertex 26.3369 61.6543 10
    endloop
  endfacet
  facet normal 0 0 1
    outer loop
      vertex 21.5605 61.6533 10
      vertex 25.6309 61.6895 10
      vertex 25.1973 61.8604 10
    endloop
  endfacet
  facet normal 0 0 1
    outer loop
      vertex 21.5605 61.6533 10
      vertex 24.6738 62.9766 10
      vertex 22.833 68.0039 10
    endloop
  endfacet
  facet normal 0 0 1
    outer loop
      vertex 24.6738 62.9766 10
      vertex 21.5605 61.6533 10
      vertex 24.917 62.2578 10
    endloop
  endfacet
  facet normal 0 0 1
    outer loop
      vertex 21.5605 61.6533 10
      vertex 25.1973 61.8604 10
      vertex 24.917 62.2578 10
    endloop
  endfacet
  facet normal 0 0 1
    outer loop
      vertex 25.6309 61.6895 10
      vertex 21.5605 61.6533 10
      vertex 6.03809 42.4277 10
    endloop
  endfacet
  facet normal 0 0 1
    outer loop
      vertex 6.03809 42.4277 10
      vertex 21.5605 61.6533 10
      vertex 18.7383 61.6543 10
    endloop
  endfacet
  facet normal 0 0 1
    outer loop
      vertex 16.7979 61.6543 10
      vertex 18.7383 61.6543 10
      vertex 16.7979 64.3174 10
    endloop
  endfacet
  facet normal 0 0 1
    outer loop
      vertex 6.03809 42.4277 10
      vertex 18.7383 61.6543 10
      vertex 16.7979 61.6543 10
    endloop
  endfacet
  facet normal 0 0 1
    outer loop
      vertex 6.03809 42.4277 10
      vertex 16.7979 61.6543 10
      vertex 6.39062 61.6543 10
    endloop
  endfacet
  facet normal 0 0 1
    outer loop
      vertex 25.6309 61.6895 10
      vertex 6.03809 42.4277 10
      vertex 43.5771 42.2119 10
    endloop
  endfacet
  facet normal 0 0 1
    outer loop
      vertex 15.7393 70.4736 10
      vertex 18.7383 76.1182 10
      vertex 16.6221 73.5508 10
    endloop
  endfacet
  facet normal 0 0 1
    outer loop
      vertex 18.7383 76.1182 10
      vertex 15.7393 70.4736 10
      vertex 15.7393 68.0039 10
    endloop
  endfacet
  facet normal 0 0 1
    outer loop
      vertex 18.7383 76.1182 10
      vertex 15.7393 68.0039 10
      vertex 16.7979 64.3174 10
    endloop
  endfacet
  facet normal 0 0 1
    outer loop
      vertex 9.38965 64.043 10
      vertex 15.7393 68.0039 10
      vertex 9.38965 68.0039 10
    endloop
  endfacet
  facet normal 0 0 1
    outer loop
      vertex 15.7393 68.0039 10
      vertex 9.38965 64.043 10
      vertex 16.7979 64.3174 10
    endloop
  endfacet
  facet normal 0 0 1
    outer loop
      vertex 42.8359 73.5654 10
      vertex 44.3145 71.8262 10
      vertex 44.1836 72.7168 10
    endloop
  endfacet
  facet normal 0 0 1
    outer loop
      vertex 42.8359 73.5654 10
      vertex 44.1836 72.7168 10
      vertex 43.7236 73.2764 10
    endloop
  endfacet
  facet normal 0 0 1
    outer loop
      vertex 42.626 70.2119 10
      vertex 44.3145 71.8262 10
      vertex 42.8359 73.5654 10
    endloop
  endfacet
  facet normal 0 0 1
    outer loop
      vertex 44.3145 71.8262 10
      vertex 43.6016 70.5068 10
      vertex 44.1455 71.0342 10
    endloop
  endfacet
  facet normal 0 0 1
    outer loop
      vertex 44.3145 71.8262 10
      vertex 42.626 70.2119 10
      vertex 43.6016 70.5068 10
    endloop
  endfacet
  facet normal 0 0 1
    outer loop
      vertex 41.4219 73.6484 10
      vertex 42.626 70.2119 10
      vertex 42.8359 73.5654 10
    endloop
  endfacet
  facet normal 0 0 1
    outer loop
      vertex 41.4219 73.6484 10
      vertex 41.1631 70.1211 10
      vertex 42.626 70.2119 10
    endloop
  endfacet
  facet normal -0 0 1
    outer loop
      vertex 39.376 73.6484 10
      vertex 41.1631 70.1211 10
      vertex 41.4219 73.6484 10
    endloop
  endfacet
  facet normal 0 0 1
    outer loop
      vertex 41.1631 70.1211 10
      vertex 39.376 73.6484 10
      vertex 39.376 70.1211 10
    endloop
  endfacet
  facet normal -0.757813 0.652472 0
    outer loop
      vertex 56.2207 104.318 0
      vertex 60 108.708 10
      vertex 60 108.708 0
    endloop
  endfacet
  facet normal -0.757813 0.652472 0
    outer loop
      vertex 60 108.708 10
      vertex 56.2207 104.318 0
      vertex 56.2207 104.318 10
    endloop
  endfacet
  facet normal -0.758223 0.651995 0
    outer loop
      vertex 47.7334 94.4482 0
      vertex 56.2207 104.318 10
      vertex 56.2207 104.318 0
    endloop
  endfacet
  facet normal -0.758223 0.651995 0
    outer loop
      vertex 56.2207 104.318 10
      vertex 47.7334 94.4482 0
      vertex 47.7334 94.4482 10
    endloop
  endfacet
  facet normal -0.760388 0.649469 0
    outer loop
      vertex 46.3896 92.875 0
      vertex 47.7334 94.4482 10
      vertex 47.7334 94.4482 0
    endloop
  endfacet
  facet normal -0.760388 0.649469 0
    outer loop
      vertex 47.7334 94.4482 10
      vertex 46.3896 92.875 0
      vertex 46.3896 92.875 10
    endloop
  endfacet
  facet normal -0.00858633 0.999963 0
    outer loop
      vertex 46.3896 92.875 0
      vertex 5.33301 92.5225 10
      vertex 46.3896 92.875 10
    endloop
  endfacet
  facet normal -0.00858633 0.999963 0
    outer loop
      vertex 5.33301 92.5225 10
      vertex 46.3896 92.875 0
      vertex 5.33301 92.5225 0
    endloop
  endfacet
  facet normal -0.506953 0.861974 0
    outer loop
      vertex 5.33301 92.5225 0
      vertex 3.6875 91.5547 10
      vertex 5.33301 92.5225 10
    endloop
  endfacet
  facet normal -0.506953 0.861974 0
    outer loop
      vertex 3.6875 91.5547 10
      vertex 5.33301 92.5225 0
      vertex 3.6875 91.5547 0
    endloop
  endfacet
  facet normal -0.607142 0.794593 0
    outer loop
      vertex 3.6875 91.5547 0
      vertex 2.28418 90.4824 10
      vertex 3.6875 91.5547 10
    endloop
  endfacet
  facet normal -0.607142 0.794593 0
    outer loop
      vertex 2.28418 90.4824 10
      vertex 3.6875 91.5547 0
      vertex 2.28418 90.4824 0
    endloop
  endfacet
  facet normal -0.753099 0.657907 0
    outer loop
      vertex 1.21777 89.2617 0
      vertex 2.28418 90.4824 10
      vertex 2.28418 90.4824 0
    endloop
  endfacet
  facet normal -0.753099 0.657907 0
    outer loop
      vertex 2.28418 90.4824 10
      vertex 1.21777 89.2617 0
      vertex 1.21777 89.2617 10
    endloop
  endfacet
  facet normal -0.849331 0.527861 0
    outer loop
      vertex 0.393555 87.9355 0
      vertex 1.21777 89.2617 10
      vertex 1.21777 89.2617 0
    endloop
  endfacet
  facet normal -0.849331 0.527861 0
    outer loop
      vertex 1.21777 89.2617 10
      vertex 0.393555 87.9355 0
      vertex 0.393555 87.9355 10
    endloop
  endfacet
  facet normal -1 0 0
    outer loop
      vertex 0.393555 47.0137 0
      vertex 0.393555 87.9355 10
      vertex 0.393555 87.9355 0
    endloop
  endfacet
  facet normal -1 -0 0
    outer loop
      vertex 0.393555 87.9355 10
      vertex 0.393555 47.0137 0
      vertex 0.393555 47.0137 10
    endloop
  endfacet
  facet normal -0.849031 -0.528343 0
    outer loop
      vertex 1.20605 45.708 0
      vertex 0.393555 47.0137 10
      vertex 0.393555 47.0137 0
    endloop
  endfacet
  facet normal -0.849031 -0.528343 0
    outer loop
      vertex 0.393555 47.0137 10
      vertex 1.20605 45.708 0
      vertex 1.20605 45.708 10
    endloop
  endfacet
  facet normal -0.742207 -0.670171 0
    outer loop
      vertex 2.31445 44.4805 0
      vertex 1.20605 45.708 10
      vertex 1.20605 45.708 0
    endloop
  endfacet
  facet normal -0.742207 -0.670171 0
    outer loop
      vertex 1.20605 45.708 10
      vertex 2.31445 44.4805 0
      vertex 2.31445 44.4805 10
    endloop
  endfacet
  facet normal -0.527953 -0.849274 0
    outer loop
      vertex 2.31445 44.4805 0
      vertex 4.02832 43.415 10
      vertex 2.31445 44.4805 10
    endloop
  endfacet
  facet normal -0.527953 -0.849274 -0
    outer loop
      vertex 4.02832 43.415 10
      vertex 2.31445 44.4805 0
      vertex 4.02832 43.415 0
    endloop
  endfacet
  facet normal -0.440922 -0.897545 0
    outer loop
      vertex 4.02832 43.415 0
      vertex 6.03809 42.4277 10
      vertex 4.02832 43.415 10
    endloop
  endfacet
  facet normal -0.440922 -0.897545 -0
    outer loop
      vertex 6.03809 42.4277 10
      vertex 4.02832 43.415 0
      vertex 6.03809 42.4277 0
    endloop
  endfacet
  facet normal -0.00574912 -0.999983 0
    outer loop
      vertex 6.03809 42.4277 0
      vertex 43.5771 42.2119 10
      vertex 6.03809 42.4277 10
    endloop
  endfacet
  facet normal -0.00574912 -0.999983 -0
    outer loop
      vertex 43.5771 42.2119 10
      vertex 6.03809 42.4277 0
      vertex 43.5771 42.2119 0
    endloop
  endfacet
  facet normal -0.724347 -0.689436 0
    outer loop
      vertex 60 24.9575 0
      vertex 43.5771 42.2119 10
      vertex 43.5771 42.2119 0
    endloop
  endfacet
  facet normal -0.724347 -0.689436 0
    outer loop
      vertex 43.5771 42.2119 10
      vertex 60 24.9575 0
      vertex 60 24.9575 10
    endloop
  endfacet
  facet normal 0.952905 0.30327 0
    outer loop
      vertex 53.4141 77.6992 10
      vertex 53.2285 78.2822 0
      vertex 53.2285 78.2822 10
    endloop
  endfacet
  facet normal 0.952905 0.30327 0
    outer loop
      vertex 53.2285 78.2822 0
      vertex 53.4141 77.6992 10
      vertex 53.4141 77.6992 0
    endloop
  endfacet
  facet normal 0.999761 0.0218416 0
    outer loop
      vertex 53.2285 78.2822 10
      vertex 53.1338 82.6182 0
      vertex 53.1338 82.6182 10
    endloop
  endfacet
  facet normal 0.999761 0.0218416 0
    outer loop
      vertex 53.1338 82.6182 0
      vertex 53.2285 78.2822 10
      vertex 53.2285 78.2822 0
    endloop
  endfacet
  facet normal 0.999781 0.020927 0
    outer loop
      vertex 53.1338 82.6182 10
      vertex 53.0645 85.9307 0
      vertex 53.0645 85.9307 10
    endloop
  endfacet
  facet normal 0.999781 0.020927 0
    outer loop
      vertex 53.0645 85.9307 0
      vertex 53.1338 82.6182 10
      vertex 53.1338 82.6182 0
    endloop
  endfacet
  facet normal 0.994115 0.108333 0
    outer loop
      vertex 53.0645 85.9307 10
      vertex 52.8154 88.2158 0
      vertex 52.8154 88.2158 10
    endloop
  endfacet
  facet normal 0.994115 0.108333 0
    outer loop
      vertex 52.8154 88.2158 0
      vertex 53.0645 85.9307 10
      vertex 53.0645 85.9307 0
    endloop
  endfacet
  facet normal 0.954861 0.297054 0
    outer loop
      vertex 52.8154 88.2158 10
      vertex 52.3281 89.7822 0
      vertex 52.3281 89.7822 10
    endloop
  endfacet
  facet normal 0.954861 0.297054 0
    outer loop
      vertex 52.3281 89.7822 0
      vertex 52.8154 88.2158 10
      vertex 52.8154 88.2158 0
    endloop
  endfacet
  facet normal 0.827499 0.561467 0
    outer loop
      vertex 52.3281 89.7822 10
      vertex 51.5449 90.9365 0
      vertex 51.5449 90.9365 10
    endloop
  endfacet
  facet normal 0.827499 0.561467 0
    outer loop
      vertex 51.5449 90.9365 0
      vertex 52.3281 89.7822 10
      vertex 52.3281 89.7822 0
    endloop
  endfacet
  facet normal 0.920366 0.391057 0
    outer loop
      vertex 51.5449 90.9365 10
      vertex 51.4482 91.1641 0
      vertex 51.4482 91.1641 10
    endloop
  endfacet
  facet normal 0.920366 0.391057 0
    outer loop
      vertex 51.4482 91.1641 0
      vertex 51.5449 90.9365 10
      vertex 51.5449 90.9365 0
    endloop
  endfacet
  facet normal 0.972694 -0.232091 0
    outer loop
      vertex 51.4482 91.1641 10
      vertex 51.5352 91.5283 0
      vertex 51.5352 91.5283 10
    endloop
  endfacet
  facet normal 0.972694 -0.232091 0
    outer loop
      vertex 51.5352 91.5283 0
      vertex 51.4482 91.1641 10
      vertex 51.4482 91.1641 0
    endloop
  endfacet
  facet normal 0.834206 -0.551453 0
    outer loop
      vertex 51.5352 91.5283 10
      vertex 52.4932 92.9775 0
      vertex 52.4932 92.9775 10
    endloop
  endfacet
  facet normal 0.834206 -0.551453 0
    outer loop
      vertex 52.4932 92.9775 0
      vertex 51.5352 91.5283 10
      vertex 51.5352 91.5283 0
    endloop
  endfacet
  facet normal 0.763226 -0.646132 0
    outer loop
      vertex 52.4932 92.9775 10
      vertex 59.2129 100.915 0
      vertex 59.2129 100.915 10
    endloop
  endfacet
  facet normal 0.763226 -0.646132 0
    outer loop
      vertex 59.2129 100.915 0
      vertex 52.4932 92.9775 10
      vertex 52.4932 92.9775 0
    endloop
  endfacet
  facet normal 0.755441 -0.655217 0
    outer loop
      vertex 59.2129 100.915 10
      vertex 60 101.823 0
      vertex 60 101.823 10
    endloop
  endfacet
  facet normal 0.755441 -0.655217 0
    outer loop
      vertex 60 101.823 0
      vertex 59.2129 100.915 10
      vertex 59.2129 100.915 0
    endloop
  endfacet
  facet normal -0.336993 0.941507 0
    outer loop
      vertex 60 79.934 0
      vertex 53.751 77.6973 10
      vertex 60 79.934 10
    endloop
  endfacet
  facet normal -0.336993 0.941507 0
    outer loop
      vertex 53.751 77.6973 10
      vertex 60 79.934 0
      vertex 53.751 77.6973 0
    endloop
  endfacet
  facet normal 0.005797 0.999983 -0
    outer loop
      vertex 53.751 77.6973 0
      vertex 53.4141 77.6992 10
      vertex 53.751 77.6973 10
    endloop
  endfacet
  facet normal 0.005797 0.999983 0
    outer loop
      vertex 53.4141 77.6992 10
      vertex 53.751 77.6973 0
      vertex 53.4141 77.6992 0
    endloop
  endfacet
  facet normal 0.200306 0.979733 -0
    outer loop
      vertex 60 59.9335 0
      vertex 53.3984 61.2832 10
      vertex 60 59.9335 10
    endloop
  endfacet
  facet normal 0.200306 0.979733 0
    outer loop
      vertex 53.3984 61.2832 10
      vertex 60 59.9335 0
      vertex 53.3984 61.2832 0
    endloop
  endfacet
  facet normal 0.993335 0.115265 0
    outer loop
      vertex 53.3984 61.2832 10
      vertex 53.2119 62.8906 0
      vertex 53.2119 62.8906 10
    endloop
  endfacet
  facet normal 0.993335 0.115265 0
    outer loop
      vertex 53.2119 62.8906 0
      vertex 53.3984 61.2832 10
      vertex 53.3984 61.2832 0
    endloop
  endfacet
  facet normal 0.999793 0.0203365 0
    outer loop
      vertex 53.2119 62.8906 10
      vertex 53.1338 66.7314 0
      vertex 53.1338 66.7314 10
    endloop
  endfacet
  facet normal 0.999793 0.0203365 0
    outer loop
      vertex 53.1338 66.7314 0
      vertex 53.2119 62.8906 10
      vertex 53.2119 62.8906 0
    endloop
  endfacet
  facet normal 0.999749 -0.0224255 0
    outer loop
      vertex 53.1338 66.7314 10
      vertex 53.2363 71.3027 0
      vertex 53.2363 71.3027 10
    endloop
  endfacet
  facet normal 0.999749 -0.0224255 0
    outer loop
      vertex 53.2363 71.3027 0
      vertex 53.1338 66.7314 10
      vertex 53.1338 66.7314 0
    endloop
  endfacet
  facet normal 0.974051 -0.22633 0
    outer loop
      vertex 53.2363 71.3027 10
      vertex 53.4229 72.1055 0
      vertex 53.4229 72.1055 10
    endloop
  endfacet
  facet normal 0.974051 -0.22633 0
    outer loop
      vertex 53.4229 72.1055 0
      vertex 53.2363 71.3027 10
      vertex 53.2363 71.3027 0
    endloop
  endfacet
  facet normal 0.666016 -0.745938 0
    outer loop
      vertex 53.4229 72.1055 0
      vertex 53.751 72.3984 10
      vertex 53.4229 72.1055 10
    endloop
  endfacet
  facet normal 0.666016 -0.745938 0
    outer loop
      vertex 53.751 72.3984 10
      vertex 53.4229 72.1055 0
      vertex 53.751 72.3984 0
    endloop
  endfacet
  facet normal 0.335567 -0.942016 0
    outer loop
      vertex 53.751 72.3984 0
      vertex 60 74.6245 10
      vertex 53.751 72.3984 10
    endloop
  endfacet
  facet normal 0.335567 -0.942016 0
    outer loop
      vertex 60 74.6245 10
      vertex 53.751 72.3984 0
      vertex 60 74.6245 0
    endloop
  endfacet
  facet normal 1 -0 0
    outer loop
      vertex 6.39062 61.6543 10
      vertex 6.39062 76.1182 0
      vertex 6.39062 76.1182 10
    endloop
  endfacet
  facet normal 1 0 0
    outer loop
      vertex 6.39062 76.1182 0
      vertex 6.39062 61.6543 10
      vertex 6.39062 61.6543 0
    endloop
  endfacet
  facet normal 0.00110717 -0.999999 0
    outer loop
      vertex 6.39062 76.1182 0
      vertex 10.8008 76.123 10
      vertex 6.39062 76.1182 10
    endloop
  endfacet
  facet normal 0.00110717 -0.999999 0
    outer loop
      vertex 10.8008 76.123 10
      vertex 6.39062 76.1182 0
      vertex 10.8008 76.123 0
    endloop
  endfacet
  facet normal 0.0200833 -0.999798 0
    outer loop
      vertex 10.8008 76.123 0
      vertex 14.1553 76.1904 10
      vertex 10.8008 76.123 10
    endloop
  endfacet
  facet normal 0.0200833 -0.999798 0
    outer loop
      vertex 14.1553 76.1904 10
      vertex 10.8008 76.123 0
      vertex 14.1553 76.1904 0
    endloop
  endfacet
  facet normal 0.0827011 -0.996574 0
    outer loop
      vertex 14.1553 76.1904 0
      vertex 16.0264 76.3457 10
      vertex 14.1553 76.1904 10
    endloop
  endfacet
  facet normal 0.0827011 -0.996574 0
    outer loop
      vertex 16.0264 76.3457 10
      vertex 14.1553 76.1904 0
      vertex 16.0264 76.3457 0
    endloop
  endfacet
  facet normal 0.189558 -0.981869 0
    outer loop
      vertex 16.0264 76.3457 0
      vertex 16.4766 76.4326 10
      vertex 16.0264 76.3457 10
    endloop
  endfacet
  facet normal 0.189558 -0.981869 0
    outer loop
      vertex 16.4766 76.4326 10
      vertex 16.0264 76.3457 0
      vertex 16.4766 76.4326 0
    endloop
  endfacet
  facet normal -0.457687 -0.889113 0
    outer loop
      vertex 16.4766 76.4326 0
      vertex 16.708 76.3135 10
      vertex 16.4766 76.4326 10
    endloop
  endfacet
  facet normal -0.457687 -0.889113 -0
    outer loop
      vertex 16.708 76.3135 10
      vertex 16.4766 76.4326 0
      vertex 16.708 76.3135 0
    endloop
  endfacet
  facet normal -0.999811 -0.0194365 0
    outer loop
      vertex 16.7324 75.0576 0
      vertex 16.708 76.3135 10
      vertex 16.708 76.3135 0
    endloop
  endfacet
  facet normal -0.999811 -0.0194365 0
    outer loop
      vertex 16.708 76.3135 10
      vertex 16.7324 75.0576 0
      vertex 16.7324 75.0576 10
    endloop
  endfacet
  facet normal -0.997329 0.0730384 0
    outer loop
      vertex 16.6221 73.5508 0
      vertex 16.7324 75.0576 10
      vertex 16.7324 75.0576 0
    endloop
  endfacet
  facet normal -0.997329 0.0730384 0
    outer loop
      vertex 16.7324 75.0576 10
      vertex 16.6221 73.5508 0
      vertex 16.6221 73.5508 10
    endloop
  endfacet
  facet normal 0.0190352 0.999819 -0
    outer loop
      vertex 16.6221 73.5508 0
      vertex 9.38965 73.6885 10
      vertex 16.6221 73.5508 10
    endloop
  endfacet
  facet normal 0.0190352 0.999819 0
    outer loop
      vertex 9.38965 73.6885 10
      vertex 16.6221 73.5508 0
      vertex 9.38965 73.6885 0
    endloop
  endfacet
  facet normal -1 0 0
    outer loop
      vertex 9.38965 70.4736 0
      vertex 9.38965 73.6885 10
      vertex 9.38965 73.6885 0
    endloop
  endfacet
  facet normal -1 -0 0
    outer loop
      vertex 9.38965 73.6885 10
      vertex 9.38965 70.4736 0
      vertex 9.38965 70.4736 10
    endloop
  endfacet
  facet normal 0 -1 0
    outer loop
      vertex 9.38965 70.4736 0
      vertex 15.7393 70.4736 10
      vertex 9.38965 70.4736 10
    endloop
  endfacet
  facet normal 0 -1 -0
    outer loop
      vertex 15.7393 70.4736 10
      vertex 9.38965 70.4736 0
      vertex 15.7393 70.4736 0
    endloop
  endfacet
  facet normal -1 0 0
    outer loop
      vertex 15.7393 68.0039 0
      vertex 15.7393 70.4736 10
      vertex 15.7393 70.4736 0
    endloop
  endfacet
  facet normal -1 -0 0
    outer loop
      vertex 15.7393 70.4736 10
      vertex 15.7393 68.0039 0
      vertex 15.7393 68.0039 10
    endloop
  endfacet
  facet normal 0 1 -0
    outer loop
      vertex 15.7393 68.0039 0
      vertex 9.38965 68.0039 10
      vertex 15.7393 68.0039 10
    endloop
  endfacet
  facet normal 0 1 0
    outer loop
      vertex 9.38965 68.0039 10
      vertex 15.7393 68.0039 0
      vertex 9.38965 68.0039 0
    endloop
  endfacet
  facet normal -1 0 0
    outer loop
      vertex 9.38965 64.043 0
      vertex 9.38965 68.0039 10
      vertex 9.38965 68.0039 0
    endloop
  endfacet
  facet normal -1 -0 0
    outer loop
      vertex 9.38965 68.0039 10
      vertex 9.38965 64.043 0
      vertex 9.38965 64.043 10
    endloop
  endfacet
  facet normal 0.0370165 -0.999315 0
    outer loop
      vertex 9.38965 64.043 0
      vertex 16.7979 64.3174 10
      vertex 9.38965 64.043 10
    endloop
  endfacet
  facet normal 0.0370165 -0.999315 0
    outer loop
      vertex 16.7979 64.3174 10
      vertex 9.38965 64.043 0
      vertex 16.7979 64.3174 0
    endloop
  endfacet
  facet normal -1 0 0
    outer loop
      vertex 16.7979 61.6543 0
      vertex 16.7979 64.3174 10
      vertex 16.7979 64.3174 0
    endloop
  endfacet
  facet normal -1 -0 0
    outer loop
      vertex 16.7979 64.3174 10
      vertex 16.7979 61.6543 0
      vertex 16.7979 61.6543 10
    endloop
  endfacet
  facet normal 0 1 -0
    outer loop
      vertex 16.7979 61.6543 0
      vertex 6.39062 61.6543 10
      vertex 16.7979 61.6543 10
    endloop
  endfacet
  facet normal 0 1 0
    outer loop
      vertex 6.39062 61.6543 10
      vertex 16.7979 61.6543 0
      vertex 6.39062 61.6543 0
    endloop
  endfacet
  facet normal 1 -0 0
    outer loop
      vertex 36.377 61.6543 10
      vertex 36.377 76.1709 0
      vertex 36.377 76.1709 10
    endloop
  endfacet
  facet normal 1 0 0
    outer loop
      vertex 36.377 76.1709 0
      vertex 36.377 61.6543 10
      vertex 36.377 61.6543 0
    endloop
  endfacet
  facet normal -0.0253342 -0.999679 3.37012e-07
    outer loop
      vertex 40 76.0791 0.599999
      vertex 36.377 76.1709 10
      vertex 39.4 76.0943 0.599999
    endloop
  endfacet
  facet normal -0.0253353 -0.999679 0
    outer loop
      vertex 36.377 76.1709 0
      vertex 39.4 76.0943 0.599999
      vertex 36.377 76.1709 10
    endloop
  endfacet
  facet normal -0.0253353 -0.999679 -0
    outer loop
      vertex 39.4 76.0943 0.599999
      vertex 36.377 76.1709 0
      vertex 39.4 76.0943 0
    endloop
  endfacet
  facet normal -0.0253343 -0.999679 3.28558e-07
    outer loop
      vertex 36.377 76.1709 10
      vertex 40 76.0791 0.599999
      vertex 45.4326 75.9414 10
    endloop
  endfacet
  facet normal -0.0253337 -0.999679 0
    outer loop
      vertex 45.4326 75.9414 0
      vertex 40 76.0791 0.599999
      vertex 40 76.0791 0
    endloop
  endfacet
  facet normal -0.0253337 -0.999679 0
    outer loop
      vertex 40 76.0791 0.599999
      vertex 45.4326 75.9414 0
      vertex 45.4326 75.9414 10
    endloop
  endfacet
  facet normal -0.745837 -0.666129 0
    outer loop
      vertex 46.4609 74.79 0
      vertex 45.4326 75.9414 10
      vertex 45.4326 75.9414 0
    endloop
  endfacet
  facet normal -0.745837 -0.666129 0
    outer loop
      vertex 45.4326 75.9414 10
      vertex 46.4609 74.79 0
      vertex 46.4609 74.79 10
    endloop
  endfacet
  facet normal -0.815373 -0.578937 0
    outer loop
      vertex 46.9727 74.0693 0
      vertex 46.4609 74.79 10
      vertex 46.4609 74.79 0
    endloop
  endfacet
  facet normal -0.815373 -0.578937 0
    outer loop
      vertex 46.4609 74.79 10
      vertex 46.9727 74.0693 0
      vertex 46.9727 74.0693 10
    endloop
  endfacet
  facet normal -0.920607 -0.390492 0
    outer loop
      vertex 47.3086 73.2773 0
      vertex 46.9727 74.0693 10
      vertex 46.9727 74.0693 0
    endloop
  endfacet
  facet normal -0.920607 -0.390492 0
    outer loop
      vertex 46.9727 74.0693 10
      vertex 47.3086 73.2773 0
      vertex 47.3086 73.2773 10
    endloop
  endfacet
  facet normal -0.98067 -0.195671 0
    outer loop
      vertex 47.4736 72.4502 0
      vertex 47.3086 73.2773 10
      vertex 47.3086 73.2773 0
    endloop
  endfacet
  facet normal -0.98067 -0.195671 0
    outer loop
      vertex 47.3086 73.2773 10
      vertex 47.4736 72.4502 0
      vertex 47.4736 72.4502 10
    endloop
  endfacet
  facet normal -0.999994 0.00354189 0
    outer loop
      vertex 47.4707 71.623 0
      vertex 47.4736 72.4502 10
      vertex 47.4736 72.4502 0
    endloop
  endfacet
  facet normal -0.999994 0.00354189 0
    outer loop
      vertex 47.4736 72.4502 10
      vertex 47.4707 71.623 0
      vertex 47.4707 71.623 10
    endloop
  endfacet
  facet normal -0.978434 0.206558 0
    outer loop
      vertex 47.3037 70.832 0
      vertex 47.4707 71.623 10
      vertex 47.4707 71.623 0
    endloop
  endfacet
  facet normal -0.978434 0.206558 0
    outer loop
      vertex 47.4707 71.623 10
      vertex 47.3037 70.832 0
      vertex 47.3037 70.832 10
    endloop
  endfacet
  facet normal -0.910621 0.413244 0
    outer loop
      vertex 46.9775 70.1133 0
      vertex 47.3037 70.832 10
      vertex 47.3037 70.832 0
    endloop
  endfacet
  facet normal -0.910621 0.413244 0
    outer loop
      vertex 47.3037 70.832 10
      vertex 46.9775 70.1133 0
      vertex 46.9775 70.1133 10
    endloop
  endfacet
  facet normal -0.784046 0.620703 0
    outer loop
      vertex 46.4951 69.5039 0
      vertex 46.9775 70.1133 10
      vertex 46.9775 70.1133 0
    endloop
  endfacet
  facet normal -0.784046 0.620703 0
    outer loop
      vertex 46.9775 70.1133 10
      vertex 46.4951 69.5039 0
      vertex 46.4951 69.5039 10
    endloop
  endfacet
  facet normal -0.589425 0.807823 0
    outer loop
      vertex 46.4951 69.5039 0
      vertex 45.8594 69.04 10
      vertex 46.4951 69.5039 10
    endloop
  endfacet
  facet normal -0.589425 0.807823 0
    outer loop
      vertex 45.8594 69.04 10
      vertex 46.4951 69.5039 0
      vertex 45.8594 69.04 0
    endloop
  endfacet
  facet normal -0.498438 0.866926 0
    outer loop
      vertex 45.8594 69.04 0
      vertex 45.3838 68.7666 10
      vertex 45.8594 69.04 10
    endloop
  endfacet
  facet normal -0.498438 0.866926 0
    outer loop
      vertex 45.3838 68.7666 10
      vertex 45.8594 69.04 0
      vertex 45.3838 68.7666 0
    endloop
  endfacet
  facet normal -0.775362 0.631517 0
    outer loop
      vertex 45.208 68.5508 0
      vertex 45.3838 68.7666 10
      vertex 45.3838 68.7666 0
    endloop
  endfacet
  facet normal -0.775362 0.631517 0
    outer loop
      vertex 45.3838 68.7666 10
      vertex 45.208 68.5508 0
      vertex 45.208 68.5508 10
    endloop
  endfacet
  facet normal -0.924468 -0.381259 0
    outer loop
      vertex 45.3184 68.2832 0
      vertex 45.208 68.5508 10
      vertex 45.208 68.5508 0
    endloop
  endfacet
  facet normal -0.924468 -0.381259 0
    outer loop
      vertex 45.208 68.5508 10
      vertex 45.3184 68.2832 0
      vertex 45.3184 68.2832 10
    endloop
  endfacet
  facet normal -0.746752 -0.665103 0
    outer loop
      vertex 45.7002 67.8545 0
      vertex 45.3184 68.2832 10
      vertex 45.3184 68.2832 0
    endloop
  endfacet
  facet normal -0.746752 -0.665103 0
    outer loop
      vertex 45.3184 68.2832 10
      vertex 45.7002 67.8545 0
      vertex 45.7002 67.8545 10
    endloop
  endfacet
  facet normal -0.849836 -0.527047 0
    outer loop
      vertex 46.3906 66.7412 0
      vertex 45.7002 67.8545 10
      vertex 45.7002 67.8545 0
    endloop
  endfacet
  facet normal -0.849836 -0.527047 0
    outer loop
      vertex 45.7002 67.8545 10
      vertex 46.3906 66.7412 0
      vertex 46.3906 66.7412 10
    endloop
  endfacet
  facet normal -0.893596 -0.448872 0
    outer loop
      vertex 47.3418 64.8477 0
      vertex 46.3906 66.7412 10
      vertex 46.3906 66.7412 0
    endloop
  endfacet
  facet normal -0.893596 -0.448872 0
    outer loop
      vertex 46.3906 66.7412 10
      vertex 47.3418 64.8477 0
      vertex 47.3418 64.8477 10
    endloop
  endfacet
  facet normal -0.913364 -0.407145 0
    outer loop
      vertex 48.1846 62.957 0
      vertex 47.3418 64.8477 10
      vertex 47.3418 64.8477 0
    endloop
  endfacet
  facet normal -0.913364 -0.407145 0
    outer loop
      vertex 47.3418 64.8477 10
      vertex 48.1846 62.957 0
      vertex 48.1846 62.957 10
    endloop
  endfacet
  facet normal -0.950181 -0.311699 0
    outer loop
      vertex 48.5479 61.8496 0
      vertex 48.1846 62.957 10
      vertex 48.1846 62.957 0
    endloop
  endfacet
  facet normal -0.950181 -0.311699 0
    outer loop
      vertex 48.1846 62.957 10
      vertex 48.5479 61.8496 0
      vertex 48.5479 61.8496 10
    endloop
  endfacet
  facet normal -0.269417 0.963024 0
    outer loop
      vertex 48.5479 61.8496 0
      vertex 48.0557 61.7119 10
      vertex 48.5479 61.8496 10
    endloop
  endfacet
  facet normal -0.269417 0.963024 0
    outer loop
      vertex 48.0557 61.7119 10
      vertex 48.5479 61.8496 0
      vertex 48.0557 61.7119 0
    endloop
  endfacet
  facet normal -0.0486223 0.998817 0
    outer loop
      vertex 48.0557 61.7119 0
      vertex 46.8721 61.6543 10
      vertex 48.0557 61.7119 10
    endloop
  endfacet
  facet normal -0.0486223 0.998817 0
    outer loop
      vertex 46.8721 61.6543 10
      vertex 48.0557 61.7119 0
      vertex 46.8721 61.6543 0
    endloop
  endfacet
  facet normal 0.00058275 1 -0
    outer loop
      vertex 46.8721 61.6543 0
      vertex 45.1963 61.6553 10
      vertex 46.8721 61.6543 10
    endloop
  endfacet
  facet normal 0.00058275 1 0
    outer loop
      vertex 45.1963 61.6553 10
      vertex 46.8721 61.6543 0
      vertex 45.1963 61.6553 0
    endloop
  endfacet
  facet normal 0.959504 0.281693 0
    outer loop
      vertex 45.1963 61.6553 10
      vertex 44.5664 63.8008 0
      vertex 44.5664 63.8008 10
    endloop
  endfacet
  facet normal 0.959504 0.281693 0
    outer loop
      vertex 44.5664 63.8008 0
      vertex 45.1963 61.6553 10
      vertex 45.1963 61.6553 0
    endloop
  endfacet
  facet normal 0.936138 0.351633 0
    outer loop
      vertex 44.5664 63.8008 10
      vertex 43.9014 65.5713 0
      vertex 43.9014 65.5713 10
    endloop
  endfacet
  facet normal 0.936138 0.351633 0
    outer loop
      vertex 43.9014 65.5713 0
      vertex 44.5664 63.8008 10
      vertex 44.5664 63.8008 0
    endloop
  endfacet
  facet normal 0.826599 0.562791 0
    outer loop
      vertex 43.9014 65.5713 10
      vertex 43.0889 66.7646 0
      vertex 43.0889 66.7646 10
    endloop
  endfacet
  facet normal 0.826599 0.562791 0
    outer loop
      vertex 43.0889 66.7646 0
      vertex 43.9014 65.5713 10
      vertex 43.9014 65.5713 0
    endloop
  endfacet
  facet normal 0.554145 0.83242 -0
    outer loop
      vertex 43.0889 66.7646 0
      vertex 42.0752 67.4395 10
      vertex 43.0889 66.7646 10
    endloop
  endfacet
  facet normal 0.554145 0.83242 0
    outer loop
      vertex 42.0752 67.4395 10
      vertex 43.0889 66.7646 0
      vertex 42.0752 67.4395 0
    endloop
  endfacet
  facet normal 0.164276 0.986414 -0
    outer loop
      vertex 42.0752 67.4395 0
      vertex 40.8027 67.6514 10
      vertex 42.0752 67.4395 10
    endloop
  endfacet
  facet normal 0.164276 0.986414 0
    outer loop
      vertex 40.8027 67.6514 10
      vertex 42.0752 67.4395 0
      vertex 40.8027 67.6514 0
    endloop
  endfacet
  facet normal 0 1 0
    outer loop
      vertex 40.8027 67.6514 10
      vertex 40 67.6514 0.599999
      vertex 39.376 67.6514 10
    endloop
  endfacet
  facet normal 0 1 -0
    outer loop
      vertex 40.8027 67.6514 0
      vertex 40 67.6514 0.599999
      vertex 40.8027 67.6514 10
    endloop
  endfacet
  facet normal 0 1 0
    outer loop
      vertex 40 67.6514 0.599999
      vertex 40.8027 67.6514 0
      vertex 40 67.6514 0
    endloop
  endfacet
  facet normal 0 1 -0
    outer loop
      vertex 39.4 67.6514 0.599999
      vertex 39.376 67.6514 10
      vertex 40 67.6514 0.599999
    endloop
  endfacet
  facet normal 0 1 0
    outer loop
      vertex 39.376 67.6514 0
      vertex 39.4 67.6514 0.599999
      vertex 39.4 67.6514 0
    endloop
  endfacet
  facet normal 0 1 0
    outer loop
      vertex 39.4 67.6514 0.599999
      vertex 39.376 67.6514 0
      vertex 39.376 67.6514 10
    endloop
  endfacet
  facet normal -1 0 0
    outer loop
      vertex 39.376 61.6543 0
      vertex 39.376 67.6514 10
      vertex 39.376 67.6514 0
    endloop
  endfacet
  facet normal -1 -0 0
    outer loop
      vertex 39.376 67.6514 10
      vertex 39.376 61.6543 0
      vertex 39.376 61.6543 10
    endloop
  endfacet
  facet normal 0 1 -0
    outer loop
      vertex 39.376 61.6543 0
      vertex 36.377 61.6543 10
      vertex 39.376 61.6543 10
    endloop
  endfacet
  facet normal 0 1 0
    outer loop
      vertex 36.377 61.6543 10
      vertex 39.376 61.6543 0
      vertex 36.377 61.6543 0
    endloop
  endfacet
  facet normal 0.289369 -0.957218 0
    outer loop
      vertex 42.626 70.2119 0
      vertex 43.6016 70.5068 10
      vertex 42.626 70.2119 10
    endloop
  endfacet
  facet normal 0.289369 -0.957218 0
    outer loop
      vertex 43.6016 70.5068 10
      vertex 42.626 70.2119 0
      vertex 43.6016 70.5068 0
    endloop
  endfacet
  facet normal 0.696065 -0.717978 0
    outer loop
      vertex 43.6016 70.5068 0
      vertex 44.1455 71.0342 10
      vertex 43.6016 70.5068 10
    endloop
  endfacet
  facet normal 0.696065 -0.717978 0
    outer loop
      vertex 44.1455 71.0342 10
      vertex 43.6016 70.5068 0
      vertex 44.1455 71.0342 0
    endloop
  endfacet
  facet normal 0.977996 -0.208623 0
    outer loop
      vertex 44.1455 71.0342 10
      vertex 44.3145 71.8262 0
      vertex 44.3145 71.8262 10
    endloop
  endfacet
  facet normal 0.977996 -0.208623 0
    outer loop
      vertex 44.3145 71.8262 0
      vertex 44.1455 71.0342 10
      vertex 44.1455 71.0342 0
    endloop
  endfacet
  facet normal 0.989377 0.145369 0
    outer loop
      vertex 44.3145 71.8262 10
      vertex 44.1836 72.7168 0
      vertex 44.1836 72.7168 10
    endloop
  endfacet
  facet normal 0.989377 0.145369 0
    outer loop
      vertex 44.1836 72.7168 0
      vertex 44.3145 71.8262 10
      vertex 44.3145 71.8262 0
    endloop
  endfacet
  facet normal 0.772514 0.634998 0
    outer loop
      vertex 44.1836 72.7168 10
      vertex 43.7236 73.2764 0
      vertex 43.7236 73.2764 10
    endloop
  endfacet
  facet normal 0.772514 0.634998 0
    outer loop
      vertex 43.7236 73.2764 0
      vertex 44.1836 72.7168 10
      vertex 44.1836 72.7168 0
    endloop
  endfacet
  facet normal 0.30963 0.950857 -0
    outer loop
      vertex 43.7236 73.2764 0
      vertex 42.8359 73.5654 10
      vertex 43.7236 73.2764 10
    endloop
  endfacet
  facet normal 0.30963 0.950857 0
    outer loop
      vertex 42.8359 73.5654 10
      vertex 43.7236 73.2764 0
      vertex 42.8359 73.5654 0
    endloop
  endfacet
  facet normal 0.0586008 0.998281 -0
    outer loop
      vertex 42.8359 73.5654 0
      vertex 41.4219 73.6484 10
      vertex 42.8359 73.5654 10
    endloop
  endfacet
  facet normal 0.0586008 0.998281 0
    outer loop
      vertex 41.4219 73.6484 10
      vertex 42.8359 73.5654 0
      vertex 41.4219 73.6484 0
    endloop
  endfacet
  facet normal 0 1 0
    outer loop
      vertex 41.4219 73.6484 10
      vertex 40 73.6484 0.599999
      vertex 39.376 73.6484 10
    endloop
  endfacet
  facet normal 0 1 -0
    outer loop
      vertex 41.4219 73.6484 0
      vertex 40 73.6484 0.599999
      vertex 41.4219 73.6484 10
    endloop
  endfacet
  facet normal 0 1 0
    outer loop
      vertex 40 73.6484 0.599999
      vertex 41.4219 73.6484 0
      vertex 40 73.6484 0
    endloop
  endfacet
  facet normal 0 1 -0
    outer loop
      vertex 39.4 73.6484 0.599999
      vertex 39.376 73.6484 10
      vertex 40 73.6484 0.599999
    endloop
  endfacet
  facet normal 0 1 0
    outer loop
      vertex 39.376 73.6484 0
      vertex 39.4 73.6484 0.599999
      vertex 39.4 73.6484 0
    endloop
  endfacet
  facet normal 0 1 0
    outer loop
      vertex 39.4 73.6484 0.599999
      vertex 39.376 73.6484 0
      vertex 39.376 73.6484 10
    endloop
  endfacet
  facet normal -1 0 0
    outer loop
      vertex 39.376 70.1211 0
      vertex 39.376 73.6484 10
      vertex 39.376 73.6484 0
    endloop
  endfacet
  facet normal -1 -0 0
    outer loop
      vertex 39.376 73.6484 10
      vertex 39.376 70.1211 0
      vertex 39.376 70.1211 10
    endloop
  endfacet
  facet normal 0 -1 0
    outer loop
      vertex 40 70.1211 0.599999
      vertex 39.376 70.1211 10
      vertex 39.4 70.1211 0.599999
    endloop
  endfacet
  facet normal 0 -1 0
    outer loop
      vertex 39.376 70.1211 0
      vertex 39.4 70.1211 0.599999
      vertex 39.376 70.1211 10
    endloop
  endfacet
  facet normal 0 -1 -0
    outer loop
      vertex 39.4 70.1211 0.599999
      vertex 39.376 70.1211 0
      vertex 39.4 70.1211 0
    endloop
  endfacet
  facet normal 0 -1 0
    outer loop
      vertex 39.376 70.1211 10
      vertex 40 70.1211 0.599999
      vertex 41.1631 70.1211 10
    endloop
  endfacet
  facet normal 0 -1 0
    outer loop
      vertex 41.1631 70.1211 0
      vertex 40 70.1211 0.599999
      vertex 40 70.1211 0
    endloop
  endfacet
  facet normal 0 -1 0
    outer loop
      vertex 40 70.1211 0.599999
      vertex 41.1631 70.1211 0
      vertex 41.1631 70.1211 10
    endloop
  endfacet
  facet normal 0.0619635 -0.998078 0
    outer loop
      vertex 41.1631 70.1211 0
      vertex 42.626 70.2119 10
      vertex 41.1631 70.1211 10
    endloop
  endfacet
  facet normal 0.0619635 -0.998078 0
    outer loop
      vertex 42.626 70.2119 10
      vertex 41.1631 70.1211 0
      vertex 42.626 70.2119 0
    endloop
  endfacet
  facet normal 0.000346021 1 -0
    outer loop
      vertex 21.5605 61.6533 0
      vertex 18.7383 61.6543 10
      vertex 21.5605 61.6533 10
    endloop
  endfacet
  facet normal 0.000346021 1 0
    outer loop
      vertex 18.7383 61.6543 10
      vertex 21.5605 61.6533 0
      vertex 18.7383 61.6543 0
    endloop
  endfacet
  facet normal 1 -0 0
    outer loop
      vertex 18.7383 61.6543 10
      vertex 18.7383 76.1182 0
      vertex 18.7383 76.1182 10
    endloop
  endfacet
  facet normal 1 0 0
    outer loop
      vertex 18.7383 76.1182 0
      vertex 18.7383 61.6543 10
      vertex 18.7383 61.6543 0
    endloop
  endfacet
  facet normal 0 -1 0
    outer loop
      vertex 18.7383 76.1182 0
      vertex 20.7666 76.1182 10
      vertex 18.7383 76.1182 10
    endloop
  endfacet
  facet normal 0 -1 -0
    outer loop
      vertex 20.7666 76.1182 10
      vertex 18.7383 76.1182 0
      vertex 20.7666 76.1182 0
    endloop
  endfacet
  facet normal -0.0691769 -0.997604 0
    outer loop
      vertex 20.7666 76.1182 0
      vertex 22.3721 76.0068 10
      vertex 20.7666 76.1182 10
    endloop
  endfacet
  facet normal -0.0691769 -0.997604 -0
    outer loop
      vertex 22.3721 76.0068 10
      vertex 20.7666 76.1182 0
      vertex 22.3721 76.0068 0
    endloop
  endfacet
  facet normal -0.447214 -0.894427 0
    outer loop
      vertex 22.3721 76.0068 0
      vertex 22.7002 75.8428 10
      vertex 22.3721 76.0068 10
    endloop
  endfacet
  facet normal -0.447214 -0.894427 -0
    outer loop
      vertex 22.7002 75.8428 10
      vertex 22.3721 76.0068 0
      vertex 22.7002 75.8428 0
    endloop
  endfacet
  facet normal -0.938646 -0.344881 0
    outer loop
      vertex 22.7949 75.585 0
      vertex 22.7002 75.8428 10
      vertex 22.7002 75.8428 0
    endloop
  endfacet
  facet normal -0.938646 -0.344881 0
    outer loop
      vertex 22.7002 75.8428 10
      vertex 22.7949 75.585 0
      vertex 22.7949 75.585 10
    endloop
  endfacet
  facet normal -0.947573 -0.319539 0
    outer loop
      vertex 24.4053 70.8096 0
      vertex 22.7949 75.585 10
      vertex 22.7949 75.585 0
    endloop
  endfacet
  facet normal -0.947573 -0.319539 0
    outer loop
      vertex 22.7949 75.585 10
      vertex 24.4053 70.8096 0
      vertex 24.4053 70.8096 10
    endloop
  endfacet
  facet normal -0.926492 -0.376314 0
    outer loop
      vertex 26.2949 66.1572 0
      vertex 24.4053 70.8096 10
      vertex 24.4053 70.8096 0
    endloop
  endfacet
  facet normal -0.926492 -0.376314 0
    outer loop
      vertex 24.4053 70.8096 10
      vertex 26.2949 66.1572 0
      vertex 26.2949 66.1572 10
    endloop
  endfacet
  facet normal 0.878119 -0.478442 0
    outer loop
      vertex 26.2949 66.1572 10
      vertex 27.0127 67.4746 0
      vertex 27.0127 67.4746 10
    endloop
  endfacet
  facet normal 0.878119 -0.478442 0
    outer loop
      vertex 27.0127 67.4746 0
      vertex 26.2949 66.1572 10
      vertex 26.2949 66.1572 0
    endloop
  endfacet
  facet normal 0.929289 -0.369353 0
    outer loop
      vertex 27.0127 67.4746 10
      vertex 28.417 71.0078 0
      vertex 28.417 71.0078 10
    endloop
  endfacet
  facet normal 0.929289 -0.369353 0
    outer loop
      vertex 28.417 71.0078 0
      vertex 27.0127 67.4746 10
      vertex 27.0127 67.4746 0
    endloop
  endfacet
  facet normal 0.937757 -0.347291 0
    outer loop
      vertex 28.417 71.0078 10
      vertex 30.3096 76.1182 0
      vertex 30.3096 76.1182 10
    endloop
  endfacet
  facet normal 0.937757 -0.347291 0
    outer loop
      vertex 30.3096 76.1182 0
      vertex 28.417 71.0078 10
      vertex 28.417 71.0078 0
    endloop
  endfacet
  facet normal 0 -1 0
    outer loop
      vertex 30.3096 76.1182 0
      vertex 34.084 76.1182 10
      vertex 30.3096 76.1182 10
    endloop
  endfacet
  facet normal 0 -1 -0
    outer loop
      vertex 34.084 76.1182 10
      vertex 30.3096 76.1182 0
      vertex 34.084 76.1182 0
    endloop
  endfacet
  facet normal -1 0 0
    outer loop
      vertex 34.084 61.6543 0
      vertex 34.084 76.1182 10
      vertex 34.084 76.1182 0
    endloop
  endfacet
  facet normal -1 -0 0
    outer loop
      vertex 34.084 76.1182 10
      vertex 34.084 61.6543 0
      vertex 34.084 61.6543 10
    endloop
  endfacet
  facet normal 0 1 -0
    outer loop
      vertex 34.084 61.6543 0
      vertex 31.2617 61.6543 10
      vertex 34.084 61.6543 10
    endloop
  endfacet
  facet normal 0 1 0
    outer loop
      vertex 31.2617 61.6543 10
      vertex 34.084 61.6543 0
      vertex 31.2617 61.6543 0
    endloop
  endfacet
  facet normal 0.999998 0.00221461 0
    outer loop
      vertex 31.2617 61.6543 10
      vertex 31.2402 71.3555 0
      vertex 31.2402 71.3555 10
    endloop
  endfacet
  facet normal 0.999998 0.00221461 0
    outer loop
      vertex 31.2402 71.3555 0
      vertex 31.2617 61.6543 10
      vertex 31.2617 61.6543 0
    endloop
  endfacet
  facet normal -0.932424 0.361366 0
    outer loop
      vertex 29.8047 67.6514 0
      vertex 31.2402 71.3555 10
      vertex 31.2402 71.3555 0
    endloop
  endfacet
  facet normal -0.932424 0.361366 0
    outer loop
      vertex 31.2402 71.3555 10
      vertex 29.8047 67.6514 0
      vertex 29.8047 67.6514 10
    endloop
  endfacet
  facet normal -0.936739 0.350028 0
    outer loop
      vertex 27.9922 62.8008 0
      vertex 29.8047 67.6514 10
      vertex 29.8047 67.6514 0
    endloop
  endfacet
  facet normal -0.936739 0.350028 0
    outer loop
      vertex 29.8047 67.6514 10
      vertex 27.9922 62.8008 0
      vertex 27.9922 62.8008 10
    endloop
  endfacet
  facet normal -0.929711 0.368291 0
    outer loop
      vertex 27.752 62.1943 0
      vertex 27.9922 62.8008 10
      vertex 27.9922 62.8008 0
    endloop
  endfacet
  facet normal -0.929711 0.368291 0
    outer loop
      vertex 27.9922 62.8008 10
      vertex 27.752 62.1943 0
      vertex 27.752 62.1943 10
    endloop
  endfacet
  facet normal -0.769108 0.639118 0
    outer loop
      vertex 27.4639 61.8477 0
      vertex 27.752 62.1943 10
      vertex 27.752 62.1943 0
    endloop
  endfacet
  facet normal -0.769108 0.639118 0
    outer loop
      vertex 27.752 62.1943 10
      vertex 27.4639 61.8477 0
      vertex 27.4639 61.8477 10
    endloop
  endfacet
  facet normal -0.337531 0.941314 0
    outer loop
      vertex 27.4639 61.8477 0
      vertex 27.0254 61.6904 10
      vertex 27.4639 61.8477 10
    endloop
  endfacet
  facet normal -0.337531 0.941314 0
    outer loop
      vertex 27.0254 61.6904 10
      vertex 27.4639 61.8477 0
      vertex 27.0254 61.6904 0
    endloop
  endfacet
  facet normal -0.0524101 0.998626 0
    outer loop
      vertex 27.0254 61.6904 0
      vertex 26.3369 61.6543 10
      vertex 27.0254 61.6904 10
    endloop
  endfacet
  facet normal -0.0524101 0.998626 0
    outer loop
      vertex 26.3369 61.6543 10
      vertex 27.0254 61.6904 0
      vertex 26.3369 61.6543 0
    endloop
  endfacet
  facet normal 0.0497309 0.998763 -0
    outer loop
      vertex 26.3369 61.6543 0
      vertex 25.6309 61.6895 10
      vertex 26.3369 61.6543 10
    endloop
  endfacet
  facet normal 0.0497309 0.998763 0
    outer loop
      vertex 25.6309 61.6895 10
      vertex 26.3369 61.6543 0
      vertex 25.6309 61.6895 0
    endloop
  endfacet
  facet normal 0.366689 0.930343 -0
    outer loop
      vertex 25.6309 61.6895 0
      vertex 25.1973 61.8604 10
      vertex 25.6309 61.6895 10
    endloop
  endfacet
  facet normal 0.366689 0.930343 0
    outer loop
      vertex 25.1973 61.8604 10
      vertex 25.6309 61.6895 0
      vertex 25.1973 61.8604 0
    endloop
  endfacet
  facet normal 0.817246 0.576289 0
    outer loop
      vertex 25.1973 61.8604 10
      vertex 24.917 62.2578 0
      vertex 24.917 62.2578 10
    endloop
  endfacet
  facet normal 0.817246 0.576289 0
    outer loop
      vertex 24.917 62.2578 0
      vertex 25.1973 61.8604 10
      vertex 25.1973 61.8604 0
    endloop
  endfacet
  facet normal 0.947258 0.320472 0
    outer loop
      vertex 24.917 62.2578 10
      vertex 24.6738 62.9766 0
      vertex 24.6738 62.9766 10
    endloop
  endfacet
  facet normal 0.947258 0.320472 0
    outer loop
      vertex 24.6738 62.9766 0
      vertex 24.917 62.2578 10
      vertex 24.917 62.2578 0
    endloop
  endfacet
  facet normal 0.93903 0.343837 0
    outer loop
      vertex 24.6738 62.9766 10
      vertex 22.833 68.0039 0
      vertex 22.833 68.0039 10
    endloop
  endfacet
  facet normal 0.93903 0.343837 0
    outer loop
      vertex 22.833 68.0039 0
      vertex 24.6738 62.9766 10
      vertex 24.6738 62.9766 0
    endloop
  endfacet
  facet normal 0.930593 0.366055 0
    outer loop
      vertex 22.833 68.0039 10
      vertex 21.376 71.708 0
      vertex 21.376 71.708 10
    endloop
  endfacet
  facet normal 0.930593 0.366055 0
    outer loop
      vertex 21.376 71.708 0
      vertex 22.833 68.0039 10
      vertex 22.833 68.0039 0
    endloop
  endfacet
  facet normal -0.999832 -0.0183536 0
    outer loop
      vertex 21.5605 61.6533 0
      vertex 21.376 71.708 10
      vertex 21.376 71.708 0
    endloop
  endfacet
  facet normal -0.999832 -0.0183536 0
    outer loop
      vertex 21.376 71.708 10
      vertex 21.5605 61.6533 0
      vertex 21.5605 61.6533 10
    endloop
  endfacet
  facet normal 0.72076 0.693184 0
    outer loop
      vertex 60 31.0049 10
      vertex 49.4932 41.9297 0
      vertex 49.4932 41.9297 10
    endloop
  endfacet
  facet normal 0.72076 0.693184 0
    outer loop
      vertex 49.4932 41.9297 0
      vertex 60 31.0049 10
      vertex 60 31.0049 0
    endloop
  endfacet
  facet normal 0.71614 -0.697956 0
    outer loop
      vertex 49.4932 41.9297 10
      vertex 50.7676 43.2373 0
      vertex 50.7676 43.2373 10
    endloop
  endfacet
  facet normal 0.71614 -0.697956 0
    outer loop
      vertex 50.7676 43.2373 0
      vertex 49.4932 41.9297 10
      vertex 49.4932 41.9297 0
    endloop
  endfacet
  facet normal 0.769353 -0.638824 0
    outer loop
      vertex 50.7676 43.2373 10
      vertex 51.9863 44.7051 0
      vertex 51.9863 44.7051 10
    endloop
  endfacet
  facet normal 0.769353 -0.638824 0
    outer loop
      vertex 51.9863 44.7051 0
      vertex 50.7676 43.2373 10
      vertex 50.7676 43.2373 0
    endloop
  endfacet
  facet normal 0.911587 -0.411108 0
    outer loop
      vertex 51.9863 44.7051 10
      vertex 52.7051 46.2988 0
      vertex 52.7051 46.2988 10
    endloop
  endfacet
  facet normal 0.911587 -0.411108 0
    outer loop
      vertex 52.7051 46.2988 0
      vertex 51.9863 44.7051 10
      vertex 51.9863 44.7051 0
    endloop
  endfacet
  facet normal 0.987602 -0.156976 0
    outer loop
      vertex 52.7051 46.2988 10
      vertex 53.0469 48.4492 0
      vertex 53.0469 48.4492 10
    endloop
  endfacet
  facet normal 0.987602 -0.156976 0
    outer loop
      vertex 53.0469 48.4492 0
      vertex 52.7051 46.2988 10
      vertex 52.7051 46.2988 0
    endloop
  endfacet
  facet normal 0.999617 -0.0276721 0
    outer loop
      vertex 53.0469 48.4492 10
      vertex 53.1338 51.5889 0
      vertex 53.1338 51.5889 10
    endloop
  endfacet
  facet normal 0.999617 -0.0276721 0
    outer loop
      vertex 53.1338 51.5889 0
      vertex 53.0469 48.4492 10
      vertex 53.0469 48.4492 0
    endloop
  endfacet
  facet normal 0.999599 -0.0283092 0
    outer loop
      vertex 53.1338 51.5889 10
      vertex 53.2314 55.0371 0
      vertex 53.2314 55.0371 10
    endloop
  endfacet
  facet normal 0.999599 -0.0283092 0
    outer loop
      vertex 53.2314 55.0371 0
      vertex 53.1338 51.5889 10
      vertex 53.1338 51.5889 0
    endloop
  endfacet
  facet normal 0.983932 -0.178546 0
    outer loop
      vertex 53.2314 55.0371 10
      vertex 53.3672 55.7852 0
      vertex 53.3672 55.7852 10
    endloop
  endfacet
  facet normal 0.983932 -0.178546 0
    outer loop
      vertex 53.3672 55.7852 0
      vertex 53.2314 55.0371 10
      vertex 53.2314 55.0371 0
    endloop
  endfacet
  facet normal 0.740938 -0.671574 0
    outer loop
      vertex 53.3672 55.7852 10
      vertex 53.5752 56.0146 0
      vertex 53.5752 56.0146 10
    endloop
  endfacet
  facet normal 0.740938 -0.671574 0
    outer loop
      vertex 53.5752 56.0146 0
      vertex 53.3672 55.7852 10
      vertex 53.3672 55.7852 0
    endloop
  endfacet
  facet normal -0.193715 -0.981058 0
    outer loop
      vertex 53.5752 56.0146 0
      vertex 60 54.746 10
      vertex 53.5752 56.0146 10
    endloop
  endfacet
  facet normal -0.193715 -0.981058 -0
    outer loop
      vertex 60 54.746 10
      vertex 53.5752 56.0146 0
      vertex 60 54.746 0
    endloop
  endfacet
  facet normal 1 -0 0
    outer loop
      vertex 60 24.9575 10
      vertex 60 31.0049 0
      vertex 60 31.0049 10
    endloop
  endfacet
  facet normal 1 0 0
    outer loop
      vertex 60 31.0049 0
      vertex 60 24.9575 10
      vertex 60 24.9575 0
    endloop
  endfacet
  facet normal 1 -0 0
    outer loop
      vertex 60 54.746 10
      vertex 60 59.9335 0
      vertex 60 59.9335 10
    endloop
  endfacet
  facet normal 1 0 0
    outer loop
      vertex 60 59.9335 0
      vertex 60 54.746 10
      vertex 60 54.746 0
    endloop
  endfacet
  facet normal 1 -0 0
    outer loop
      vertex 60 74.6245 10
      vertex 60 79.934 0
      vertex 60 79.934 10
    endloop
  endfacet
  facet normal 1 0 0
    outer loop
      vertex 60 79.934 0
      vertex 60 74.6245 10
      vertex 60 74.6245 0
    endloop
  endfacet
  facet normal 1 -0 0
    outer loop
      vertex 60 101.823 10
      vertex 60 108.708 0
      vertex 60 108.708 10
    endloop
  endfacet
  facet normal 1 0 0
    outer loop
      vertex 60 108.708 0
      vertex 60 101.823 10
      vertex 60 101.823 0
    endloop
  endfacet
  facet normal -1 0 0
    outer loop
      vertex 39.4 73.6484 0
      vertex 39.4 76.0943 0.599999
      vertex 39.4 76.0943 0
    endloop
  endfacet
  facet normal -1 -0 0
    outer loop
      vertex 39.4 76.0943 0.599999
      vertex 39.4 73.6484 0
      vertex 39.4 73.6484 0.599999
    endloop
  endfacet
  facet normal -1 0 0
    outer loop
      vertex 39.4 67.6514 0
      vertex 39.4 70.1211 0.599999
      vertex 39.4 70.1211 0
    endloop
  endfacet
  facet normal -1 -0 0
    outer loop
      vertex 39.4 70.1211 0.599999
      vertex 39.4 67.6514 0
      vertex 39.4 67.6514 0.599999
    endloop
  endfacet
  facet normal 0 0 1
    outer loop
      vertex 39.4 73.6484 0.599999
      vertex 40 76.0791 0.599999
      vertex 39.4 76.0943 0.599999
    endloop
  endfacet
  facet normal 0 0 1
    outer loop
      vertex 40 76.0791 0.599999
      vertex 39.4 73.6484 0.599999
      vertex 40 73.6484 0.599999
    endloop
  endfacet
  facet normal -0 0 1
    outer loop
      vertex 39.4 70.1211 0.599999
      vertex 40 67.6514 0.599999
      vertex 40 70.1211 0.599999
    endloop
  endfacet
  facet normal 0 0 1
    outer loop
      vertex 40 67.6514 0.599999
      vertex 39.4 70.1211 0.599999
      vertex 39.4 67.6514 0.599999
    endloop
  endfacet
  facet normal 1 -0 0
    outer loop
      vertex 40 73.6484 0.599999
      vertex 40 76.0791 0
      vertex 40 76.0791 0.599999
    endloop
  endfacet
  facet normal 1 0 0
    outer loop
      vertex 40 76.0791 0
      vertex 40 73.6484 0.599999
      vertex 40 73.6484 0
    endloop
  endfacet
  facet normal 1 -0 0
    outer loop
      vertex 40 67.6514 0.599999
      vertex 40 70.1211 0
      vertex 40 70.1211 0.599999
    endloop
  endfacet
  facet normal 1 0 0
    outer loop
      vertex 40 70.1211 0
      vertex 40 67.6514 0.599999
      vertex 40 67.6514 0
    endloop
  endfacet
endsolid OpenSCAD_Model
