999
Inkscape export via OpenSCAD DXF Export
  0
SECTION
  2
HEADER
  9
$ACADVER
  1
AC1014
  9
$HANDSEED
  5
FFFF
  9
$MEASUREMENT
 70
     1
  0
ENDSEC
  0
SECTION
  2
TABLES
  0
TABLE
  2
VPORT
  5
8
330
0
100
AcDbSymbolTable
 70
     4
  0
VPORT
  5
2E
330
8
100
AcDbSymbolTableRecord
100
AcDbViewportTableRecord
  2
*ACTIVE
 70
     0
 10
0.0
 20
0.0
 11
1.0
 21
1.0
 12
210.0
 22
148.5
 13
0.0
 23
0.0
 14
10.0
 24
10.0
 15
10.0
 25
10.0
 16
0.0
 26
0.0
 36
1.0
 17
0.0
 27
0.0
 37
0.0
 40
341.0
 41
1.24
 42
50.0
 43
0.0
 44
0.0
 50
0.0
 51
0.0
 71
     0
 72
   100
 73
     1
 74
     3
 75
     0
 76
     0
 77
     0
 78
     0
  0
ENDTAB
  0
TABLE
  2
LTYPE
  5
5
330
0
100
AcDbSymbolTable
 70
     1
  0
LTYPE
  5
14
330
5
100
AcDbSymbolTableRecord
100
AcDbLinetypeTableRecord
  2
BYBLOCK
 70
     0
  3

 72
    65
 73
     0
 40
0.0
  0
LTYPE
  5
15
330
5
100
AcDbSymbolTableRecord
100
AcDbLinetypeTableRecord
  2
BYLAYER
 70
     0
  3

 72
    65
 73
     0
 40
0.0
  0
LTYPE
  5
16
330
5
100
AcDbSymbolTableRecord
100
AcDbLinetypeTableRecord
  2
CONTINUOUS
 70
     0
  3
Solid line
 72
    65
 73
     0
 40
0.0
  0
ENDTAB
  0
TABLE
0
TABLE
2
LAYER
5
2
330
0
100
AcDbSymbolTable
70
1
0
LAYER
5
10
330
2
100
AcDbSymbolTableRecord
100
AcDbLayerTableRecord
2
Layer_1
70
0
62
7
6
CONTINUOUS
0
ENDTAB
0
ENDSEC
  0
ENDTAB
  0
TABLE
  2
STYLE
  5
3
330
0
100
AcDbSymbolTable
 70
     1
  0
STYLE
  5
11
330
3
100
AcDbSymbolTableRecord
100
AcDbTextStyleTableRecord
  2
STANDARD
 70
     0
 40
0.0
 41
1.0
 50
0.0
 71
     0
 42
2.5
  3
txt
  4

  0
ENDTAB
  0
TABLE
  2
VIEW
  5
6
330
0
100
AcDbSymbolTable
 70
     0
  0
ENDTAB
  0
TABLE
  2
UCS
  5
7
330
0
100
AcDbSymbolTable
 70
     0
  0
ENDTAB
  0
TABLE
  2
APPID
  5
9
330
0
100
AcDbSymbolTable
 70
     2
  0
APPID
  5
12
330
9
100
AcDbSymbolTableRecord
100
AcDbRegAppTableRecord
  2
ACAD
 70
     0
  0
ENDTAB
  0
TABLE
  2
DIMSTYLE
  5
A
330
0
100
AcDbSymbolTable
 70
     1
  0
DIMSTYLE
105
27
330
A
100
AcDbSymbolTableRecord
100
AcDbDimStyleTableRecord
  2
ISO-25
 70
     0
  3

  4

  5

  6

  7

 40
1.0
 41
2.5
 42
0.625
 43
3.75
 44
1.25
 45
0.0
 46
0.0
 47
0.0
 48
0.0
140
2.5
141
2.5
142
0.0
143
0.03937007874016
144
1.0
145
0.0
146
1.0
147
0.625
 71
     0
 72
     0
 73
     0
 74
     0
 75
     0
 76
     0
 77
     1
 78
     8
170
     0
171
     3
172
     1
173
     0
174
     0
175
     0
176
     0
177
     0
178
     0
270
     2
271
     2
272
     2
273
     2
274
     3
340
11
275
     0
280
     0
281
     0
282
     0
283
     0
284
     8
285
     0
286
     0
287
     3
288
     0
  0
ENDTAB
  0
TABLE
  2
BLOCK_RECORD
  5
1
330
0
100
AcDbSymbolTable
 70
     1
  0
BLOCK_RECORD
  5
1F
330
1
100
AcDbSymbolTableRecord
100
AcDbBlockTableRecord
  2
*MODEL_SPACE
  0
BLOCK_RECORD
  5
1B
330
1
100
AcDbSymbolTableRecord
100
AcDbBlockTableRecord
  2
*PAPER_SPACE
  0
ENDTAB
  0
ENDSEC
  0
SECTION
  2
BLOCKS
  0
BLOCK
  5
20
330
1F
100
AcDbEntity
  8
0
100
AcDbBlockBegin
  2
*MODEL_SPACE
 70
     0
 10
0.0
 20
0.0
 30
0.0
  3
*MODEL_SPACE
  1

  0
ENDBLK
  5
21
330
1F
100
AcDbEntity
  8
0
100
AcDbBlockEnd
  0
BLOCK
  5
1C
330
1B
100
AcDbEntity
 67
     1
  8
0
100
AcDbBlockBegin
  2
*PAPER_SPACE
  1

  0
ENDBLK
  5
1D
330
1B
100
AcDbEntity
 67
     1
  8
0
100
AcDbBlockEnd
  0
ENDSEC
  0
SECTION
  2
ENTITIES
0
DIMENSION
5
83
100
AcDbEntity
62
256
370
-1
6
ByLayer
1
total_width
3
Standard
70
0
71
5
72
1
41
1.0
100
AcDbAlignedDimension
13
0.282104
23
0.000000
33
0.0
14
131.216846
24
0.000000
34
0.0
50
0.000000
100
AcDbRotatedDimension
0
DIMENSION
5
83
100
AcDbEntity
62
256
370
-1
6
ByLayer
1
total_minx
3
Standard
70
0
71
5
72
1
41
1.0
100
AcDbAlignedDimension
13
0.282104
23
0.000000
33
0.0
14
0.000000
24
0.000000
34
0.0
50
0.000000
100
AcDbRotatedDimension
0
DIMENSION
5
83
100
AcDbEntity
62
256
370
-1
6
ByLayer
1
total_maxx
3
Standard
70
0
71
5
72
1
41
1.0
100
AcDbAlignedDimension
13
0.000000
23
0.000000
33
0.0
14
131.216846
24
0.000000
34
0.0
50
0.000000
100
AcDbRotatedDimension
0
DIMENSION
5
83
100
AcDbEntity
62
256
370
-1
6
ByLayer
1
total_height
3
Standard
70
0
71
5
72
1
41
1.0
100
AcDbAlignedDimension
13
0.000000
23
1.304569
33
0.0
14
0.000000
24
141.851238
34
0.0
50
90.000000
100
AcDbRotatedDimension
0
DIMENSION
5
83
100
AcDbEntity
62
256
370
-1
6
ByLayer
1
total_miny
3
Standard
70
0
71
5
72
1
41
1.0
100
AcDbAlignedDimension
13
1.304569
23
0.000000
33
0.0
14
0.000000
24
0.000000
34
0.0
50
0.000000
100
AcDbRotatedDimension
0
DIMENSION
5
83
100
AcDbEntity
62
256
370
-1
6
ByLayer
1
total_maxy
3
Standard
70
0
71
5
72
1
41
1.0
100
AcDbAlignedDimension
13
0.000000
23
0.000000
33
0.0
14
141.851238
24
0.000000
34
0.0
50
0.000000
100
AcDbRotatedDimension
0
DIMENSION
8
Layer_1
5
83
100
AcDbEntity
62
256
370
-1
6
ByLayer
1
Layer_1_width
3
Standard
70
0
71
5
72
1
41
1.0
100
AcDbAlignedDimension
13
0.282104
23
0.000000
33
0.0
14
131.216846
24
0.000000
34
0.0
50
0.000000
100
AcDbRotatedDimension
0
DIMENSION
8
Layer_1
5
83
100
AcDbEntity
62
256
370
-1
6
ByLayer
1
Layer_1_minx
3
Standard
70
0
71
5
72
1
41
1.0
100
AcDbAlignedDimension
13
0.282104
23
0.000000
33
0.0
14
0.000000
24
0.000000
34
0.0
50
0.000000
100
AcDbRotatedDimension
0
DIMENSION
8
Layer_1
5
83
100
AcDbEntity
62
256
370
-1
6
ByLayer
1
Layer_1_maxx
3
Standard
70
0
71
5
72
1
41
1.0
100
AcDbAlignedDimension
13
0.000000
23
0.000000
33
0.0
14
131.216846
24
0.000000
34
0.0
50
0.000000
100
AcDbRotatedDimension
0
DIMENSION
8
Layer_1
5
83
100
AcDbEntity
62
256
370
-1
6
ByLayer
1
Layer_1_height
3
Standard
70
0
71
5
72
1
41
1.0
100
AcDbAlignedDimension
13
0.000000
23
1.304569
33
0.0
14
0.000000
24
141.851238
34
0.0
50
90.000000
100
AcDbRotatedDimension
0
DIMENSION
8
Layer_1
5
83
100
AcDbEntity
62
256
370
-1
6
ByLayer
1
Layer_1_miny
3
Standard
70
0
71
5
72
1
41
1.0
100
AcDbAlignedDimension
13
1.304569
23
0.000000
33
0.0
14
0.000000
24
0.000000
34
0.0
50
0.000000
100
AcDbRotatedDimension
0
DIMENSION
8
Layer_1
5
83
100
AcDbEntity
62
256
370
-1
6
ByLayer
1
Layer_1_maxy
3
Standard
70
0
71
5
72
1
41
1.0
100
AcDbAlignedDimension
13
0.000000
23
0.000000
33
0.0
14
141.851238
24
0.000000
34
0.0
50
0.000000
100
AcDbRotatedDimension
62
0
0
LWPOLYLINE
100
AcDbPolyline
8
Layer_1
90
103
70
0
10
64.805933
20
2.159999
30
0.0
10
64.211951
20
3.072458
30
0.0
10
63.794643
20
4.064999
30
0.0
10
63.584141
20
7.266239
30
0.0
10
63.501575
20
13.866193
30
0.0
10
63.499881
20
22.617817
30
0.0
10
53.541247
20
33.057304
30
0.0
10
43.582610
20
43.496792
30
0.0
10
24.684024
20
43.637903
30
0.0
10
5.785437
20
43.779014
30
0.0
10
3.950993
20
44.784648
30
0.0
10
2.328265
20
45.870828
30
0.0
10
1.199326
20
47.144875
30
0.0
10
0.282104
20
48.499471
30
0.0
10
0.289100
20
68.858130
30
0.0
10
0.296096
20
89.216792
30
0.0
10
1.286743
20
90.567163
30
0.0
10
2.435473
20
91.808141
30
0.0
10
3.806190
20
92.895496
30
0.0
10
5.334989
20
93.873458
30
0.0
10
16.284657
20
93.913796
30
0.0
10
36.864352
20
94.125463
30
0.0
10
46.494375
20
94.296792
30
0.0
10
54.994325
20
104.174569
30
0.0
10
63.494274
20
114.052349
30
0.0
10
63.498648
20
125.905682
30
0.0
10
63.580567
20
134.843939
30
0.0
10
63.794586
20
138.808824
30
0.0
10
64.276518
20
139.842915
30
0.0
10
65.025781
20
140.854935
30
0.0
10
65.965417
20
141.851238
30
0.0
10
76.233206
20
141.844505
30
0.0
10
83.803727
20
141.765748
30
0.0
10
87.586603
20
141.585851
30
0.0
10
88.561558
20
141.228401
30
0.0
10
89.353130
20
140.656423
30
0.0
10
89.950484
20
139.880433
30
0.0
10
90.342785
20
138.910945
30
0.0
10
90.617032
20
135.365696
30
0.0
10
90.843600
20
128.393208
30
0.0
10
91.167754
20
118.899271
30
0.0
10
100.555637
20
112.938248
30
0.0
10
101.910281
20
112.147756
30
0.0
10
103.786686
20
113.100052
30
0.0
10
105.663094
20
114.052349
30
0.0
10
115.978711
20
114.042697
30
0.0
10
124.161930
20
113.953974
30
0.0
10
127.473168
20
113.684587
30
0.0
10
128.426946
20
113.248532
30
0.0
10
129.293459
20
112.534815
30
0.0
10
130.062995
20
111.553501
30
0.0
10
130.725836
20
110.314658
30
0.0
10
131.016562
20
109.381543
30
0.0
10
131.165858
20
107.649514
30
0.0
10
131.175088
20
98.128808
30
0.0
10
131.097109
20
90.983946
30
0.0
10
130.830449
20
87.323740
30
0.0
10
130.544829
20
86.367227
30
0.0
10
130.114198
20
85.762090
30
0.0
10
129.505943
20
85.335069
30
0.0
10
128.687449
20
84.912900
30
0.0
10
127.944932
20
84.588679
30
0.0
10
127.150264
20
84.395027
30
0.0
10
124.611748
20
84.275447
30
0.0
10
120.297104
20
84.095026
30
0.0
10
118.815437
20
83.917056
30
0.0
10
118.815437
20
72.526367
30
0.0
10
118.815437
20
61.135678
30
0.0
10
123.271193
20
61.135678
30
0.0
10
127.220791
20
61.035128
30
0.0
10
128.180093
20
60.843965
30
0.0
10
128.986193
20
60.500678
30
0.0
10
129.729604
20
60.103755
30
0.0
10
130.287679
20
59.663564
30
0.0
10
130.686718
20
59.027877
30
0.0
10
130.953020
20
58.044465
30
0.0
10
131.192611
20
54.425555
30
0.0
10
131.216846
20
47.589011
30
0.0
10
131.124984
20
39.502377
30
0.0
10
130.864508
20
36.304923
30
0.0
10
130.312337
20
35.384852
30
0.0
10
129.257659
20
34.611589
30
0.0
10
127.987659
20
33.901233
30
0.0
10
115.257128
20
33.819908
30
0.0
10
102.526598
20
33.738586
30
0.0
10
96.880305
20
29.091340
30
0.0
10
93.139025
20
26.008137
30
0.0
10
92.060884
20
24.920284
30
0.0
10
91.386606
20
23.858615
30
0.0
10
91.022838
20
22.615896
30
0.0
10
90.876228
20
20.984888
30
0.0
10
90.861069
20
15.729066
30
0.0
10
90.756885
20
9.112969
30
0.0
10
90.422003
20
4.947742
30
0.0
10
90.139825
20
3.599903
30
0.0
10
89.766100
20
2.643620
30
0.0
10
89.289538
20
2.005171
30
0.0
10
88.698849
20
1.610837
30
0.0
10
85.377789
20
1.381261
30
0.0
10
76.776134
20
1.304569
30
0.0
10
65.525613
20
1.304569
30
0.0
10
64.805814
20
2.159999
30
0.0
10
64.805933
20
2.159999
30
0.0
62
0
0
LWPOLYLINE
100
AcDbPolyline
8
Layer_1
90
26
70
0
10
63.760646
20
29.641907
30
0.0
10
65.135760
20
30.541781
30
0.0
10
65.939074
20
30.805901
30
0.0
10
67.299183
20
30.981663
30
0.0
10
73.366596
20
31.202777
30
0.0
10
80.552081
20
31.361236
30
0.0
10
84.140136
20
38.840125
30
0.0
10
88.569374
20
48.199477
30
0.0
10
89.410560
20
50.079938
30
0.0
10
87.391392
20
50.537127
30
0.0
10
69.347458
20
54.215759
30
0.0
10
54.008717
20
57.184569
30
0.0
10
53.529686
20
56.985593
30
0.0
10
53.239517
20
56.243720
30
0.0
10
53.096213
20
54.741535
30
0.0
10
53.057778
20
52.261626
30
0.0
10
52.962430
20
49.657945
30
0.0
10
52.624876
20
47.725220
30
0.0
10
51.967851
20
46.194379
30
0.0
10
50.914088
20
44.796349
30
0.0
10
50.029853
20
43.706006
30
0.0
10
49.717435
20
43.101607
30
0.0
10
56.428121
20
36.021275
30
0.0
10
63.211687
20
29.244569
30
0.0
10
63.760646
20
29.641907
30
0.0
10
63.760646
20
29.641907
30
0.0
62
0
0
LWPOLYLINE
100
AcDbPolyline
8
Layer_1
90
19
70
0
10
95.743889
20
34.071221
30
0.0
10
101.035556
20
38.328264
30
0.0
10
101.035556
20
43.064738
30
0.0
10
101.035556
20
47.801211
30
0.0
10
98.566111
20
48.259204
30
0.0
10
96.070227
20
48.741242
30
0.0
10
95.262742
20
48.681498
30
0.0
10
94.571196
20
48.246703
30
0.0
10
93.862317
20
47.305955
30
0.0
10
93.002830
20
45.728346
30
0.0
10
90.298945
20
40.138929
30
0.0
10
86.143047
20
31.375437
30
0.0
10
87.832051
20
30.841355
30
0.0
10
89.020515
20
30.415257
30
0.0
10
89.612594
20
30.079846
30
0.0
10
90.116101
20
29.811596
30
0.0
10
91.907914
20
31.063923
30
0.0
10
95.743889
20
34.071221
30
0.0
10
95.743889
20
34.071221
30
0.0
62
0
0
LWPOLYLINE
100
AcDbPolyline
8
Layer_1
90
19
70
0
10
101.123502
20
55.586097
30
0.0
10
101.337029
20
57.688536
30
0.0
10
101.607355
20
59.043319
30
0.0
10
102.046058
20
59.876984
30
0.0
10
102.692022
20
60.649615
30
0.0
10
103.504535
20
61.320907
30
0.0
10
104.442887
20
61.850555
30
0.0
10
105.225570
20
62.275877
30
0.0
10
105.551111
20
62.596700
30
0.0
10
104.526771
20
64.877168
30
0.0
10
103.502435
20
66.911234
30
0.0
10
100.276945
20
60.465137
30
0.0
10
97.185172
20
53.885324
30
0.0
10
98.689664
20
53.377484
30
0.0
10
100.499102
20
52.976472
30
0.0
10
100.733421
20
53.070324
30
0.0
10
100.897230
20
53.459791
30
0.0
10
101.123502
20
55.586097
30
0.0
10
101.123502
20
55.586097
30
0.0
62
0
0
LWPOLYLINE
100
AcDbPolyline
8
Layer_1
90
21
70
0
10
91.968131
20
55.722461
30
0.0
10
95.619227
20
62.695601
30
0.0
10
99.741098
20
71.124033
30
0.0
10
100.475446
20
72.786827
30
0.0
10
97.449163
20
79.026255
30
0.0
10
93.771006
20
86.434659
30
0.0
10
93.119132
20
87.603635
30
0.0
10
88.681233
20
86.066351
30
0.0
10
57.719417
20
75.144277
30
0.0
10
53.491054
20
73.620822
30
0.0
10
53.252853
20
72.528808
30
0.0
10
53.130468
20
70.553544
30
0.0
10
53.121429
20
67.290451
30
0.0
10
53.208053
20
64.189905
30
0.0
10
53.372656
20
62.702285
30
0.0
10
64.508072
20
60.303131
30
0.0
10
82.973333
20
56.515683
30
0.0
10
90.926895
20
54.952567
30
0.0
10
91.428559
20
55.168095
30
0.0
10
91.968131
20
55.722461
30
0.0
10
91.968131
20
55.722461
30
0.0
62
0
0
LWPOLYLINE
100
AcDbPolyline
8
Layer_1
90
16
70
0
10
113.100556
20
61.313562
30
0.0
10
113.735556
20
61.483734
30
0.0
10
113.735556
20
72.831940
30
0.0
10
113.735556
20
84.180144
30
0.0
10
112.883561
20
84.055100
30
0.0
10
112.130083
20
83.773857
30
0.0
10
111.514946
20
83.273276
30
0.0
10
108.748959
20
77.768995
30
0.0
10
106.397778
20
72.441342
30
0.0
10
107.159308
20
70.524682
30
0.0
10
108.868298
20
66.865664
30
0.0
10
110.661345
20
63.256265
30
0.0
10
111.675048
20
61.488458
30
0.0
10
112.268588
20
61.163734
30
0.0
10
113.100556
20
61.313562
30
0.0
10
113.100556
20
61.313562
30
0.0
62
0
0
LWPOLYLINE
100
AcDbPolyline
8
Layer_1
90
20
70
0
10
105.832362
20
83.479905
30
0.0
10
104.838387
20
83.998046
30
0.0
10
103.920175
20
84.415987
30
0.0
10
103.040279
20
85.021876
30
0.0
10
102.289412
20
85.741954
30
0.0
10
101.758290
20
86.502460
30
0.0
10
101.168022
20
88.656064
30
0.0
10
100.995798
20
89.714876
30
0.0
10
100.797498
20
90.225177
30
0.0
10
100.449922
20
90.324567
30
0.0
10
99.829874
20
90.150645
30
0.0
10
98.752631
20
89.700974
30
0.0
10
98.512110
20
89.384791
30
0.0
10
98.484873
20
88.904733
30
0.0
10
99.113901
20
87.144055
30
0.0
10
100.727013
20
83.801074
30
0.0
10
103.334278
20
78.499104
30
0.0
10
104.582835
20
80.894614
30
0.0
10
105.832362
20
83.479905
30
0.0
10
105.832362
20
83.479905
30
0.0
62
0
0
LWPOLYLINE
100
AcDbPolyline
8
Layer_1
90
23
70
0
10
66.081072
20
83.400319
30
0.0
10
85.155096
20
90.264701
30
0.0
10
90.527790
20
92.302731
30
0.0
10
90.419807
20
92.938141
30
0.0
10
89.649519
20
94.788440
30
0.0
10
85.397131
20
103.751236
30
0.0
10
81.643480
20
111.512347
30
0.0
10
74.476740
20
111.576505
30
0.0
10
67.310000
20
111.640662
30
0.0
10
64.628889
20
108.517131
30
0.0
10
57.642732
20
100.409640
30
0.0
10
52.322705
20
93.970946
30
0.0
10
51.307723
20
92.516212
30
0.0
10
51.890608
20
91.713169
30
0.0
10
52.443120
20
90.670749
30
0.0
10
52.799155
20
89.225580
30
0.0
10
52.991947
20
87.165389
30
0.0
10
53.054733
20
84.277903
30
0.0
10
53.169527
20
80.260176
30
0.0
10
53.302125
20
79.252297
30
0.0
10
53.484543
20
78.915681
30
0.0
10
66.081072
20
83.400319
30
0.0
10
66.081072
20
83.400319
30
0.0
62
0
0
LWPOLYLINE
100
AcDbPolyline
8
Layer_1
90
17
70
0
10
98.093347
20
94.831566
30
0.0
10
100.547907
20
95.710821
30
0.0
10
100.816673
20
95.962940
30
0.0
10
100.957220
20
96.686584
30
0.0
10
100.971240
20
101.024317
30
0.0
10
100.894444
20
106.134439
30
0.0
10
98.072222
20
108.192655
30
0.0
10
92.976401
20
111.812547
30
0.0
10
90.702802
20
113.374225
30
0.0
10
89.028411
20
112.493445
30
0.0
10
87.248910
20
111.507555
30
0.0
10
88.457356
20
108.685273
30
0.0
10
91.402346
20
102.732905
30
0.0
10
94.471083
20
96.829894
30
0.0
10
96.050775
20
94.155681
30
0.0
10
98.093347
20
94.831566
30
0.0
10
98.093347
20
94.831566
30
0.0
  0
ENDSEC
  0
SECTION
  2
OBJECTS
  0
DICTIONARY
  5
C
330
0
100
AcDbDictionary
  3
ACAD_GROUP
350
D
  3
ACAD_MLINESTYLE
350
17
  0
DICTIONARY
  5
D
330
C
100
AcDbDictionary
  0
DICTIONARY
  5
1A
330
C
100
AcDbDictionary
  0
DICTIONARY
  5
17
330
C
100
AcDbDictionary
  3
STANDARD
350
18
  0
DICTIONARY
  5
19
330
C
100
AcDbDictionary
  0
ENDSEC
  0
EOF
