solid OpenSCAD_Model
  facet normal -1 0 0
    outer loop
      vertex 0 0 0
      vertex 0 15 0.599999
      vertex 0 15 0
    endloop
  endfacet
  facet normal -1 -0 0
    outer loop
      vertex 0 15 0.599999
      vertex 0 0 0
      vertex 0 0 0.599999
    endloop
  endfacet
  facet normal -1 0 0
    outer loop
      vertex 0 0 1.8
      vertex 0 15 2.4
      vertex 0 15 1.8
    endloop
  endfacet
  facet normal -1 -0 0
    outer loop
      vertex 0 15 2.4
      vertex 0 0 1.8
      vertex 0 0 2.4
    endloop
  endfacet
  facet normal -0 0 1
    outer loop
      vertex 0 15 2.4
      vertex 152.25 0 2.4
      vertex 152.25 15 2.4
    endloop
  endfacet
  facet normal 0 0 1
    outer loop
      vertex 152.25 0 2.4
      vertex 0 15 2.4
      vertex 0 0 2.4
    endloop
  endfacet
  facet normal -0 0 1
    outer loop
      vertex 152.31 15 2.4
      vertex 152.4 14.9478 2.4
      vertex 152.4 15 2.4
    endloop
  endfacet
  facet normal -0 0 1
    outer loop
      vertex 152.25 15 2.4
      vertex 152.4 14.9478 2.4
      vertex 152.31 15 2.4
    endloop
  endfacet
  facet normal 0 0 1
    outer loop
      vertex 152.4 14.9478 2.4
      vertex 152.25 15 2.4
      vertex 152.4 0.0521814 2.4
    endloop
  endfacet
  facet normal 0 0 1
    outer loop
      vertex 152.4 0.0521814 2.4
      vertex 152.31 0 2.4
      vertex 152.4 0 2.4
    endloop
  endfacet
  facet normal 0 0 1
    outer loop
      vertex 152.25 15 2.4
      vertex 152.31 15 2.4
      vertex 152.25 15.0344 2.4
    endloop
  endfacet
  facet normal 0 0 1
    outer loop
      vertex 152.25 0 2.4
      vertex 152.4 0.0521814 2.4
      vertex 152.25 15 2.4
    endloop
  endfacet
  facet normal 0 0 1
    outer loop
      vertex 152.4 0.0521814 2.4
      vertex 152.25 0 2.4
      vertex 152.31 0 2.4
    endloop
  endfacet
  facet normal 0 0 1
    outer loop
      vertex 152.31 0 2.4
      vertex 152.25 0 2.4
      vertex 152.25 -0.034421 2.4
    endloop
  endfacet
  facet normal 0 0 1
    outer loop
      vertex 165.3 7.5 2.4
      vertex 152.4 14.9478 2.4
      vertex 152.4 0.0521814 2.4
    endloop
  endfacet
  facet normal 1 -0 0
    outer loop
      vertex 152.4 0 2.4
      vertex 152.4 0.0521814 0
      vertex 152.4 0.0521814 2.4
    endloop
  endfacet
  facet normal 1 0 0
    outer loop
      vertex 152.4 0.0521814 0
      vertex 152.4 0 2.4
      vertex 152.4 0 0
    endloop
  endfacet
  facet normal 1 -0 0
    outer loop
      vertex 152.4 14.9478 2.4
      vertex 152.4 15 0
      vertex 152.4 15 2.4
    endloop
  endfacet
  facet normal 1 0 0
    outer loop
      vertex 152.4 15 0
      vertex 152.4 14.9478 2.4
      vertex 152.4 14.9478 0
    endloop
  endfacet
  facet normal 0 1 -0
    outer loop
      vertex 152.4 15 0
      vertex 152.31 15 2.4
      vertex 152.4 15 2.4
    endloop
  endfacet
  facet normal 0 1 0
    outer loop
      vertex 152.31 15 2.4
      vertex 152.4 15 0
      vertex 152.31 15 0
    endloop
  endfacet
  facet normal 0 1 0
    outer loop
      vertex 152.25 15 2.4
      vertex 10 15 1.8
      vertex 0 15 2.4
    endloop
  endfacet
  facet normal 0 1 0
    outer loop
      vertex 152.25 15 2.4
      vertex 10 15 0.599999
      vertex 10 15 1.8
    endloop
  endfacet
  facet normal 0 1 -0
    outer loop
      vertex 152.25 15 0
      vertex 10 15 0.599999
      vertex 152.25 15 2.4
    endloop
  endfacet
  facet normal 0 1 0
    outer loop
      vertex 0 15 0
      vertex 10 15 0.599999
      vertex 152.25 15 0
    endloop
  endfacet
  facet normal 0 1 0
    outer loop
      vertex 10 15 0.599999
      vertex 0 15 0
      vertex 0 15 0.599999
    endloop
  endfacet
  facet normal 0 1 0
    outer loop
      vertex 0 15 2.4
      vertex 10 15 1.8
      vertex 0 15 1.8
    endloop
  endfacet
  facet normal 0 0 -1
    outer loop
      vertex 0 0 0
      vertex 152.25 15 0
      vertex 152.25 0 0
    endloop
  endfacet
  facet normal -0 0 -1
    outer loop
      vertex 152.25 15 0
      vertex 0 0 0
      vertex 0 15 0
    endloop
  endfacet
  facet normal 0 0 -1
    outer loop
      vertex 152.31 0 0
      vertex 152.4 0.0521814 0
      vertex 152.4 0 0
    endloop
  endfacet
  facet normal 0 0 -1
    outer loop
      vertex 152.25 0 0
      vertex 152.4 0.0521814 0
      vertex 152.31 0 0
    endloop
  endfacet
  facet normal -0 0 -1
    outer loop
      vertex 152.4 0.0521814 0
      vertex 152.25 0 0
      vertex 152.4 14.9478 0
    endloop
  endfacet
  facet normal 0 0 -1
    outer loop
      vertex 152.4 14.9478 0
      vertex 152.31 15 0
      vertex 152.4 15 0
    endloop
  endfacet
  facet normal 0 0 -1
    outer loop
      vertex 152.25 0 0
      vertex 152.31 0 0
      vertex 152.25 -0.034421 0
    endloop
  endfacet
  facet normal 0 0 -1
    outer loop
      vertex 152.25 15 0
      vertex 152.4 14.9478 0
      vertex 152.25 0 0
    endloop
  endfacet
  facet normal 0 0 -1
    outer loop
      vertex 152.4 14.9478 0
      vertex 152.25 15 0
      vertex 152.31 15 0
    endloop
  endfacet
  facet normal 0 0 -1
    outer loop
      vertex 152.31 15 0
      vertex 152.25 15 0
      vertex 152.25 15.0344 0
    endloop
  endfacet
  facet normal -0 0 -1
    outer loop
      vertex 165.3 7.5 0
      vertex 152.4 0.0521814 0
      vertex 152.4 14.9478 0
    endloop
  endfacet
  facet normal 0 -1 0
    outer loop
      vertex 152.31 0 0
      vertex 152.4 0 2.4
      vertex 152.31 0 2.4
    endloop
  endfacet
  facet normal 0 -1 -0
    outer loop
      vertex 152.4 0 2.4
      vertex 152.31 0 0
      vertex 152.4 0 0
    endloop
  endfacet
  facet normal 0 -1 0
    outer loop
      vertex 0 0 0.599999
      vertex 0 0 0
      vertex 10 0 0.599999
    endloop
  endfacet
  facet normal 0 -1 0
    outer loop
      vertex 10 0 1.8
      vertex 0 0 2.4
      vertex 0 0 1.8
    endloop
  endfacet
  facet normal 0 -1 0
    outer loop
      vertex 0 0 2.4
      vertex 10 0 1.8
      vertex 152.25 0 2.4
    endloop
  endfacet
  facet normal 0 -1 0
    outer loop
      vertex 10 0 0.599999
      vertex 152.25 0 2.4
      vertex 10 0 1.8
    endloop
  endfacet
  facet normal 0 -1 0
    outer loop
      vertex 152.25 0 0
      vertex 10 0 0.599999
      vertex 0 0 0
    endloop
  endfacet
  facet normal 0 -1 0
    outer loop
      vertex 10 0 0.599999
      vertex 152.25 0 0
      vertex 152.25 0 2.4
    endloop
  endfacet
  facet normal -1 0 0
    outer loop
      vertex 152.25 15 0
      vertex 152.25 15.0344 2.4
      vertex 152.25 15.0344 0
    endloop
  endfacet
  facet normal -1 -0 0
    outer loop
      vertex 152.25 15.0344 2.4
      vertex 152.25 15 0
      vertex 152.25 15 2.4
    endloop
  endfacet
  facet normal -1 0 0
    outer loop
      vertex 152.25 -0.034421 0
      vertex 152.25 0 2.4
      vertex 152.25 0 0
    endloop
  endfacet
  facet normal -1 -0 0
    outer loop
      vertex 152.25 0 2.4
      vertex 152.25 -0.034421 0
      vertex 152.25 -0.034421 2.4
    endloop
  endfacet
  facet normal 0.497384 0.86753 -0
    outer loop
      vertex 152.31 15 0
      vertex 152.25 15.0344 2.4
      vertex 152.31 15 2.4
    endloop
  endfacet
  facet normal 0.497384 0.86753 0
    outer loop
      vertex 152.25 15.0344 2.4
      vertex 152.31 15 0
      vertex 152.25 15.0344 0
    endloop
  endfacet
  facet normal 0.499999 0.866026 -0
    outer loop
      vertex 165.3 7.5 0
      vertex 152.4 14.9478 2.4
      vertex 165.3 7.5 2.4
    endloop
  endfacet
  facet normal 0.499999 0.866026 0
    outer loop
      vertex 152.4 14.9478 2.4
      vertex 165.3 7.5 0
      vertex 152.4 14.9478 0
    endloop
  endfacet
  facet normal 0.497613 -0.867399 0
    outer loop
      vertex 152.25 -0.034421 0
      vertex 152.31 0 2.4
      vertex 152.25 -0.034421 2.4
    endloop
  endfacet
  facet normal 0.497613 -0.867399 0
    outer loop
      vertex 152.31 0 2.4
      vertex 152.25 -0.034421 0
      vertex 152.31 0 0
    endloop
  endfacet
  facet normal 0.5 -0.866025 0
    outer loop
      vertex 152.4 0.0521814 0
      vertex 165.3 7.5 2.4
      vertex 152.4 0.0521814 2.4
    endloop
  endfacet
  facet normal 0.5 -0.866025 0
    outer loop
      vertex 165.3 7.5 2.4
      vertex 152.4 0.0521814 0
      vertex 165.3 7.5 0
    endloop
  endfacet
  facet normal 0 0 -1
    outer loop
      vertex 0 0 1.8
      vertex 10 15 1.8
      vertex 10 0 1.8
    endloop
  endfacet
  facet normal -0 0 -1
    outer loop
      vertex 10 15 1.8
      vertex 0 0 1.8
      vertex 0 15 1.8
    endloop
  endfacet
  facet normal -1 0 0
    outer loop
      vertex 10 0 0.599999
      vertex 10 15 1.8
      vertex 10 15 0.599999
    endloop
  endfacet
  facet normal -1 -0 0
    outer loop
      vertex 10 15 1.8
      vertex 10 0 0.599999
      vertex 10 0 1.8
    endloop
  endfacet
  facet normal -0 0 1
    outer loop
      vertex 0 15 0.599999
      vertex 10 0 0.599999
      vertex 10 15 0.599999
    endloop
  endfacet
  facet normal 0 0 1
    outer loop
      vertex 10 0 0.599999
      vertex 0 15 0.599999
      vertex 0 0 0.599999
    endloop
  endfacet
endsolid OpenSCAD_Model
