999
Inkscape export via OpenSCAD DXF Export
  0
SECTION
  2
HEADER
  9
$ACADVER
  1
AC1014
  9
$HANDSEED
  5
FFFF
  9
$MEASUREMENT
 70
     1
  0
ENDSEC
  0
SECTION
  2
TABLES
  0
TABLE
  2
VPORT
  5
8
330
0
100
AcDbSymbolTable
 70
     4
  0
VPORT
  5
2E
330
8
100
AcDbSymbolTableRecord
100
AcDbViewportTableRecord
  2
*ACTIVE
 70
     0
 10
0.0
 20
0.0
 11
1.0
 21
1.0
 12
210.0
 22
148.5
 13
0.0
 23
0.0
 14
10.0
 24
10.0
 15
10.0
 25
10.0
 16
0.0
 26
0.0
 36
1.0
 17
0.0
 27
0.0
 37
0.0
 40
341.0
 41
1.24
 42
50.0
 43
0.0
 44
0.0
 50
0.0
 51
0.0
 71
     0
 72
   100
 73
     1
 74
     3
 75
     0
 76
     0
 77
     0
 78
     0
  0
ENDTAB
  0
TABLE
  2
LTYPE
  5
5
330
0
100
AcDbSymbolTable
 70
     1
  0
LTYPE
  5
14
330
5
100
AcDbSymbolTableRecord
100
AcDbLinetypeTableRecord
  2
BYBLOCK
 70
     0
  3

 72
    65
 73
     0
 40
0.0
  0
LTYPE
  5
15
330
5
100
AcDbSymbolTableRecord
100
AcDbLinetypeTableRecord
  2
BYLAYER
 70
     0
  3

 72
    65
 73
     0
 40
0.0
  0
LTYPE
  5
16
330
5
100
AcDbSymbolTableRecord
100
AcDbLinetypeTableRecord
  2
CONTINUOUS
 70
     0
  3
Solid line
 72
    65
 73
     0
 40
0.0
  0
ENDTAB
  0
TABLE
0
TABLE
2
LAYER
5
2
330
0
100
AcDbSymbolTable
70
1
0
LAYER
5
10
330
2
100
AcDbSymbolTableRecord
100
AcDbLayerTableRecord
2
Layer_1
70
0
62
7
6
CONTINUOUS
0
ENDTAB
0
ENDSEC
  0
ENDTAB
  0
TABLE
  2
STYLE
  5
3
330
0
100
AcDbSymbolTable
 70
     1
  0
STYLE
  5
11
330
3
100
AcDbSymbolTableRecord
100
AcDbTextStyleTableRecord
  2
STANDARD
 70
     0
 40
0.0
 41
1.0
 50
0.0
 71
     0
 42
2.5
  3
txt
  4

  0
ENDTAB
  0
TABLE
  2
VIEW
  5
6
330
0
100
AcDbSymbolTable
 70
     0
  0
ENDTAB
  0
TABLE
  2
UCS
  5
7
330
0
100
AcDbSymbolTable
 70
     0
  0
ENDTAB
  0
TABLE
  2
APPID
  5
9
330
0
100
AcDbSymbolTable
 70
     2
  0
APPID
  5
12
330
9
100
AcDbSymbolTableRecord
100
AcDbRegAppTableRecord
  2
ACAD
 70
     0
  0
ENDTAB
  0
TABLE
  2
DIMSTYLE
  5
A
330
0
100
AcDbSymbolTable
 70
     1
  0
DIMSTYLE
105
27
330
A
100
AcDbSymbolTableRecord
100
AcDbDimStyleTableRecord
  2
ISO-25
 70
     0
  3

  4

  5

  6

  7

 40
1.0
 41
2.5
 42
0.625
 43
3.75
 44
1.25
 45
0.0
 46
0.0
 47
0.0
 48
0.0
140
2.5
141
2.5
142
0.0
143
0.03937007874016
144
1.0
145
0.0
146
1.0
147
0.625
 71
     0
 72
     0
 73
     0
 74
     0
 75
     0
 76
     0
 77
     1
 78
     8
170
     0
171
     3
172
     1
173
     0
174
     0
175
     0
176
     0
177
     0
178
     0
270
     2
271
     2
272
     2
273
     2
274
     3
340
11
275
     0
280
     0
281
     0
282
     0
283
     0
284
     8
285
     0
286
     0
287
     3
288
     0
  0
ENDTAB
  0
TABLE
  2
BLOCK_RECORD
  5
1
330
0
100
AcDbSymbolTable
 70
     1
  0
BLOCK_RECORD
  5
1F
330
1
100
AcDbSymbolTableRecord
100
AcDbBlockTableRecord
  2
*MODEL_SPACE
  0
BLOCK_RECORD
  5
1B
330
1
100
AcDbSymbolTableRecord
100
AcDbBlockTableRecord
  2
*PAPER_SPACE
  0
ENDTAB
  0
ENDSEC
  0
SECTION
  2
BLOCKS
  0
BLOCK
  5
20
330
1F
100
AcDbEntity
  8
0
100
AcDbBlockBegin
  2
*MODEL_SPACE
 70
     0
 10
0.0
 20
0.0
 30
0.0
  3
*MODEL_SPACE
  1

  0
ENDBLK
  5
21
330
1F
100
AcDbEntity
  8
0
100
AcDbBlockEnd
  0
BLOCK
  5
1C
330
1B
100
AcDbEntity
 67
     1
  8
0
100
AcDbBlockBegin
  2
*PAPER_SPACE
  1

  0
ENDBLK
  5
1D
330
1B
100
AcDbEntity
 67
     1
  8
0
100
AcDbBlockEnd
  0
ENDSEC
  0
SECTION
  2
ENTITIES
0
DIMENSION
5
83
100
AcDbEntity
62
256
370
-1
6
ByLayer
1
total_width
3
Standard
70
0
71
5
72
1
41
1.0
100
AcDbAlignedDimension
13
16.429081
23
0.000000
33
0.0
14
147.697740
24
0.000000
34
0.0
50
0.000000
100
AcDbRotatedDimension
0
DIMENSION
5
83
100
AcDbEntity
62
256
370
-1
6
ByLayer
1
total_minx
3
Standard
70
0
71
5
72
1
41
1.0
100
AcDbAlignedDimension
13
16.429081
23
0.000000
33
0.0
14
0.000000
24
0.000000
34
0.0
50
0.000000
100
AcDbRotatedDimension
0
DIMENSION
5
83
100
AcDbEntity
62
256
370
-1
6
ByLayer
1
total_maxx
3
Standard
70
0
71
5
72
1
41
1.0
100
AcDbAlignedDimension
13
0.000000
23
0.000000
33
0.0
14
147.697740
24
0.000000
34
0.0
50
0.000000
100
AcDbRotatedDimension
0
DIMENSION
5
83
100
AcDbEntity
62
256
370
-1
6
ByLayer
1
total_height
3
Standard
70
0
71
5
72
1
41
1.0
100
AcDbAlignedDimension
13
0.000000
23
0.036237
33
0.0
14
0.000000
24
206.925336
34
0.0
50
90.000000
100
AcDbRotatedDimension
0
DIMENSION
5
83
100
AcDbEntity
62
256
370
-1
6
ByLayer
1
total_miny
3
Standard
70
0
71
5
72
1
41
1.0
100
AcDbAlignedDimension
13
0.036237
23
0.000000
33
0.0
14
0.000000
24
0.000000
34
0.0
50
0.000000
100
AcDbRotatedDimension
0
DIMENSION
5
83
100
AcDbEntity
62
256
370
-1
6
ByLayer
1
total_maxy
3
Standard
70
0
71
5
72
1
41
1.0
100
AcDbAlignedDimension
13
0.000000
23
0.000000
33
0.0
14
206.925336
24
0.000000
34
0.0
50
0.000000
100
AcDbRotatedDimension
0
DIMENSION
8
Layer_1
5
83
100
AcDbEntity
62
256
370
-1
6
ByLayer
1
Layer_1_width
3
Standard
70
0
71
5
72
1
41
1.0
100
AcDbAlignedDimension
13
16.429081
23
0.000000
33
0.0
14
147.697740
24
0.000000
34
0.0
50
0.000000
100
AcDbRotatedDimension
0
DIMENSION
8
Layer_1
5
83
100
AcDbEntity
62
256
370
-1
6
ByLayer
1
Layer_1_minx
3
Standard
70
0
71
5
72
1
41
1.0
100
AcDbAlignedDimension
13
16.429081
23
0.000000
33
0.0
14
0.000000
24
0.000000
34
0.0
50
0.000000
100
AcDbRotatedDimension
0
DIMENSION
8
Layer_1
5
83
100
AcDbEntity
62
256
370
-1
6
ByLayer
1
Layer_1_maxx
3
Standard
70
0
71
5
72
1
41
1.0
100
AcDbAlignedDimension
13
0.000000
23
0.000000
33
0.0
14
147.697740
24
0.000000
34
0.0
50
0.000000
100
AcDbRotatedDimension
0
DIMENSION
8
Layer_1
5
83
100
AcDbEntity
62
256
370
-1
6
ByLayer
1
Layer_1_height
3
Standard
70
0
71
5
72
1
41
1.0
100
AcDbAlignedDimension
13
0.000000
23
0.036237
33
0.0
14
0.000000
24
206.925336
34
0.0
50
90.000000
100
AcDbRotatedDimension
0
DIMENSION
8
Layer_1
5
83
100
AcDbEntity
62
256
370
-1
6
ByLayer
1
Layer_1_miny
3
Standard
70
0
71
5
72
1
41
1.0
100
AcDbAlignedDimension
13
0.036237
23
0.000000
33
0.0
14
0.000000
24
0.000000
34
0.0
50
0.000000
100
AcDbRotatedDimension
0
DIMENSION
8
Layer_1
5
83
100
AcDbEntity
62
256
370
-1
6
ByLayer
1
Layer_1_maxy
3
Standard
70
0
71
5
72
1
41
1.0
100
AcDbAlignedDimension
13
0.000000
23
0.000000
33
0.0
14
206.925336
24
0.000000
34
0.0
50
0.000000
100
AcDbRotatedDimension
62
0
0
LWPOLYLINE
100
AcDbPolyline
8
Layer_1
90
261
70
0
10
67.671501
20
0.106799
30
0.0
10
67.552519
20
5.531561
30
0.0
10
67.552519
20
10.837333
30
0.0
10
66.438828
20
10.837333
30
0.0
10
65.425089
20
10.917297
30
0.0
10
64.830161
20
11.332312
30
0.0
10
64.490531
20
11.712533
30
0.0
10
64.363322
20
12.910335
30
0.0
10
64.670788
20
23.526936
30
0.0
10
64.891025
20
31.311469
30
0.0
10
64.795408
20
33.517603
30
0.0
10
63.319516
20
35.339308
30
0.0
10
59.847853
20
39.618869
30
0.0
10
56.291853
20
44.014243
30
0.0
10
53.497853
20
47.495951
30
0.0
10
50.365186
20
51.389407
30
0.0
10
47.147853
20
55.372694
30
0.0
10
43.507186
20
59.877240
30
0.0
10
33.685853
20
72.053681
30
0.0
10
28.291310
20
78.744448
30
0.0
10
27.045432
20
80.274837
30
0.0
10
26.259311
20
79.819054
30
0.0
10
24.560694
20
78.755302
30
0.0
10
21.512693
20
76.835361
30
0.0
10
19.995295
20
75.954327
30
0.0
10
19.005463
20
75.558598
30
0.0
10
18.324669
20
75.602098
30
0.0
10
17.734384
20
76.038752
30
0.0
10
17.320093
20
76.590529
30
0.0
10
17.300096
20
77.280547
30
0.0
10
17.300460
20
77.898885
30
0.0
10
17.151874
20
78.320824
30
0.0
10
16.916468
20
79.153365
30
0.0
10
16.662468
20
80.000032
30
0.0
10
16.468989
20
80.417916
30
0.0
10
16.429081
20
80.916720
30
0.0
10
16.538963
20
81.441142
30
0.0
10
16.794853
20
81.935882
30
0.0
10
18.390682
20
83.121078
30
0.0
10
22.594520
20
85.698626
30
0.0
10
28.351853
20
89.227914
30
0.0
10
34.024519
20
92.708428
30
0.0
10
39.697186
20
96.178342
30
0.0
10
44.946519
20
99.395785
30
0.0
10
50.449853
20
102.779322
30
0.0
10
56.496534
20
106.487863
30
0.0
10
62.036937
20
109.877516
30
0.0
10
64.897751
20
111.675212
30
0.0
10
67.672176
20
113.333126
30
0.0
10
67.786484
20
117.499565
30
0.0
10
68.058784
20
126.153336
30
0.0
10
68.393496
20
136.567336
30
0.0
10
68.649703
20
143.695959
30
0.0
10
68.729188
20
144.897915
30
0.0
10
67.920743
20
145.421768
30
0.0
10
66.104745
20
146.361153
30
0.0
10
62.599519
20
147.810344
30
0.0
10
57.646519
20
149.860003
30
0.0
10
52.735853
20
151.892003
30
0.0
10
43.676519
20
155.607715
30
0.0
10
41.390519
20
156.541439
30
0.0
10
38.935186
20
157.558994
30
0.0
10
36.479853
20
158.574994
30
0.0
10
34.024519
20
159.590994
30
0.0
10
31.569186
20
160.606994
30
0.0
10
29.113853
20
161.622994
30
0.0
10
26.658519
20
162.638994
30
0.0
10
24.203186
20
163.654994
30
0.0
10
21.747853
20
164.672402
30
0.0
10
20.085298
20
165.366821
30
0.0
10
19.250438
20
165.768995
30
0.0
10
18.690030
20
166.194222
30
0.0
10
18.375062
20
166.672446
30
0.0
10
18.276520
20
167.233611
30
0.0
10
18.431979
20
167.880726
30
0.0
10
18.915261
20
168.504943
30
0.0
10
19.751721
20
169.130269
30
0.0
10
20.966714
20
169.780709
30
0.0
10
30.891853
20
174.583262
30
0.0
10
37.157186
20
177.623425
30
0.0
10
42.406519
20
180.193934
30
0.0
10
44.099768
20
180.961719
30
0.0
10
45.200519
20
181.290704
30
0.0
10
47.895459
20
180.795769
30
0.0
10
56.376519
20
178.585461
30
0.0
10
67.313260
20
175.635457
30
0.0
10
67.836000
20
175.468805
30
0.0
10
67.948116
20
186.498070
30
0.0
10
68.060378
20
201.898801
30
0.0
10
68.107689
20
205.181212
30
0.0
10
68.235810
20
206.597802
30
0.0
10
68.606986
20
206.866083
30
0.0
10
69.669186
20
206.925336
30
0.0
10
70.751597
20
206.863843
30
0.0
10
71.125769
20
206.554441
30
0.0
10
71.254314
20
202.855575
30
0.0
10
71.199017
20
190.410297
30
0.0
10
71.073769
20
174.637048
30
0.0
10
72.075921
20
174.355859
30
0.0
10
73.479883
20
174.074669
30
0.0
10
76.178108
20
173.471239
30
0.0
10
79.090416
20
172.707859
30
0.0
10
79.485299
20
172.567608
30
0.0
10
79.790811
20
172.212512
30
0.0
10
80.778542
20
169.714336
30
0.0
10
82.538522
20
165.100003
30
0.0
10
84.314298
20
160.443336
30
0.0
10
85.280475
20
157.903336
30
0.0
10
87.025855
20
153.331336
30
0.0
10
87.791008
20
151.299336
30
0.0
10
88.552517
20
149.267336
30
0.0
10
89.148138
20
147.743336
30
0.0
10
89.729900
20
146.219336
30
0.0
10
90.681885
20
144.065402
30
0.0
10
91.177074
20
143.362746
30
0.0
10
91.695513
20
142.891936
30
0.0
10
93.037640
20
141.469206
30
0.0
10
94.482669
20
139.631936
30
0.0
10
95.714089
20
138.076816
30
0.0
10
96.927741
20
136.468149
30
0.0
10
98.108767
20
135.020727
30
0.0
10
98.839141
20
133.835394
30
0.0
10
99.242552
20
133.065221
30
0.0
10
99.806339
20
132.315871
30
0.0
10
102.277517
20
129.889978
30
0.0
10
110.057404
20
122.504990
30
0.0
10
117.047289
20
115.877072
30
0.0
10
118.739406
20
114.321471
30
0.0
10
119.096299
20
114.839248
30
0.0
10
120.011890
20
115.540925
30
0.0
10
121.671707
20
116.490053
30
0.0
10
123.391327
20
117.325259
30
0.0
10
124.486326
20
117.685168
30
0.0
10
125.671659
20
118.005871
30
0.0
10
127.117837
20
118.539407
30
0.0
10
128.258522
20
118.702669
30
0.0
10
129.300843
20
118.843568
30
0.0
10
130.475930
20
119.227988
30
0.0
10
131.642980
20
119.798522
30
0.0
10
132.661189
20
120.497758
30
0.0
10
134.269855
20
121.583340
30
0.0
10
135.276405
20
122.183008
30
0.0
10
137.148522
20
123.667438
30
0.0
10
139.293894
20
125.270260
30
0.0
10
140.414435
20
126.168635
30
0.0
10
141.105064
20
127.138993
30
0.0
10
141.454433
20
128.368880
30
0.0
10
141.551189
20
130.045847
30
0.0
10
141.611422
20
131.618026
30
0.0
10
141.889855
20
132.295542
30
0.0
10
142.072668
20
132.608112
30
0.0
10
142.174652
20
133.106585
30
0.0
10
142.228522
20
135.548737
30
0.0
10
142.228522
20
138.371388
30
0.0
10
142.723497
20
138.866361
30
0.0
10
143.312800
20
139.281189
30
0.0
10
143.948491
20
139.387340
30
0.0
10
144.639116
20
139.184189
30
0.0
10
145.393224
20
138.671111
30
0.0
10
146.522148
20
137.591857
30
0.0
10
146.740110
20
137.217327
30
0.0
10
146.800522
20
136.858242
30
0.0
10
147.088925
20
136.105987
30
0.0
10
147.537853
20
134.822652
30
0.0
10
147.697740
20
128.942989
30
0.0
10
147.578284
20
123.274669
30
0.0
10
146.888102
20
121.525624
30
0.0
10
145.948392
20
120.163390
30
0.0
10
145.552601
20
119.701165
30
0.0
10
145.445855
20
119.132339
30
0.0
10
144.937343
20
117.571026
30
0.0
10
143.783380
20
115.485336
30
0.0
10
142.541414
20
113.952961
30
0.0
10
140.637447
20
111.890454
30
0.0
10
138.733920
20
109.987705
30
0.0
10
137.493276
20
108.934603
30
0.0
10
136.089700
20
107.923756
30
0.0
10
135.144039
20
107.357336
30
0.0
10
133.169189
20
106.680003
30
0.0
10
131.793073
20
106.196302
30
0.0
10
130.849226
20
106.002669
30
0.0
10
129.761923
20
105.719601
30
0.0
10
128.656661
20
105.319923
30
0.0
10
126.738519
20
105.028344
30
0.0
10
120.553855
20
104.778703
30
0.0
10
117.725663
20
104.802000
30
0.0
10
115.996615
20
104.934708
30
0.0
10
114.968740
20
105.240067
30
0.0
10
114.244069
20
105.781314
30
0.0
10
103.103618
20
112.636515
30
0.0
10
91.916058
20
119.165415
30
0.0
10
91.554136
20
119.071125
30
0.0
10
91.069391
20
118.741478
30
0.0
10
89.819855
20
117.795271
30
0.0
10
88.380522
20
116.753361
30
0.0
10
86.834500
20
115.611204
30
0.0
10
84.802500
20
114.121813
30
0.0
10
83.192005
20
112.936480
30
0.0
10
79.413300
20
110.116978
30
0.0
10
78.292506
20
109.455687
30
0.0
10
78.046612
20
109.223769
30
0.0
10
77.885877
20
108.301387
30
0.0
10
77.607183
20
102.103247
30
0.0
10
77.497960
20
98.965822
30
0.0
10
78.898499
20
98.039247
30
0.0
10
81.399151
20
96.401187
30
0.0
10
82.857560
20
95.376802
30
0.0
10
86.255806
20
93.048667
30
0.0
10
87.817593
20
91.948000
30
0.0
10
89.076699
20
91.058890
30
0.0
10
91.089855
20
89.673419
30
0.0
10
93.505909
20
88.043749
30
0.0
10
94.741777
20
87.188452
30
0.0
10
98.332504
20
84.721237
30
0.0
10
99.786581
20
83.690296
30
0.0
10
100.826522
20
82.973333
30
0.0
10
101.866460
20
82.256373
30
0.0
10
103.320537
20
81.225432
30
0.0
10
106.911264
20
78.758217
30
0.0
10
108.147132
20
77.901092
30
0.0
10
110.478522
20
76.345948
30
0.0
10
112.798651
20
74.747741
30
0.0
10
114.023264
20
73.847551
30
0.0
10
115.259132
20
72.990425
30
0.0
10
117.590522
20
71.435110
30
0.0
10
120.138046
20
69.691919
30
0.0
10
122.209303
20
68.118955
30
0.0
10
122.632267
20
67.537581
30
0.0
10
122.755189
20
66.980647
30
0.0
10
122.628112
20
66.414584
30
0.0
10
122.300854
20
65.893209
30
0.0
10
121.854369
20
65.511058
30
0.0
10
121.369613
20
65.362667
30
0.0
10
121.029050
20
65.264749
30
0.0
10
120.765813
20
65.029328
30
0.0
10
120.010817
20
64.413215
30
0.0
10
117.895861
20
62.841556
30
0.0
10
113.064459
20
58.892090
30
0.0
10
106.121993
20
53.219423
30
0.0
10
98.712184
20
47.159333
30
0.0
10
91.359307
20
41.148000
30
0.0
10
84.315941
20
35.390667
30
0.0
10
77.864346
20
30.097290
30
0.0
10
74.833855
20
27.597930
30
0.0
10
74.824203
20
26.371956
30
0.0
10
74.599679
20
19.753224
30
0.0
10
74.384800
20
14.360432
30
0.0
10
74.863325
20
13.881913
30
0.0
10
75.216300
20
13.380442
30
0.0
10
75.347317
20
12.829756
30
0.0
10
75.254978
20
12.269983
30
0.0
10
74.937885
20
11.741252
30
0.0
10
74.391653
20
11.333956
30
0.0
10
73.371549
20
11.134344
30
0.0
10
71.491870
20
10.900342
30
0.0
10
70.774560
20
10.803602
30
0.0
10
70.729870
20
5.444134
30
0.0
10
70.685183
20
0.084667
30
0.0
10
69.237829
20
0.036237
30
0.0
10
67.671496
20
0.106799
30
0.0
10
67.671501
20
0.106799
30
0.0
62
0
0
LWPOLYLINE
100
AcDbPolyline
8
Layer_1
90
32
70
0
10
77.992108
20
38.371503
30
0.0
10
90.512640
20
48.598667
30
0.0
10
97.866858
20
54.610000
30
0.0
10
104.803485
20
60.282667
30
0.0
10
110.897187
20
65.271994
30
0.0
10
113.786217
20
67.636652
30
0.0
10
113.184996
20
67.999503
30
0.0
10
112.208482
20
68.699456
30
0.0
10
110.309189
20
69.934215
30
0.0
10
108.361855
20
71.204667
30
0.0
10
106.414522
20
72.474667
30
0.0
10
104.467189
20
73.744667
30
0.0
10
102.519855
20
75.014667
30
0.0
10
100.572522
20
76.284667
30
0.0
10
98.625189
20
77.554667
30
0.0
10
96.677855
20
78.824667
30
0.0
10
94.730522
20
80.094667
30
0.0
10
92.783189
20
81.365022
30
0.0
10
90.497189
20
82.879351
30
0.0
10
87.586543
20
84.724596
30
0.0
10
82.701618
20
87.884000
30
0.0
10
80.648864
20
89.263228
30
0.0
10
78.770855
20
90.487286
30
0.0
10
77.204522
20
91.432781
30
0.0
10
77.204522
20
90.919675
30
0.0
10
76.782699
20
79.196952
30
0.0
10
75.857636
20
54.102000
30
0.0
10
75.245838
20
38.100000
30
0.0
10
75.137278
20
35.983333
30
0.0
10
75.535900
20
36.339509
30
0.0
10
77.992108
20
38.371503
30
0.0
10
77.992108
20
38.371503
30
0.0
62
0
0
LWPOLYLINE
100
AcDbPolyline
8
Layer_1
90
23
70
0
10
65.685058
20
54.102000
30
0.0
10
66.371230
20
74.930000
30
0.0
10
67.046320
20
95.236772
30
0.0
10
67.319260
20
105.276376
30
0.0
10
66.515807
20
104.773659
30
0.0
10
62.133853
20
102.035878
30
0.0
10
57.900519
20
99.407884
30
0.0
10
53.667186
20
96.783217
30
0.0
10
49.433853
20
94.158551
30
0.0
10
45.200519
20
91.533884
30
0.0
10
40.967186
20
88.909322
30
0.0
10
36.479853
20
86.120328
30
0.0
10
32.525753
20
83.729616
30
0.0
10
33.109300
20
82.825290
30
0.0
10
35.548042
20
79.801226
30
0.0
10
39.903242
20
74.467226
30
0.0
10
50.026519
20
62.047851
30
0.0
10
55.191186
20
55.711906
30
0.0
10
60.440519
20
49.276395
30
0.0
10
64.163327
20
44.699987
30
0.0
10
65.300166
20
43.468750
30
0.0
10
65.685058
20
54.102000
30
0.0
10
65.685058
20
54.102000
30
0.0
62
0
0
LWPOLYLINE
100
AcDbPolyline
8
Layer_1
90
15
70
0
10
81.633260
20
120.596146
30
0.0
10
92.666800
20
129.908701
30
0.0
10
93.312412
20
130.471336
30
0.0
10
91.312134
20
132.419358
30
0.0
10
86.312994
20
137.135350
30
0.0
10
84.757296
20
138.465298
30
0.0
10
83.893189
20
139.054129
30
0.0
10
81.185566
20
140.179651
30
0.0
10
79.104524
20
140.979116
30
0.0
10
78.222193
20
118.412006
30
0.0
10
78.248773
20
118.225925
30
0.0
10
78.382188
20
118.207460
30
0.0
10
79.278855
20
118.781483
30
0.0
10
81.633260
20
120.596146
30
0.0
10
81.633260
20
120.596146
30
0.0
62
0
0
LWPOLYLINE
100
AcDbPolyline
8
Layer_1
90
46
70
0
10
82.453855
20
147.929442
30
0.0
10
80.591307
20
153.416003
30
0.0
10
78.563481
20
159.173336
30
0.0
10
77.712361
20
161.544003
30
0.0
10
76.608099
20
164.676669
30
0.0
10
75.704322
20
167.298209
30
0.0
10
75.370007
20
168.226413
30
0.0
10
61.766930
20
171.822164
30
0.0
10
47.965213
20
175.423627
30
0.0
10
47.258571
20
174.921336
30
0.0
10
46.722865
20
174.523296
30
0.0
10
46.114569
20
174.413336
30
0.0
10
45.353483
20
174.333554
30
0.0
10
44.357950
20
174.057560
30
0.0
10
41.009519
20
172.697061
30
0.0
10
38.054971
20
171.344720
30
0.0
10
37.240196
20
171.026669
30
0.0
10
35.749744
20
170.420064
30
0.0
10
31.569186
20
168.558896
30
0.0
10
29.989455
20
167.832593
30
0.0
10
29.901527
20
167.673005
30
0.0
10
30.155142
20
167.559809
30
0.0
10
31.569186
20
167.049856
30
0.0
10
33.601186
20
166.282184
30
0.0
10
38.173186
20
164.539955
30
0.0
10
40.713186
20
163.573779
30
0.0
10
42.745186
20
162.810850
30
0.0
10
44.777186
20
162.048850
30
0.0
10
49.349186
20
160.306622
30
0.0
10
51.889186
20
159.340446
30
0.0
10
53.963519
20
158.562647
30
0.0
10
56.080186
20
157.752026
30
0.0
10
58.154519
20
156.974227
30
0.0
10
60.609853
20
156.040669
30
0.0
10
63.065186
20
155.107112
30
0.0
10
65.181853
20
154.311322
30
0.0
10
69.330519
20
152.740893
30
0.0
10
71.785853
20
151.807336
30
0.0
10
74.241186
20
150.873779
30
0.0
10
76.315522
20
150.095980
30
0.0
10
78.432189
20
149.285359
30
0.0
10
80.506522
20
148.508108
30
0.0
10
81.861189
20
147.993546
30
0.0
10
82.314972
20
147.845909
30
0.0
10
82.453855
20
147.929442
30
0.0
10
82.453855
20
147.929442
30
0.0
  0
ENDSEC
  0
SECTION
  2
OBJECTS
  0
DICTIONARY
  5
C
330
0
100
AcDbDictionary
  3
ACAD_GROUP
350
D
  3
ACAD_MLINESTYLE
350
17
  0
DICTIONARY
  5
D
330
C
100
AcDbDictionary
  0
DICTIONARY
  5
1A
330
C
100
AcDbDictionary
  0
DICTIONARY
  5
17
330
C
100
AcDbDictionary
  3
STANDARD
350
18
  0
DICTIONARY
  5
19
330
C
100
AcDbDictionary
  0
ENDSEC
  0
EOF
