999
Inkscape export via OpenSCAD DXF Export
  0
SECTION
  2
HEADER
  9
$ACADVER
  1
AC1014
  9
$HANDSEED
  5
FFFF
  9
$MEASUREMENT
 70
     1
  0
ENDSEC
  0
SECTION
  2
TABLES
  0
TABLE
  2
VPORT
  5
8
330
0
100
AcDbSymbolTable
 70
     4
  0
VPORT
  5
2E
330
8
100
AcDbSymbolTableRecord
100
AcDbViewportTableRecord
  2
*ACTIVE
 70
     0
 10
0.0
 20
0.0
 11
1.0
 21
1.0
 12
210.0
 22
148.5
 13
0.0
 23
0.0
 14
10.0
 24
10.0
 15
10.0
 25
10.0
 16
0.0
 26
0.0
 36
1.0
 17
0.0
 27
0.0
 37
0.0
 40
341.0
 41
1.24
 42
50.0
 43
0.0
 44
0.0
 50
0.0
 51
0.0
 71
     0
 72
   100
 73
     1
 74
     3
 75
     0
 76
     0
 77
     0
 78
     0
  0
ENDTAB
  0
TABLE
  2
LTYPE
  5
5
330
0
100
AcDbSymbolTable
 70
     1
  0
LTYPE
  5
14
330
5
100
AcDbSymbolTableRecord
100
AcDbLinetypeTableRecord
  2
BYBLOCK
 70
     0
  3

 72
    65
 73
     0
 40
0.0
  0
LTYPE
  5
15
330
5
100
AcDbSymbolTableRecord
100
AcDbLinetypeTableRecord
  2
BYLAYER
 70
     0
  3

 72
    65
 73
     0
 40
0.0
  0
LTYPE
  5
16
330
5
100
AcDbSymbolTableRecord
100
AcDbLinetypeTableRecord
  2
CONTINUOUS
 70
     0
  3
Solid line
 72
    65
 73
     0
 40
0.0
  0
ENDTAB
  0
TABLE
0
TABLE
2
LAYER
5
2
330
0
100
AcDbSymbolTable
70
1
0
LAYER
5
10
330
2
100
AcDbSymbolTableRecord
100
AcDbLayerTableRecord
2
Layer_1
70
0
62
7
6
CONTINUOUS
0
ENDTAB
0
ENDSEC
  0
ENDTAB
  0
TABLE
  2
STYLE
  5
3
330
0
100
AcDbSymbolTable
 70
     1
  0
STYLE
  5
11
330
3
100
AcDbSymbolTableRecord
100
AcDbTextStyleTableRecord
  2
STANDARD
 70
     0
 40
0.0
 41
1.0
 50
0.0
 71
     0
 42
2.5
  3
txt
  4

  0
ENDTAB
  0
TABLE
  2
VIEW
  5
6
330
0
100
AcDbSymbolTable
 70
     0
  0
ENDTAB
  0
TABLE
  2
UCS
  5
7
330
0
100
AcDbSymbolTable
 70
     0
  0
ENDTAB
  0
TABLE
  2
APPID
  5
9
330
0
100
AcDbSymbolTable
 70
     2
  0
APPID
  5
12
330
9
100
AcDbSymbolTableRecord
100
AcDbRegAppTableRecord
  2
ACAD
 70
     0
  0
ENDTAB
  0
TABLE
  2
DIMSTYLE
  5
A
330
0
100
AcDbSymbolTable
 70
     1
  0
DIMSTYLE
105
27
330
A
100
AcDbSymbolTableRecord
100
AcDbDimStyleTableRecord
  2
ISO-25
 70
     0
  3

  4

  5

  6

  7

 40
1.0
 41
2.5
 42
0.625
 43
3.75
 44
1.25
 45
0.0
 46
0.0
 47
0.0
 48
0.0
140
2.5
141
2.5
142
0.0
143
0.03937007874016
144
1.0
145
0.0
146
1.0
147
0.625
 71
     0
 72
     0
 73
     0
 74
     0
 75
     0
 76
     0
 77
     1
 78
     8
170
     0
171
     3
172
     1
173
     0
174
     0
175
     0
176
     0
177
     0
178
     0
270
     2
271
     2
272
     2
273
     2
274
     3
340
11
275
     0
280
     0
281
     0
282
     0
283
     0
284
     8
285
     0
286
     0
287
     3
288
     0
  0
ENDTAB
  0
TABLE
  2
BLOCK_RECORD
  5
1
330
0
100
AcDbSymbolTable
 70
     1
  0
BLOCK_RECORD
  5
1F
330
1
100
AcDbSymbolTableRecord
100
AcDbBlockTableRecord
  2
*MODEL_SPACE
  0
BLOCK_RECORD
  5
1B
330
1
100
AcDbSymbolTableRecord
100
AcDbBlockTableRecord
  2
*PAPER_SPACE
  0
ENDTAB
  0
ENDSEC
  0
SECTION
  2
BLOCKS
  0
BLOCK
  5
20
330
1F
100
AcDbEntity
  8
0
100
AcDbBlockBegin
  2
*MODEL_SPACE
 70
     0
 10
0.0
 20
0.0
 30
0.0
  3
*MODEL_SPACE
  1

  0
ENDBLK
  5
21
330
1F
100
AcDbEntity
  8
0
100
AcDbBlockEnd
  0
BLOCK
  5
1C
330
1B
100
AcDbEntity
 67
     1
  8
0
100
AcDbBlockBegin
  2
*PAPER_SPACE
  1

  0
ENDBLK
  5
1D
330
1B
100
AcDbEntity
 67
     1
  8
0
100
AcDbBlockEnd
  0
ENDSEC
  0
SECTION
  2
ENTITIES
0
DIMENSION
5
83
100
AcDbEntity
62
256
370
-1
6
ByLayer
1
total_width
3
Standard
70
0
71
5
72
1
41
1.0
100
AcDbAlignedDimension
13
0.422696
23
0.000000
33
0.0
14
32.112018
24
0.000000
34
0.0
50
0.000000
100
AcDbRotatedDimension
0
DIMENSION
5
83
100
AcDbEntity
62
256
370
-1
6
ByLayer
1
total_minx
3
Standard
70
0
71
5
72
1
41
1.0
100
AcDbAlignedDimension
13
0.422696
23
0.000000
33
0.0
14
0.000000
24
0.000000
34
0.0
50
0.000000
100
AcDbRotatedDimension
0
DIMENSION
5
83
100
AcDbEntity
62
256
370
-1
6
ByLayer
1
total_maxx
3
Standard
70
0
71
5
72
1
41
1.0
100
AcDbAlignedDimension
13
0.000000
23
0.000000
33
0.0
14
32.112018
24
0.000000
34
0.0
50
0.000000
100
AcDbRotatedDimension
0
DIMENSION
5
83
100
AcDbEntity
62
256
370
-1
6
ByLayer
1
total_height
3
Standard
70
0
71
5
72
1
41
1.0
100
AcDbAlignedDimension
13
0.000000
23
6.660665
33
0.0
14
0.000000
24
26.987017
34
0.0
50
90.000000
100
AcDbRotatedDimension
0
DIMENSION
5
83
100
AcDbEntity
62
256
370
-1
6
ByLayer
1
total_miny
3
Standard
70
0
71
5
72
1
41
1.0
100
AcDbAlignedDimension
13
6.660665
23
0.000000
33
0.0
14
0.000000
24
0.000000
34
0.0
50
0.000000
100
AcDbRotatedDimension
0
DIMENSION
5
83
100
AcDbEntity
62
256
370
-1
6
ByLayer
1
total_maxy
3
Standard
70
0
71
5
72
1
41
1.0
100
AcDbAlignedDimension
13
0.000000
23
0.000000
33
0.0
14
26.987017
24
0.000000
34
0.0
50
0.000000
100
AcDbRotatedDimension
0
DIMENSION
8
Layer_1
5
83
100
AcDbEntity
62
256
370
-1
6
ByLayer
1
Layer_1_width
3
Standard
70
0
71
5
72
1
41
1.0
100
AcDbAlignedDimension
13
0.422696
23
0.000000
33
0.0
14
32.112018
24
0.000000
34
0.0
50
0.000000
100
AcDbRotatedDimension
0
DIMENSION
8
Layer_1
5
83
100
AcDbEntity
62
256
370
-1
6
ByLayer
1
Layer_1_minx
3
Standard
70
0
71
5
72
1
41
1.0
100
AcDbAlignedDimension
13
0.422696
23
0.000000
33
0.0
14
0.000000
24
0.000000
34
0.0
50
0.000000
100
AcDbRotatedDimension
0
DIMENSION
8
Layer_1
5
83
100
AcDbEntity
62
256
370
-1
6
ByLayer
1
Layer_1_maxx
3
Standard
70
0
71
5
72
1
41
1.0
100
AcDbAlignedDimension
13
0.000000
23
0.000000
33
0.0
14
32.112018
24
0.000000
34
0.0
50
0.000000
100
AcDbRotatedDimension
0
DIMENSION
8
Layer_1
5
83
100
AcDbEntity
62
256
370
-1
6
ByLayer
1
Layer_1_height
3
Standard
70
0
71
5
72
1
41
1.0
100
AcDbAlignedDimension
13
0.000000
23
6.660665
33
0.0
14
0.000000
24
26.987017
34
0.0
50
90.000000
100
AcDbRotatedDimension
0
DIMENSION
8
Layer_1
5
83
100
AcDbEntity
62
256
370
-1
6
ByLayer
1
Layer_1_miny
3
Standard
70
0
71
5
72
1
41
1.0
100
AcDbAlignedDimension
13
6.660665
23
0.000000
33
0.0
14
0.000000
24
0.000000
34
0.0
50
0.000000
100
AcDbRotatedDimension
0
DIMENSION
8
Layer_1
5
83
100
AcDbEntity
62
256
370
-1
6
ByLayer
1
Layer_1_maxy
3
Standard
70
0
71
5
72
1
41
1.0
100
AcDbAlignedDimension
13
0.000000
23
0.000000
33
0.0
14
26.987017
24
0.000000
34
0.0
50
0.000000
100
AcDbRotatedDimension
62
0
0
LWPOLYLINE
100
AcDbPolyline
8
Layer_1
90
84
70
0
10
2.898294
20
7.764134
30
0.0
10
1.735198
20
9.540200
30
0.0
10
0.926719
20
11.715257
30
0.0
10
0.485129
20
14.243143
30
0.0
10
0.422696
20
17.077694
30
0.0
10
0.648338
20
19.421078
30
0.0
10
1.133199
20
21.293761
30
0.0
10
1.937856
20
22.857161
30
0.0
10
3.122888
20
24.272698
30
0.0
10
4.565547
20
25.483230
30
0.0
10
6.158004
20
26.283031
30
0.0
10
8.124672
20
26.752110
30
0.0
10
10.689968
20
26.970474
30
0.0
10
13.122671
20
26.987017
30
0.0
10
15.049859
20
26.791351
30
0.0
10
16.652298
20
26.350898
30
0.0
10
18.110755
20
25.633079
30
0.0
10
19.355817
20
24.710331
30
0.0
10
20.435974
20
23.530535
30
0.0
10
21.358258
20
22.084471
30
0.0
10
22.129699
20
20.362917
30
0.0
10
23.258567
20
17.704970
30
0.0
10
23.667376
20
17.204428
30
0.0
10
24.107531
20
17.028414
30
0.0
10
24.509254
20
17.068746
30
0.0
10
24.957941
20
17.436861
30
0.0
10
26.647109
20
19.889818
30
0.0
10
27.241045
20
20.815859
30
0.0
10
26.640265
20
21.705323
30
0.0
10
26.165979
20
22.599955
30
0.0
10
25.869321
20
23.501842
30
0.0
10
25.830598
20
24.077325
30
0.0
10
25.934926
20
24.563149
30
0.0
10
26.165698
20
24.949907
30
0.0
10
26.506312
20
25.228194
30
0.0
10
27.450641
20
25.421731
30
0.0
10
28.635074
20
25.068513
30
0.0
10
29.275220
20
24.850517
30
0.0
10
29.746411
20
24.932170
30
0.0
10
30.242754
20
25.118904
30
0.0
10
30.833751
20
25.166981
30
0.0
10
31.393104
20
25.080606
30
0.0
10
31.794518
20
24.863984
30
0.0
10
32.018752
20
24.457895
30
0.0
10
32.112018
20
23.927402
30
0.0
10
31.954827
20
23.162396
30
0.0
10
31.561672
20
22.250956
30
0.0
10
31.050179
20
21.419676
30
0.0
10
30.537974
20
20.895152
30
0.0
10
30.182276
20
20.580769
30
0.0
10
30.465203
20
20.266048
30
0.0
10
30.796025
20
19.801501
30
0.0
10
30.888271
20
19.111573
30
0.0
10
30.763137
20
18.248952
30
0.0
10
30.441816
20
17.266326
30
0.0
10
29.295396
20
15.151812
30
0.0
10
27.618568
20
13.189538
30
0.0
10
26.375872
20
12.183995
30
0.0
10
25.061656
20
11.414053
30
0.0
10
23.635718
20
10.860290
30
0.0
10
22.057852
20
10.503284
30
0.0
10
21.010028
20
10.260127
30
0.0
10
20.266557
20
9.910876
30
0.0
10
19.823421
20
9.452797
30
0.0
10
19.676602
20
8.883156
30
0.0
10
19.459039
20
8.179965
30
0.0
10
18.903204
20
7.434049
30
0.0
10
18.410018
20
6.992570
30
0.0
10
17.855019
20
6.762807
30
0.0
10
15.265184
20
6.664700
30
0.0
10
13.440299
20
6.694298
30
0.0
10
12.394829
20
6.817221
30
0.0
10
11.893226
20
7.094381
30
0.0
10
11.699940
20
7.586692
30
0.0
10
11.448632
20
7.995014
30
0.0
10
10.838273
20
8.115859
30
0.0
10
10.198659
20
7.978242
30
0.0
10
9.783563
20
7.586692
30
0.0
10
9.432045
20
7.081783
30
0.0
10
8.920676
20
6.806005
30
0.0
10
6.401907
20
6.664700
30
0.0
10
3.842836
20
6.660665
30
0.0
10
2.898294
20
7.764148
30
0.0
10
2.898294
20
7.764134
30
0.0
62
0
0
LWPOLYLINE
100
AcDbPolyline
8
Layer_1
90
34
70
0
10
12.474892
20
12.914972
30
0.0
10
13.218226
20
13.411093
30
0.0
10
13.854978
20
14.429129
30
0.0
10
14.351245
20
15.894759
30
0.0
10
14.673121
20
17.733662
30
0.0
10
14.860962
20
21.793376
30
0.0
10
14.781810
20
23.461693
30
0.0
10
12.003685
20
23.397348
30
0.0
10
9.667467
20
23.278235
30
0.0
10
7.814475
20
23.023625
30
0.0
10
6.303224
20
22.605214
30
0.0
10
4.992227
20
21.994696
30
0.0
10
4.111278
20
21.425728
30
0.0
10
3.483352
20
20.838726
30
0.0
10
3.043356
20
20.156315
30
0.0
10
2.726195
20
19.301119
30
0.0
10
2.690710
20
18.551276
30
0.0
10
3.308420
20
17.827816
30
0.0
10
3.973277
20
17.305130
30
0.0
10
4.634194
20
16.979656
30
0.0
10
6.464577
20
16.741191
30
0.0
10
7.548357
20
16.578092
30
0.0
10
7.846286
20
16.315086
30
0.0
10
8.124249
20
15.854922
30
0.0
10
9.243201
20
14.098269
30
0.0
10
9.713250
20
13.573711
30
0.0
10
9.985805
20
13.462215
30
0.0
10
10.102899
20
13.494334
30
0.0
10
10.151602
20
13.338732
30
0.0
10
10.367842
20
13.034922
30
0.0
10
10.921850
20
12.845750
30
0.0
10
11.671556
20
12.797129
30
0.0
10
12.474892
20
12.914972
30
0.0
10
12.474892
20
12.914972
30
0.0
  0
ENDSEC
  0
SECTION
  2
OBJECTS
  0
DICTIONARY
  5
C
330
0
100
AcDbDictionary
  3
ACAD_GROUP
350
D
  3
ACAD_MLINESTYLE
350
17
  0
DICTIONARY
  5
D
330
C
100
AcDbDictionary
  0
DICTIONARY
  5
1A
330
C
100
AcDbDictionary
  0
DICTIONARY
  5
17
330
C
100
AcDbDictionary
  3
STANDARD
350
18
  0
DICTIONARY
  5
19
330
C
100
AcDbDictionary
  0
ENDSEC
  0
EOF
