solid OpenSCAD_Model
  facet normal -0 0 -1
    outer loop
      vertex 49.1416 14.7891 0
      vertex 48.4111 12.7002 0
      vertex 42.3418 21.6777 0
    endloop
  endfacet
  facet normal 0 0 -1
    outer loop
      vertex 49.5059 25.6543 0
      vertex 46.4541 24.3721 0
      vertex 46.7188 25.2432 0
    endloop
  endfacet
  facet normal 0 0 -1
    outer loop
      vertex 34.665 8.28711 0
      vertex 35.2627 16.0674 0
      vertex 35.0566 7.84766 0
    endloop
  endfacet
  facet normal 0 0 -1
    outer loop
      vertex 27.9434 17.6143 0
      vertex 19.1309 10.6494 0
      vertex 18.5029 11.3604 0
    endloop
  endfacet
  facet normal 0 0 -1
    outer loop
      vertex 24.9678 37.248 0
      vertex 27.4229 33.2002 0
      vertex 26.3936 33.0068 0
    endloop
  endfacet
  facet normal 0 0 -1
    outer loop
      vertex 45.7832 28.1143 0
      vertex 45.1768 28.8789 0
      vertex 48.1592 29.9365 0
    endloop
  endfacet
  facet normal 0 0 -1
    outer loop
      vertex 36.1826 32.7021 0
      vertex 36.958 37.793 0
      vertex 39.3037 37.2861 0
    endloop
  endfacet
  facet normal 0 0 -1
    outer loop
      vertex 41.374 31.3887 0
      vertex 38.7207 32.2656 0
      vertex 41.1328 36.625 0
    endloop
  endfacet
  facet normal 0 0 -1
    outer loop
      vertex 38.7207 32.2656 0
      vertex 36.1826 32.7021 0
      vertex 39.3037 37.2861 0
    endloop
  endfacet
  facet normal 0 0 -1
    outer loop
      vertex 38.7207 32.2656 0
      vertex 39.3037 37.2861 0
      vertex 41.1328 36.625 0
    endloop
  endfacet
  facet normal 0 0 -1
    outer loop
      vertex 33.0352 38.0078 0
      vertex 36.958 37.793 0
      vertex 36.1826 32.7021 0
    endloop
  endfacet
  facet normal 0 0 -1
    outer loop
      vertex 45.1768 28.8789 0
      vertex 43.54 30.25 0
      vertex 47.3516 31.4385 0
    endloop
  endfacet
  facet normal 0 0 -1
    outer loop
      vertex 36.1826 32.7021 0
      vertex 32.7568 33.0605 0
      vertex 33.0352 38.0078 0
    endloop
  endfacet
  facet normal 0 0 -1
    outer loop
      vertex 32.7568 33.0605 0
      vertex 29.4893 33.2559 0
      vertex 29.7031 38.0176 0
    endloop
  endfacet
  facet normal -0 0 -1
    outer loop
      vertex 31.9238 7.30566 0
      vertex 29.5605 6.14844 0
      vertex 32.1406 7.97949 0
    endloop
  endfacet
  facet normal 0 0 -1
    outer loop
      vertex 26.9717 21.9531 0
      vertex 15.0996 26.2803 0
      vertex 26.5732 28.3301 0
    endloop
  endfacet
  facet normal 0 0 -1
    outer loop
      vertex 26.5732 28.3301 0
      vertex 17.4912 31.4932 0
      vertex 18.373 32.7871 0
    endloop
  endfacet
  facet normal 0 0 -1
    outer loop
      vertex 26.9717 21.9531 0
      vertex 13.6641 22.8613 0
      vertex 15.0996 26.2803 0
    endloop
  endfacet
  facet normal 0 -0 -1
    outer loop
      vertex 17.4912 31.4932 0
      vertex 26.5732 28.3301 0
      vertex 16.6631 29.9932 0
    endloop
  endfacet
  facet normal 0 0 -1
    outer loop
      vertex 26.5732 28.3301 0
      vertex 18.373 32.7871 0
      vertex 19.3262 33.8965 0
    endloop
  endfacet
  facet normal 0 0 -1
    outer loop
      vertex 29.4902 15.9453 0
      vertex 24.1279 6.14258 0
      vertex 19.5195 9.60449 0
    endloop
  endfacet
  facet normal 0 0 -1
    outer loop
      vertex 19.1309 10.6494 0
      vertex 27.9434 17.6143 0
      vertex 28.6475 16.7559 0
    endloop
  endfacet
  facet normal -0 0 -1
    outer loop
      vertex 32.1406 7.97949 0
      vertex 29.5605 6.14844 0
      vertex 30.3076 15.3613 0
    endloop
  endfacet
  facet normal 0 0 -1
    outer loop
      vertex 29.5605 6.14844 0
      vertex 31.9238 7.30566 0
      vertex 31.0762 6.31348 0
    endloop
  endfacet
  facet normal 0 0 -1
    outer loop
      vertex 31.0762 6.31348 0
      vertex 31.9238 7.30566 0
      vertex 31.6143 6.69922 0
    endloop
  endfacet
  facet normal 0 0 -1
    outer loop
      vertex 32.4336 8.41016 0
      vertex 30.3076 15.3613 0
      vertex 31.1406 15.1338 0
    endloop
  endfacet
  facet normal 0 0 -1
    outer loop
      vertex 16.0195 12.1494 0
      vertex 13.2588 22.4121 0
      vertex 17.5088 11.8301 0
    endloop
  endfacet
  facet normal 0 0 -1
    outer loop
      vertex 11.4404 13.4609 0
      vertex 12.7969 22.2002 0
      vertex 13.6553 12.6689 0
    endloop
  endfacet
  facet normal 0 0 -1
    outer loop
      vertex 9.39648 14.5098 0
      vertex 12.2852 22.2197 0
      vertex 11.4404 13.4609 0
    endloop
  endfacet
  facet normal 0 -0 -1
    outer loop
      vertex 10.5469 23.6162 0
      vertex 11.7344 22.4668 0
      vertex 5.89258 17.3164 0
    endloop
  endfacet
  facet normal -0 0 -1
    outer loop
      vertex 9.30566 25.6064 0
      vertex 2.39062 23.0693 0
      vertex 8.41602 27.1289 0
    endloop
  endfacet
  facet normal 0 0 -1
    outer loop
      vertex 9.30566 25.6064 0
      vertex 3.29883 20.9658 0
      vertex 2.39062 23.0693 0
    endloop
  endfacet
  facet normal 0 0 -1
    outer loop
      vertex 3.05566 27.9004 0
      vertex 4.28516 34.501 0
      vertex 8.21094 29.2031 0
    endloop
  endfacet
  facet normal -0 0 -1
    outer loop
      vertex 7.62207 28.2061 0
      vertex 3.05566 27.9004 0
      vertex 8.21094 29.2031 0
    endloop
  endfacet
  facet normal 0 0 -1
    outer loop
      vertex 8.41602 27.1289 0
      vertex 7.62695 27.9814 0
      vertex 7.80469 27.8545 0
    endloop
  endfacet
  facet normal 0 0 -1
    outer loop
      vertex 1.01367 30.1162 0
      vertex 0.25 31.9004 0
      vertex 3.46387 34.7598 0
    endloop
  endfacet
  facet normal 0 0 -1
    outer loop
      vertex 0.0390625 33.5742 0
      vertex 1.07129 35.0352 0
      vertex 1.82422 35.1455 0
    endloop
  endfacet
  facet normal 0 0 -1
    outer loop
      vertex 4.28516 34.501 0
      vertex 9.20703 30.9395 0
      vertex 8.21094 29.2031 0
    endloop
  endfacet
  facet normal 0 0 -1
    outer loop
      vertex 8.41113 35.248 0
      vertex 9.15234 34.7773 0
      vertex 9.4873 34.3301 0
    endloop
  endfacet
  facet normal 0 0 -1
    outer loop
      vertex 9.68945 33.7939 0
      vertex 8.41113 35.248 0
      vertex 9.4873 34.3301 0
    endloop
  endfacet
  facet normal 0 0 -1
    outer loop
      vertex 9.68945 33.7939 0
      vertex 7.46875 35.4258 0
      vertex 8.41113 35.248 0
    endloop
  endfacet
  facet normal -0 -0 -1
    outer loop
      vertex 9.68945 33.7939 0
      vertex 9.7041 32.4922 0
      vertex 7.46875 35.4258 0
    endloop
  endfacet
  facet normal 0 -0 -1
    outer loop
      vertex 7.46875 35.4258 0
      vertex 9.7041 32.4922 0
      vertex 6.40332 35.3076 0
    endloop
  endfacet
  facet normal 0 0 -1
    outer loop
      vertex 6.40332 35.3076 0
      vertex 9.7041 32.4922 0
      vertex 9.20703 30.9395 0
    endloop
  endfacet
  facet normal 0 0 -1
    outer loop
      vertex 5.29199 34.8916 0
      vertex 6.40332 35.3076 0
      vertex 9.20703 30.9395 0
    endloop
  endfacet
  facet normal 0 0 -1
    outer loop
      vertex 4.28516 34.501 0
      vertex 5.29199 34.8916 0
      vertex 9.20703 30.9395 0
    endloop
  endfacet
  facet normal 0 0 -1
    outer loop
      vertex 1.01367 30.1162 0
      vertex 4.28516 34.501 0
      vertex 1.56641 29.3096 0
    endloop
  endfacet
  facet normal 0 0 -1
    outer loop
      vertex 2.6543 35.0537 0
      vertex 0.25 31.9004 0
      vertex 0.0390625 33.5742 0
    endloop
  endfacet
  facet normal 0 0 -1
    outer loop
      vertex 0.176758 34.2402 0
      vertex 0.496094 34.7246 0
      vertex 1.07129 35.0352 0
    endloop
  endfacet
  facet normal 0 0 -1
    outer loop
      vertex 0.0390625 33.5742 0
      vertex 0.176758 34.2402 0
      vertex 1.07129 35.0352 0
    endloop
  endfacet
  facet normal -0 0 -1
    outer loop
      vertex 2.6543 35.0537 0
      vertex 0.0390625 33.5742 0
      vertex 1.82422 35.1455 0
    endloop
  endfacet
  facet normal -0 0 -1
    outer loop
      vertex 3.46387 34.7598 0
      vertex 0.25 31.9004 0
      vertex 2.6543 35.0537 0
    endloop
  endfacet
  facet normal -0 0 -1
    outer loop
      vertex 4.28516 34.501 0
      vertex 1.01367 30.1162 0
      vertex 3.46387 34.7598 0
    endloop
  endfacet
  facet normal 0 0 -1
    outer loop
      vertex 2.21484 28.6299 0
      vertex 1.56641 29.3096 0
      vertex 4.28516 34.501 0
    endloop
  endfacet
  facet normal 0 0 -1
    outer loop
      vertex 3.05566 27.9004 0
      vertex 2.21484 28.6299 0
      vertex 4.28516 34.501 0
    endloop
  endfacet
  facet normal -0 0 -1
    outer loop
      vertex 7.62695 27.9814 0
      vertex 3.05566 27.9004 0
      vertex 7.62207 28.2061 0
    endloop
  endfacet
  facet normal 0 0 -1
    outer loop
      vertex 1.99316 24.4834 0
      vertex 1.87207 25.6699 0
      vertex 3.05566 27.9004 0
    endloop
  endfacet
  facet normal 0 0 -1
    outer loop
      vertex 1.87207 25.6699 0
      vertex 2.02832 26.6152 0
      vertex 2.45996 27.3096 0
    endloop
  endfacet
  facet normal 0 0 -1
    outer loop
      vertex 3.05566 27.9004 0
      vertex 1.87207 25.6699 0
      vertex 2.45996 27.3096 0
    endloop
  endfacet
  facet normal 0 0 -1
    outer loop
      vertex 7.62695 27.9814 0
      vertex 1.99316 24.4834 0
      vertex 3.05566 27.9004 0
    endloop
  endfacet
  facet normal 0 -0 -1
    outer loop
      vertex 7.62695 27.9814 0
      vertex 8.41602 27.1289 0
      vertex 1.99316 24.4834 0
    endloop
  endfacet
  facet normal 0 0 -1
    outer loop
      vertex 1.99316 24.4834 0
      vertex 8.41602 27.1289 0
      vertex 2.39062 23.0693 0
    endloop
  endfacet
  facet normal 0 -0 -1
    outer loop
      vertex 9.30566 25.6064 0
      vertex 10.5469 23.6162 0
      vertex 3.29883 20.9658 0
    endloop
  endfacet
  facet normal 0 0 -1
    outer loop
      vertex 3.29883 20.9658 0
      vertex 10.5469 23.6162 0
      vertex 4.47266 19.0439 0
    endloop
  endfacet
  facet normal 0 0 -1
    outer loop
      vertex 4.47266 19.0439 0
      vertex 10.5469 23.6162 0
      vertex 5.89258 17.3164 0
    endloop
  endfacet
  facet normal 0 0 -1
    outer loop
      vertex 5.89258 17.3164 0
      vertex 11.7344 22.4668 0
      vertex 7.54004 15.7998 0
    endloop
  endfacet
  facet normal 0 0 -1
    outer loop
      vertex 7.54004 15.7998 0
      vertex 11.7344 22.4668 0
      vertex 12.2852 22.2197 0
    endloop
  endfacet
  facet normal 0 0 -1
    outer loop
      vertex 9.39648 14.5098 0
      vertex 7.54004 15.7998 0
      vertex 12.2852 22.2197 0
    endloop
  endfacet
  facet normal 0 0 -1
    outer loop
      vertex 11.4404 13.4609 0
      vertex 12.2852 22.2197 0
      vertex 12.7969 22.2002 0
    endloop
  endfacet
  facet normal 0 0 -1
    outer loop
      vertex 13.6553 12.6689 0
      vertex 12.7969 22.2002 0
      vertex 13.2588 22.4121 0
    endloop
  endfacet
  facet normal 0 0 -1
    outer loop
      vertex 16.0195 12.1494 0
      vertex 13.6553 12.6689 0
      vertex 13.2588 22.4121 0
    endloop
  endfacet
  facet normal 0 0 -1
    outer loop
      vertex 17.5088 11.8301 0
      vertex 13.2588 22.4121 0
      vertex 13.6641 22.8613 0
    endloop
  endfacet
  facet normal -0 0 -1
    outer loop
      vertex 32.8486 8.6377 0
      vertex 32.4336 8.41016 0
      vertex 31.1406 15.1338 0
    endloop
  endfacet
  facet normal -0 -0 -1
    outer loop
      vertex 32.2988 15.0732 0
      vertex 32.8486 8.6377 0
      vertex 31.1406 15.1338 0
    endloop
  endfacet
  facet normal 0 0 -1
    outer loop
      vertex 26.8848 6.09082 0
      vertex 30.3076 15.3613 0
      vertex 29.5605 6.14844 0
    endloop
  endfacet
  facet normal 0 0 -1
    outer loop
      vertex 24.1279 6.14258 0
      vertex 29.4902 15.9453 0
      vertex 26.8848 6.09082 0
    endloop
  endfacet
  facet normal 0 0 -1
    outer loop
      vertex 22.3701 6.30469 0
      vertex 19.9561 8.21094 0
      vertex 19.5195 9.60449 0
    endloop
  endfacet
  facet normal 0 0 -1
    outer loop
      vertex 21.2754 6.68359 0
      vertex 20.5068 7.27832 0
      vertex 19.9561 8.21094 0
    endloop
  endfacet
  facet normal 0 0 -1
    outer loop
      vertex 22.3701 6.30469 0
      vertex 21.2754 6.68359 0
      vertex 19.9561 8.21094 0
    endloop
  endfacet
  facet normal 0 0 -1
    outer loop
      vertex 24.1279 6.14258 0
      vertex 22.3701 6.30469 0
      vertex 19.5195 9.60449 0
    endloop
  endfacet
  facet normal -0 0 -1
    outer loop
      vertex 32.4336 8.41016 0
      vertex 32.1406 7.97949 0
      vertex 30.3076 15.3613 0
    endloop
  endfacet
  facet normal 0 0 -1
    outer loop
      vertex 35.2627 16.0674 0
      vertex 40.6182 6.05762 0
      vertex 38.1191 6.12695 0
    endloop
  endfacet
  facet normal 0 0 -1
    outer loop
      vertex 45.2764 7.16797 0
      vertex 44.1982 6.05762 0
      vertex 40.6182 6.05762 0
    endloop
  endfacet
  facet normal 0 0 -1
    outer loop
      vertex 44.9492 22.6738 0
      vertex 49.6152 21.2715 0
      vertex 49.5225 17.123 0
    endloop
  endfacet
  facet normal -0 0 -1
    outer loop
      vertex 45.2764 7.16797 0
      vertex 40.6182 6.05762 0
      vertex 46.2979 8.53418 0
    endloop
  endfacet
  facet normal 0 0 -1
    outer loop
      vertex 36.4404 6.34863 0
      vertex 35.4971 6.74121 0
      vertex 35.2021 7.32617 0
    endloop
  endfacet
  facet normal -0 0 -1
    outer loop
      vertex 30.3076 15.3613 0
      vertex 26.8848 6.09082 0
      vertex 29.4902 15.9453 0
    endloop
  endfacet
  facet normal 0 0 -1
    outer loop
      vertex 27.542 18.3447 0
      vertex 18.5029 11.3604 0
      vertex 17.5088 11.8301 0
    endloop
  endfacet
  facet normal 0 0 -1
    outer loop
      vertex 34.3555 15.4287 0
      vertex 34.0986 8.59082 0
      vertex 33.4736 15.1738 0
    endloop
  endfacet
  facet normal -0 0 -1
    outer loop
      vertex 29.4893 33.2559 0
      vertex 27.4229 33.2002 0
      vertex 27.1436 37.7852 0
    endloop
  endfacet
  facet normal -0 0 -1
    outer loop
      vertex 48.8711 28.1504 0
      vertex 45.7832 28.1143 0
      vertex 48.1592 29.9365 0
    endloop
  endfacet
  facet normal 0 0 -1
    outer loop
      vertex 42.3418 21.6777 0
      vertex 43.791 22.0781 0
      vertex 49.5225 17.123 0
    endloop
  endfacet
  facet normal 0 0 -1
    outer loop
      vertex 38.9717 21.2871 0
      vertex 37.6973 19.2871 0
      vertex 38.375 21.0361 0
    endloop
  endfacet
  facet normal 0 -0 -1
    outer loop
      vertex 36.1875 16.999 0
      vertex 40.6182 6.05762 0
      vertex 35.2627 16.0674 0
    endloop
  endfacet
  facet normal 0 -0 -1
    outer loop
      vertex 37.6973 19.2871 0
      vertex 42.3418 21.6777 0
      vertex 37.0322 18.1104 0
    endloop
  endfacet
  facet normal 0 0 -1
    outer loop
      vertex 36.4404 6.34863 0
      vertex 35.0566 7.84766 0
      vertex 38.1191 6.12695 0
    endloop
  endfacet
  facet normal 0 0 -1
    outer loop
      vertex 35.2021 7.32617 0
      vertex 35.4971 6.74121 0
      vertex 35.2744 7.00879 0
    endloop
  endfacet
  facet normal 0 0 -1
    outer loop
      vertex 35.0566 7.84766 0
      vertex 36.4404 6.34863 0
      vertex 35.2021 7.32617 0
    endloop
  endfacet
  facet normal 0 -0 -1
    outer loop
      vertex 37.0322 18.1104 0
      vertex 47.4033 10.4961 0
      vertex 36.1875 16.999 0
    endloop
  endfacet
  facet normal 0 0 -1
    outer loop
      vertex 27.4229 33.2002 0
      vertex 24.9678 37.248 0
      vertex 27.1436 37.7852 0
    endloop
  endfacet
  facet normal 0 0 -1
    outer loop
      vertex 32.2988 15.0732 0
      vertex 33.4277 8.7041 0
      vertex 32.8486 8.6377 0
    endloop
  endfacet
  facet normal 0 -0 -1
    outer loop
      vertex 28.6475 16.7559 0
      vertex 29.4902 15.9453 0
      vertex 19.5195 9.60449 0
    endloop
  endfacet
  facet normal 0 0 -1
    outer loop
      vertex 19.1309 10.6494 0
      vertex 28.6475 16.7559 0
      vertex 19.5195 9.60449 0
    endloop
  endfacet
  facet normal 0 -0 -1
    outer loop
      vertex 27.542 18.3447 0
      vertex 27.9434 17.6143 0
      vertex 18.5029 11.3604 0
    endloop
  endfacet
  facet normal 0 -0 -1
    outer loop
      vertex 27.2402 19.7549 0
      vertex 27.542 18.3447 0
      vertex 17.5088 11.8301 0
    endloop
  endfacet
  facet normal 0 0 -1
    outer loop
      vertex 13.6641 22.8613 0
      vertex 26.9717 21.9531 0
      vertex 27.2402 19.7549 0
    endloop
  endfacet
  facet normal 0 0 -1
    outer loop
      vertex 13.6641 22.8613 0
      vertex 27.2402 19.7549 0
      vertex 17.5088 11.8301 0
    endloop
  endfacet
  facet normal -0 0 -1
    outer loop
      vertex 26.5732 28.3301 0
      vertex 15.0996 26.2803 0
      vertex 16.6631 29.9932 0
    endloop
  endfacet
  facet normal 0 -0 -1
    outer loop
      vertex 20.3672 34.8438 0
      vertex 26.3936 33.0068 0
      vertex 19.3262 33.8965 0
    endloop
  endfacet
  facet normal -0 -0 -1
    outer loop
      vertex 26.3936 33.0068 0
      vertex 26.5732 28.3301 0
      vertex 19.3262 33.8965 0
    endloop
  endfacet
  facet normal 0 0 -1
    outer loop
      vertex 20.3672 34.8438 0
      vertex 21.5146 35.6523 0
      vertex 26.3936 33.0068 0
    endloop
  endfacet
  facet normal 0 0 -1
    outer loop
      vertex 33.4277 8.7041 0
      vertex 32.2988 15.0732 0
      vertex 33.4736 15.1738 0
    endloop
  endfacet
  facet normal 0 0 -1
    outer loop
      vertex 26.3936 33.0068 0
      vertex 21.5146 35.6523 0
      vertex 22.7852 36.3438 0
    endloop
  endfacet
  facet normal 0 0 -1
    outer loop
      vertex 41.1328 36.625 0
      vertex 42.6484 35.9023 0
      vertex 41.374 31.3887 0
    endloop
  endfacet
  facet normal 0 -0 -1
    outer loop
      vertex 24.9678 37.248 0
      vertex 26.3936 33.0068 0
      vertex 22.7852 36.3438 0
    endloop
  endfacet
  facet normal 0 0 -1
    outer loop
      vertex 29.7031 38.0176 0
      vertex 29.4893 33.2559 0
      vertex 27.1436 37.7852 0
    endloop
  endfacet
  facet normal -0 0 -1
    outer loop
      vertex 33.0352 38.0078 0
      vertex 32.7568 33.0605 0
      vertex 29.7031 38.0176 0
    endloop
  endfacet
  facet normal 0 -0 -1
    outer loop
      vertex 40.582 21.4668 0
      vertex 42.3418 21.6777 0
      vertex 37.6973 19.2871 0
    endloop
  endfacet
  facet normal 0 -0 -1
    outer loop
      vertex 43.9561 35.0625 0
      vertex 45.1611 34.0459 0
      vertex 41.374 31.3887 0
    endloop
  endfacet
  facet normal -0 0 -1
    outer loop
      vertex 43.9561 35.0625 0
      vertex 41.374 31.3887 0
      vertex 42.6484 35.9023 0
    endloop
  endfacet
  facet normal 0 -0 -1
    outer loop
      vertex 45.1611 34.0459 0
      vertex 46.376 32.7705 0
      vertex 43.54 30.25 0
    endloop
  endfacet
  facet normal 0 0 -1
    outer loop
      vertex 45.1611 34.0459 0
      vertex 43.54 30.25 0
      vertex 41.374 31.3887 0
    endloop
  endfacet
  facet normal 0 0 -1
    outer loop
      vertex 43.54 30.25 0
      vertex 46.376 32.7705 0
      vertex 47.3516 31.4385 0
    endloop
  endfacet
  facet normal 0 0 -1
    outer loop
      vertex 45.1768 28.8789 0
      vertex 47.3516 31.4385 0
      vertex 48.1592 29.9365 0
    endloop
  endfacet
  facet normal 0 0 -1
    outer loop
      vertex 48.8711 28.1504 0
      vertex 46.2422 27.3018 0
      vertex 45.7832 28.1143 0
    endloop
  endfacet
  facet normal 0 0 -1
    outer loop
      vertex 48.8711 28.1504 0
      vertex 46.6455 26.1865 0
      vertex 46.2422 27.3018 0
    endloop
  endfacet
  facet normal 0 0 -1
    outer loop
      vertex 46.6455 26.1865 0
      vertex 49.2832 26.8633 0
      vertex 49.5059 25.6543 0
    endloop
  endfacet
  facet normal 0 -0 -1
    outer loop
      vertex 48.8711 28.1504 0
      vertex 49.2832 26.8633 0
      vertex 46.6455 26.1865 0
    endloop
  endfacet
  facet normal 0 0 -1
    outer loop
      vertex 46.6455 26.1865 0
      vertex 49.5059 25.6543 0
      vertex 46.7188 25.2432 0
    endloop
  endfacet
  facet normal 0 -0 -1
    outer loop
      vertex 49.5059 25.6543 0
      vertex 49.6152 21.2715 0
      vertex 46.4541 24.3721 0
    endloop
  endfacet
  facet normal 0 -0 -1
    outer loop
      vertex 46.4541 24.3721 0
      vertex 49.6152 21.2715 0
      vertex 45.8379 23.4736 0
    endloop
  endfacet
  facet normal 0 -0 -1
    outer loop
      vertex 45.8379 23.4736 0
      vertex 49.6152 21.2715 0
      vertex 44.9492 22.6738 0
    endloop
  endfacet
  facet normal -0 0 -1
    outer loop
      vertex 49.5225 17.123 0
      vertex 49.1416 14.7891 0
      vertex 42.3418 21.6777 0
    endloop
  endfacet
  facet normal 0 -0 -1
    outer loop
      vertex 44.9492 22.6738 0
      vertex 49.5225 17.123 0
      vertex 43.791 22.0781 0
    endloop
  endfacet
  facet normal 0 0 -1
    outer loop
      vertex 40.582 21.4668 0
      vertex 37.6973 19.2871 0
      vertex 38.9717 21.2871 0
    endloop
  endfacet
  facet normal 0 0 -1
    outer loop
      vertex 48.4111 12.7002 0
      vertex 37.0322 18.1104 0
      vertex 42.3418 21.6777 0
    endloop
  endfacet
  facet normal -0 0 -1
    outer loop
      vertex 48.4111 12.7002 0
      vertex 47.4033 10.4961 0
      vertex 37.0322 18.1104 0
    endloop
  endfacet
  facet normal -0 0 -1
    outer loop
      vertex 47.4033 10.4961 0
      vertex 46.2979 8.53418 0
      vertex 36.1875 16.999 0
    endloop
  endfacet
  facet normal 0 0 -1
    outer loop
      vertex 36.1875 16.999 0
      vertex 46.2979 8.53418 0
      vertex 40.6182 6.05762 0
    endloop
  endfacet
  facet normal 0 -0 -1
    outer loop
      vertex 35.2627 16.0674 0
      vertex 38.1191 6.12695 0
      vertex 35.0566 7.84766 0
    endloop
  endfacet
  facet normal 0 0 -1
    outer loop
      vertex 34.3555 15.4287 0
      vertex 35.2627 16.0674 0
      vertex 34.665 8.28711 0
    endloop
  endfacet
  facet normal 0 0 -1
    outer loop
      vertex 34.0986 8.59082 0
      vertex 34.3555 15.4287 0
      vertex 34.665 8.28711 0
    endloop
  endfacet
  facet normal 0 0 -1
    outer loop
      vertex 33.4277 8.7041 0
      vertex 33.4736 15.1738 0
      vertex 34.0986 8.59082 0
    endloop
  endfacet
  facet normal 0 0 1
    outer loop
      vertex 42.3418 21.6777 25
      vertex 48.4111 12.7002 25
      vertex 49.1416 14.7891 25
    endloop
  endfacet
  facet normal -0 0 1
    outer loop
      vertex 46.7188 25.2432 25
      vertex 46.4541 24.3721 25
      vertex 49.5059 25.6543 25
    endloop
  endfacet
  facet normal 0 -0 1
    outer loop
      vertex 35.0566 7.84766 25
      vertex 35.2627 16.0674 25
      vertex 34.665 8.28711 25
    endloop
  endfacet
  facet normal -0 0 1
    outer loop
      vertex 18.5029 11.3604 25
      vertex 19.1309 10.6494 25
      vertex 27.9434 17.6143 25
    endloop
  endfacet
  facet normal 0 -0 1
    outer loop
      vertex 26.3936 33.0068 25
      vertex 27.4229 33.2002 25
      vertex 24.9678 37.248 25
    endloop
  endfacet
  facet normal 0 0 1
    outer loop
      vertex 48.1592 29.9365 25
      vertex 45.1768 28.8789 25
      vertex 45.7832 28.1143 25
    endloop
  endfacet
  facet normal 0 0 1
    outer loop
      vertex 39.3037 37.2861 25
      vertex 36.958 37.793 25
      vertex 36.1826 32.7021 25
    endloop
  endfacet
  facet normal 0 0 1
    outer loop
      vertex 41.1328 36.625 25
      vertex 38.7207 32.2656 25
      vertex 41.374 31.3887 25
    endloop
  endfacet
  facet normal 0 0 1
    outer loop
      vertex 39.3037 37.2861 25
      vertex 36.1826 32.7021 25
      vertex 38.7207 32.2656 25
    endloop
  endfacet
  facet normal 0 0 1
    outer loop
      vertex 41.1328 36.625 25
      vertex 39.3037 37.2861 25
      vertex 38.7207 32.2656 25
    endloop
  endfacet
  facet normal 0 -0 1
    outer loop
      vertex 36.1826 32.7021 25
      vertex 36.958 37.793 25
      vertex 33.0352 38.0078 25
    endloop
  endfacet
  facet normal 0 0 1
    outer loop
      vertex 47.3516 31.4385 25
      vertex 43.54 30.25 25
      vertex 45.1768 28.8789 25
    endloop
  endfacet
  facet normal 0 0 1
    outer loop
      vertex 33.0352 38.0078 25
      vertex 32.7568 33.0605 25
      vertex 36.1826 32.7021 25
    endloop
  endfacet
  facet normal 0 0 1
    outer loop
      vertex 29.7031 38.0176 25
      vertex 29.4893 33.2559 25
      vertex 32.7568 33.0605 25
    endloop
  endfacet
  facet normal 0 0 1
    outer loop
      vertex 32.1406 7.97949 25
      vertex 29.5605 6.14844 25
      vertex 31.9238 7.30566 25
    endloop
  endfacet
  facet normal 0 0 1
    outer loop
      vertex 26.5732 28.3301 25
      vertex 15.0996 26.2803 25
      vertex 26.9717 21.9531 25
    endloop
  endfacet
  facet normal 0 0 1
    outer loop
      vertex 18.373 32.7871 25
      vertex 17.4912 31.4932 25
      vertex 26.5732 28.3301 25
    endloop
  endfacet
  facet normal 0 0 1
    outer loop
      vertex 15.0996 26.2803 25
      vertex 13.6641 22.8613 25
      vertex 26.9717 21.9531 25
    endloop
  endfacet
  facet normal -0 0 1
    outer loop
      vertex 16.6631 29.9932 25
      vertex 26.5732 28.3301 25
      vertex 17.4912 31.4932 25
    endloop
  endfacet
  facet normal 0 0 1
    outer loop
      vertex 19.3262 33.8965 25
      vertex 18.373 32.7871 25
      vertex 26.5732 28.3301 25
    endloop
  endfacet
  facet normal -0 0 1
    outer loop
      vertex 19.5195 9.60449 25
      vertex 24.1279 6.14258 25
      vertex 29.4902 15.9453 25
    endloop
  endfacet
  facet normal 0 0 1
    outer loop
      vertex 28.6475 16.7559 25
      vertex 27.9434 17.6143 25
      vertex 19.1309 10.6494 25
    endloop
  endfacet
  facet normal 0 0 1
    outer loop
      vertex 30.3076 15.3613 25
      vertex 29.5605 6.14844 25
      vertex 32.1406 7.97949 25
    endloop
  endfacet
  facet normal 0 -0 1
    outer loop
      vertex 31.0762 6.31348 25
      vertex 31.9238 7.30566 25
      vertex 29.5605 6.14844 25
    endloop
  endfacet
  facet normal 0 -0 1
    outer loop
      vertex 31.6143 6.69922 25
      vertex 31.9238 7.30566 25
      vertex 31.0762 6.31348 25
    endloop
  endfacet
  facet normal 0 0 1
    outer loop
      vertex 31.1406 15.1338 25
      vertex 30.3076 15.3613 25
      vertex 32.4336 8.41016 25
    endloop
  endfacet
  facet normal 0 0 1
    outer loop
      vertex 17.5088 11.8301 25
      vertex 13.2588 22.4121 25
      vertex 16.0195 12.1494 25
    endloop
  endfacet
  facet normal 0 0 1
    outer loop
      vertex 13.6553 12.6689 25
      vertex 12.7969 22.2002 25
      vertex 11.4404 13.4609 25
    endloop
  endfacet
  facet normal 0 -0 1
    outer loop
      vertex 11.4404 13.4609 25
      vertex 12.2852 22.2197 25
      vertex 9.39648 14.5098 25
    endloop
  endfacet
  facet normal 0 0 1
    outer loop
      vertex 5.89258 17.3164 25
      vertex 11.7344 22.4668 25
      vertex 10.5469 23.6162 25
    endloop
  endfacet
  facet normal 0 0 1
    outer loop
      vertex 8.41602 27.1289 25
      vertex 2.39062 23.0693 25
      vertex 9.30566 25.6064 25
    endloop
  endfacet
  facet normal -0 0 1
    outer loop
      vertex 2.39062 23.0693 25
      vertex 3.29883 20.9658 25
      vertex 9.30566 25.6064 25
    endloop
  endfacet
  facet normal 0 0 1
    outer loop
      vertex 8.21094 29.2031 25
      vertex 4.28516 34.501 25
      vertex 3.05566 27.9004 25
    endloop
  endfacet
  facet normal 0 0 1
    outer loop
      vertex 8.21094 29.2031 25
      vertex 3.05566 27.9004 25
      vertex 7.62207 28.2061 25
    endloop
  endfacet
  facet normal 0 0 1
    outer loop
      vertex 7.80469 27.8545 25
      vertex 7.62695 27.9814 25
      vertex 8.41602 27.1289 25
    endloop
  endfacet
  facet normal 0 0 1
    outer loop
      vertex 3.46387 34.7598 25
      vertex 0.25 31.9004 25
      vertex 1.01367 30.1162 25
    endloop
  endfacet
  facet normal 0 0 1
    outer loop
      vertex 1.82422 35.1455 25
      vertex 1.07129 35.0352 25
      vertex 0.0390625 33.5742 25
    endloop
  endfacet
  facet normal 0 -0 1
    outer loop
      vertex 8.21094 29.2031 25
      vertex 9.20703 30.9395 25
      vertex 4.28516 34.501 25
    endloop
  endfacet
  facet normal 0 0 1
    outer loop
      vertex 9.4873 34.3301 25
      vertex 9.15234 34.7773 25
      vertex 8.41113 35.248 25
    endloop
  endfacet
  facet normal 0 0 1
    outer loop
      vertex 9.4873 34.3301 25
      vertex 8.41113 35.248 25
      vertex 9.68945 33.7939 25
    endloop
  endfacet
  facet normal 0 0 1
    outer loop
      vertex 8.41113 35.248 25
      vertex 7.46875 35.4258 25
      vertex 9.68945 33.7939 25
    endloop
  endfacet
  facet normal 0 0 1
    outer loop
      vertex 7.46875 35.4258 25
      vertex 9.7041 32.4922 25
      vertex 9.68945 33.7939 25
    endloop
  endfacet
  facet normal -0 0 1
    outer loop
      vertex 6.40332 35.3076 25
      vertex 9.7041 32.4922 25
      vertex 7.46875 35.4258 25
    endloop
  endfacet
  facet normal 0 -0 1
    outer loop
      vertex 9.20703 30.9395 25
      vertex 9.7041 32.4922 25
      vertex 6.40332 35.3076 25
    endloop
  endfacet
  facet normal 0 0 1
    outer loop
      vertex 9.20703 30.9395 25
      vertex 6.40332 35.3076 25
      vertex 5.29199 34.8916 25
    endloop
  endfacet
  facet normal 0 0 1
    outer loop
      vertex 9.20703 30.9395 25
      vertex 5.29199 34.8916 25
      vertex 4.28516 34.501 25
    endloop
  endfacet
  facet normal 0 -0 1
    outer loop
      vertex 1.56641 29.3096 25
      vertex 4.28516 34.501 25
      vertex 1.01367 30.1162 25
    endloop
  endfacet
  facet normal -0 0 1
    outer loop
      vertex 0.0390625 33.5742 25
      vertex 0.25 31.9004 25
      vertex 2.6543 35.0537 25
    endloop
  endfacet
  facet normal 0 0 1
    outer loop
      vertex 1.07129 35.0352 25
      vertex 0.496094 34.7246 25
      vertex 0.176758 34.2402 25
    endloop
  endfacet
  facet normal 0 0 1
    outer loop
      vertex 1.07129 35.0352 25
      vertex 0.176758 34.2402 25
      vertex 0.0390625 33.5742 25
    endloop
  endfacet
  facet normal 0 0 1
    outer loop
      vertex 1.82422 35.1455 25
      vertex 0.0390625 33.5742 25
      vertex 2.6543 35.0537 25
    endloop
  endfacet
  facet normal 0 0 1
    outer loop
      vertex 2.6543 35.0537 25
      vertex 0.25 31.9004 25
      vertex 3.46387 34.7598 25
    endloop
  endfacet
  facet normal 0 0 1
    outer loop
      vertex 3.46387 34.7598 25
      vertex 1.01367 30.1162 25
      vertex 4.28516 34.501 25
    endloop
  endfacet
  facet normal 0 0 1
    outer loop
      vertex 4.28516 34.501 25
      vertex 1.56641 29.3096 25
      vertex 2.21484 28.6299 25
    endloop
  endfacet
  facet normal 0 0 1
    outer loop
      vertex 4.28516 34.501 25
      vertex 2.21484 28.6299 25
      vertex 3.05566 27.9004 25
    endloop
  endfacet
  facet normal 0 0 1
    outer loop
      vertex 7.62207 28.2061 25
      vertex 3.05566 27.9004 25
      vertex 7.62695 27.9814 25
    endloop
  endfacet
  facet normal 0 0 1
    outer loop
      vertex 3.05566 27.9004 25
      vertex 1.87207 25.6699 25
      vertex 1.99316 24.4834 25
    endloop
  endfacet
  facet normal 0 0 1
    outer loop
      vertex 2.45996 27.3096 25
      vertex 2.02832 26.6152 25
      vertex 1.87207 25.6699 25
    endloop
  endfacet
  facet normal -0 0 1
    outer loop
      vertex 2.45996 27.3096 25
      vertex 1.87207 25.6699 25
      vertex 3.05566 27.9004 25
    endloop
  endfacet
  facet normal -0 0 1
    outer loop
      vertex 3.05566 27.9004 25
      vertex 1.99316 24.4834 25
      vertex 7.62695 27.9814 25
    endloop
  endfacet
  facet normal 0 0 1
    outer loop
      vertex 1.99316 24.4834 25
      vertex 8.41602 27.1289 25
      vertex 7.62695 27.9814 25
    endloop
  endfacet
  facet normal 0 -0 1
    outer loop
      vertex 2.39062 23.0693 25
      vertex 8.41602 27.1289 25
      vertex 1.99316 24.4834 25
    endloop
  endfacet
  facet normal 0 0 1
    outer loop
      vertex 3.29883 20.9658 25
      vertex 10.5469 23.6162 25
      vertex 9.30566 25.6064 25
    endloop
  endfacet
  facet normal 0 -0 1
    outer loop
      vertex 4.47266 19.0439 25
      vertex 10.5469 23.6162 25
      vertex 3.29883 20.9658 25
    endloop
  endfacet
  facet normal 0 -0 1
    outer loop
      vertex 5.89258 17.3164 25
      vertex 10.5469 23.6162 25
      vertex 4.47266 19.0439 25
    endloop
  endfacet
  facet normal 0 -0 1
    outer loop
      vertex 7.54004 15.7998 25
      vertex 11.7344 22.4668 25
      vertex 5.89258 17.3164 25
    endloop
  endfacet
  facet normal 0 0 1
    outer loop
      vertex 12.2852 22.2197 25
      vertex 11.7344 22.4668 25
      vertex 7.54004 15.7998 25
    endloop
  endfacet
  facet normal 0 0 1
    outer loop
      vertex 12.2852 22.2197 25
      vertex 7.54004 15.7998 25
      vertex 9.39648 14.5098 25
    endloop
  endfacet
  facet normal 0 0 1
    outer loop
      vertex 12.7969 22.2002 25
      vertex 12.2852 22.2197 25
      vertex 11.4404 13.4609 25
    endloop
  endfacet
  facet normal 0 0 1
    outer loop
      vertex 13.2588 22.4121 25
      vertex 12.7969 22.2002 25
      vertex 13.6553 12.6689 25
    endloop
  endfacet
  facet normal 0 0 1
    outer loop
      vertex 13.2588 22.4121 25
      vertex 13.6553 12.6689 25
      vertex 16.0195 12.1494 25
    endloop
  endfacet
  facet normal 0 0 1
    outer loop
      vertex 13.6641 22.8613 25
      vertex 13.2588 22.4121 25
      vertex 17.5088 11.8301 25
    endloop
  endfacet
  facet normal 0 0 1
    outer loop
      vertex 31.1406 15.1338 25
      vertex 32.4336 8.41016 25
      vertex 32.8486 8.6377 25
    endloop
  endfacet
  facet normal 0 0 1
    outer loop
      vertex 31.1406 15.1338 25
      vertex 32.8486 8.6377 25
      vertex 32.2988 15.0732 25
    endloop
  endfacet
  facet normal 0 -0 1
    outer loop
      vertex 29.5605 6.14844 25
      vertex 30.3076 15.3613 25
      vertex 26.8848 6.09082 25
    endloop
  endfacet
  facet normal 0 -0 1
    outer loop
      vertex 26.8848 6.09082 25
      vertex 29.4902 15.9453 25
      vertex 24.1279 6.14258 25
    endloop
  endfacet
  facet normal 0 0 1
    outer loop
      vertex 19.5195 9.60449 25
      vertex 19.9561 8.21094 25
      vertex 22.3701 6.30469 25
    endloop
  endfacet
  facet normal 0 0 1
    outer loop
      vertex 19.9561 8.21094 25
      vertex 20.5068 7.27832 25
      vertex 21.2754 6.68359 25
    endloop
  endfacet
  facet normal 0 0 1
    outer loop
      vertex 19.9561 8.21094 25
      vertex 21.2754 6.68359 25
      vertex 22.3701 6.30469 25
    endloop
  endfacet
  facet normal 0 0 1
    outer loop
      vertex 19.5195 9.60449 25
      vertex 22.3701 6.30469 25
      vertex 24.1279 6.14258 25
    endloop
  endfacet
  facet normal 0 0 1
    outer loop
      vertex 30.3076 15.3613 25
      vertex 32.1406 7.97949 25
      vertex 32.4336 8.41016 25
    endloop
  endfacet
  facet normal -0 -0 1
    outer loop
      vertex 38.1191 6.12695 25
      vertex 40.6182 6.05762 25
      vertex 35.2627 16.0674 25
    endloop
  endfacet
  facet normal 0 0 1
    outer loop
      vertex 40.6182 6.05762 25
      vertex 44.1982 6.05762 25
      vertex 45.2764 7.16797 25
    endloop
  endfacet
  facet normal 0 -0 1
    outer loop
      vertex 49.5225 17.123 25
      vertex 49.6152 21.2715 25
      vertex 44.9492 22.6738 25
    endloop
  endfacet
  facet normal 0 0 1
    outer loop
      vertex 46.2979 8.53418 25
      vertex 40.6182 6.05762 25
      vertex 45.2764 7.16797 25
    endloop
  endfacet
  facet normal 0 0 1
    outer loop
      vertex 35.2021 7.32617 25
      vertex 35.4971 6.74121 25
      vertex 36.4404 6.34863 25
    endloop
  endfacet
  facet normal 0 0 1
    outer loop
      vertex 29.4902 15.9453 25
      vertex 26.8848 6.09082 25
      vertex 30.3076 15.3613 25
    endloop
  endfacet
  facet normal -0 0 1
    outer loop
      vertex 17.5088 11.8301 25
      vertex 18.5029 11.3604 25
      vertex 27.542 18.3447 25
    endloop
  endfacet
  facet normal -0 0 1
    outer loop
      vertex 33.4736 15.1738 25
      vertex 34.0986 8.59082 25
      vertex 34.3555 15.4287 25
    endloop
  endfacet
  facet normal 0 0 1
    outer loop
      vertex 27.1436 37.7852 25
      vertex 27.4229 33.2002 25
      vertex 29.4893 33.2559 25
    endloop
  endfacet
  facet normal 0 0 1
    outer loop
      vertex 48.1592 29.9365 25
      vertex 45.7832 28.1143 25
      vertex 48.8711 28.1504 25
    endloop
  endfacet
  facet normal 0 0 1
    outer loop
      vertex 49.5225 17.123 25
      vertex 43.791 22.0781 25
      vertex 42.3418 21.6777 25
    endloop
  endfacet
  facet normal -0 0 1
    outer loop
      vertex 38.375 21.0361 25
      vertex 37.6973 19.2871 25
      vertex 38.9717 21.2871 25
    endloop
  endfacet
  facet normal -0 0 1
    outer loop
      vertex 35.2627 16.0674 25
      vertex 40.6182 6.05762 25
      vertex 36.1875 16.999 25
    endloop
  endfacet
  facet normal 0 0 1
    outer loop
      vertex 37.0322 18.1104 25
      vertex 42.3418 21.6777 25
      vertex 37.6973 19.2871 25
    endloop
  endfacet
  facet normal 0 0 1
    outer loop
      vertex 38.1191 6.12695 25
      vertex 35.0566 7.84766 25
      vertex 36.4404 6.34863 25
    endloop
  endfacet
  facet normal -0 -0 1
    outer loop
      vertex 35.2744 7.00879 25
      vertex 35.4971 6.74121 25
      vertex 35.2021 7.32617 25
    endloop
  endfacet
  facet normal -0 -0 1
    outer loop
      vertex 35.2021 7.32617 25
      vertex 36.4404 6.34863 25
      vertex 35.0566 7.84766 25
    endloop
  endfacet
  facet normal -0 0 1
    outer loop
      vertex 36.1875 16.999 25
      vertex 47.4033 10.4961 25
      vertex 37.0322 18.1104 25
    endloop
  endfacet
  facet normal 0 0 1
    outer loop
      vertex 27.1436 37.7852 25
      vertex 24.9678 37.248 25
      vertex 27.4229 33.2002 25
    endloop
  endfacet
  facet normal 0 -0 1
    outer loop
      vertex 32.8486 8.6377 25
      vertex 33.4277 8.7041 25
      vertex 32.2988 15.0732 25
    endloop
  endfacet
  facet normal 0 0 1
    outer loop
      vertex 19.5195 9.60449 25
      vertex 29.4902 15.9453 25
      vertex 28.6475 16.7559 25
    endloop
  endfacet
  facet normal 0 -0 1
    outer loop
      vertex 19.5195 9.60449 25
      vertex 28.6475 16.7559 25
      vertex 19.1309 10.6494 25
    endloop
  endfacet
  facet normal 0 0 1
    outer loop
      vertex 18.5029 11.3604 25
      vertex 27.9434 17.6143 25
      vertex 27.542 18.3447 25
    endloop
  endfacet
  facet normal 0 0 1
    outer loop
      vertex 17.5088 11.8301 25
      vertex 27.542 18.3447 25
      vertex 27.2402 19.7549 25
    endloop
  endfacet
  facet normal 0 0 1
    outer loop
      vertex 27.2402 19.7549 25
      vertex 26.9717 21.9531 25
      vertex 13.6641 22.8613 25
    endloop
  endfacet
  facet normal 0 -0 1
    outer loop
      vertex 17.5088 11.8301 25
      vertex 27.2402 19.7549 25
      vertex 13.6641 22.8613 25
    endloop
  endfacet
  facet normal 0 0 1
    outer loop
      vertex 16.6631 29.9932 25
      vertex 15.0996 26.2803 25
      vertex 26.5732 28.3301 25
    endloop
  endfacet
  facet normal -0 0 1
    outer loop
      vertex 19.3262 33.8965 25
      vertex 26.3936 33.0068 25
      vertex 20.3672 34.8438 25
    endloop
  endfacet
  facet normal 0 0 1
    outer loop
      vertex 19.3262 33.8965 25
      vertex 26.5732 28.3301 25
      vertex 26.3936 33.0068 25
    endloop
  endfacet
  facet normal 0 0 1
    outer loop
      vertex 26.3936 33.0068 25
      vertex 21.5146 35.6523 25
      vertex 20.3672 34.8438 25
    endloop
  endfacet
  facet normal 0 0 1
    outer loop
      vertex 33.4736 15.1738 25
      vertex 32.2988 15.0732 25
      vertex 33.4277 8.7041 25
    endloop
  endfacet
  facet normal 0 0 1
    outer loop
      vertex 22.7852 36.3438 25
      vertex 21.5146 35.6523 25
      vertex 26.3936 33.0068 25
    endloop
  endfacet
  facet normal 0 -0 1
    outer loop
      vertex 41.374 31.3887 25
      vertex 42.6484 35.9023 25
      vertex 41.1328 36.625 25
    endloop
  endfacet
  facet normal -0 0 1
    outer loop
      vertex 22.7852 36.3438 25
      vertex 26.3936 33.0068 25
      vertex 24.9678 37.248 25
    endloop
  endfacet
  facet normal -0 0 1
    outer loop
      vertex 27.1436 37.7852 25
      vertex 29.4893 33.2559 25
      vertex 29.7031 38.0176 25
    endloop
  endfacet
  facet normal 0 0 1
    outer loop
      vertex 29.7031 38.0176 25
      vertex 32.7568 33.0605 25
      vertex 33.0352 38.0078 25
    endloop
  endfacet
  facet normal 0 0 1
    outer loop
      vertex 37.6973 19.2871 25
      vertex 42.3418 21.6777 25
      vertex 40.582 21.4668 25
    endloop
  endfacet
  facet normal 0 0 1
    outer loop
      vertex 41.374 31.3887 25
      vertex 45.1611 34.0459 25
      vertex 43.9561 35.0625 25
    endloop
  endfacet
  facet normal 0 0 1
    outer loop
      vertex 42.6484 35.9023 25
      vertex 41.374 31.3887 25
      vertex 43.9561 35.0625 25
    endloop
  endfacet
  facet normal 0 0 1
    outer loop
      vertex 43.54 30.25 25
      vertex 46.376 32.7705 25
      vertex 45.1611 34.0459 25
    endloop
  endfacet
  facet normal -0 0 1
    outer loop
      vertex 41.374 31.3887 25
      vertex 43.54 30.25 25
      vertex 45.1611 34.0459 25
    endloop
  endfacet
  facet normal 0 0 1
    outer loop
      vertex 47.3516 31.4385 25
      vertex 46.376 32.7705 25
      vertex 43.54 30.25 25
    endloop
  endfacet
  facet normal 0 0 1
    outer loop
      vertex 48.1592 29.9365 25
      vertex 47.3516 31.4385 25
      vertex 45.1768 28.8789 25
    endloop
  endfacet
  facet normal -0 0 1
    outer loop
      vertex 45.7832 28.1143 25
      vertex 46.2422 27.3018 25
      vertex 48.8711 28.1504 25
    endloop
  endfacet
  facet normal -0 0 1
    outer loop
      vertex 46.2422 27.3018 25
      vertex 46.6455 26.1865 25
      vertex 48.8711 28.1504 25
    endloop
  endfacet
  facet normal 0 0 1
    outer loop
      vertex 49.5059 25.6543 25
      vertex 49.2832 26.8633 25
      vertex 46.6455 26.1865 25
    endloop
  endfacet
  facet normal 0 0 1
    outer loop
      vertex 46.6455 26.1865 25
      vertex 49.2832 26.8633 25
      vertex 48.8711 28.1504 25
    endloop
  endfacet
  facet normal 0 -0 1
    outer loop
      vertex 46.7188 25.2432 25
      vertex 49.5059 25.6543 25
      vertex 46.6455 26.1865 25
    endloop
  endfacet
  facet normal -0 0 1
    outer loop
      vertex 46.4541 24.3721 25
      vertex 49.6152 21.2715 25
      vertex 49.5059 25.6543 25
    endloop
  endfacet
  facet normal -0 0 1
    outer loop
      vertex 45.8379 23.4736 25
      vertex 49.6152 21.2715 25
      vertex 46.4541 24.3721 25
    endloop
  endfacet
  facet normal -0 0 1
    outer loop
      vertex 44.9492 22.6738 25
      vertex 49.6152 21.2715 25
      vertex 45.8379 23.4736 25
    endloop
  endfacet
  facet normal 0 0 1
    outer loop
      vertex 42.3418 21.6777 25
      vertex 49.1416 14.7891 25
      vertex 49.5225 17.123 25
    endloop
  endfacet
  facet normal -0 0 1
    outer loop
      vertex 43.791 22.0781 25
      vertex 49.5225 17.123 25
      vertex 44.9492 22.6738 25
    endloop
  endfacet
  facet normal -0 0 1
    outer loop
      vertex 38.9717 21.2871 25
      vertex 37.6973 19.2871 25
      vertex 40.582 21.4668 25
    endloop
  endfacet
  facet normal 0 0 1
    outer loop
      vertex 42.3418 21.6777 25
      vertex 37.0322 18.1104 25
      vertex 48.4111 12.7002 25
    endloop
  endfacet
  facet normal 0 0 1
    outer loop
      vertex 37.0322 18.1104 25
      vertex 47.4033 10.4961 25
      vertex 48.4111 12.7002 25
    endloop
  endfacet
  facet normal 0 0 1
    outer loop
      vertex 36.1875 16.999 25
      vertex 46.2979 8.53418 25
      vertex 47.4033 10.4961 25
    endloop
  endfacet
  facet normal 0 -0 1
    outer loop
      vertex 40.6182 6.05762 25
      vertex 46.2979 8.53418 25
      vertex 36.1875 16.999 25
    endloop
  endfacet
  facet normal -0 0 1
    outer loop
      vertex 35.0566 7.84766 25
      vertex 38.1191 6.12695 25
      vertex 35.2627 16.0674 25
    endloop
  endfacet
  facet normal 0 -0 1
    outer loop
      vertex 34.665 8.28711 25
      vertex 35.2627 16.0674 25
      vertex 34.3555 15.4287 25
    endloop
  endfacet
  facet normal 0 0 1
    outer loop
      vertex 34.665 8.28711 25
      vertex 34.3555 15.4287 25
      vertex 34.0986 8.59082 25
    endloop
  endfacet
  facet normal 0 0 1
    outer loop
      vertex 34.0986 8.59082 25
      vertex 33.4736 15.1738 25
      vertex 33.4277 8.7041 25
    endloop
  endfacet
  facet normal 0.800892 -0.598809 0
    outer loop
      vertex 46.2979 8.53418 0
      vertex 45.2764 7.16797 25
      vertex 45.2764 7.16797 0
    endloop
  endfacet
  facet normal 0.800892 -0.598809 0
    outer loop
      vertex 46.2979 8.53418 0
      vertex 46.2979 8.53418 25
      vertex 45.2764 7.16797 25
    endloop
  endfacet
  facet normal 0.871216 -0.490899 0
    outer loop
      vertex 47.4033 10.4961 0
      vertex 46.2979 8.53418 25
      vertex 46.2979 8.53418 0
    endloop
  endfacet
  facet normal 0.871216 -0.490899 0
    outer loop
      vertex 47.4033 10.4961 0
      vertex 47.4033 10.4961 25
      vertex 46.2979 8.53418 25
    endloop
  endfacet
  facet normal 0.90944 -0.415836 0
    outer loop
      vertex 48.4111 12.7002 0
      vertex 47.4033 10.4961 25
      vertex 47.4033 10.4961 0
    endloop
  endfacet
  facet normal 0.90944 -0.415836 0
    outer loop
      vertex 48.4111 12.7002 0
      vertex 48.4111 12.7002 25
      vertex 47.4033 10.4961 25
    endloop
  endfacet
  facet normal 0.943948 -0.330095 0
    outer loop
      vertex 49.1416 14.7891 0
      vertex 48.4111 12.7002 25
      vertex 48.4111 12.7002 0
    endloop
  endfacet
  facet normal 0.943948 -0.330095 0
    outer loop
      vertex 49.1416 14.7891 0
      vertex 49.1416 14.7891 25
      vertex 48.4111 12.7002 25
    endloop
  endfacet
  facet normal 0.986946 -0.16105 0
    outer loop
      vertex 49.5225 17.123 0
      vertex 49.1416 14.7891 25
      vertex 49.1416 14.7891 0
    endloop
  endfacet
  facet normal 0.986946 -0.16105 0
    outer loop
      vertex 49.5225 17.123 0
      vertex 49.5225 17.123 25
      vertex 49.1416 14.7891 25
    endloop
  endfacet
  facet normal 0.99975 -0.0223579 0
    outer loop
      vertex 49.6152 21.2715 0
      vertex 49.5225 17.123 25
      vertex 49.5225 17.123 0
    endloop
  endfacet
  facet normal 0.99975 -0.0223579 0
    outer loop
      vertex 49.6152 21.2715 0
      vertex 49.6152 21.2715 25
      vertex 49.5225 17.123 25
    endloop
  endfacet
  facet normal 0.999689 0.0249477 0
    outer loop
      vertex 49.5059 25.6543 0
      vertex 49.6152 21.2715 25
      vertex 49.6152 21.2715 0
    endloop
  endfacet
  facet normal 0.999689 0.0249477 -0
    outer loop
      vertex 49.5059 25.6543 0
      vertex 49.5059 25.6543 25
      vertex 49.6152 21.2715 25
    endloop
  endfacet
  facet normal 0.983461 0.181122 0
    outer loop
      vertex 49.2832 26.8633 0
      vertex 49.5059 25.6543 25
      vertex 49.5059 25.6543 0
    endloop
  endfacet
  facet normal 0.983461 0.181122 -0
    outer loop
      vertex 49.2832 26.8633 0
      vertex 49.2832 26.8633 25
      vertex 49.5059 25.6543 25
    endloop
  endfacet
  facet normal 0.952374 0.304933 0
    outer loop
      vertex 48.8711 28.1504 0
      vertex 49.2832 26.8633 25
      vertex 49.2832 26.8633 0
    endloop
  endfacet
  facet normal 0.952374 0.304933 -0
    outer loop
      vertex 48.8711 28.1504 0
      vertex 48.8711 28.1504 25
      vertex 49.2832 26.8633 25
    endloop
  endfacet
  facet normal 0.928931 0.370252 0
    outer loop
      vertex 48.1592 29.9365 0
      vertex 48.8711 28.1504 25
      vertex 48.8711 28.1504 0
    endloop
  endfacet
  facet normal 0.928931 0.370252 -0
    outer loop
      vertex 48.1592 29.9365 0
      vertex 48.1592 29.9365 25
      vertex 48.8711 28.1504 25
    endloop
  endfacet
  facet normal 0.880747 0.473588 0
    outer loop
      vertex 47.3516 31.4385 0
      vertex 48.1592 29.9365 25
      vertex 48.1592 29.9365 0
    endloop
  endfacet
  facet normal 0.880747 0.473588 -0
    outer loop
      vertex 47.3516 31.4385 0
      vertex 47.3516 31.4385 25
      vertex 48.1592 29.9365 25
    endloop
  endfacet
  facet normal 0.806762 0.590876 0
    outer loop
      vertex 46.376 32.7705 0
      vertex 47.3516 31.4385 25
      vertex 47.3516 31.4385 0
    endloop
  endfacet
  facet normal 0.806762 0.590876 -0
    outer loop
      vertex 46.376 32.7705 0
      vertex 46.376 32.7705 25
      vertex 47.3516 31.4385 25
    endloop
  endfacet
  facet normal 0.724085 0.689711 0
    outer loop
      vertex 45.1611 34.0459 0
      vertex 46.376 32.7705 25
      vertex 46.376 32.7705 0
    endloop
  endfacet
  facet normal 0.724085 0.689711 -0
    outer loop
      vertex 45.1611 34.0459 0
      vertex 45.1611 34.0459 25
      vertex 46.376 32.7705 25
    endloop
  endfacet
  facet normal 0.644803 0.764349 0
    outer loop
      vertex 43.9561 35.0625 0
      vertex 45.1611 34.0459 25
      vertex 45.1611 34.0459 0
    endloop
  endfacet
  facet normal 0.644803 0.764349 -0
    outer loop
      vertex 43.9561 35.0625 0
      vertex 43.9561 35.0625 25
      vertex 45.1611 34.0459 25
    endloop
  endfacet
  facet normal 0.540408 0.841403 0
    outer loop
      vertex 42.6484 35.9023 0
      vertex 43.9561 35.0625 25
      vertex 43.9561 35.0625 0
    endloop
  endfacet
  facet normal 0.540408 0.841403 -0
    outer loop
      vertex 42.6484 35.9023 0
      vertex 42.6484 35.9023 25
      vertex 43.9561 35.0625 25
    endloop
  endfacet
  facet normal 0.430385 0.902645 0
    outer loop
      vertex 41.1328 36.625 0
      vertex 42.6484 35.9023 25
      vertex 42.6484 35.9023 0
    endloop
  endfacet
  facet normal 0.430385 0.902645 -0
    outer loop
      vertex 41.1328 36.625 0
      vertex 41.1328 36.625 25
      vertex 42.6484 35.9023 25
    endloop
  endfacet
  facet normal 0.339928 0.940451 0
    outer loop
      vertex 39.3037 37.2861 0
      vertex 41.1328 36.625 25
      vertex 41.1328 36.625 0
    endloop
  endfacet
  facet normal 0.339928 0.940451 -0
    outer loop
      vertex 39.3037 37.2861 0
      vertex 39.3037 37.2861 25
      vertex 41.1328 36.625 25
    endloop
  endfacet
  facet normal 0.211196 0.977444 0
    outer loop
      vertex 36.958 37.793 0
      vertex 39.3037 37.2861 25
      vertex 39.3037 37.2861 0
    endloop
  endfacet
  facet normal 0.211196 0.977444 -0
    outer loop
      vertex 36.958 37.793 0
      vertex 36.958 37.793 25
      vertex 39.3037 37.2861 25
    endloop
  endfacet
  facet normal 0.0546853 0.998504 0
    outer loop
      vertex 33.0352 38.0078 0
      vertex 36.958 37.793 25
      vertex 36.958 37.793 0
    endloop
  endfacet
  facet normal 0.0546853 0.998504 -0
    outer loop
      vertex 33.0352 38.0078 0
      vertex 33.0352 38.0078 25
      vertex 36.958 37.793 25
    endloop
  endfacet
  facet normal 0.00293082 0.999996 0
    outer loop
      vertex 29.7031 38.0176 0
      vertex 33.0352 38.0078 25
      vertex 33.0352 38.0078 0
    endloop
  endfacet
  facet normal 0.00293082 0.999996 -0
    outer loop
      vertex 29.7031 38.0176 0
      vertex 29.7031 38.0176 25
      vertex 33.0352 38.0078 25
    endloop
  endfacet
  facet normal -0.090433 0.995903 0
    outer loop
      vertex 27.1436 37.7852 0
      vertex 29.7031 38.0176 25
      vertex 29.7031 38.0176 0
    endloop
  endfacet
  facet normal -0.090433 0.995903 0
    outer loop
      vertex 27.1436 37.7852 0
      vertex 27.1436 37.7852 25
      vertex 29.7031 38.0176 25
    endloop
  endfacet
  facet normal -0.239664 0.970856 0
    outer loop
      vertex 24.9678 37.248 0
      vertex 27.1436 37.7852 25
      vertex 27.1436 37.7852 0
    endloop
  endfacet
  facet normal -0.239664 0.970856 0
    outer loop
      vertex 24.9678 37.248 0
      vertex 24.9678 37.248 25
      vertex 27.1436 37.7852 25
    endloop
  endfacet
  facet normal -0.382766 0.923846 0
    outer loop
      vertex 22.7852 36.3438 0
      vertex 24.9678 37.248 25
      vertex 24.9678 37.248 0
    endloop
  endfacet
  facet normal -0.382766 0.923846 0
    outer loop
      vertex 22.7852 36.3438 0
      vertex 22.7852 36.3438 25
      vertex 24.9678 37.248 25
    endloop
  endfacet
  facet normal -0.478 0.87836 0
    outer loop
      vertex 21.5146 35.6523 0
      vertex 22.7852 36.3438 25
      vertex 22.7852 36.3438 0
    endloop
  endfacet
  facet normal -0.478 0.87836 0
    outer loop
      vertex 21.5146 35.6523 0
      vertex 21.5146 35.6523 25
      vertex 22.7852 36.3438 25
    endloop
  endfacet
  facet normal -0.576027 0.81743 0
    outer loop
      vertex 20.3672 34.8438 0
      vertex 21.5146 35.6523 25
      vertex 21.5146 35.6523 0
    endloop
  endfacet
  facet normal -0.576027 0.81743 0
    outer loop
      vertex 20.3672 34.8438 0
      vertex 20.3672 34.8438 25
      vertex 21.5146 35.6523 25
    endloop
  endfacet
  facet normal -0.673018 0.739626 0
    outer loop
      vertex 19.3262 33.8965 0
      vertex 20.3672 34.8438 25
      vertex 20.3672 34.8438 0
    endloop
  endfacet
  facet normal -0.673018 0.739626 0
    outer loop
      vertex 19.3262 33.8965 0
      vertex 19.3262 33.8965 25
      vertex 20.3672 34.8438 25
    endloop
  endfacet
  facet normal -0.758502 0.651671 0
    outer loop
      vertex 18.373 32.7871 0
      vertex 19.3262 33.8965 25
      vertex 19.3262 33.8965 0
    endloop
  endfacet
  facet normal -0.758502 0.651671 0
    outer loop
      vertex 18.373 32.7871 0
      vertex 18.373 32.7871 25
      vertex 19.3262 33.8965 25
    endloop
  endfacet
  facet normal -0.826346 0.563163 0
    outer loop
      vertex 17.4912 31.4932 0
      vertex 18.373 32.7871 25
      vertex 18.373 32.7871 0
    endloop
  endfacet
  facet normal -0.826346 0.563163 0
    outer loop
      vertex 17.4912 31.4932 0
      vertex 17.4912 31.4932 25
      vertex 18.373 32.7871 25
    endloop
  endfacet
  facet normal -0.875445 0.483318 0
    outer loop
      vertex 16.6631 29.9932 0
      vertex 17.4912 31.4932 25
      vertex 17.4912 31.4932 0
    endloop
  endfacet
  facet normal -0.875445 0.483318 0
    outer loop
      vertex 16.6631 29.9932 0
      vertex 16.6631 29.9932 25
      vertex 17.4912 31.4932 25
    endloop
  endfacet
  facet normal -0.921622 0.38809 0
    outer loop
      vertex 15.0996 26.2803 0
      vertex 16.6631 29.9932 25
      vertex 16.6631 29.9932 0
    endloop
  endfacet
  facet normal -0.921622 0.38809 0
    outer loop
      vertex 15.0996 26.2803 0
      vertex 15.0996 26.2803 25
      vertex 16.6631 29.9932 25
    endloop
  endfacet
  facet normal -0.922022 0.387138 0
    outer loop
      vertex 13.6641 22.8613 0
      vertex 15.0996 26.2803 25
      vertex 15.0996 26.2803 0
    endloop
  endfacet
  facet normal -0.922022 0.387138 0
    outer loop
      vertex 13.6641 22.8613 0
      vertex 13.6641 22.8613 25
      vertex 15.0996 26.2803 25
    endloop
  endfacet
  facet normal -0.742491 0.669856 0
    outer loop
      vertex 13.2588 22.4121 0
      vertex 13.6641 22.8613 25
      vertex 13.6641 22.8613 0
    endloop
  endfacet
  facet normal -0.742491 0.669856 0
    outer loop
      vertex 13.2588 22.4121 0
      vertex 13.2588 22.4121 25
      vertex 13.6641 22.8613 25
    endloop
  endfacet
  facet normal -0.416986 0.908913 0
    outer loop
      vertex 12.7969 22.2002 0
      vertex 13.2588 22.4121 25
      vertex 13.2588 22.4121 0
    endloop
  endfacet
  facet normal -0.416986 0.908913 0
    outer loop
      vertex 12.7969 22.2002 0
      vertex 12.7969 22.2002 25
      vertex 13.2588 22.4121 25
    endloop
  endfacet
  facet normal 0.0381402 0.999272 0
    outer loop
      vertex 12.2852 22.2197 0
      vertex 12.7969 22.2002 25
      vertex 12.7969 22.2002 0
    endloop
  endfacet
  facet normal 0.0381402 0.999272 -0
    outer loop
      vertex 12.2852 22.2197 0
      vertex 12.2852 22.2197 25
      vertex 12.7969 22.2002 25
    endloop
  endfacet
  facet normal 0.409288 0.912405 0
    outer loop
      vertex 11.7344 22.4668 0
      vertex 12.2852 22.2197 25
      vertex 12.2852 22.2197 0
    endloop
  endfacet
  facet normal 0.409288 0.912405 -0
    outer loop
      vertex 11.7344 22.4668 0
      vertex 11.7344 22.4668 25
      vertex 12.2852 22.2197 25
    endloop
  endfacet
  facet normal 0.69549 0.718535 0
    outer loop
      vertex 10.5469 23.6162 0
      vertex 11.7344 22.4668 25
      vertex 11.7344 22.4668 0
    endloop
  endfacet
  facet normal 0.69549 0.718535 -0
    outer loop
      vertex 10.5469 23.6162 0
      vertex 10.5469 23.6162 25
      vertex 11.7344 22.4668 25
    endloop
  endfacet
  facet normal 0.848512 0.529175 0
    outer loop
      vertex 9.30566 25.6064 0
      vertex 10.5469 23.6162 25
      vertex 10.5469 23.6162 0
    endloop
  endfacet
  facet normal 0.848512 0.529175 -0
    outer loop
      vertex 9.30566 25.6064 0
      vertex 9.30566 25.6064 25
      vertex 10.5469 23.6162 25
    endloop
  endfacet
  facet normal 0.863397 0.504525 0
    outer loop
      vertex 8.41602 27.1289 0
      vertex 9.30566 25.6064 25
      vertex 9.30566 25.6064 0
    endloop
  endfacet
  facet normal 0.863397 0.504525 -0
    outer loop
      vertex 8.41602 27.1289 0
      vertex 8.41602 27.1289 25
      vertex 9.30566 25.6064 25
    endloop
  endfacet
  facet normal 0.764751 0.644326 0
    outer loop
      vertex 7.80469 27.8545 0
      vertex 8.41602 27.1289 25
      vertex 8.41602 27.1289 0
    endloop
  endfacet
  facet normal 0.764751 0.644326 -0
    outer loop
      vertex 7.80469 27.8545 0
      vertex 7.80469 27.8545 25
      vertex 8.41602 27.1289 25
    endloop
  endfacet
  facet normal 0.581238 0.813733 0
    outer loop
      vertex 7.62695 27.9814 0
      vertex 7.80469 27.8545 25
      vertex 7.80469 27.8545 0
    endloop
  endfacet
  facet normal 0.581238 0.813733 -0
    outer loop
      vertex 7.62695 27.9814 0
      vertex 7.62695 27.9814 25
      vertex 7.80469 27.8545 25
    endloop
  endfacet
  facet normal 0.999764 0.021734 0
    outer loop
      vertex 7.62207 28.2061 0
      vertex 7.62695 27.9814 25
      vertex 7.62695 27.9814 0
    endloop
  endfacet
  facet normal 0.999764 0.021734 -0
    outer loop
      vertex 7.62207 28.2061 0
      vertex 7.62207 28.2061 25
      vertex 7.62695 27.9814 25
    endloop
  endfacet
  facet normal 0.861044 -0.50853 0
    outer loop
      vertex 8.21094 29.2031 0
      vertex 7.62207 28.2061 25
      vertex 7.62207 28.2061 0
    endloop
  endfacet
  facet normal 0.861044 -0.50853 0
    outer loop
      vertex 8.21094 29.2031 0
      vertex 8.21094 29.2031 25
      vertex 7.62207 28.2061 25
    endloop
  endfacet
  facet normal 0.867401 -0.497609 0
    outer loop
      vertex 9.20703 30.9395 0
      vertex 8.21094 29.2031 25
      vertex 8.21094 29.2031 0
    endloop
  endfacet
  facet normal 0.867401 -0.497609 0
    outer loop
      vertex 9.20703 30.9395 0
      vertex 9.20703 30.9395 25
      vertex 8.21094 29.2031 25
    endloop
  endfacet
  facet normal 0.952389 -0.304884 0
    outer loop
      vertex 9.7041 32.4922 0
      vertex 9.20703 30.9395 25
      vertex 9.20703 30.9395 0
    endloop
  endfacet
  facet normal 0.952389 -0.304884 0
    outer loop
      vertex 9.7041 32.4922 0
      vertex 9.7041 32.4922 25
      vertex 9.20703 30.9395 25
    endloop
  endfacet
  facet normal 0.999937 0.0112521 0
    outer loop
      vertex 9.68945 33.7939 0
      vertex 9.7041 32.4922 25
      vertex 9.7041 32.4922 0
    endloop
  endfacet
  facet normal 0.999937 0.0112521 -0
    outer loop
      vertex 9.68945 33.7939 0
      vertex 9.68945 33.7939 25
      vertex 9.7041 32.4922 25
    endloop
  endfacet
  facet normal 0.935697 0.352804 0
    outer loop
      vertex 9.4873 34.3301 0
      vertex 9.68945 33.7939 25
      vertex 9.68945 33.7939 0
    endloop
  endfacet
  facet normal 0.935697 0.352804 -0
    outer loop
      vertex 9.4873 34.3301 0
      vertex 9.4873 34.3301 25
      vertex 9.68945 33.7939 25
    endloop
  endfacet
  facet normal 0.800419 0.599441 0
    outer loop
      vertex 9.15234 34.7773 0
      vertex 9.4873 34.3301 25
      vertex 9.4873 34.3301 0
    endloop
  endfacet
  facet normal 0.800419 0.599441 -0
    outer loop
      vertex 9.15234 34.7773 0
      vertex 9.15234 34.7773 25
      vertex 9.4873 34.3301 25
    endloop
  endfacet
  facet normal 0.536084 0.844165 0
    outer loop
      vertex 8.41113 35.248 0
      vertex 9.15234 34.7773 25
      vertex 9.15234 34.7773 0
    endloop
  endfacet
  facet normal 0.536084 0.844165 -0
    outer loop
      vertex 8.41113 35.248 0
      vertex 8.41113 35.248 25
      vertex 9.15234 34.7773 25
    endloop
  endfacet
  facet normal 0.185334 0.982676 0
    outer loop
      vertex 7.46875 35.4258 0
      vertex 8.41113 35.248 25
      vertex 8.41113 35.248 0
    endloop
  endfacet
  facet normal 0.185334 0.982676 -0
    outer loop
      vertex 7.46875 35.4258 0
      vertex 7.46875 35.4258 25
      vertex 8.41113 35.248 25
    endloop
  endfacet
  facet normal -0.110232 0.993906 0
    outer loop
      vertex 6.40332 35.3076 0
      vertex 7.46875 35.4258 25
      vertex 7.46875 35.4258 0
    endloop
  endfacet
  facet normal -0.110232 0.993906 0
    outer loop
      vertex 6.40332 35.3076 0
      vertex 6.40332 35.3076 25
      vertex 7.46875 35.4258 25
    endloop
  endfacet
  facet normal -0.350582 0.936532 0
    outer loop
      vertex 5.29199 34.8916 0
      vertex 6.40332 35.3076 25
      vertex 6.40332 35.3076 0
    endloop
  endfacet
  facet normal -0.350582 0.936532 0
    outer loop
      vertex 5.29199 34.8916 0
      vertex 5.29199 34.8916 25
      vertex 6.40332 35.3076 25
    endloop
  endfacet
  facet normal -0.361704 0.932293 0
    outer loop
      vertex 4.28516 34.501 0
      vertex 5.29199 34.8916 25
      vertex 5.29199 34.8916 0
    endloop
  endfacet
  facet normal -0.361704 0.932293 0
    outer loop
      vertex 4.28516 34.501 0
      vertex 4.28516 34.501 25
      vertex 5.29199 34.8916 25
    endloop
  endfacet
  facet normal 0.300534 0.953771 0
    outer loop
      vertex 3.46387 34.7598 0
      vertex 4.28516 34.501 25
      vertex 4.28516 34.501 0
    endloop
  endfacet
  facet normal 0.300534 0.953771 -0
    outer loop
      vertex 3.46387 34.7598 0
      vertex 3.46387 34.7598 25
      vertex 4.28516 34.501 25
    endloop
  endfacet
  facet normal 0.341288 0.939959 0
    outer loop
      vertex 2.6543 35.0537 0
      vertex 3.46387 34.7598 25
      vertex 3.46387 34.7598 0
    endloop
  endfacet
  facet normal 0.341288 0.939959 -0
    outer loop
      vertex 2.6543 35.0537 0
      vertex 2.6543 35.0537 25
      vertex 3.46387 34.7598 25
    endloop
  endfacet
  facet normal 0.109918 0.993941 0
    outer loop
      vertex 1.82422 35.1455 0
      vertex 2.6543 35.0537 25
      vertex 2.6543 35.0537 0
    endloop
  endfacet
  facet normal 0.109918 0.993941 -0
    outer loop
      vertex 1.82422 35.1455 0
      vertex 1.82422 35.1455 25
      vertex 2.6543 35.0537 25
    endloop
  endfacet
  facet normal -0.145014 0.98943 0
    outer loop
      vertex 1.07129 35.0352 0
      vertex 1.82422 35.1455 25
      vertex 1.82422 35.1455 0
    endloop
  endfacet
  facet normal -0.145014 0.98943 0
    outer loop
      vertex 1.07129 35.0352 0
      vertex 1.07129 35.0352 25
      vertex 1.82422 35.1455 25
    endloop
  endfacet
  facet normal -0.47508 0.879943 0
    outer loop
      vertex 0.496094 34.7246 0
      vertex 1.07129 35.0352 25
      vertex 1.07129 35.0352 0
    endloop
  endfacet
  facet normal -0.47508 0.879943 0
    outer loop
      vertex 0.496094 34.7246 0
      vertex 0.496094 34.7246 25
      vertex 1.07129 35.0352 25
    endloop
  endfacet
  facet normal -0.834888 0.55042 0
    outer loop
      vertex 0.176758 34.2402 0
      vertex 0.496094 34.7246 25
      vertex 0.496094 34.7246 0
    endloop
  endfacet
  facet normal -0.834888 0.55042 0
    outer loop
      vertex 0.176758 34.2402 0
      vertex 0.176758 34.2402 25
      vertex 0.496094 34.7246 25
    endloop
  endfacet
  facet normal -0.97929 0.202463 0
    outer loop
      vertex 0.0390625 33.5742 0
      vertex 0.176758 34.2402 25
      vertex 0.176758 34.2402 0
    endloop
  endfacet
  facet normal -0.97929 0.202463 0
    outer loop
      vertex 0.0390625 33.5742 0
      vertex 0.0390625 33.5742 25
      vertex 0.176758 34.2402 25
    endloop
  endfacet
  facet normal -0.992153 -0.125032 0
    outer loop
      vertex 0.25 31.9004 0
      vertex 0.0390625 33.5742 25
      vertex 0.0390625 33.5742 0
    endloop
  endfacet
  facet normal -0.992153 -0.125032 0
    outer loop
      vertex 0.25 31.9004 0
      vertex 0.25 31.9004 25
      vertex 0.0390625 33.5742 25
    endloop
  endfacet
  facet normal -0.919327 -0.393494 0
    outer loop
      vertex 1.01367 30.1162 0
      vertex 0.25 31.9004 25
      vertex 0.25 31.9004 0
    endloop
  endfacet
  facet normal -0.919327 -0.393494 0
    outer loop
      vertex 1.01367 30.1162 0
      vertex 1.01367 30.1162 25
      vertex 0.25 31.9004 25
    endloop
  endfacet
  facet normal -0.824915 -0.565257 0
    outer loop
      vertex 1.56641 29.3096 0
      vertex 1.01367 30.1162 25
      vertex 1.01367 30.1162 0
    endloop
  endfacet
  facet normal -0.824915 -0.565257 0
    outer loop
      vertex 1.56641 29.3096 0
      vertex 1.56641 29.3096 25
      vertex 1.01367 30.1162 25
    endloop
  endfacet
  facet normal -0.723544 -0.690278 0
    outer loop
      vertex 2.21484 28.6299 0
      vertex 1.56641 29.3096 25
      vertex 1.56641 29.3096 0
    endloop
  endfacet
  facet normal -0.723544 -0.690278 0
    outer loop
      vertex 2.21484 28.6299 0
      vertex 2.21484 28.6299 25
      vertex 1.56641 29.3096 25
    endloop
  endfacet
  facet normal -0.655331 -0.755342 0
    outer loop
      vertex 3.05566 27.9004 0
      vertex 2.21484 28.6299 25
      vertex 2.21484 28.6299 0
    endloop
  endfacet
  facet normal -0.655331 -0.755342 0
    outer loop
      vertex 3.05566 27.9004 0
      vertex 3.05566 27.9004 25
      vertex 2.21484 28.6299 25
    endloop
  endfacet
  facet normal -0.704191 0.710011 0
    outer loop
      vertex 2.45996 27.3096 0
      vertex 3.05566 27.9004 25
      vertex 3.05566 27.9004 0
    endloop
  endfacet
  facet normal -0.704191 0.710011 0
    outer loop
      vertex 2.45996 27.3096 0
      vertex 2.45996 27.3096 25
      vertex 3.05566 27.9004 25
    endloop
  endfacet
  facet normal -0.849271 0.527957 0
    outer loop
      vertex 2.02832 26.6152 0
      vertex 2.45996 27.3096 25
      vertex 2.45996 27.3096 0
    endloop
  endfacet
  facet normal -0.849271 0.527957 0
    outer loop
      vertex 2.02832 26.6152 0
      vertex 2.02832 26.6152 25
      vertex 2.45996 27.3096 25
    endloop
  endfacet
  facet normal -0.986613 0.163077 0
    outer loop
      vertex 1.87207 25.6699 0
      vertex 2.02832 26.6152 25
      vertex 2.02832 26.6152 0
    endloop
  endfacet
  facet normal -0.986613 0.163077 0
    outer loop
      vertex 1.87207 25.6699 0
      vertex 1.87207 25.6699 25
      vertex 2.02832 26.6152 25
    endloop
  endfacet
  facet normal -0.994832 -0.10153 0
    outer loop
      vertex 1.99316 24.4834 0
      vertex 1.87207 25.6699 25
      vertex 1.87207 25.6699 0
    endloop
  endfacet
  facet normal -0.994832 -0.10153 0
    outer loop
      vertex 1.99316 24.4834 0
      vertex 1.99316 24.4834 25
      vertex 1.87207 25.6699 25
    endloop
  endfacet
  facet normal -0.962694 -0.270592 0
    outer loop
      vertex 2.39062 23.0693 0
      vertex 1.99316 24.4834 25
      vertex 1.99316 24.4834 0
    endloop
  endfacet
  facet normal -0.962694 -0.270592 0
    outer loop
      vertex 2.39062 23.0693 0
      vertex 2.39062 23.0693 25
      vertex 1.99316 24.4834 25
    endloop
  endfacet
  facet normal -0.918084 -0.396387 0
    outer loop
      vertex 3.29883 20.9658 0
      vertex 2.39062 23.0693 25
      vertex 2.39062 23.0693 0
    endloop
  endfacet
  facet normal -0.918084 -0.396387 0
    outer loop
      vertex 3.29883 20.9658 0
      vertex 3.29883 20.9658 25
      vertex 2.39062 23.0693 25
    endloop
  endfacet
  facet normal -0.85341 -0.52124 0
    outer loop
      vertex 4.47266 19.0439 0
      vertex 3.29883 20.9658 25
      vertex 3.29883 20.9658 0
    endloop
  endfacet
  facet normal -0.85341 -0.52124 0
    outer loop
      vertex 4.47266 19.0439 0
      vertex 4.47266 19.0439 25
      vertex 3.29883 20.9658 25
    endloop
  endfacet
  facet normal -0.772535 -0.634972 0
    outer loop
      vertex 5.89258 17.3164 0
      vertex 4.47266 19.0439 25
      vertex 4.47266 19.0439 0
    endloop
  endfacet
  facet normal -0.772535 -0.634972 0
    outer loop
      vertex 5.89258 17.3164 0
      vertex 5.89258 17.3164 25
      vertex 4.47266 19.0439 25
    endloop
  endfacet
  facet normal -0.677283 -0.735722 0
    outer loop
      vertex 7.54004 15.7998 0
      vertex 5.89258 17.3164 25
      vertex 5.89258 17.3164 0
    endloop
  endfacet
  facet normal -0.677283 -0.735722 0
    outer loop
      vertex 7.54004 15.7998 0
      vertex 7.54004 15.7998 25
      vertex 5.89258 17.3164 25
    endloop
  endfacet
  facet normal -0.570647 -0.821196 0
    outer loop
      vertex 9.39648 14.5098 0
      vertex 7.54004 15.7998 25
      vertex 7.54004 15.7998 0
    endloop
  endfacet
  facet normal -0.570647 -0.821196 0
    outer loop
      vertex 9.39648 14.5098 0
      vertex 9.39648 14.5098 25
      vertex 7.54004 15.7998 25
    endloop
  endfacet
  facet normal -0.456541 -0.889702 0
    outer loop
      vertex 11.4404 13.4609 0
      vertex 9.39648 14.5098 25
      vertex 9.39648 14.5098 0
    endloop
  endfacet
  facet normal -0.456541 -0.889702 0
    outer loop
      vertex 11.4404 13.4609 0
      vertex 11.4404 13.4609 25
      vertex 9.39648 14.5098 25
    endloop
  endfacet
  facet normal -0.336705 -0.94161 0
    outer loop
      vertex 13.6553 12.6689 0
      vertex 11.4404 13.4609 25
      vertex 11.4404 13.4609 0
    endloop
  endfacet
  facet normal -0.336705 -0.94161 0
    outer loop
      vertex 13.6553 12.6689 0
      vertex 13.6553 12.6689 25
      vertex 11.4404 13.4609 25
    endloop
  endfacet
  facet normal -0.214623 -0.976697 0
    outer loop
      vertex 16.0195 12.1494 0
      vertex 13.6553 12.6689 25
      vertex 13.6553 12.6689 0
    endloop
  endfacet
  facet normal -0.214623 -0.976697 0
    outer loop
      vertex 16.0195 12.1494 0
      vertex 16.0195 12.1494 25
      vertex 13.6553 12.6689 25
    endloop
  endfacet
  facet normal -0.20966 -0.977774 0
    outer loop
      vertex 17.5088 11.8301 0
      vertex 16.0195 12.1494 25
      vertex 16.0195 12.1494 0
    endloop
  endfacet
  facet normal -0.20966 -0.977774 0
    outer loop
      vertex 17.5088 11.8301 0
      vertex 17.5088 11.8301 25
      vertex 16.0195 12.1494 25
    endloop
  endfacet
  facet normal -0.427208 -0.904153 0
    outer loop
      vertex 18.5029 11.3604 0
      vertex 17.5088 11.8301 25
      vertex 17.5088 11.8301 0
    endloop
  endfacet
  facet normal -0.427208 -0.904153 0
    outer loop
      vertex 18.5029 11.3604 0
      vertex 18.5029 11.3604 25
      vertex 17.5088 11.8301 25
    endloop
  endfacet
  facet normal -0.749507 -0.661996 0
    outer loop
      vertex 19.1309 10.6494 0
      vertex 18.5029 11.3604 25
      vertex 18.5029 11.3604 0
    endloop
  endfacet
  facet normal -0.749507 -0.661996 0
    outer loop
      vertex 19.1309 10.6494 0
      vertex 19.1309 10.6494 25
      vertex 18.5029 11.3604 25
    endloop
  endfacet
  facet normal -0.937262 -0.348626 0
    outer loop
      vertex 19.5195 9.60449 0
      vertex 19.1309 10.6494 25
      vertex 19.1309 10.6494 0
    endloop
  endfacet
  facet normal -0.937262 -0.348626 0
    outer loop
      vertex 19.5195 9.60449 0
      vertex 19.5195 9.60449 25
      vertex 19.1309 10.6494 25
    endloop
  endfacet
  facet normal -0.954277 -0.298922 0
    outer loop
      vertex 19.9561 8.21094 0
      vertex 19.5195 9.60449 25
      vertex 19.5195 9.60449 0
    endloop
  endfacet
  facet normal -0.954277 -0.298922 0
    outer loop
      vertex 19.9561 8.21094 0
      vertex 19.9561 8.21094 25
      vertex 19.5195 9.60449 25
    endloop
  endfacet
  facet normal -0.861052 -0.508517 0
    outer loop
      vertex 20.5068 7.27832 0
      vertex 19.9561 8.21094 25
      vertex 19.9561 8.21094 0
    endloop
  endfacet
  facet normal -0.861052 -0.508517 0
    outer loop
      vertex 20.5068 7.27832 0
      vertex 20.5068 7.27832 25
      vertex 19.9561 8.21094 25
    endloop
  endfacet
  facet normal -0.611991 -0.790865 0
    outer loop
      vertex 21.2754 6.68359 0
      vertex 20.5068 7.27832 25
      vertex 20.5068 7.27832 0
    endloop
  endfacet
  facet normal -0.611991 -0.790865 0
    outer loop
      vertex 21.2754 6.68359 0
      vertex 21.2754 6.68359 25
      vertex 20.5068 7.27832 25
    endloop
  endfacet
  facet normal -0.327082 -0.944996 0
    outer loop
      vertex 22.3701 6.30469 0
      vertex 21.2754 6.68359 25
      vertex 21.2754 6.68359 0
    endloop
  endfacet
  facet normal -0.327082 -0.944996 0
    outer loop
      vertex 22.3701 6.30469 0
      vertex 22.3701 6.30469 25
      vertex 21.2754 6.68359 25
    endloop
  endfacet
  facet normal -0.0918325 -0.995774 0
    outer loop
      vertex 24.1279 6.14258 0
      vertex 22.3701 6.30469 25
      vertex 22.3701 6.30469 0
    endloop
  endfacet
  facet normal -0.0918325 -0.995774 0
    outer loop
      vertex 24.1279 6.14258 0
      vertex 24.1279 6.14258 25
      vertex 22.3701 6.30469 25
    endloop
  endfacet
  facet normal -0.018771 -0.999824 0
    outer loop
      vertex 26.8848 6.09082 0
      vertex 24.1279 6.14258 25
      vertex 24.1279 6.14258 0
    endloop
  endfacet
  facet normal -0.018771 -0.999824 0
    outer loop
      vertex 26.8848 6.09082 0
      vertex 26.8848 6.09082 25
      vertex 24.1279 6.14258 25
    endloop
  endfacet
  facet normal 0.0215279 -0.999768 0
    outer loop
      vertex 29.5605 6.14844 0
      vertex 26.8848 6.09082 25
      vertex 26.8848 6.09082 0
    endloop
  endfacet
  facet normal 0.0215279 -0.999768 0
    outer loop
      vertex 29.5605 6.14844 0
      vertex 29.5605 6.14844 25
      vertex 26.8848 6.09082 25
    endloop
  endfacet
  facet normal 0.108252 -0.994124 0
    outer loop
      vertex 31.0762 6.31348 0
      vertex 29.5605 6.14844 25
      vertex 29.5605 6.14844 0
    endloop
  endfacet
  facet normal 0.108252 -0.994124 0
    outer loop
      vertex 31.0762 6.31348 0
      vertex 31.0762 6.31348 25
      vertex 29.5605 6.14844 25
    endloop
  endfacet
  facet normal 0.582633 -0.812736 0
    outer loop
      vertex 31.6143 6.69922 0
      vertex 31.0762 6.31348 25
      vertex 31.0762 6.31348 0
    endloop
  endfacet
  facet normal 0.582633 -0.812736 0
    outer loop
      vertex 31.6143 6.69922 0
      vertex 31.6143 6.69922 25
      vertex 31.0762 6.31348 25
    endloop
  endfacet
  facet normal 0.890667 -0.454656 0
    outer loop
      vertex 31.9238 7.30566 0
      vertex 31.6143 6.69922 25
      vertex 31.6143 6.69922 0
    endloop
  endfacet
  facet normal 0.890667 -0.454656 0
    outer loop
      vertex 31.9238 7.30566 0
      vertex 31.9238 7.30566 25
      vertex 31.6143 6.69922 25
    endloop
  endfacet
  facet normal 0.951942 -0.306277 0
    outer loop
      vertex 32.1406 7.97949 0
      vertex 31.9238 7.30566 25
      vertex 31.9238 7.30566 0
    endloop
  endfacet
  facet normal 0.951942 -0.306277 0
    outer loop
      vertex 32.1406 7.97949 0
      vertex 32.1406 7.97949 25
      vertex 31.9238 7.30566 25
    endloop
  endfacet
  facet normal 0.826822 -0.562464 0
    outer loop
      vertex 32.4336 8.41016 0
      vertex 32.1406 7.97949 25
      vertex 32.1406 7.97949 0
    endloop
  endfacet
  facet normal 0.826822 -0.562464 0
    outer loop
      vertex 32.4336 8.41016 0
      vertex 32.4336 8.41016 25
      vertex 32.1406 7.97949 25
    endloop
  endfacet
  facet normal 0.48073 -0.876869 0
    outer loop
      vertex 32.8486 8.6377 0
      vertex 32.4336 8.41016 25
      vertex 32.4336 8.41016 0
    endloop
  endfacet
  facet normal 0.48073 -0.876869 0
    outer loop
      vertex 32.8486 8.6377 0
      vertex 32.8486 8.6377 25
      vertex 32.4336 8.41016 25
    endloop
  endfacet
  facet normal 0.113925 -0.993489 0
    outer loop
      vertex 33.4277 8.7041 0
      vertex 32.8486 8.6377 25
      vertex 32.8486 8.6377 0
    endloop
  endfacet
  facet normal 0.113925 -0.993489 0
    outer loop
      vertex 33.4277 8.7041 0
      vertex 33.4277 8.7041 25
      vertex 32.8486 8.6377 25
    endloop
  endfacet
  facet normal -0.166493 -0.986043 0
    outer loop
      vertex 34.0986 8.59082 0
      vertex 33.4277 8.7041 25
      vertex 33.4277 8.7041 0
    endloop
  endfacet
  facet normal -0.166493 -0.986043 0
    outer loop
      vertex 34.0986 8.59082 0
      vertex 34.0986 8.59082 25
      vertex 33.4277 8.7041 25
    endloop
  endfacet
  facet normal -0.472559 -0.881299 0
    outer loop
      vertex 34.665 8.28711 0
      vertex 34.0986 8.59082 25
      vertex 34.0986 8.59082 0
    endloop
  endfacet
  facet normal -0.472559 -0.881299 0
    outer loop
      vertex 34.665 8.28711 0
      vertex 34.665 8.28711 25
      vertex 34.0986 8.59082 25
    endloop
  endfacet
  facet normal -0.746585 -0.66529 0
    outer loop
      vertex 35.0566 7.84766 0
      vertex 34.665 8.28711 25
      vertex 34.665 8.28711 0
    endloop
  endfacet
  facet normal -0.746585 -0.66529 0
    outer loop
      vertex 35.0566 7.84766 0
      vertex 35.0566 7.84766 25
      vertex 34.665 8.28711 25
    endloop
  endfacet
  facet normal -0.963207 -0.26876 0
    outer loop
      vertex 35.2021 7.32617 0
      vertex 35.0566 7.84766 25
      vertex 35.0566 7.84766 0
    endloop
  endfacet
  facet normal -0.963207 -0.26876 0
    outer loop
      vertex 35.2021 7.32617 0
      vertex 35.2021 7.32617 25
      vertex 35.0566 7.84766 25
    endloop
  endfacet
  facet normal -0.975044 -0.22201 0
    outer loop
      vertex 35.2744 7.00879 0
      vertex 35.2021 7.32617 25
      vertex 35.2021 7.32617 0
    endloop
  endfacet
  facet normal -0.975044 -0.22201 0
    outer loop
      vertex 35.2744 7.00879 0
      vertex 35.2744 7.00879 25
      vertex 35.2021 7.32617 25
    endloop
  endfacet
  facet normal -0.768681 -0.639632 0
    outer loop
      vertex 35.4971 6.74121 0
      vertex 35.2744 7.00879 25
      vertex 35.2744 7.00879 0
    endloop
  endfacet
  facet normal -0.768681 -0.639632 0
    outer loop
      vertex 35.4971 6.74121 0
      vertex 35.4971 6.74121 25
      vertex 35.2744 7.00879 25
    endloop
  endfacet
  facet normal -0.384208 -0.923246 0
    outer loop
      vertex 36.4404 6.34863 0
      vertex 35.4971 6.74121 25
      vertex 35.4971 6.74121 0
    endloop
  endfacet
  facet normal -0.384208 -0.923246 0
    outer loop
      vertex 36.4404 6.34863 0
      vertex 36.4404 6.34863 25
      vertex 35.4971 6.74121 25
    endloop
  endfacet
  facet normal -0.130917 -0.991393 0
    outer loop
      vertex 38.1191 6.12695 0
      vertex 36.4404 6.34863 25
      vertex 36.4404 6.34863 0
    endloop
  endfacet
  facet normal -0.130917 -0.991393 0
    outer loop
      vertex 38.1191 6.12695 0
      vertex 38.1191 6.12695 25
      vertex 36.4404 6.34863 25
    endloop
  endfacet
  facet normal -0.0277345 -0.999615 0
    outer loop
      vertex 40.6182 6.05762 0
      vertex 38.1191 6.12695 25
      vertex 38.1191 6.12695 0
    endloop
  endfacet
  facet normal -0.0277345 -0.999615 0
    outer loop
      vertex 40.6182 6.05762 0
      vertex 40.6182 6.05762 25
      vertex 38.1191 6.12695 25
    endloop
  endfacet
  facet normal 0 -1 0
    outer loop
      vertex 44.1982 6.05762 0
      vertex 40.6182 6.05762 25
      vertex 40.6182 6.05762 0
    endloop
  endfacet
  facet normal 0 -1 0
    outer loop
      vertex 44.1982 6.05762 0
      vertex 44.1982 6.05762 25
      vertex 40.6182 6.05762 25
    endloop
  endfacet
  facet normal 0.717442 -0.696619 0
    outer loop
      vertex 45.2764 7.16797 0
      vertex 44.1982 6.05762 25
      vertex 44.1982 6.05762 0
    endloop
  endfacet
  facet normal 0.717442 -0.696619 0
    outer loop
      vertex 45.2764 7.16797 0
      vertex 45.2764 7.16797 25
      vertex 44.1982 6.05762 25
    endloop
  endfacet
  facet normal 0.2635 0.964659 -0
    outer loop
      vertex 30.3076 15.3613 0
      vertex 30.3076 15.3613 25
      vertex 31.1406 15.1338 0
    endloop
  endfacet
  facet normal 0.2635 0.964659 0
    outer loop
      vertex 31.1406 15.1338 25
      vertex 31.1406 15.1338 0
      vertex 30.3076 15.3613 25
    endloop
  endfacet
  facet normal 0.58133 0.813668 -0
    outer loop
      vertex 29.4902 15.9453 0
      vertex 29.4902 15.9453 25
      vertex 30.3076 15.3613 0
    endloop
  endfacet
  facet normal 0.58133 0.813668 0
    outer loop
      vertex 30.3076 15.3613 25
      vertex 30.3076 15.3613 0
      vertex 29.4902 15.9453 25
    endloop
  endfacet
  facet normal 0.693192 0.720753 -0
    outer loop
      vertex 28.6475 16.7559 0
      vertex 28.6475 16.7559 25
      vertex 29.4902 15.9453 0
    endloop
  endfacet
  facet normal 0.693192 0.720753 0
    outer loop
      vertex 29.4902 15.9453 25
      vertex 29.4902 15.9453 0
      vertex 28.6475 16.7559 25
    endloop
  endfacet
  facet normal 0.773173 0.634195 -0
    outer loop
      vertex 27.9434 17.6143 0
      vertex 27.9434 17.6143 25
      vertex 28.6475 16.7559 0
    endloop
  endfacet
  facet normal 0.773173 0.634195 0
    outer loop
      vertex 28.6475 16.7559 25
      vertex 28.6475 16.7559 0
      vertex 27.9434 17.6143 25
    endloop
  endfacet
  facet normal 0.876414 0.481559 -0
    outer loop
      vertex 27.542 18.3447 0
      vertex 27.542 18.3447 25
      vertex 27.9434 17.6143 0
    endloop
  endfacet
  facet normal 0.876414 0.481559 0
    outer loop
      vertex 27.9434 17.6143 25
      vertex 27.9434 17.6143 0
      vertex 27.542 18.3447 25
    endloop
  endfacet
  facet normal 0.977862 0.209252 -0
    outer loop
      vertex 27.2402 19.7549 0
      vertex 27.2402 19.7549 25
      vertex 27.542 18.3447 0
    endloop
  endfacet
  facet normal 0.977862 0.209252 0
    outer loop
      vertex 27.542 18.3447 25
      vertex 27.542 18.3447 0
      vertex 27.2402 19.7549 25
    endloop
  endfacet
  facet normal 0.99262 0.121266 -0
    outer loop
      vertex 26.9717 21.9531 0
      vertex 26.9717 21.9531 25
      vertex 27.2402 19.7549 0
    endloop
  endfacet
  facet normal 0.99262 0.121266 0
    outer loop
      vertex 27.2402 19.7549 25
      vertex 27.2402 19.7549 0
      vertex 26.9717 21.9531 25
    endloop
  endfacet
  facet normal 0.998054 0.0623593 -0
    outer loop
      vertex 26.5732 28.3301 0
      vertex 26.5732 28.3301 25
      vertex 26.9717 21.9531 0
    endloop
  endfacet
  facet normal 0.998054 0.0623593 0
    outer loop
      vertex 26.9717 21.9531 25
      vertex 26.9717 21.9531 0
      vertex 26.5732 28.3301 25
    endloop
  endfacet
  facet normal 0.999263 0.0383931 -0
    outer loop
      vertex 26.3936 33.0068 0
      vertex 26.3936 33.0068 25
      vertex 26.5732 28.3301 0
    endloop
  endfacet
  facet normal 0.999263 0.0383931 0
    outer loop
      vertex 26.5732 28.3301 25
      vertex 26.5732 28.3301 0
      vertex 26.3936 33.0068 25
    endloop
  endfacet
  facet normal 0.184626 -0.982809 0
    outer loop
      vertex 27.4229 33.2002 0
      vertex 27.4229 33.2002 25
      vertex 26.3936 33.0068 0
    endloop
  endfacet
  facet normal 0.184626 -0.982809 0
    outer loop
      vertex 26.3936 33.0068 25
      vertex 26.3936 33.0068 0
      vertex 27.4229 33.2002 25
    endloop
  endfacet
  facet normal 0.0269279 -0.999637 0
    outer loop
      vertex 29.4893 33.2559 0
      vertex 29.4893 33.2559 25
      vertex 27.4229 33.2002 0
    endloop
  endfacet
  facet normal 0.0269279 -0.999637 0
    outer loop
      vertex 27.4229 33.2002 25
      vertex 27.4229 33.2002 0
      vertex 29.4893 33.2559 25
    endloop
  endfacet
  facet normal -0.0596664 -0.998218 0
    outer loop
      vertex 32.7568 33.0605 0
      vertex 32.7568 33.0605 25
      vertex 29.4893 33.2559 0
    endloop
  endfacet
  facet normal -0.0596664 -0.998218 -0
    outer loop
      vertex 29.4893 33.2559 25
      vertex 29.4893 33.2559 0
      vertex 32.7568 33.0605 25
    endloop
  endfacet
  facet normal -0.10405 -0.994572 0
    outer loop
      vertex 36.1826 32.7021 0
      vertex 36.1826 32.7021 25
      vertex 32.7568 33.0605 0
    endloop
  endfacet
  facet normal -0.10405 -0.994572 -0
    outer loop
      vertex 32.7568 33.0605 25
      vertex 32.7568 33.0605 0
      vertex 36.1826 32.7021 25
    endloop
  endfacet
  facet normal -0.169501 -0.98553 0
    outer loop
      vertex 38.7207 32.2656 0
      vertex 38.7207 32.2656 25
      vertex 36.1826 32.7021 0
    endloop
  endfacet
  facet normal -0.169501 -0.98553 -0
    outer loop
      vertex 36.1826 32.7021 25
      vertex 36.1826 32.7021 0
      vertex 38.7207 32.2656 25
    endloop
  endfacet
  facet normal -0.313815 -0.949484 0
    outer loop
      vertex 41.374 31.3887 0
      vertex 41.374 31.3887 25
      vertex 38.7207 32.2656 0
    endloop
  endfacet
  facet normal -0.313815 -0.949484 -0
    outer loop
      vertex 38.7207 32.2656 25
      vertex 38.7207 32.2656 0
      vertex 41.374 31.3887 25
    endloop
  endfacet
  facet normal -0.465319 -0.885143 0
    outer loop
      vertex 43.54 30.25 0
      vertex 43.54 30.25 25
      vertex 41.374 31.3887 0
    endloop
  endfacet
  facet normal -0.465319 -0.885143 -0
    outer loop
      vertex 41.374 31.3887 25
      vertex 41.374 31.3887 0
      vertex 43.54 30.25 25
    endloop
  endfacet
  facet normal -0.642162 -0.766569 0
    outer loop
      vertex 45.1768 28.8789 0
      vertex 45.1768 28.8789 25
      vertex 43.54 30.25 0
    endloop
  endfacet
  facet normal -0.642162 -0.766569 -0
    outer loop
      vertex 43.54 30.25 25
      vertex 43.54 30.25 0
      vertex 45.1768 28.8789 25
    endloop
  endfacet
  facet normal -0.783498 -0.621395 0
    outer loop
      vertex 45.7832 28.1143 0
      vertex 45.7832 28.1143 25
      vertex 45.1768 28.8789 0
    endloop
  endfacet
  facet normal -0.783498 -0.621395 -0
    outer loop
      vertex 45.1768 28.8789 25
      vertex 45.1768 28.8789 0
      vertex 45.7832 28.1143 25
    endloop
  endfacet
  facet normal -0.87068 -0.49185 0
    outer loop
      vertex 46.2422 27.3018 0
      vertex 46.2422 27.3018 25
      vertex 45.7832 28.1143 0
    endloop
  endfacet
  facet normal -0.87068 -0.49185 -0
    outer loop
      vertex 45.7832 28.1143 25
      vertex 45.7832 28.1143 0
      vertex 46.2422 27.3018 25
    endloop
  endfacet
  facet normal -0.940393 -0.34009 0
    outer loop
      vertex 46.6455 26.1865 0
      vertex 46.6455 26.1865 25
      vertex 46.2422 27.3018 0
    endloop
  endfacet
  facet normal -0.940393 -0.34009 -0
    outer loop
      vertex 46.2422 27.3018 25
      vertex 46.2422 27.3018 0
      vertex 46.6455 26.1865 25
    endloop
  endfacet
  facet normal -0.997 -0.0774068 0
    outer loop
      vertex 46.7188 25.2432 0
      vertex 46.7188 25.2432 25
      vertex 46.6455 26.1865 0
    endloop
  endfacet
  facet normal -0.997 -0.0774068 -0
    outer loop
      vertex 46.6455 26.1865 25
      vertex 46.6455 26.1865 0
      vertex 46.7188 25.2432 25
    endloop
  endfacet
  facet normal -0.956817 0.290692 0
    outer loop
      vertex 46.4541 24.3721 0
      vertex 46.4541 24.3721 25
      vertex 46.7188 25.2432 0
    endloop
  endfacet
  facet normal -0.956817 0.290692 0
    outer loop
      vertex 46.7188 25.2432 25
      vertex 46.7188 25.2432 0
      vertex 46.4541 24.3721 25
    endloop
  endfacet
  facet normal -0.824669 0.565615 0
    outer loop
      vertex 45.8379 23.4736 0
      vertex 45.8379 23.4736 25
      vertex 46.4541 24.3721 0
    endloop
  endfacet
  facet normal -0.824669 0.565615 0
    outer loop
      vertex 46.4541 24.3721 25
      vertex 46.4541 24.3721 0
      vertex 45.8379 23.4736 25
    endloop
  endfacet
  facet normal -0.668965 0.743294 0
    outer loop
      vertex 44.9492 22.6738 0
      vertex 44.9492 22.6738 25
      vertex 45.8379 23.4736 0
    endloop
  endfacet
  facet normal -0.668965 0.743294 0
    outer loop
      vertex 45.8379 23.4736 25
      vertex 45.8379 23.4736 0
      vertex 44.9492 22.6738 25
    endloop
  endfacet
  facet normal -0.457382 0.88927 0
    outer loop
      vertex 43.791 22.0781 0
      vertex 43.791 22.0781 25
      vertex 44.9492 22.6738 0
    endloop
  endfacet
  facet normal -0.457382 0.88927 0
    outer loop
      vertex 44.9492 22.6738 25
      vertex 44.9492 22.6738 0
      vertex 43.791 22.0781 25
    endloop
  endfacet
  facet normal -0.266304 0.963889 0
    outer loop
      vertex 42.3418 21.6777 0
      vertex 42.3418 21.6777 25
      vertex 43.791 22.0781 0
    endloop
  endfacet
  facet normal -0.266304 0.963889 0
    outer loop
      vertex 43.791 22.0781 25
      vertex 43.791 22.0781 0
      vertex 42.3418 21.6777 25
    endloop
  endfacet
  facet normal -0.119015 0.992892 0
    outer loop
      vertex 40.582 21.4668 0
      vertex 40.582 21.4668 25
      vertex 42.3418 21.6777 0
    endloop
  endfacet
  facet normal -0.119015 0.992892 0
    outer loop
      vertex 42.3418 21.6777 25
      vertex 42.3418 21.6777 0
      vertex 40.582 21.4668 25
    endloop
  endfacet
  facet normal -0.110895 0.993832 0
    outer loop
      vertex 38.9717 21.2871 0
      vertex 38.9717 21.2871 25
      vertex 40.582 21.4668 0
    endloop
  endfacet
  facet normal -0.110895 0.993832 0
    outer loop
      vertex 40.582 21.4668 25
      vertex 40.582 21.4668 0
      vertex 38.9717 21.2871 25
    endloop
  endfacet
  facet normal -0.38772 0.921777 0
    outer loop
      vertex 38.375 21.0361 0
      vertex 38.375 21.0361 25
      vertex 38.9717 21.2871 0
    endloop
  endfacet
  facet normal -0.38772 0.921777 0
    outer loop
      vertex 38.9717 21.2871 25
      vertex 38.9717 21.2871 0
      vertex 38.375 21.0361 25
    endloop
  endfacet
  facet normal -0.932444 0.361315 0
    outer loop
      vertex 37.6973 19.2871 0
      vertex 37.6973 19.2871 25
      vertex 38.375 21.0361 0
    endloop
  endfacet
  facet normal -0.932444 0.361315 0
    outer loop
      vertex 38.375 21.0361 25
      vertex 38.375 21.0361 0
      vertex 37.6973 19.2871 25
    endloop
  endfacet
  facet normal -0.87059 0.49201 0
    outer loop
      vertex 37.0322 18.1104 0
      vertex 37.0322 18.1104 25
      vertex 37.6973 19.2871 0
    endloop
  endfacet
  facet normal -0.87059 0.49201 0
    outer loop
      vertex 37.6973 19.2871 25
      vertex 37.6973 19.2871 0
      vertex 37.0322 18.1104 25
    endloop
  endfacet
  facet normal -0.796122 0.605136 0
    outer loop
      vertex 36.1875 16.999 0
      vertex 36.1875 16.999 25
      vertex 37.0322 18.1104 0
    endloop
  endfacet
  facet normal -0.796122 0.605136 0
    outer loop
      vertex 37.0322 18.1104 25
      vertex 37.0322 18.1104 0
      vertex 36.1875 16.999 25
    endloop
  endfacet
  facet normal -0.709706 0.704498 0
    outer loop
      vertex 35.2627 16.0674 0
      vertex 35.2627 16.0674 25
      vertex 36.1875 16.999 0
    endloop
  endfacet
  facet normal -0.709706 0.704498 0
    outer loop
      vertex 36.1875 16.999 25
      vertex 36.1875 16.999 0
      vertex 35.2627 16.0674 25
    endloop
  endfacet
  facet normal -0.575646 0.817699 0
    outer loop
      vertex 34.3555 15.4287 0
      vertex 34.3555 15.4287 25
      vertex 35.2627 16.0674 0
    endloop
  endfacet
  facet normal -0.575646 0.817699 0
    outer loop
      vertex 35.2627 16.0674 25
      vertex 35.2627 16.0674 0
      vertex 34.3555 15.4287 25
    endloop
  endfacet
  facet normal -0.277671 0.960676 0
    outer loop
      vertex 33.4736 15.1738 0
      vertex 33.4736 15.1738 25
      vertex 34.3555 15.4287 0
    endloop
  endfacet
  facet normal -0.277671 0.960676 0
    outer loop
      vertex 34.3555 15.4287 25
      vertex 34.3555 15.4287 0
      vertex 33.4736 15.1738 25
    endloop
  endfacet
  facet normal -0.0853072 0.996355 0
    outer loop
      vertex 32.2988 15.0732 0
      vertex 32.2988 15.0732 25
      vertex 33.4736 15.1738 0
    endloop
  endfacet
  facet normal -0.0853072 0.996355 0
    outer loop
      vertex 33.4736 15.1738 25
      vertex 33.4736 15.1738 0
      vertex 32.2988 15.0732 25
    endloop
  endfacet
  facet normal 0.0522053 0.998636 -0
    outer loop
      vertex 31.1406 15.1338 0
      vertex 31.1406 15.1338 25
      vertex 32.2988 15.0732 0
    endloop
  endfacet
  facet normal 0.0522053 0.998636 0
    outer loop
      vertex 32.2988 15.0732 25
      vertex 32.2988 15.0732 0
      vertex 31.1406 15.1338 25
    endloop
  endfacet
endsolid OpenSCAD_Model
