999
Inkscape export via OpenSCAD DXF Export
  0
SECTION
  2
HEADER
  9
$ACADVER
  1
AC1014
  9
$HANDSEED
  5
FFFF
  9
$MEASUREMENT
 70
     1
  0
ENDSEC
  0
SECTION
  2
TABLES
  0
TABLE
  2
VPORT
  5
8
330
0
100
AcDbSymbolTable
 70
     4
  0
VPORT
  5
2E
330
8
100
AcDbSymbolTableRecord
100
AcDbViewportTableRecord
  2
*ACTIVE
 70
     0
 10
0.0
 20
0.0
 11
1.0
 21
1.0
 12
210.0
 22
148.5
 13
0.0
 23
0.0
 14
10.0
 24
10.0
 15
10.0
 25
10.0
 16
0.0
 26
0.0
 36
1.0
 17
0.0
 27
0.0
 37
0.0
 40
341.0
 41
1.24
 42
50.0
 43
0.0
 44
0.0
 50
0.0
 51
0.0
 71
     0
 72
   100
 73
     1
 74
     3
 75
     0
 76
     0
 77
     0
 78
     0
  0
ENDTAB
  0
TABLE
  2
LTYPE
  5
5
330
0
100
AcDbSymbolTable
 70
     1
  0
LTYPE
  5
14
330
5
100
AcDbSymbolTableRecord
100
AcDbLinetypeTableRecord
  2
BYBLOCK
 70
     0
  3

 72
    65
 73
     0
 40
0.0
  0
LTYPE
  5
15
330
5
100
AcDbSymbolTableRecord
100
AcDbLinetypeTableRecord
  2
BYLAYER
 70
     0
  3

 72
    65
 73
     0
 40
0.0
  0
LTYPE
  5
16
330
5
100
AcDbSymbolTableRecord
100
AcDbLinetypeTableRecord
  2
CONTINUOUS
 70
     0
  3
Solid line
 72
    65
 73
     0
 40
0.0
  0
ENDTAB
  0
TABLE
0
TABLE
2
LAYER
5
2
330
0
100
AcDbSymbolTable
70
1
0
LAYER
5
10
330
2
100
AcDbSymbolTableRecord
100
AcDbLayerTableRecord
2
Layer_1
70
0
62
7
6
CONTINUOUS
0
ENDTAB
0
ENDSEC
  0
ENDTAB
  0
TABLE
  2
STYLE
  5
3
330
0
100
AcDbSymbolTable
 70
     1
  0
STYLE
  5
11
330
3
100
AcDbSymbolTableRecord
100
AcDbTextStyleTableRecord
  2
STANDARD
 70
     0
 40
0.0
 41
1.0
 50
0.0
 71
     0
 42
2.5
  3
txt
  4

  0
ENDTAB
  0
TABLE
  2
VIEW
  5
6
330
0
100
AcDbSymbolTable
 70
     0
  0
ENDTAB
  0
TABLE
  2
UCS
  5
7
330
0
100
AcDbSymbolTable
 70
     0
  0
ENDTAB
  0
TABLE
  2
APPID
  5
9
330
0
100
AcDbSymbolTable
 70
     2
  0
APPID
  5
12
330
9
100
AcDbSymbolTableRecord
100
AcDbRegAppTableRecord
  2
ACAD
 70
     0
  0
ENDTAB
  0
TABLE
  2
DIMSTYLE
  5
A
330
0
100
AcDbSymbolTable
 70
     1
  0
DIMSTYLE
105
27
330
A
100
AcDbSymbolTableRecord
100
AcDbDimStyleTableRecord
  2
ISO-25
 70
     0
  3

  4

  5

  6

  7

 40
1.0
 41
2.5
 42
0.625
 43
3.75
 44
1.25
 45
0.0
 46
0.0
 47
0.0
 48
0.0
140
2.5
141
2.5
142
0.0
143
0.03937007874016
144
1.0
145
0.0
146
1.0
147
0.625
 71
     0
 72
     0
 73
     0
 74
     0
 75
     0
 76
     0
 77
     1
 78
     8
170
     0
171
     3
172
     1
173
     0
174
     0
175
     0
176
     0
177
     0
178
     0
270
     2
271
     2
272
     2
273
     2
274
     3
340
11
275
     0
280
     0
281
     0
282
     0
283
     0
284
     8
285
     0
286
     0
287
     3
288
     0
  0
ENDTAB
  0
TABLE
  2
BLOCK_RECORD
  5
1
330
0
100
AcDbSymbolTable
 70
     1
  0
BLOCK_RECORD
  5
1F
330
1
100
AcDbSymbolTableRecord
100
AcDbBlockTableRecord
  2
*MODEL_SPACE
  0
BLOCK_RECORD
  5
1B
330
1
100
AcDbSymbolTableRecord
100
AcDbBlockTableRecord
  2
*PAPER_SPACE
  0
ENDTAB
  0
ENDSEC
  0
SECTION
  2
BLOCKS
  0
BLOCK
  5
20
330
1F
100
AcDbEntity
  8
0
100
AcDbBlockBegin
  2
*MODEL_SPACE
 70
     0
 10
0.0
 20
0.0
 30
0.0
  3
*MODEL_SPACE
  1

  0
ENDBLK
  5
21
330
1F
100
AcDbEntity
  8
0
100
AcDbBlockEnd
  0
BLOCK
  5
1C
330
1B
100
AcDbEntity
 67
     1
  8
0
100
AcDbBlockBegin
  2
*PAPER_SPACE
  1

  0
ENDBLK
  5
1D
330
1B
100
AcDbEntity
 67
     1
  8
0
100
AcDbBlockEnd
  0
ENDSEC
  0
SECTION
  2
ENTITIES
0
DIMENSION
5
83
100
AcDbEntity
62
256
370
-1
6
ByLayer
1
total_width
3
Standard
70
0
71
5
72
1
41
1.0
100
AcDbAlignedDimension
13
0.038716
23
0.000000
33
0.0
14
49.615073
24
0.000000
34
0.0
50
0.000000
100
AcDbRotatedDimension
0
DIMENSION
5
83
100
AcDbEntity
62
256
370
-1
6
ByLayer
1
total_minx
3
Standard
70
0
71
5
72
1
41
1.0
100
AcDbAlignedDimension
13
0.038716
23
0.000000
33
0.0
14
0.000000
24
0.000000
34
0.0
50
0.000000
100
AcDbRotatedDimension
0
DIMENSION
5
83
100
AcDbEntity
62
256
370
-1
6
ByLayer
1
total_maxx
3
Standard
70
0
71
5
72
1
41
1.0
100
AcDbAlignedDimension
13
0.000000
23
0.000000
33
0.0
14
49.615073
24
0.000000
34
0.0
50
0.000000
100
AcDbRotatedDimension
0
DIMENSION
5
83
100
AcDbEntity
62
256
370
-1
6
ByLayer
1
total_height
3
Standard
70
0
71
5
72
1
41
1.0
100
AcDbAlignedDimension
13
0.000000
23
6.058103
33
0.0
14
0.000000
24
38.017355
34
0.0
50
90.000000
100
AcDbRotatedDimension
0
DIMENSION
5
83
100
AcDbEntity
62
256
370
-1
6
ByLayer
1
total_miny
3
Standard
70
0
71
5
72
1
41
1.0
100
AcDbAlignedDimension
13
6.058103
23
0.000000
33
0.0
14
0.000000
24
0.000000
34
0.0
50
0.000000
100
AcDbRotatedDimension
0
DIMENSION
5
83
100
AcDbEntity
62
256
370
-1
6
ByLayer
1
total_maxy
3
Standard
70
0
71
5
72
1
41
1.0
100
AcDbAlignedDimension
13
0.000000
23
0.000000
33
0.0
14
38.017355
24
0.000000
34
0.0
50
0.000000
100
AcDbRotatedDimension
0
DIMENSION
8
Layer_1
5
83
100
AcDbEntity
62
256
370
-1
6
ByLayer
1
Layer_1_width
3
Standard
70
0
71
5
72
1
41
1.0
100
AcDbAlignedDimension
13
0.038716
23
0.000000
33
0.0
14
49.615073
24
0.000000
34
0.0
50
0.000000
100
AcDbRotatedDimension
0
DIMENSION
8
Layer_1
5
83
100
AcDbEntity
62
256
370
-1
6
ByLayer
1
Layer_1_minx
3
Standard
70
0
71
5
72
1
41
1.0
100
AcDbAlignedDimension
13
0.038716
23
0.000000
33
0.0
14
0.000000
24
0.000000
34
0.0
50
0.000000
100
AcDbRotatedDimension
0
DIMENSION
8
Layer_1
5
83
100
AcDbEntity
62
256
370
-1
6
ByLayer
1
Layer_1_maxx
3
Standard
70
0
71
5
72
1
41
1.0
100
AcDbAlignedDimension
13
0.000000
23
0.000000
33
0.0
14
49.615073
24
0.000000
34
0.0
50
0.000000
100
AcDbRotatedDimension
0
DIMENSION
8
Layer_1
5
83
100
AcDbEntity
62
256
370
-1
6
ByLayer
1
Layer_1_height
3
Standard
70
0
71
5
72
1
41
1.0
100
AcDbAlignedDimension
13
0.000000
23
6.058103
33
0.0
14
0.000000
24
38.017355
34
0.0
50
90.000000
100
AcDbRotatedDimension
0
DIMENSION
8
Layer_1
5
83
100
AcDbEntity
62
256
370
-1
6
ByLayer
1
Layer_1_miny
3
Standard
70
0
71
5
72
1
41
1.0
100
AcDbAlignedDimension
13
6.058103
23
0.000000
33
0.0
14
0.000000
24
0.000000
34
0.0
50
0.000000
100
AcDbRotatedDimension
0
DIMENSION
8
Layer_1
5
83
100
AcDbEntity
62
256
370
-1
6
ByLayer
1
Layer_1_maxy
3
Standard
70
0
71
5
72
1
41
1.0
100
AcDbAlignedDimension
13
0.000000
23
0.000000
33
0.0
14
38.017355
24
0.000000
34
0.0
50
0.000000
100
AcDbRotatedDimension
62
0
0
LWPOLYLINE
100
AcDbPolyline
8
Layer_1
90
108
70
0
10
22.369930
20
6.304280
30
0.0
10
21.275666
20
6.683586
30
0.0
10
20.506463
20
7.278189
30
0.0
10
19.956289
20
8.210831
30
0.0
10
19.519108
20
9.604251
30
0.0
10
19.130997
20
10.649366
30
0.0
10
18.503191
20
11.360333
30
0.0
10
17.508548
20
11.829641
30
0.0
10
16.019930
20
12.149780
30
0.0
10
13.654998
20
12.669363
30
0.0
10
11.440644
20
13.461197
30
0.0
10
9.396049
20
14.509915
30
0.0
10
7.540395
20
15.800151
30
0.0
10
5.892862
20
17.316536
30
0.0
10
4.472632
20
19.043704
30
0.0
10
3.298885
20
20.966288
30
0.0
10
2.390802
20
23.068921
30
0.0
10
1.993090
20
24.483650
30
0.0
10
1.872178
20
25.669439
30
0.0
10
2.027887
20
26.615221
30
0.0
10
2.460034
20
27.309925
30
0.0
10
3.055347
20
27.900195
30
0.0
10
2.214363
20
28.630354
30
0.0
10
1.566585
20
29.309970
30
0.0
10
1.013557
20
30.115846
30
0.0
10
0.249706
20
31.900795
30
0.0
10
0.038716
20
33.574031
30
0.0
10
0.176764
20
34.240267
30
0.0
10
0.496492
20
34.724387
30
0.0
10
1.071715
20
35.035137
30
0.0
10
1.823949
20
35.145318
30
0.0
10
2.654327
20
35.053764
30
0.0
10
3.463981
20
34.759313
30
0.0
10
4.284897
20
34.501236
30
0.0
10
5.292385
20
34.891604
30
0.0
10
6.403375
20
35.307356
30
0.0
10
7.468506
20
35.425389
30
0.0
10
8.410678
20
35.247984
30
0.0
10
9.152790
20
34.777421
30
0.0
10
9.487146
20
34.329768
30
0.0
10
9.689485
20
33.794104
30
0.0
10
9.703805
20
32.492432
30
0.0
10
9.207133
20
30.939781
30
0.0
10
8.210857
20
29.203527
30
0.0
10
7.621903
20
28.205788
30
0.0
10
7.626552
20
27.981368
30
0.0
10
7.804936
20
27.854570
30
0.0
10
8.416107
20
27.128669
30
0.0
10
9.305397
20
25.606030
30
0.0
10
10.547134
20
23.616647
30
0.0
10
11.734276
20
22.466546
30
0.0
10
12.285452
20
22.220033
30
0.0
10
12.796672
20
22.199909
30
0.0
10
13.259168
20
22.411695
30
0.0
10
13.664170
20
22.860914
30
0.0
10
15.099269
20
26.280435
30
0.0
10
16.662758
20
29.993052
30
0.0
10
17.490825
20
31.493641
30
0.0
10
18.372803
20
32.787235
30
0.0
10
19.325962
20
33.896448
30
0.0
10
20.367574
20
34.843894
30
0.0
10
21.514910
20
35.652186
30
0.0
10
22.785240
20
36.343938
30
0.0
10
24.967513
20
37.248431
30
0.0
10
27.143827
20
37.785170
30
0.0
10
29.703435
20
38.017355
30
0.0
10
33.035593
20
38.008184
30
0.0
10
36.958307
20
37.792593
30
0.0
10
39.303263
20
37.286435
30
0.0
10
41.132340
20
36.624551
30
0.0
10
42.648005
20
35.902701
30
0.0
10
43.955698
20
35.062552
30
0.0
10
45.160856
20
34.045770
30
0.0
10
46.376130
20
32.770370
30
0.0
10
47.351712
20
31.438791
30
0.0
10
48.159394
20
29.936962
30
0.0
10
48.870969
20
28.150811
30
0.0
10
49.283537
20
26.863670
30
0.0
10
49.505427
20
25.654652
30
0.0
10
49.615073
20
21.271645
30
0.0
10
49.522029
20
17.122916
30
0.0
10
49.141730
20
14.789353
30
0.0
10
48.411491
20
12.699991
30
0.0
10
47.403532
20
10.496277
30
0.0
10
46.298233
20
8.533817
30
0.0
10
45.275971
20
7.168219
30
0.0
10
44.198642
20
6.058103
30
0.0
10
40.617975
20
6.058103
30
0.0
10
38.118839
20
6.127250
30
0.0
10
36.440832
20
6.348195
30
0.0
10
35.497458
20
6.741197
30
0.0
10
35.274228
20
7.008550
30
0.0
10
35.202221
20
7.326514
30
0.0
10
35.056229
20
7.847407
30
0.0
10
34.665043
20
8.286932
30
0.0
10
34.098852
20
8.590604
30
0.0
10
33.427845
20
8.703937
30
0.0
10
32.848164
20
8.637290
30
0.0
10
32.434060
20
8.409678
30
0.0
10
32.140892
20
7.979590
30
0.0
10
31.924024
20
7.305517
30
0.0
10
31.613898
20
6.698891
30
0.0
10
31.076564
20
6.313328
30
0.0
10
29.560892
20
6.148147
30
0.0
10
26.884543
20
6.090829
30
0.0
10
24.127546
20
6.142496
30
0.0
10
22.369930
20
6.304269
30
0.0
10
22.369930
20
6.304280
30
0.0
62
0
0
LWPOLYLINE
100
AcDbPolyline
8
Layer_1
90
39
70
0
10
34.355464
20
15.429004
30
0.0
10
35.263024
20
16.067767
30
0.0
10
36.187899
20
16.999152
30
0.0
10
37.032093
20
18.110030
30
0.0
10
37.697610
20
19.287270
30
0.0
10
38.374636
20
21.035910
30
0.0
10
38.971556
20
21.287269
30
0.0
10
40.581707
20
21.466881
30
0.0
10
42.342243
20
21.678221
30
0.0
10
43.790770
20
22.077699
30
0.0
10
44.948846
20
22.673545
30
0.0
10
45.838028
20
23.473993
30
0.0
10
46.453653
20
24.371739
30
0.0
10
46.719232
20
25.243195
30
0.0
10
46.645166
20
26.186949
30
0.0
10
46.241857
20
27.301591
30
0.0
10
45.783642
20
28.113934
30
0.0
10
45.177160
20
28.878434
30
0.0
10
43.540515
20
30.249965
30
0.0
10
41.374152
20
31.388315
30
0.0
10
38.720302
20
32.265611
30
0.0
10
36.182704
20
32.702030
30
0.0
10
32.757297
20
33.060867
30
0.0
10
29.488912
20
33.255701
30
0.0
10
27.422380
20
33.200109
30
0.0
10
26.393200
20
33.007034
30
0.0
10
26.572959
20
28.329964
30
0.0
10
26.971950
20
21.952827
30
0.0
10
27.240347
20
19.754589
30
0.0
10
27.542237
20
18.344746
30
0.0
10
27.943229
20
17.614374
30
0.0
10
28.647258
20
16.755459
30
0.0
10
29.490074
20
15.945238
30
0.0
10
30.307430
20
15.360944
30
0.0
10
31.140202
20
15.134171
30
0.0
10
32.298872
20
15.073394
30
0.0
10
33.473830
20
15.173407
30
0.0
10
34.355464
20
15.429004
30
0.0
10
34.355464
20
15.429004
30
0.0
  0
ENDSEC
  0
SECTION
  2
OBJECTS
  0
DICTIONARY
  5
C
330
0
100
AcDbDictionary
  3
ACAD_GROUP
350
D
  3
ACAD_MLINESTYLE
350
17
  0
DICTIONARY
  5
D
330
C
100
AcDbDictionary
  0
DICTIONARY
  5
1A
330
C
100
AcDbDictionary
  0
DICTIONARY
  5
17
330
C
100
AcDbDictionary
  3
STANDARD
350
18
  0
DICTIONARY
  5
19
330
C
100
AcDbDictionary
  0
ENDSEC
  0
EOF
