999
Inkscape export via OpenSCAD DXF Export
  0
SECTION
  2
HEADER
  9
$ACADVER
  1
AC1014
  9
$HANDSEED
  5
FFFF
  9
$MEASUREMENT
 70
     1
  0
ENDSEC
  0
SECTION
  2
TABLES
  0
TABLE
  2
VPORT
  5
8
330
0
100
AcDbSymbolTable
 70
     4
  0
VPORT
  5
2E
330
8
100
AcDbSymbolTableRecord
100
AcDbViewportTableRecord
  2
*ACTIVE
 70
     0
 10
0.0
 20
0.0
 11
1.0
 21
1.0
 12
210.0
 22
148.5
 13
0.0
 23
0.0
 14
10.0
 24
10.0
 15
10.0
 25
10.0
 16
0.0
 26
0.0
 36
1.0
 17
0.0
 27
0.0
 37
0.0
 40
341.0
 41
1.24
 42
50.0
 43
0.0
 44
0.0
 50
0.0
 51
0.0
 71
     0
 72
   100
 73
     1
 74
     3
 75
     0
 76
     0
 77
     0
 78
     0
  0
ENDTAB
  0
TABLE
  2
LTYPE
  5
5
330
0
100
AcDbSymbolTable
 70
     1
  0
LTYPE
  5
14
330
5
100
AcDbSymbolTableRecord
100
AcDbLinetypeTableRecord
  2
BYBLOCK
 70
     0
  3

 72
    65
 73
     0
 40
0.0
  0
LTYPE
  5
15
330
5
100
AcDbSymbolTableRecord
100
AcDbLinetypeTableRecord
  2
BYLAYER
 70
     0
  3

 72
    65
 73
     0
 40
0.0
  0
LTYPE
  5
16
330
5
100
AcDbSymbolTableRecord
100
AcDbLinetypeTableRecord
  2
CONTINUOUS
 70
     0
  3
Solid line
 72
    65
 73
     0
 40
0.0
  0
ENDTAB
  0
TABLE
0
TABLE
2
LAYER
5
2
330
0
100
AcDbSymbolTable
70
1
0
LAYER
5
10
330
2
100
AcDbSymbolTableRecord
100
AcDbLayerTableRecord
2
Layer_1
70
0
62
7
6
CONTINUOUS
0
ENDTAB
0
ENDSEC
  0
ENDTAB
  0
TABLE
  2
STYLE
  5
3
330
0
100
AcDbSymbolTable
 70
     1
  0
STYLE
  5
11
330
3
100
AcDbSymbolTableRecord
100
AcDbTextStyleTableRecord
  2
STANDARD
 70
     0
 40
0.0
 41
1.0
 50
0.0
 71
     0
 42
2.5
  3
txt
  4

  0
ENDTAB
  0
TABLE
  2
VIEW
  5
6
330
0
100
AcDbSymbolTable
 70
     0
  0
ENDTAB
  0
TABLE
  2
UCS
  5
7
330
0
100
AcDbSymbolTable
 70
     0
  0
ENDTAB
  0
TABLE
  2
APPID
  5
9
330
0
100
AcDbSymbolTable
 70
     2
  0
APPID
  5
12
330
9
100
AcDbSymbolTableRecord
100
AcDbRegAppTableRecord
  2
ACAD
 70
     0
  0
ENDTAB
  0
TABLE
  2
DIMSTYLE
  5
A
330
0
100
AcDbSymbolTable
 70
     1
  0
DIMSTYLE
105
27
330
A
100
AcDbSymbolTableRecord
100
AcDbDimStyleTableRecord
  2
ISO-25
 70
     0
  3

  4

  5

  6

  7

 40
1.0
 41
2.5
 42
0.625
 43
3.75
 44
1.25
 45
0.0
 46
0.0
 47
0.0
 48
0.0
140
2.5
141
2.5
142
0.0
143
0.03937007874016
144
1.0
145
0.0
146
1.0
147
0.625
 71
     0
 72
     0
 73
     0
 74
     0
 75
     0
 76
     0
 77
     1
 78
     8
170
     0
171
     3
172
     1
173
     0
174
     0
175
     0
176
     0
177
     0
178
     0
270
     2
271
     2
272
     2
273
     2
274
     3
340
11
275
     0
280
     0
281
     0
282
     0
283
     0
284
     8
285
     0
286
     0
287
     3
288
     0
  0
ENDTAB
  0
TABLE
  2
BLOCK_RECORD
  5
1
330
0
100
AcDbSymbolTable
 70
     1
  0
BLOCK_RECORD
  5
1F
330
1
100
AcDbSymbolTableRecord
100
AcDbBlockTableRecord
  2
*MODEL_SPACE
  0
BLOCK_RECORD
  5
1B
330
1
100
AcDbSymbolTableRecord
100
AcDbBlockTableRecord
  2
*PAPER_SPACE
  0
ENDTAB
  0
ENDSEC
  0
SECTION
  2
BLOCKS
  0
BLOCK
  5
20
330
1F
100
AcDbEntity
  8
0
100
AcDbBlockBegin
  2
*MODEL_SPACE
 70
     0
 10
0.0
 20
0.0
 30
0.0
  3
*MODEL_SPACE
  1

  0
ENDBLK
  5
21
330
1F
100
AcDbEntity
  8
0
100
AcDbBlockEnd
  0
BLOCK
  5
1C
330
1B
100
AcDbEntity
 67
     1
  8
0
100
AcDbBlockBegin
  2
*PAPER_SPACE
  1

  0
ENDBLK
  5
1D
330
1B
100
AcDbEntity
 67
     1
  8
0
100
AcDbBlockEnd
  0
ENDSEC
  0
SECTION
  2
ENTITIES
0
DIMENSION
5
83
100
AcDbEntity
62
256
370
-1
6
ByLayer
1
total_width
3
Standard
70
0
71
5
72
1
41
1.0
100
AcDbAlignedDimension
13
0.305373
23
0.000000
33
0.0
14
79.480283
24
0.000000
34
0.0
50
0.000000
100
AcDbRotatedDimension
0
DIMENSION
5
83
100
AcDbEntity
62
256
370
-1
6
ByLayer
1
total_minx
3
Standard
70
0
71
5
72
1
41
1.0
100
AcDbAlignedDimension
13
0.305373
23
0.000000
33
0.0
14
0.000000
24
0.000000
34
0.0
50
0.000000
100
AcDbRotatedDimension
0
DIMENSION
5
83
100
AcDbEntity
62
256
370
-1
6
ByLayer
1
total_maxx
3
Standard
70
0
71
5
72
1
41
1.0
100
AcDbAlignedDimension
13
0.000000
23
0.000000
33
0.0
14
79.480283
24
0.000000
34
0.0
50
0.000000
100
AcDbRotatedDimension
0
DIMENSION
5
83
100
AcDbEntity
62
256
370
-1
6
ByLayer
1
total_height
3
Standard
70
0
71
5
72
1
41
1.0
100
AcDbAlignedDimension
13
0.000000
23
21.184306
33
0.0
14
0.000000
24
54.488181
34
0.0
50
90.000000
100
AcDbRotatedDimension
0
DIMENSION
5
83
100
AcDbEntity
62
256
370
-1
6
ByLayer
1
total_miny
3
Standard
70
0
71
5
72
1
41
1.0
100
AcDbAlignedDimension
13
21.184306
23
0.000000
33
0.0
14
0.000000
24
0.000000
34
0.0
50
0.000000
100
AcDbRotatedDimension
0
DIMENSION
5
83
100
AcDbEntity
62
256
370
-1
6
ByLayer
1
total_maxy
3
Standard
70
0
71
5
72
1
41
1.0
100
AcDbAlignedDimension
13
0.000000
23
0.000000
33
0.0
14
54.488181
24
0.000000
34
0.0
50
0.000000
100
AcDbRotatedDimension
0
DIMENSION
8
Layer_1
5
83
100
AcDbEntity
62
256
370
-1
6
ByLayer
1
Layer_1_width
3
Standard
70
0
71
5
72
1
41
1.0
100
AcDbAlignedDimension
13
0.305373
23
0.000000
33
0.0
14
79.480283
24
0.000000
34
0.0
50
0.000000
100
AcDbRotatedDimension
0
DIMENSION
8
Layer_1
5
83
100
AcDbEntity
62
256
370
-1
6
ByLayer
1
Layer_1_minx
3
Standard
70
0
71
5
72
1
41
1.0
100
AcDbAlignedDimension
13
0.305373
23
0.000000
33
0.0
14
0.000000
24
0.000000
34
0.0
50
0.000000
100
AcDbRotatedDimension
0
DIMENSION
8
Layer_1
5
83
100
AcDbEntity
62
256
370
-1
6
ByLayer
1
Layer_1_maxx
3
Standard
70
0
71
5
72
1
41
1.0
100
AcDbAlignedDimension
13
0.000000
23
0.000000
33
0.0
14
79.480283
24
0.000000
34
0.0
50
0.000000
100
AcDbRotatedDimension
0
DIMENSION
8
Layer_1
5
83
100
AcDbEntity
62
256
370
-1
6
ByLayer
1
Layer_1_height
3
Standard
70
0
71
5
72
1
41
1.0
100
AcDbAlignedDimension
13
0.000000
23
21.184306
33
0.0
14
0.000000
24
54.488181
34
0.0
50
90.000000
100
AcDbRotatedDimension
0
DIMENSION
8
Layer_1
5
83
100
AcDbEntity
62
256
370
-1
6
ByLayer
1
Layer_1_miny
3
Standard
70
0
71
5
72
1
41
1.0
100
AcDbAlignedDimension
13
21.184306
23
0.000000
33
0.0
14
0.000000
24
0.000000
34
0.0
50
0.000000
100
AcDbRotatedDimension
0
DIMENSION
8
Layer_1
5
83
100
AcDbEntity
62
256
370
-1
6
ByLayer
1
Layer_1_maxy
3
Standard
70
0
71
5
72
1
41
1.0
100
AcDbAlignedDimension
13
0.000000
23
0.000000
33
0.0
14
54.488181
24
0.000000
34
0.0
50
0.000000
100
AcDbRotatedDimension
62
0
0
LWPOLYLINE
100
AcDbPolyline
8
Layer_1
90
109
70
0
10
61.113789
20
54.488181
30
0.0
10
58.539131
20
54.411166
30
0.0
10
56.444200
20
54.131230
30
0.0
10
54.568224
20
53.606023
30
0.0
10
52.650430
20
52.793194
30
0.0
10
51.380116
20
52.101440
30
0.0
10
50.232823
20
51.293144
30
0.0
10
49.191272
20
50.345693
30
0.0
10
48.238181
20
49.236474
30
0.0
10
47.356273
20
47.942874
30
0.0
10
46.528265
20
46.442280
30
0.0
10
44.964835
20
42.729658
30
0.0
10
43.529470
20
39.309918
30
0.0
10
43.124458
20
38.860695
30
0.0
10
42.661935
20
38.648902
30
0.0
10
42.150677
20
38.669017
30
0.0
10
41.599458
20
38.915518
30
0.0
10
40.412234
20
40.065596
30
0.0
10
39.170460
20
42.054969
30
0.0
10
38.281196
20
43.577540
30
0.0
10
37.670051
20
44.303377
30
0.0
10
37.491718
20
44.430240
30
0.0
10
37.487183
20
44.654803
30
0.0
10
38.076299
20
45.652752
30
0.0
10
39.072590
20
47.389006
30
0.0
10
39.569294
20
48.941656
30
0.0
10
39.555007
20
50.243326
30
0.0
10
39.352678
20
50.778989
30
0.0
10
39.018326
20
51.226641
30
0.0
10
38.276165
20
51.697191
30
0.0
10
37.333887
20
51.874569
30
0.0
10
36.268650
20
51.756507
30
0.0
10
35.157613
20
51.340742
30
0.0
10
34.150135
20
50.950374
30
0.0
10
33.329231
20
51.208451
30
0.0
10
32.519623
20
51.502847
30
0.0
10
31.689348
20
51.594280
30
0.0
10
30.937216
20
51.483979
30
0.0
10
30.362040
20
51.173173
30
0.0
10
30.042300
20
50.689068
30
0.0
10
29.904219
20
50.022871
30
0.0
10
30.115112
20
48.349755
30
0.0
10
30.878865
20
46.564926
30
0.0
10
31.431861
20
45.759089
30
0.0
10
32.079627
20
45.079488
30
0.0
10
32.920782
20
44.349128
30
0.0
10
32.325468
20
43.758776
30
0.0
10
31.893285
20
43.064065
30
0.0
10
31.737500
20
42.118268
30
0.0
10
31.858337
20
40.932462
30
0.0
10
32.256016
20
39.517726
30
0.0
10
33.164107
20
37.415098
30
0.0
10
34.337879
20
35.492527
30
0.0
10
35.758145
20
33.765377
30
0.0
10
37.405719
20
32.249013
30
0.0
10
39.261414
20
30.958799
30
0.0
10
41.306044
20
29.910100
30
0.0
10
43.520423
20
29.118279
30
0.0
10
45.885365
20
28.598701
30
0.0
10
47.373973
20
28.278565
30
0.0
10
48.368592
20
27.809263
30
0.0
10
48.996378
20
27.098302
30
0.0
10
49.384481
20
26.053189
30
0.0
10
49.821670
20
24.659745
30
0.0
10
50.371866
20
23.727050
30
0.0
10
51.141091
20
23.132393
30
0.0
10
52.235365
20
22.753063
30
0.0
10
53.992951
20
22.591339
30
0.0
10
56.749883
20
22.539780
30
0.0
10
59.426168
20
22.597206
30
0.0
10
60.941811
20
22.762436
30
0.0
10
61.479298
20
23.147998
30
0.0
10
61.789578
20
23.754622
30
0.0
10
62.006430
20
24.428697
30
0.0
10
62.299562
20
24.858790
30
0.0
10
62.713631
20
25.086407
30
0.0
10
63.293295
20
25.153056
30
0.0
10
63.964300
20
25.039713
30
0.0
10
64.530486
20
24.736019
30
0.0
10
64.921667
20
24.296471
30
0.0
10
65.067657
20
23.775568
30
0.0
10
65.139661
20
23.457607
30
0.0
10
65.362884
20
23.190261
30
0.0
10
66.306235
20
22.797281
30
0.0
10
67.984220
20
22.576359
30
0.0
10
70.483346
20
22.507222
30
0.0
10
74.064041
20
22.507222
30
0.0
10
75.141116
20
23.617369
30
0.0
10
76.163364
20
24.982963
30
0.0
10
77.268633
20
26.945411
30
0.0
10
78.276562
20
29.149115
30
0.0
10
79.006787
20
31.238472
30
0.0
10
79.387163
20
33.572035
30
0.0
10
79.480283
20
37.720764
30
0.0
10
79.370619
20
42.103772
30
0.0
10
79.148716
20
43.312790
30
0.0
10
78.736142
20
44.599931
30
0.0
10
78.024548
20
46.386041
30
0.0
10
77.216826
20
47.887780
30
0.0
10
76.241204
20
49.219268
30
0.0
10
75.025910
20
50.494627
30
0.0
10
73.820812
20
51.511397
30
0.0
10
72.513251
20
52.351522
30
0.0
10
70.997716
20
53.073349
30
0.0
10
69.168699
20
53.735221
30
0.0
10
66.823643
20
54.241551
30
0.0
10
62.900828
20
54.457313
30
0.0
10
61.113789
20
54.488181
30
0.0
10
61.113789
20
54.488181
30
0.0
62
0
0
LWPOLYLINE
100
AcDbPolyline
8
Layer_1
90
39
70
0
10
58.684033
20
49.717412
30
0.0
10
63.944769
20
49.389829
30
0.0
10
66.622848
20
49.072586
30
0.0
10
68.585512
20
48.714753
30
0.0
10
71.239411
20
47.837422
30
0.0
10
73.405885
20
46.698995
30
0.0
10
75.042644
20
45.327385
30
0.0
10
75.649164
20
44.562860
30
0.0
10
76.107397
20
43.750507
30
0.0
10
76.510673
20
42.635859
30
0.0
10
76.584666
20
41.692090
30
0.0
10
76.319013
20
40.820620
30
0.0
10
75.703354
20
39.922868
30
0.0
10
74.814162
20
39.122442
30
0.0
10
73.656063
20
38.526643
30
0.0
10
72.207512
20
38.127214
30
0.0
10
70.446965
20
37.915895
30
0.0
10
68.836817
20
37.736241
30
0.0
10
68.239900
20
37.484843
30
0.0
10
67.563007
20
35.736389
30
0.0
10
66.897510
20
34.559111
30
0.0
10
66.053360
20
33.448151
30
0.0
10
65.128530
20
32.516683
30
0.0
10
64.220990
20
31.877881
30
0.0
10
63.339342
20
31.622324
30
0.0
10
62.164353
20
31.522402
30
0.0
10
61.005652
20
31.583269
30
0.0
10
60.172865
20
31.810082
30
0.0
10
59.355470
20
32.394365
30
0.0
10
58.512565
20
33.204561
30
0.0
10
57.808449
20
34.063450
30
0.0
10
57.407418
20
34.793812
30
0.0
10
57.105566
20
36.203661
30
0.0
10
56.837252
20
38.401916
30
0.0
10
56.438382
20
44.779077
30
0.0
10
56.258686
20
49.456137
30
0.0
10
57.287803
20
49.649064
30
0.0
10
58.684033
20
49.717412
30
0.0
10
58.684033
20
49.717412
30
0.0
62
0
0
LWPOLYLINE
100
AcDbPolyline
8
Layer_1
90
85
70
0
10
11.863255
20
41.526906
30
0.0
10
10.572309
20
41.493832
30
0.0
10
8.007013
20
41.275489
30
0.0
10
6.040343
20
40.806455
30
0.0
10
4.447885
20
40.006697
30
0.0
10
3.005226
20
38.796186
30
0.0
10
1.820247
20
37.380647
30
0.0
10
1.015707
20
35.817243
30
0.0
10
0.530963
20
33.944558
30
0.0
10
0.305373
20
31.601173
30
0.0
10
0.367792
20
28.766657
30
0.0
10
0.809352
20
26.238850
30
0.0
10
1.617799
20
24.063871
30
0.0
10
2.780881
20
22.287840
30
0.0
10
3.725664
20
21.184306
30
0.0
10
6.284405
20
21.188164
30
0.0
10
8.803199
20
21.329565
30
0.0
10
9.314585
20
21.605409
30
0.0
10
9.666111
20
22.110347
30
0.0
10
10.081090
20
22.501897
30
0.0
10
10.720586
20
22.639514
30
0.0
10
11.331162
20
22.518669
30
0.0
10
11.582687
20
22.110347
30
0.0
10
11.775975
20
21.618007
30
0.0
10
12.277584
20
21.340780
30
0.0
10
13.323060
20
21.217791
30
0.0
10
15.147947
20
21.188164
30
0.0
10
17.737782
20
21.286343
30
0.0
10
18.292781
20
21.516157
30
0.0
10
18.785968
20
21.957659
30
0.0
10
19.341781
20
22.703596
30
0.0
10
19.559323
20
23.406806
30
0.0
10
19.706142
20
23.976429
30
0.0
10
20.149278
20
24.434472
30
0.0
10
20.892749
20
24.783686
30
0.0
10
21.940573
20
25.026826
30
0.0
10
23.518430
20
25.383803
30
0.0
10
24.944349
20
25.937504
30
0.0
10
26.258545
20
26.707384
30
0.0
10
27.501232
20
27.712899
30
0.0
10
29.178036
20
29.675172
30
0.0
10
30.324402
20
31.789683
30
0.0
10
30.645693
20
32.772307
30
0.0
10
30.770802
20
33.634927
30
0.0
10
30.678537
20
34.324854
30
0.0
10
30.347708
20
34.789401
30
0.0
10
30.064775
20
35.104313
30
0.0
10
30.420468
20
35.418889
30
0.0
10
30.932709
20
35.943410
30
0.0
10
31.444280
20
36.774685
30
0.0
10
31.837514
20
37.686120
30
0.0
10
31.994740
20
38.451124
30
0.0
10
31.901475
20
38.981583
30
0.0
10
31.677240
20
39.387639
30
0.0
10
31.275794
20
39.604287
30
0.0
10
30.716368
20
39.690718
30
0.0
10
30.125299
20
39.642698
30
0.0
10
29.628925
20
39.455990
30
0.0
10
29.157776
20
39.374239
30
0.0
10
28.517675
20
39.592140
30
0.0
10
27.333200
20
39.945376
30
0.0
10
26.388787
20
39.751878
30
0.0
10
26.048129
20
39.473613
30
0.0
10
25.817317
20
39.086874
30
0.0
10
25.712963
20
38.601064
30
0.0
10
25.751675
20
38.025586
30
0.0
10
26.048436
20
37.123476
30
0.0
10
26.522826
20
36.228624
30
0.0
10
27.123650
20
35.339514
30
0.0
10
26.529440
20
34.413472
30
0.0
10
24.840337
20
31.960538
30
0.0
10
24.391694
20
31.592439
30
0.0
10
23.989991
20
31.552114
30
0.0
10
23.549848
20
31.728097
30
0.0
10
23.141062
20
32.228569
30
0.0
10
22.012231
20
34.886415
30
0.0
10
21.240795
20
36.607970
30
0.0
10
20.318523
20
38.054037
30
0.0
10
19.238377
20
39.233835
30
0.0
10
17.993320
20
40.156584
30
0.0
10
16.721319
20
40.800539
30
0.0
10
15.356360
20
41.229048
30
0.0
10
13.777364
20
41.463905
30
0.0
10
11.863255
20
41.526906
30
0.0
10
11.863255
20
41.526906
30
0.0
62
0
0
LWPOLYLINE
100
AcDbPolyline
8
Layer_1
90
63
70
0
10
14.664531
20
37.985347
30
0.0
10
14.743355
20
36.316818
30
0.0
10
14.555942
20
32.257119
30
0.0
10
14.234063
20
30.418210
30
0.0
10
13.737790
20
28.952568
30
0.0
10
13.101032
20
27.934521
30
0.0
10
12.357695
20
27.438395
30
0.0
10
10.957784
20
27.345974
30
0.0
10
10.404074
20
27.483091
30
0.0
10
10.081176
20
27.717860
30
0.0
10
10.040386
20
27.728333
30
0.0
10
9.980304
20
27.771327
30
0.0
10
9.964870
20
27.793377
30
0.0
10
9.965421
20
27.793927
30
0.0
10
9.950538
20
27.810466
30
0.0
10
9.950538
20
27.811566
30
0.0
10
9.950538
20
27.812119
30
0.0
10
9.936207
20
27.838575
30
0.0
10
9.931797
20
27.838025
30
0.0
10
9.937860
20
27.830859
30
0.0
10
9.929041
20
27.838025
30
0.0
10
9.904787
20
27.856214
30
0.0
10
9.899826
20
27.867791
30
0.0
10
9.891558
20
27.875507
30
0.0
10
9.898724
20
27.869995
30
0.0
10
9.893212
20
27.884326
30
0.0
10
9.835885
20
27.921258
30
0.0
10
9.832578
20
27.924565
30
0.0
10
9.825412
20
27.930077
30
0.0
10
9.806120
20
27.950473
30
0.0
10
9.809978
20
27.942204
30
0.0
10
9.811632
20
27.938897
30
0.0
10
9.789032
20
27.969216
30
0.0
10
9.788481
20
27.969766
30
0.0
10
9.787930
20
27.969766
30
0.0
10
9.786827
20
27.970869
30
0.0
10
9.776905
20
27.978585
30
0.0
10
9.773598
20
27.978035
30
0.0
10
9.785174
20
27.971420
30
0.0
10
9.776905
20
27.973074
30
0.0
10
9.771944
20
27.977482
30
0.0
10
9.765881
20
27.975828
30
0.0
10
9.682648
20
28.032603
30
0.0
10
8.918332
20
28.900498
30
0.0
10
8.006953
20
30.378575
30
0.0
10
7.728984
20
30.838753
30
0.0
10
7.431042
20
31.101790
30
0.0
10
6.347244
20
31.264931
30
0.0
10
4.516810
20
31.503306
30
0.0
10
3.855858
20
31.828717
30
0.0
10
3.190985
20
32.351376
30
0.0
10
2.573346
20
33.074883
30
0.0
10
2.608902
20
33.824774
30
0.0
10
2.926065
20
34.679917
30
0.0
10
3.366066
20
35.362211
30
0.0
10
3.993997
20
35.949097
30
0.0
10
4.874948
20
36.518012
30
0.0
10
6.185945
20
37.128559
30
0.0
10
7.697196
20
37.547036
30
0.0
10
9.550188
20
37.801711
30
0.0
10
11.886406
20
37.920854
30
0.0
10
14.664531
20
37.985347
30
0.0
10
14.664531
20
37.985347
30
0.0
62
0
0
LWPOLYLINE
100
AcDbPolyline
8
Layer_1
90
19
70
0
10
9.835885
20
27.921258
30
0.0
10
9.860690
20
27.896453
30
0.0
10
9.893212
20
27.884326
30
0.0
10
9.891007
20
27.889841
30
0.0
10
9.890456
20
27.890391
30
0.0
10
9.861792
20
27.920157
30
0.0
10
9.890456
20
27.890391
30
0.0
10
9.886597
20
27.899761
30
0.0
10
9.889353
20
27.910234
30
0.0
10
9.881085
20
27.917400
30
0.0
10
9.881085
20
27.917953
30
0.0
10
9.878880
20
27.918503
30
0.0
10
9.875022
20
27.928976
30
0.0
10
9.857934
20
27.929527
30
0.0
10
9.838090
20
27.922361
30
0.0
10
9.839744
20
27.919053
30
0.0
10
9.836437
20
27.921811
30
0.0
10
9.835885
20
27.921258
30
0.0
10
9.835885
20
27.921258
30
0.0
62
0
0
LWPOLYLINE
100
AcDbPolyline
8
Layer_1
90
11
70
0
10
9.950538
20
27.812119
30
0.0
10
9.948885
20
27.824244
30
0.0
10
9.940616
20
27.837474
30
0.0
10
9.938412
20
27.838575
30
0.0
10
9.940065
20
27.838575
30
0.0
10
9.938412
20
27.840229
30
0.0
10
9.935655
20
27.841883
30
0.0
10
9.937309
20
27.839128
30
0.0
10
9.937309
20
27.838575
30
0.0
10
9.950538
20
27.812119
30
0.0
10
9.950538
20
27.812119
30
0.0
62
0
0
LWPOLYLINE
100
AcDbPolyline
8
Layer_1
90
7
70
0
10
9.940065
20
27.838575
30
0.0
10
9.940616
20
27.837474
30
0.0
10
9.947782
20
27.834717
30
0.0
10
9.947782
20
27.835820
30
0.0
10
9.942270
20
27.838575
30
0.0
10
9.940065
20
27.838575
30
0.0
10
9.940065
20
27.838575
30
0.0
62
0
0
LWPOLYLINE
100
AcDbPolyline
8
Layer_1
90
6
70
0
10
9.906992
20
27.871649
30
0.0
10
9.905890
20
27.865036
30
0.0
10
9.909197
20
27.862829
30
0.0
10
9.910299
20
27.862829
30
0.0
10
9.906992
20
27.871649
30
0.0
10
9.906992
20
27.871649
30
0.0
62
0
0
LWPOLYLINE
100
AcDbPolyline
8
Layer_1
90
7
70
0
10
9.925182
20
27.846844
30
0.0
10
9.925734
20
27.845190
30
0.0
10
9.927938
20
27.842986
30
0.0
10
9.935655
20
27.839678
30
0.0
10
9.934553
20
27.842436
30
0.0
10
9.925182
20
27.846844
30
0.0
10
9.925182
20
27.846844
30
0.0
62
0
0
LWPOLYLINE
100
AcDbPolyline
8
Layer_1
90
5
70
0
10
9.953845
20
27.833063
30
0.0
10
9.954397
20
27.831963
30
0.0
10
9.964870
20
27.827551
30
0.0
10
9.953845
20
27.833063
30
0.0
10
9.953845
20
27.833063
30
0.0
62
0
0
LWPOLYLINE
100
AcDbPolyline
8
Layer_1
90
5
70
0
10
9.967075
20
27.803850
30
0.0
10
9.970382
20
27.798339
30
0.0
10
9.972035
20
27.799439
30
0.0
10
9.967075
20
27.803850
30
0.0
10
9.967075
20
27.803850
30
0.0
  0
ENDSEC
  0
SECTION
  2
OBJECTS
  0
DICTIONARY
  5
C
330
0
100
AcDbDictionary
  3
ACAD_GROUP
350
D
  3
ACAD_MLINESTYLE
350
17
  0
DICTIONARY
  5
D
330
C
100
AcDbDictionary
  0
DICTIONARY
  5
1A
330
C
100
AcDbDictionary
  0
DICTIONARY
  5
17
330
C
100
AcDbDictionary
  3
STANDARD
350
18
  0
DICTIONARY
  5
19
330
C
100
AcDbDictionary
  0
ENDSEC
  0
EOF
