999
Inkscape export via OpenSCAD DXF Export
  0
SECTION
  2
HEADER
  9
$ACADVER
  1
AC1014
  9
$HANDSEED
  5
FFFF
  9
$MEASUREMENT
 70
     1
  0
ENDSEC
  0
SECTION
  2
TABLES
  0
TABLE
  2
VPORT
  5
8
330
0
100
AcDbSymbolTable
 70
     4
  0
VPORT
  5
2E
330
8
100
AcDbSymbolTableRecord
100
AcDbViewportTableRecord
  2
*ACTIVE
 70
     0
 10
0.0
 20
0.0
 11
1.0
 21
1.0
 12
210.0
 22
148.5
 13
0.0
 23
0.0
 14
10.0
 24
10.0
 15
10.0
 25
10.0
 16
0.0
 26
0.0
 36
1.0
 17
0.0
 27
0.0
 37
0.0
 40
341.0
 41
1.24
 42
50.0
 43
0.0
 44
0.0
 50
0.0
 51
0.0
 71
     0
 72
   100
 73
     1
 74
     3
 75
     0
 76
     0
 77
     0
 78
     0
  0
ENDTAB
  0
TABLE
  2
LTYPE
  5
5
330
0
100
AcDbSymbolTable
 70
     1
  0
LTYPE
  5
14
330
5
100
AcDbSymbolTableRecord
100
AcDbLinetypeTableRecord
  2
BYBLOCK
 70
     0
  3

 72
    65
 73
     0
 40
0.0
  0
LTYPE
  5
15
330
5
100
AcDbSymbolTableRecord
100
AcDbLinetypeTableRecord
  2
BYLAYER
 70
     0
  3

 72
    65
 73
     0
 40
0.0
  0
LTYPE
  5
16
330
5
100
AcDbSymbolTableRecord
100
AcDbLinetypeTableRecord
  2
CONTINUOUS
 70
     0
  3
Solid line
 72
    65
 73
     0
 40
0.0
  0
ENDTAB
  0
TABLE
0
TABLE
2
LAYER
5
2
330
0
100
AcDbSymbolTable
70
1
0
LAYER
5
10
330
2
100
AcDbSymbolTableRecord
100
AcDbLayerTableRecord
2
Layer_1
70
0
62
7
6
CONTINUOUS
0
ENDTAB
0
ENDSEC
  0
ENDTAB
  0
TABLE
  2
STYLE
  5
3
330
0
100
AcDbSymbolTable
 70
     1
  0
STYLE
  5
11
330
3
100
AcDbSymbolTableRecord
100
AcDbTextStyleTableRecord
  2
STANDARD
 70
     0
 40
0.0
 41
1.0
 50
0.0
 71
     0
 42
2.5
  3
txt
  4

  0
ENDTAB
  0
TABLE
  2
VIEW
  5
6
330
0
100
AcDbSymbolTable
 70
     0
  0
ENDTAB
  0
TABLE
  2
UCS
  5
7
330
0
100
AcDbSymbolTable
 70
     0
  0
ENDTAB
  0
TABLE
  2
APPID
  5
9
330
0
100
AcDbSymbolTable
 70
     2
  0
APPID
  5
12
330
9
100
AcDbSymbolTableRecord
100
AcDbRegAppTableRecord
  2
ACAD
 70
     0
  0
ENDTAB
  0
TABLE
  2
DIMSTYLE
  5
A
330
0
100
AcDbSymbolTable
 70
     1
  0
DIMSTYLE
105
27
330
A
100
AcDbSymbolTableRecord
100
AcDbDimStyleTableRecord
  2
ISO-25
 70
     0
  3

  4

  5

  6

  7

 40
1.0
 41
2.5
 42
0.625
 43
3.75
 44
1.25
 45
0.0
 46
0.0
 47
0.0
 48
0.0
140
2.5
141
2.5
142
0.0
143
0.03937007874016
144
1.0
145
0.0
146
1.0
147
0.625
 71
     0
 72
     0
 73
     0
 74
     0
 75
     0
 76
     0
 77
     1
 78
     8
170
     0
171
     3
172
     1
173
     0
174
     0
175
     0
176
     0
177
     0
178
     0
270
     2
271
     2
272
     2
273
     2
274
     3
340
11
275
     0
280
     0
281
     0
282
     0
283
     0
284
     8
285
     0
286
     0
287
     3
288
     0
  0
ENDTAB
  0
TABLE
  2
BLOCK_RECORD
  5
1
330
0
100
AcDbSymbolTable
 70
     1
  0
BLOCK_RECORD
  5
1F
330
1
100
AcDbSymbolTableRecord
100
AcDbBlockTableRecord
  2
*MODEL_SPACE
  0
BLOCK_RECORD
  5
1B
330
1
100
AcDbSymbolTableRecord
100
AcDbBlockTableRecord
  2
*PAPER_SPACE
  0
ENDTAB
  0
ENDSEC
  0
SECTION
  2
BLOCKS
  0
BLOCK
  5
20
330
1F
100
AcDbEntity
  8
0
100
AcDbBlockBegin
  2
*MODEL_SPACE
 70
     0
 10
0.0
 20
0.0
 30
0.0
  3
*MODEL_SPACE
  1

  0
ENDBLK
  5
21
330
1F
100
AcDbEntity
  8
0
100
AcDbBlockEnd
  0
BLOCK
  5
1C
330
1B
100
AcDbEntity
 67
     1
  8
0
100
AcDbBlockBegin
  2
*PAPER_SPACE
  1

  0
ENDBLK
  5
1D
330
1B
100
AcDbEntity
 67
     1
  8
0
100
AcDbBlockEnd
  0
ENDSEC
  0
SECTION
  2
ENTITIES
0
DIMENSION
5
83
100
AcDbEntity
62
256
370
-1
6
ByLayer
1
total_width
3
Standard
70
0
71
5
72
1
41
1.0
100
AcDbAlignedDimension
13
3.898696
23
0.000000
33
0.0
14
80.643016
24
0.000000
34
0.0
50
0.000000
100
AcDbRotatedDimension
0
DIMENSION
5
83
100
AcDbEntity
62
256
370
-1
6
ByLayer
1
total_minx
3
Standard
70
0
71
5
72
1
41
1.0
100
AcDbAlignedDimension
13
3.898696
23
0.000000
33
0.0
14
0.000000
24
0.000000
34
0.0
50
0.000000
100
AcDbRotatedDimension
0
DIMENSION
5
83
100
AcDbEntity
62
256
370
-1
6
ByLayer
1
total_maxx
3
Standard
70
0
71
5
72
1
41
1.0
100
AcDbAlignedDimension
13
0.000000
23
0.000000
33
0.0
14
80.643016
24
0.000000
34
0.0
50
0.000000
100
AcDbRotatedDimension
0
DIMENSION
5
83
100
AcDbEntity
62
256
370
-1
6
ByLayer
1
total_height
3
Standard
70
0
71
5
72
1
41
1.0
100
AcDbAlignedDimension
13
0.000000
23
2.469251
33
0.0
14
0.000000
24
76.493548
34
0.0
50
90.000000
100
AcDbRotatedDimension
0
DIMENSION
5
83
100
AcDbEntity
62
256
370
-1
6
ByLayer
1
total_miny
3
Standard
70
0
71
5
72
1
41
1.0
100
AcDbAlignedDimension
13
2.469251
23
0.000000
33
0.0
14
0.000000
24
0.000000
34
0.0
50
0.000000
100
AcDbRotatedDimension
0
DIMENSION
5
83
100
AcDbEntity
62
256
370
-1
6
ByLayer
1
total_maxy
3
Standard
70
0
71
5
72
1
41
1.0
100
AcDbAlignedDimension
13
0.000000
23
0.000000
33
0.0
14
76.493548
24
0.000000
34
0.0
50
0.000000
100
AcDbRotatedDimension
0
DIMENSION
8
Layer_1
5
83
100
AcDbEntity
62
256
370
-1
6
ByLayer
1
Layer_1_width
3
Standard
70
0
71
5
72
1
41
1.0
100
AcDbAlignedDimension
13
3.898696
23
0.000000
33
0.0
14
80.643016
24
0.000000
34
0.0
50
0.000000
100
AcDbRotatedDimension
0
DIMENSION
8
Layer_1
5
83
100
AcDbEntity
62
256
370
-1
6
ByLayer
1
Layer_1_minx
3
Standard
70
0
71
5
72
1
41
1.0
100
AcDbAlignedDimension
13
3.898696
23
0.000000
33
0.0
14
0.000000
24
0.000000
34
0.0
50
0.000000
100
AcDbRotatedDimension
0
DIMENSION
8
Layer_1
5
83
100
AcDbEntity
62
256
370
-1
6
ByLayer
1
Layer_1_maxx
3
Standard
70
0
71
5
72
1
41
1.0
100
AcDbAlignedDimension
13
0.000000
23
0.000000
33
0.0
14
80.643016
24
0.000000
34
0.0
50
0.000000
100
AcDbRotatedDimension
0
DIMENSION
8
Layer_1
5
83
100
AcDbEntity
62
256
370
-1
6
ByLayer
1
Layer_1_height
3
Standard
70
0
71
5
72
1
41
1.0
100
AcDbAlignedDimension
13
0.000000
23
2.469251
33
0.0
14
0.000000
24
76.493548
34
0.0
50
90.000000
100
AcDbRotatedDimension
0
DIMENSION
8
Layer_1
5
83
100
AcDbEntity
62
256
370
-1
6
ByLayer
1
Layer_1_miny
3
Standard
70
0
71
5
72
1
41
1.0
100
AcDbAlignedDimension
13
2.469251
23
0.000000
33
0.0
14
0.000000
24
0.000000
34
0.0
50
0.000000
100
AcDbRotatedDimension
0
DIMENSION
8
Layer_1
5
83
100
AcDbEntity
62
256
370
-1
6
ByLayer
1
Layer_1_maxy
3
Standard
70
0
71
5
72
1
41
1.0
100
AcDbAlignedDimension
13
0.000000
23
0.000000
33
0.0
14
76.493548
24
0.000000
34
0.0
50
0.000000
100
AcDbRotatedDimension
62
0
0
LWPOLYLINE
100
AcDbPolyline
8
Layer_1
90
260
70
0
10
19.041121
20
2.805286
30
0.0
10
17.754939
20
3.377881
30
0.0
10
16.218899
20
4.303607
30
0.0
10
14.213459
20
6.019648
30
0.0
10
12.702779
20
8.024214
30
0.0
10
11.694785
20
10.238390
30
0.0
10
11.197404
20
12.583260
30
0.0
10
11.218560
20
14.979910
30
0.0
10
11.766181
20
17.349424
30
0.0
10
12.848192
20
19.612888
30
0.0
10
14.472520
20
21.691386
30
0.0
10
16.288651
20
23.566439
30
0.0
10
15.275560
20
23.986072
30
0.0
10
14.354982
20
24.189991
30
0.0
10
13.441802
20
24.106252
30
0.0
10
12.694492
20
23.774508
30
0.0
10
12.271525
20
23.234410
30
0.0
10
12.232901
20
22.884733
30
0.0
10
12.698622
20
23.201813
30
0.0
10
13.245283
20
23.492121
30
0.0
10
13.671019
20
23.327481
30
0.0
10
13.962762
20
22.785342
30
0.0
10
13.883146
20
22.228152
30
0.0
10
13.487012
20
21.772647
30
0.0
10
12.829200
20
21.535562
30
0.0
10
11.946491
20
21.688271
30
0.0
10
11.403977
20
22.275326
30
0.0
10
11.276974
20
23.134084
30
0.0
10
11.640797
20
24.101899
30
0.0
10
12.157145
20
24.734982
30
0.0
10
12.573800
20
24.998299
30
0.0
10
12.413763
20
25.363433
30
0.0
10
11.543597
20
26.241313
30
0.0
10
10.320798
20
27.539685
30
0.0
10
9.531252
20
28.866834
30
0.0
10
9.140647
20
30.303107
30
0.0
10
9.114668
20
31.928853
30
0.0
10
9.387336
20
33.375370
30
0.0
10
9.953965
20
34.512895
30
0.0
10
10.838543
20
35.374470
30
0.0
10
12.065055
20
35.993138
30
0.0
10
13.208062
20
36.406455
30
0.0
10
11.830752
20
37.087892
30
0.0
10
10.069273
20
38.253158
30
0.0
10
8.278662
20
39.947161
30
0.0
10
6.644958
20
41.968074
30
0.0
10
5.354201
20
44.114071
30
0.0
10
4.359831
20
46.336042
30
0.0
10
3.898696
20
48.060745
30
0.0
10
3.925912
20
49.628797
30
0.0
10
4.396591
20
51.380816
30
0.0
10
5.000722
20
53.434600
30
0.0
10
5.460872
20
55.643510
30
0.0
10
5.754535
20
57.874982
30
0.0
10
5.859208
20
59.996455
30
0.0
10
5.891086
20
61.134751
30
0.0
10
6.049191
20
61.859055
30
0.0
10
6.432882
20
62.401712
30
0.0
10
7.141516
20
62.995066
30
0.0
10
11.571327
20
66.670913
30
0.0
10
13.017709
20
68.169347
30
0.0
10
14.219055
20
69.694485
30
0.0
10
16.297658
20
72.786147
30
0.0
10
16.688240
20
73.268103
30
0.0
10
17.091408
20
73.417051
30
0.0
10
17.382476
20
73.470154
30
0.0
10
17.503540
20
73.721674
30
0.0
10
17.799547
20
73.956037
30
0.0
10
18.650067
20
73.893565
30
0.0
10
20.649350
20
73.692458
30
0.0
10
23.311885
20
73.682562
30
0.0
10
26.303774
20
73.854320
30
0.0
10
29.291119
20
74.198172
30
0.0
10
33.492806
20
74.945589
30
0.0
10
38.175232
20
76.201089
30
0.0
10
39.527202
20
76.493548
30
0.0
10
39.976908
20
76.471981
30
0.0
10
40.296840
20
76.320688
30
0.0
10
40.502806
20
76.026268
30
0.0
10
40.610613
20
75.575325
30
0.0
10
40.594983
20
74.150279
30
0.0
10
39.583885
20
67.165015
30
0.0
10
38.514731
20
60.628014
30
0.0
10
38.065451
20
58.547930
30
0.0
10
37.286249
20
55.777316
30
0.0
10
36.272106
20
52.514966
30
0.0
10
41.263516
20
52.510986
30
0.0
10
56.305466
20
52.241860
30
0.0
10
61.192963
20
51.966045
30
0.0
10
63.192764
20
51.640974
30
0.0
10
63.621807
20
51.389940
30
0.0
10
63.996337
20
51.742389
30
0.0
10
64.303792
20
52.674659
30
0.0
10
64.531610
20
54.163084
30
0.0
10
65.041321
20
56.901490
30
0.0
10
65.927248
20
59.248977
30
0.0
10
67.140713
20
61.169029
30
0.0
10
68.633040
20
62.625130
30
0.0
10
70.355552
20
63.580762
30
0.0
10
72.259572
20
63.999410
30
0.0
10
74.296424
20
63.844555
30
0.0
10
76.417430
20
63.079682
30
0.0
10
78.077724
20
61.922258
30
0.0
10
79.423631
20
60.367713
30
0.0
10
80.322833
20
58.611188
30
0.0
10
80.563572
20
57.718164
30
0.0
10
80.643016
20
56.847822
30
0.0
10
80.436675
20
55.430242
30
0.0
10
79.884622
20
54.170574
30
0.0
10
79.052183
20
53.108712
30
0.0
10
78.004686
20
52.284546
30
0.0
10
76.807457
20
51.737969
30
0.0
10
75.525823
20
51.508874
30
0.0
10
74.225113
20
51.637151
30
0.0
10
72.970652
20
52.162693
30
0.0
10
72.032140
20
52.930971
30
0.0
10
71.395838
20
53.790317
30
0.0
10
71.199522
20
54.300269
30
0.0
10
71.184414
20
54.670580
30
0.0
10
71.374781
20
54.997837
30
0.0
10
71.794889
20
55.378627
30
0.0
10
72.510680
20
55.847657
30
0.0
10
73.079926
20
56.042741
30
0.0
10
73.676801
20
55.863321
30
0.0
10
74.159029
20
55.403244
30
0.0
10
74.443618
20
54.779783
30
0.0
10
74.447572
20
54.110210
30
0.0
10
74.433310
20
53.583358
30
0.0
10
74.660094
20
53.222167
30
0.0
10
75.072328
20
53.023086
30
0.0
10
75.614413
20
52.982565
30
0.0
10
76.865751
20
53.363003
30
0.0
10
77.463809
20
53.776862
30
0.0
10
77.969330
20
54.335082
30
0.0
10
78.399251
20
55.383975
30
0.0
10
78.512776
20
56.706160
30
0.0
10
78.316293
20
58.092995
30
0.0
10
77.816194
20
59.335837
30
0.0
10
76.847968
20
60.435444
30
0.0
10
75.369541
20
61.296280
30
0.0
10
73.643483
20
61.900120
30
0.0
10
72.500080
20
62.031684
30
0.0
10
72.194142
20
61.926163
30
0.0
10
72.090590
20
61.709534
30
0.0
10
72.208331
20
61.384117
30
0.0
10
72.566270
20
60.952234
30
0.0
10
73.053988
20
60.273607
30
0.0
10
73.211460
20
59.562767
30
0.0
10
73.038992
20
58.848453
30
0.0
10
72.536885
20
58.159407
30
0.0
10
71.864288
20
57.691967
30
0.0
10
71.105982
20
57.481374
30
0.0
10
70.375210
20
57.539242
30
0.0
10
69.785219
20
57.877185
30
0.0
10
69.439026
20
58.370669
30
0.0
10
69.414106
20
58.840337
30
0.0
10
69.711444
20
59.289512
30
0.0
10
70.332024
20
59.721517
30
0.0
10
71.052502
20
60.176018
30
0.0
10
70.491567
20
60.261953
30
0.0
10
69.664962
20
59.997722
30
0.0
10
68.815873
20
59.342615
30
0.0
10
67.987752
20
58.185744
30
0.0
10
68.041088
20
57.955040
30
0.0
10
68.421798
20
58.009525
30
0.0
10
69.000977
20
57.937562
30
0.0
10
69.732028
20
57.510728
30
0.0
10
70.163176
20
57.121444
30
0.0
10
70.359493
20
56.790201
30
0.0
10
70.346699
20
56.418488
30
0.0
10
70.150513
20
55.907793
30
0.0
10
69.818001
20
55.298800
30
0.0
10
69.484188
20
55.038346
30
0.0
10
69.064031
20
55.104516
30
0.0
10
68.472490
20
55.475398
30
0.0
10
67.998884
20
55.988739
30
0.0
10
68.316867
20
56.591488
30
0.0
10
68.633664
20
57.057121
30
0.0
10
68.043134
20
56.795870
30
0.0
10
67.486806
20
56.372734
30
0.0
10
67.144305
20
55.629208
30
0.0
10
66.933478
20
54.250151
30
0.0
10
66.772172
20
51.920422
30
0.0
10
66.572226
20
49.744816
30
0.0
10
66.319919
20
48.569031
30
0.0
10
65.952302
20
47.588407
30
0.0
10
64.411538
20
44.119659
30
0.0
10
62.945412
20
41.661758
30
0.0
10
61.111156
20
39.322341
30
0.0
10
59.145709
20
37.369085
30
0.0
10
57.286009
20
36.069671
30
0.0
10
55.969851
20
35.396856
30
0.0
10
57.527960
20
34.570281
30
0.0
10
58.614102
20
33.798491
30
0.0
10
59.419403
20
32.816181
30
0.0
10
59.940492
20
31.672665
30
0.0
10
60.173993
20
30.417252
30
0.0
10
60.116535
20
29.099256
30
0.0
10
59.764744
20
27.767987
30
0.0
10
59.115246
20
26.472757
30
0.0
10
58.164668
20
25.262880
30
0.0
10
57.235437
20
24.292741
30
0.0
10
58.170973
20
24.292741
30
0.0
10
58.707554
20
24.181469
30
0.0
10
59.160164
20
23.879521
30
0.0
10
59.513906
20
23.434696
30
0.0
10
59.753880
20
22.894795
30
0.0
10
59.832936
20
21.720962
30
0.0
10
59.642221
20
21.182630
30
0.0
10
59.278147
20
20.740421
30
0.0
10
58.688024
20
20.493701
30
0.0
10
58.127312
20
20.646807
30
0.0
10
57.708438
20
21.127051
30
0.0
10
57.543830
20
21.861746
30
0.0
10
57.695569
20
22.502800
30
0.0
10
58.249385
20
22.607434
30
0.0
10
58.774143
20
22.592405
30
0.0
10
58.270157
20
23.048406
30
0.0
10
57.710381
20
23.388581
30
0.0
10
57.114722
20
23.556648
30
0.0
10
56.483536
20
23.552561
30
0.0
10
55.817180
20
23.376269
30
0.0
10
55.564066
20
23.227019
30
0.0
10
55.517613
20
23.002884
30
0.0
10
56.104835
20
22.053352
30
0.0
10
56.998097
20
20.571343
30
0.0
10
57.651321
20
18.832918
30
0.0
10
58.053356
20
16.877114
30
0.0
10
58.193051
20
14.742967
30
0.0
10
58.155602
20
13.289397
30
0.0
10
58.000218
20
12.146157
30
0.0
10
57.673394
20
11.066599
30
0.0
10
57.121625
20
9.804078
30
0.0
10
56.234681
20
8.190382
30
0.0
10
55.200073
20
6.767354
30
0.0
10
54.024291
20
5.539370
30
0.0
10
52.713826
20
4.510805
30
0.0
10
51.275169
20
3.686035
30
0.0
10
49.714809
20
3.069437
30
0.0
10
48.039237
20
2.665384
30
0.0
10
46.254944
20
2.478253
30
0.0
10
44.481969
20
2.508262
30
0.0
10
42.797762
20
2.748452
30
0.0
10
41.209349
20
3.195146
30
0.0
10
39.723754
20
3.844664
30
0.0
10
38.348005
20
4.693327
30
0.0
10
37.089126
20
5.737458
30
0.0
10
35.954144
20
6.973376
30
0.0
10
34.950084
20
8.397404
30
0.0
10
33.655347
20
10.495040
30
0.0
10
32.599963
20
8.383024
30
0.0
10
31.437852
20
6.602961
30
0.0
10
29.882294
20
5.026658
30
0.0
10
28.062543
20
3.762874
30
0.0
10
26.107853
20
2.920368
30
0.0
10
24.468180
20
2.599073
30
0.0
10
22.526303
20
2.469251
30
0.0
10
20.608522
20
2.536217
30
0.0
10
19.041137
20
2.805283
30
0.0
10
19.041121
20
2.805286
30
0.0
62
0
0
LWPOLYLINE
100
AcDbPolyline
8
Layer_1
90
9
70
0
10
22.069911
20
8.153160
30
0.0
10
22.050170
20
11.416355
30
0.0
10
21.021105
20
8.594132
30
0.0
10
19.982511
20
5.531863
30
0.0
10
20.345012
20
5.258626
30
0.0
10
21.825066
20
4.938008
30
0.0
10
22.006129
20
5.862645
30
0.0
10
22.069910
20
8.153160
30
0.0
10
22.069911
20
8.153160
30
0.0
62
0
0
LWPOLYLINE
100
AcDbPolyline
8
Layer_1
90
8
70
0
10
25.185813
20
5.410903
30
0.0
10
24.206344
20
8.411686
30
0.0
10
23.009966
20
11.495574
30
0.0
10
22.895524
20
8.222615
30
0.0
10
22.878532
20
4.852207
30
0.0
10
23.983397
20
5.088687
30
0.0
10
25.185813
20
5.410903
30
0.0
10
25.185813
20
5.410903
30
0.0
62
0
0
LWPOLYLINE
100
AcDbPolyline
8
Layer_1
90
12
70
0
10
45.351759
20
9.035105
30
0.0
10
45.330508
20
12.827466
30
0.0
10
44.012939
20
9.299688
30
0.0
10
43.232144
20
7.084823
30
0.0
10
43.035981
20
5.890090
30
0.0
10
43.171328
20
5.574221
30
0.0
10
43.469864
20
5.392120
30
0.0
10
44.579210
20
5.267539
30
0.0
10
45.030520
20
5.324118
30
0.0
10
45.264535
20
5.750582
30
0.0
10
45.351734
20
9.035105
30
0.0
10
45.351759
20
9.035105
30
0.0
62
0
0
LWPOLYLINE
100
AcDbPolyline
8
Layer_1
90
12
70
0
10
48.148319
20
5.559081
30
0.0
10
48.336492
20
5.857451
30
0.0
10
48.291341
20
6.483950
30
0.0
10
47.373204
20
9.346037
30
0.0
10
46.115805
20
12.827466
30
0.0
10
46.097179
20
9.035105
30
0.0
10
46.187136
20
5.750379
30
0.0
10
46.421501
20
5.316656
30
0.0
10
46.872294
20
5.248145
30
0.0
10
47.574550
20
5.341655
30
0.0
10
48.148322
20
5.559081
30
0.0
10
48.148319
20
5.559081
30
0.0
62
0
0
LWPOLYLINE
100
AcDbPolyline
8
Layer_1
90
8
70
0
10
20.297809
20
8.751296
30
0.0
10
21.384095
20
11.868638
30
0.0
10
19.267429
20
9.476077
30
0.0
10
17.150762
20
6.809528
30
0.0
10
18.114789
20
6.172615
30
0.0
10
19.151282
20
5.716225
30
0.0
10
20.297809
20
8.751296
30
0.0
10
20.297809
20
8.751296
30
0.0
62
0
0
LWPOLYLINE
100
AcDbPolyline
8
Layer_1
90
9
70
0
10
27.070450
20
7.994074
30
0.0
10
24.936249
20
10.534410
30
0.0
10
23.850351
20
11.769132
30
0.0
10
24.910279
20
8.791194
30
0.0
10
25.970207
20
5.695329
30
0.0
10
27.044480
20
6.132932
30
0.0
10
28.118754
20
6.688458
30
0.0
10
27.070450
20
7.994074
30
0.0
10
27.070450
20
7.994074
30
0.0
62
0
0
LWPOLYLINE
100
AcDbPolyline
8
Layer_1
90
10
70
0
10
43.229426
20
9.449012
30
0.0
10
44.188518
20
12.542023
30
0.0
10
41.907011
20
10.047401
30
0.0
10
39.728541
20
7.223828
30
0.0
10
40.034767
20
6.886665
30
0.0
10
40.726834
20
6.507883
30
0.0
10
41.464830
20
6.240958
30
0.0
10
41.908840
20
6.239369
30
0.0
10
43.229426
20
9.449012
30
0.0
10
43.229426
20
9.449012
30
0.0
62
0
0
LWPOLYLINE
100
AcDbPolyline
8
Layer_1
90
11
70
0
10
50.674349
20
6.536876
30
0.0
10
51.668697
20
7.217540
30
0.0
10
49.415036
20
10.144193
30
0.0
10
46.928854
20
13.003855
30
0.0
10
47.909765
20
10.093438
30
0.0
10
49.160989
20
6.565660
30
0.0
10
49.334584
20
6.134039
30
0.0
10
49.587409
20
5.986457
30
0.0
10
50.005364
20
6.121280
30
0.0
10
50.674349
20
6.536873
30
0.0
10
50.674349
20
6.536876
30
0.0
62
0
0
LWPOLYLINE
100
AcDbPolyline
8
Layer_1
90
12
70
0
10
18.952743
20
10.176716
30
0.0
10
20.641553
20
12.268743
30
0.0
10
20.674428
20
12.395581
30
0.0
10
20.568360
20
12.395194
30
0.0
10
19.972978
20
12.075231
30
0.0
10
16.974373
20
10.341675
30
0.0
10
15.062102
20
9.235513
30
0.0
10
15.199925
20
8.896043
30
0.0
10
15.739651
20
8.241355
30
0.0
10
16.631687
20
7.448996
30
0.0
10
18.952743
20
10.176716
30
0.0
10
18.952743
20
10.176716
30
0.0
62
0
0
LWPOLYLINE
100
AcDbPolyline
8
Layer_1
90
14
70
0
10
29.775630
20
9.040252
30
0.0
10
28.895664
20
9.841632
30
0.0
10
26.922191
20
11.080950
30
0.0
10
25.253334
20
11.997772
30
0.0
10
24.838502
20
12.167526
30
0.0
10
24.704650
20
12.113620
30
0.0
10
25.283642
20
11.241162
30
0.0
10
26.997815
20
9.193067
30
0.0
10
28.427367
20
7.700304
30
0.0
10
28.811918
20
7.658471
30
0.0
10
29.215740
20
7.952410
30
0.0
10
29.652930
20
8.518772
30
0.0
10
29.775630
20
9.040252
30
0.0
10
29.775630
20
9.040252
30
0.0
62
0
0
LWPOLYLINE
100
AcDbPolyline
8
Layer_1
90
9
70
0
10
53.834956
20
9.760331
30
0.0
10
52.895637
20
10.476050
30
0.0
10
50.643815
20
11.852904
30
0.0
10
47.457377
20
13.700562
30
0.0
10
49.854762
20
10.734827
30
0.0
10
52.252152
20
7.769087
30
0.0
10
53.045902
20
8.642254
30
0.0
10
53.834956
20
9.760331
30
0.0
10
53.834956
20
9.760331
30
0.0
62
0
0
LWPOLYLINE
100
AcDbPolyline
8
Layer_1
90
11
70
0
10
41.593011
20
10.874781
30
0.0
10
43.981249
20
13.684591
30
0.0
10
41.413921
20
12.231740
30
0.0
10
38.176569
20
10.340818
30
0.0
10
37.704821
20
9.954954
30
0.0
10
37.611874
20
9.683578
30
0.0
10
38.181946
20
8.733466
30
0.0
10
38.641411
20
8.265072
30
0.0
10
38.992164
20
8.064966
30
0.0
10
41.593011
20
10.874781
30
0.0
10
41.593011
20
10.874781
30
0.0
62
0
0
LWPOLYLINE
100
AcDbPolyline
8
Layer_1
90
10
70
0
10
18.650067
20
12.108998
30
0.0
10
20.325762
20
13.153542
30
0.0
10
17.323957
20
12.666733
30
0.0
10
14.167536
20
11.902110
30
0.0
10
14.125207
20
11.471158
30
0.0
10
14.320457
20
10.732059
30
0.0
10
14.684893
20
9.773519
30
0.0
10
15.829633
20
10.460310
30
0.0
10
18.650067
20
12.108998
30
0.0
10
18.650067
20
12.108998
30
0.0
62
0
0
LWPOLYLINE
100
AcDbPolyline
8
Layer_1
90
11
70
0
10
30.969015
20
11.980048
30
0.0
10
28.153619
20
12.629588
30
0.0
10
26.329575
20
12.900982
30
0.0
10
25.427017
20
12.931038
30
0.0
10
26.073363
20
12.398527
30
0.0
10
27.830969
20
11.321864
30
0.0
10
30.379930
20
9.857700
30
0.0
10
30.792626
20
10.813415
30
0.0
10
31.014678
20
11.550347
30
0.0
10
30.969015
20
11.980048
30
0.0
10
30.969015
20
11.980048
30
0.0
62
0
0
LWPOLYLINE
100
AcDbPolyline
8
Layer_1
90
10
70
0
10
41.404235
20
13.081014
30
0.0
10
43.256319
20
14.209863
30
0.0
10
39.875447
20
13.701286
30
0.0
10
36.334014
20
12.901919
30
0.0
10
36.303922
20
12.424267
30
0.0
10
36.552048
20
11.596345
30
0.0
10
36.998306
20
10.518989
30
0.0
10
38.275226
20
11.275740
30
0.0
10
41.404235
20
13.081014
30
0.0
10
41.404235
20
13.081014
30
0.0
62
0
0
LWPOLYLINE
100
AcDbPolyline
8
Layer_1
90
9
70
0
10
55.107101
20
12.912330
30
0.0
10
51.516276
20
13.701292
30
0.0
10
47.950972
20
14.275968
30
0.0
10
51.125972
20
12.399518
30
0.0
10
54.368819
20
10.578558
30
0.0
10
54.827548
20
11.655854
30
0.0
10
55.098893
20
12.469332
30
0.0
10
55.107101
20
12.912330
30
0.0
10
55.107101
20
12.912330
30
0.0
62
0
0
LWPOLYLINE
100
AcDbPolyline
8
Layer_1
90
14
70
0
10
17.856317
20
13.520211
30
0.0
10
19.407183
20
13.864317
30
0.0
10
19.915823
20
14.027627
30
0.0
10
16.935762
20
14.587683
30
0.0
10
15.199184
20
14.867782
30
0.0
10
14.200877
20
14.838580
30
0.0
10
13.916803
20
14.689940
30
0.0
10
13.743169
20
14.442313
30
0.0
10
13.628386
20
13.621216
30
0.0
10
13.826941
20
13.193746
30
0.0
10
14.515124
20
13.036397
30
0.0
10
15.816921
20
13.146206
30
0.0
10
17.856317
20
13.520211
30
0.0
10
17.856317
20
13.520211
30
0.0
62
0
0
LWPOLYLINE
100
AcDbPolyline
8
Layer_1
90
13
70
0
10
31.261874
20
14.085962
30
0.0
10
31.137540
20
14.915103
30
0.0
10
30.948366
20
15.031821
30
0.0
10
30.644513
20
14.994111
30
0.0
10
27.381318
20
14.379239
30
0.0
10
24.735485
20
13.938321
30
0.0
10
27.028540
20
13.521724
30
0.0
10
29.359139
20
13.131404
30
0.0
10
30.628887
20
13.066991
30
0.0
10
30.965633
20
13.170287
30
0.0
10
31.156796
20
13.371004
30
0.0
10
31.261874
20
14.085962
30
0.0
10
31.261874
20
14.085962
30
0.0
62
0
0
LWPOLYLINE
100
AcDbPolyline
8
Layer_1
90
14
70
0
10
42.550763
20
15.138953
30
0.0
10
41.671482
20
15.425667
30
0.0
10
39.557472
20
15.805023
30
0.0
10
36.294277
20
16.302795
30
0.0
10
36.071710
20
16.099519
30
0.0
10
35.916820
20
15.544845
30
0.0
10
35.866893
20
14.863738
30
0.0
10
35.959215
20
14.281164
30
0.0
10
36.188634
20
14.094063
30
0.0
10
36.754496
20
14.046306
30
0.0
10
39.338501
20
14.382053
30
0.0
10
41.607161
20
14.825558
30
0.0
10
42.550763
20
15.138953
30
0.0
10
42.550763
20
15.138953
30
0.0
62
0
0
LWPOLYLINE
100
AcDbPolyline
8
Layer_1
90
9
70
0
10
55.250763
20
15.053589
30
0.0
10
55.250763
20
16.397769
30
0.0
10
51.921658
20
15.854451
30
0.0
10
49.623677
20
15.416830
30
0.0
10
48.773650
20
15.127633
30
0.0
10
52.014560
20
14.373558
30
0.0
10
55.162569
20
13.756197
30
0.0
10
55.250763
20
15.053589
30
0.0
10
55.250763
20
15.053589
30
0.0
62
0
0
LWPOLYLINE
100
AcDbPolyline
8
Layer_1
90
13
70
0
10
17.727531
20
16.357868
30
0.0
10
14.851626
20
17.942743
30
0.0
10
14.385506
20
16.896182
30
0.0
10
14.205982
20
16.306316
30
0.0
10
14.231539
20
15.969352
30
0.0
10
14.523889
20
15.783872
30
0.0
10
15.144745
20
15.648460
30
0.0
10
17.856317
20
15.146175
30
0.0
10
19.388657
20
14.888205
30
0.0
10
19.883976
20
14.947678
30
0.0
10
19.333270
20
15.409322
30
0.0
10
17.727531
20
16.357868
30
0.0
10
17.727531
20
16.357868
30
0.0
62
0
0
LWPOLYLINE
100
AcDbPolyline
8
Layer_1
90
9
70
0
10
28.850339
20
15.476330
30
0.0
10
31.201306
20
15.894541
30
0.0
10
30.844301
20
16.918641
30
0.0
10
30.318902
20
17.942743
30
0.0
10
27.685844
20
16.475637
30
0.0
10
25.264652
20
14.880155
30
0.0
10
25.882013
20
14.889158
30
0.0
10
28.850339
20
15.476327
30
0.0
10
28.850339
20
15.476330
30
0.0
62
0
0
LWPOLYLINE
100
AcDbPolyline
8
Layer_1
90
8
70
0
10
20.004336
20
16.443438
30
0.0
10
17.913399
20
18.976399
30
0.0
10
16.544709
20
20.539222
30
0.0
10
15.918004
20
19.582751
30
0.0
10
15.427281
20
18.513803
30
0.0
10
20.614367
20
15.487396
30
0.0
10
20.004336
20
16.443438
30
0.0
10
20.004336
20
16.443438
30
0.0
62
0
0
LWPOLYLINE
100
AcDbPolyline
8
Layer_1
90
15
70
0
10
51.370207
20
16.521376
30
0.0
10
53.691792
20
16.914964
30
0.0
10
54.792736
20
17.213369
30
0.0
10
55.003572
20
17.387256
30
0.0
10
55.050974
20
17.609801
30
0.0
10
54.844445
20
18.297466
30
0.0
10
54.464964
20
19.041152
30
0.0
10
54.069722
20
19.345724
30
0.0
10
52.901819
20
18.815656
30
0.0
10
50.664652
20
17.552678
30
0.0
10
48.754140
20
16.347081
30
0.0
10
48.334251
20
16.023140
30
0.0
10
48.371596
20
15.955004
30
0.0
10
51.370207
20
16.521376
30
0.0
10
51.370207
20
16.521376
30
0.0
62
0
0
LWPOLYLINE
100
AcDbPolyline
8
Layer_1
90
10
70
0
10
20.457381
20
18.736493
30
0.0
10
19.268116
20
21.591397
30
0.0
10
18.868448
20
21.667694
30
0.0
10
18.275647
20
21.495869
30
0.0
10
17.737937
20
21.182461
30
0.0
10
17.503540
20
20.834011
30
0.0
10
19.313175
20
18.413796
30
0.0
10
21.272829
20
16.178855
30
0.0
10
20.457381
20
18.736493
30
0.0
10
20.457381
20
18.736493
30
0.0
62
0
0
LWPOLYLINE
100
AcDbPolyline
8
Layer_1
90
11
70
0
10
23.853540
20
18.998384
30
0.0
10
23.703842
20
19.561809
30
0.0
10
23.343929
20
20.043180
30
0.0
10
23.081726
20
20.182910
30
0.0
10
22.931400
20
19.998080
30
0.0
10
22.865274
20
18.282937
30
0.0
10
22.953045
20
16.521288
30
0.0
10
23.098683
20
16.618130
30
0.0
10
23.374884
20
17.238142
30
0.0
10
23.853540
20
18.998384
30
0.0
10
23.853540
20
18.998384
30
0.0
62
0
0
LWPOLYLINE
100
AcDbPolyline
8
Layer_1
90
8
70
0
10
24.548293
20
17.413577
30
0.0
10
24.447837
20
17.507283
30
0.0
10
24.206318
20
17.237188
30
0.0
10
23.864344
20
16.355243
30
0.0
10
23.964798
20
16.261537
30
0.0
10
24.206318
20
16.531632
30
0.0
10
24.548293
20
17.413577
30
0.0
10
24.548293
20
17.413577
30
0.0
62
0
0
LWPOLYLINE
100
AcDbPolyline
8
Layer_1
90
11
70
0
10
29.802788
20
18.510953
30
0.0
10
29.218069
20
19.517741
30
0.0
10
28.504936
20
20.424340
30
0.0
10
27.063460
20
18.742573
30
0.0
10
25.945757
20
17.310032
30
0.0
10
25.668077
20
16.592440
30
0.0
10
25.845271
20
16.499157
30
0.0
10
26.233699
20
16.581500
30
0.0
10
27.645902
20
17.268915
30
0.0
10
29.802788
20
18.510953
30
0.0
10
29.802788
20
18.510953
30
0.0
62
0
0
LWPOLYLINE
100
AcDbPolyline
8
Layer_1
90
14
70
0
10
42.197985
20
16.456493
30
0.0
10
41.508990
20
17.036761
30
0.0
10
39.955113
20
18.018556
30
0.0
10
38.306012
20
18.943660
30
0.0
10
37.331348
20
19.353855
30
0.0
10
36.981122
20
19.071161
30
0.0
10
36.605261
20
18.429655
30
0.0
10
36.350476
20
17.739199
30
0.0
10
36.363478
20
17.309657
30
0.0
10
38.680752
20
16.741280
30
0.0
10
41.757013
20
16.218411
30
0.0
10
42.068449
20
16.272029
30
0.0
10
42.197985
20
16.456493
30
0.0
10
42.197985
20
16.456493
30
0.0
62
0
0
LWPOLYLINE
100
AcDbPolyline
8
Layer_1
90
9
70
0
10
53.033699
20
21.258739
30
0.0
10
52.296153
20
22.294523
30
0.0
10
50.931716
20
20.735996
30
0.0
10
48.493734
20
17.848131
30
0.0
10
47.420197
20
16.518794
30
0.0
10
50.595719
20
18.370875
30
0.0
10
53.771241
20
20.222955
30
0.0
10
53.033699
20
21.258739
30
0.0
10
53.033699
20
21.258739
30
0.0
62
0
0
LWPOLYLINE
100
AcDbPolyline
8
Layer_1
90
11
70
0
10
21.711310
20
21.677712
30
0.0
10
21.229498
20
22.029682
30
0.0
10
20.651908
20
22.176077
30
0.0
10
20.323112
20
22.107163
30
0.0
10
20.249783
20
21.770425
30
0.0
10
20.959688
20
19.513508
30
0.0
10
21.913262
20
16.850936
30
0.0
10
22.019090
20
19.015143
30
0.0
10
21.981358
20
20.718948
30
0.0
10
21.711310
20
21.677712
30
0.0
10
21.711310
20
21.677712
30
0.0
62
0
0
LWPOLYLINE
100
AcDbPolyline
8
Layer_1
90
12
70
0
10
49.653817
20
20.500382
30
0.0
10
50.247499
20
21.307443
30
0.0
10
50.374608
20
21.720677
30
0.0
10
50.018324
20
21.774347
30
0.0
10
49.161830
20
21.502717
30
0.0
10
48.735446
20
21.240264
30
0.0
10
48.340733
20
20.774960
30
0.0
10
47.569888
20
19.121467
30
0.0
10
46.821149
20
17.060799
30
0.0
10
47.702419
20
18.119132
30
0.0
10
49.653817
20
20.500382
30
0.0
10
49.653817
20
20.500382
30
0.0
62
0
0
LWPOLYLINE
100
AcDbPolyline
8
Layer_1
90
13
70
0
10
40.745196
20
20.421024
30
0.0
10
39.242486
20
22.203153
30
0.0
10
38.357691
20
21.318361
30
0.0
10
37.779127
20
20.649484
30
0.0
10
37.630583
20
20.283808
30
0.0
10
39.904930
20
18.888772
30
0.0
10
41.459421
20
18.111582
30
0.0
10
41.903329
20
18.018098
30
0.0
10
42.123535
20
18.118663
30
0.0
10
42.118932
20
18.411257
30
0.0
10
41.888412
20
18.893861
30
0.0
10
40.745196
20
20.421024
30
0.0
10
40.745196
20
20.421024
30
0.0
62
0
0
LWPOLYLINE
100
AcDbPolyline
8
Layer_1
90
10
70
0
10
45.372985
20
18.718855
30
0.0
10
45.284791
20
19.467770
30
0.0
10
45.177798
20
19.578416
30
0.0
10
45.031762
20
19.506520
30
0.0
10
44.851279
20
19.034155
30
0.0
10
44.896515
20
18.377631
30
0.0
10
45.093548
20
17.776676
30
0.0
10
45.243714
20
17.636863
30
0.0
10
45.372985
20
18.718855
30
0.0
10
45.372985
20
18.718855
30
0.0
62
0
0
LWPOLYLINE
100
AcDbPolyline
8
Layer_1
90
112
70
0
10
36.765634
20
23.706444
30
0.0
10
38.455704
20
25.128830
30
0.0
10
40.321433
20
26.219930
30
0.0
10
42.314687
20
26.974257
30
0.0
10
44.387332
20
27.386318
30
0.0
10
46.491237
20
27.450626
30
0.0
10
48.578267
20
27.161689
30
0.0
10
50.600289
20
26.514017
30
0.0
10
52.509172
20
25.502122
30
0.0
10
53.621382
20
24.888530
30
0.0
10
54.528776
20
24.698288
30
0.0
10
55.383007
20
24.935434
30
0.0
10
56.335724
20
25.604007
30
0.0
10
57.133967
20
26.426329
30
0.0
10
57.779267
20
27.384326
30
0.0
10
58.258089
20
28.411232
30
0.0
10
58.556900
20
29.440281
30
0.0
10
58.662167
20
30.404705
30
0.0
10
58.560357
20
31.237740
30
0.0
10
58.237935
20
31.872617
30
0.0
10
57.681368
20
32.242571
30
0.0
10
57.111671
20
32.342662
30
0.0
10
56.752879
20
32.262468
30
0.0
10
56.726454
20
32.115142
30
0.0
10
56.955854
20
32.053866
30
0.0
10
57.246530
20
31.839726
30
0.0
10
57.367430
20
31.324877
30
0.0
10
57.325724
20
30.968074
30
0.0
10
57.175370
20
30.762307
30
0.0
10
56.397291
20
30.707516
30
0.0
10
55.615343
20
31.030486
30
0.0
10
55.272981
20
31.659417
30
0.0
10
55.396412
20
32.427116
30
0.0
10
56.011846
20
33.166391
30
0.0
10
56.838263
20
33.802066
30
0.0
10
55.836476
20
33.809884
30
0.0
10
54.933940
20
33.604807
30
0.0
10
54.201218
20
33.035421
30
0.0
10
53.593066
20
32.493496
30
0.0
10
53.338965
20
32.500130
30
0.0
10
53.060987
20
32.673682
30
0.0
10
52.750644
20
32.824078
30
0.0
10
52.385277
20
32.737159
30
0.0
10
51.185070
20
31.692102
30
0.0
10
49.861699
20
30.589761
30
0.0
10
49.280228
20
30.358563
30
0.0
10
48.660914
20
30.289952
30
0.0
10
47.759965
20
30.496676
30
0.0
10
47.029090
20
31.022467
30
0.0
10
46.601705
20
31.725754
30
0.0
10
46.611224
20
32.464962
30
0.0
10
46.631740
20
32.714760
30
0.0
10
46.389531
20
32.832581
30
0.0
10
44.767142
20
32.720828
30
0.0
10
40.285314
20
32.432397
30
0.0
10
34.667466
20
32.453264
30
0.0
10
28.804909
20
32.758140
30
0.0
10
23.588957
20
33.321735
30
0.0
10
22.426128
20
33.393223
30
0.0
10
22.168976
20
33.291335
30
0.0
10
22.089651
20
33.091811
30
0.0
10
21.898688
20
32.489450
30
0.0
10
21.409618
20
31.926772
30
0.0
10
20.748171
20
31.510732
30
0.0
10
20.040074
20
31.348285
30
0.0
10
19.044842
20
31.707260
30
0.0
10
17.838169
20
32.735909
30
0.0
10
16.641401
20
33.775660
30
0.0
10
16.185159
20
33.948063
30
0.0
10
15.759993
20
33.925267
30
0.0
10
15.078174
20
33.938771
30
0.0
10
14.541902
20
34.355989
30
0.0
10
14.185407
20
34.699011
30
0.0
10
14.240691
20
33.903564
30
0.0
10
14.167457
20
32.979184
30
0.0
10
13.733940
20
32.395946
30
0.0
10
13.087036
20
32.252633
30
0.0
10
12.373639
20
32.648028
30
0.0
10
11.963627
20
33.221781
30
0.0
10
12.416566
20
33.705662
30
0.0
10
12.846924
20
34.092170
30
0.0
10
12.469431
20
34.170507
30
0.0
10
11.846499
20
33.943711
30
0.0
10
11.167282
20
33.398432
30
0.0
10
10.672349
20
32.619764
30
0.0
10
10.465899
20
31.702437
30
0.0
10
10.528154
20
30.695016
30
0.0
10
10.839337
20
29.646065
30
0.0
10
11.379668
20
28.604148
30
0.0
10
12.129371
20
27.617831
30
0.0
10
13.068667
20
26.735676
30
0.0
10
14.177778
20
26.006250
30
0.0
10
15.811135
20
25.236514
30
0.0
10
17.262980
20
24.839257
30
0.0
10
18.779177
20
24.776361
30
0.0
10
20.605592
20
25.009709
30
0.0
10
22.198508
20
25.181986
30
0.0
10
23.768396
20
25.131714
30
0.0
10
25.298831
20
24.865483
30
0.0
10
26.773384
20
24.389880
30
0.0
10
28.175630
20
23.711497
30
0.0
10
29.489142
20
22.836921
30
0.0
10
30.697494
20
21.772743
30
0.0
10
31.784259
20
20.525551
30
0.0
10
32.663719
20
19.210777
30
0.0
10
33.034777
20
18.332972
30
0.0
10
33.120734
20
18.282929
30
0.0
10
33.348099
20
18.565546
30
0.0
10
34.088733
20
19.920404
30
0.0
10
35.306112
20
21.921102
30
0.0
10
36.765634
20
23.706430
30
0.0
10
36.765634
20
23.706444
30
0.0
62
0
0
LWPOLYLINE
100
AcDbPolyline
8
Layer_1
90
9
70
0
10
47.120962
20
20.312922
30
0.0
10
46.978222
20
20.558593
30
0.0
10
46.607707
20
20.539764
30
0.0
10
46.221187
20
20.059982
30
0.0
10
46.107192
20
19.051527
30
0.0
10
46.135838
20
17.766355
30
0.0
10
46.620438
20
18.824688
30
0.0
10
47.120957
20
20.312922
30
0.0
10
47.120962
20
20.312922
30
0.0
62
0
0
LWPOLYLINE
100
AcDbPolyline
8
Layer_1
90
15
70
0
10
27.009538
20
19.797398
30
0.0
10
27.658261
20
20.709379
30
0.0
10
27.552724
20
20.974010
30
0.0
10
27.180644
20
21.285485
30
0.0
10
26.618264
20
21.664848
30
0.0
10
26.229231
20
21.773218
30
0.0
10
25.928964
20
21.603004
30
0.0
10
25.632884
20
21.146620
30
0.0
10
25.467139
20
20.372762
30
0.0
10
25.496187
20
19.388890
30
0.0
10
25.669315
20
18.631743
30
0.0
10
25.794059
20
18.474670
30
0.0
10
25.935804
20
18.538055
30
0.0
10
27.009538
20
19.797398
30
0.0
10
27.009538
20
19.797398
30
0.0
62
0
0
LWPOLYLINE
100
AcDbPolyline
8
Layer_1
90
12
70
0
10
42.775020
20
21.995028
30
0.0
10
41.969806
20
23.939966
30
0.0
10
40.773739
20
23.346926
30
0.0
10
39.769799
20
22.753882
30
0.0
10
41.210312
20
21.033345
30
0.0
10
42.358466
20
19.858756
30
0.0
10
42.750155
20
19.629428
30
0.0
10
43.016596
20
19.636497
30
0.0
10
43.155045
20
19.878277
30
0.0
10
43.162760
20
20.353082
30
0.0
10
42.775020
20
21.995028
30
0.0
10
42.775020
20
21.995028
30
0.0
62
0
0
LWPOLYLINE
100
AcDbPolyline
8
Layer_1
90
15
70
0
10
45.372985
20
23.142883
30
0.0
10
45.238520
20
24.390053
30
0.0
10
44.998469
20
24.594473
30
0.0
10
44.579235
20
24.640119
30
0.0
10
43.632681
20
24.535943
30
0.0
10
43.153579
20
24.184945
30
0.0
10
43.099473
20
23.505040
30
0.0
10
43.427907
20
22.414140
30
0.0
10
44.049785
20
21.140865
30
0.0
10
44.332945
20
21.051196
30
0.0
10
44.707051
20
21.224356
30
0.0
10
45.015040
20
21.498095
30
0.0
10
45.221296
20
21.887785
30
0.0
10
45.372985
20
23.142883
30
0.0
10
45.372985
20
23.142883
30
0.0
62
0
0
LWPOLYLINE
100
AcDbPolyline
8
Layer_1
90
11
70
0
10
24.805058
20
22.249556
30
0.0
10
23.887057
20
22.523453
30
0.0
10
23.683566
20
22.490449
30
0.0
10
23.638265
20
22.373334
30
0.0
10
24.037473
20
21.814962
30
0.0
10
24.601331
20
21.354611
30
0.0
10
24.794195
20
21.370097
30
0.0
10
24.955471
20
21.541065
30
0.0
10
25.024225
20
21.930875
30
0.0
10
24.805056
20
22.249556
30
0.0
10
24.805058
20
22.249556
30
0.0
62
0
0
LWPOLYLINE
100
AcDbPolyline
8
Layer_1
90
15
70
0
10
48.107013
20
23.161069
30
0.0
10
48.441010
20
23.656617
30
0.0
10
48.503516
20
23.996479
30
0.0
10
48.279576
20
24.234161
30
0.0
10
47.754235
20
24.423170
30
0.0
10
46.873759
20
24.609838
30
0.0
10
46.366478
20
24.539866
30
0.0
10
46.134152
20
24.152510
30
0.0
10
46.078541
20
23.387025
30
0.0
10
46.205837
20
22.368173
30
0.0
10
46.444991
20
22.273744
30
0.0
10
46.872291
20
22.364316
30
0.0
10
47.562411
20
22.695623
30
0.0
10
48.107013
20
23.161069
30
0.0
10
48.107013
20
23.161069
30
0.0
62
0
0
LWPOLYLINE
100
AcDbPolyline
8
Layer_1
90
8
70
0
10
50.311874
20
23.373055
30
0.0
10
49.782707
20
23.714764
30
0.0
10
49.408983
20
23.757797
30
0.0
10
49.253541
20
23.576116
30
0.0
10
49.408983
20
23.334787
30
0.0
10
49.782707
20
23.234410
30
0.0
10
50.311874
20
23.373055
30
0.0
10
50.311874
20
23.373055
30
0.0
62
0
0
LWPOLYLINE
100
AcDbPolyline
8
Layer_1
90
16
70
0
10
49.604978
20
31.700360
30
0.0
10
50.280089
20
32.244648
30
0.0
10
50.979468
20
33.058873
30
0.0
10
51.696123
20
34.065331
30
0.0
10
50.300278
20
33.692759
30
0.0
10
49.343414
20
33.325620
30
0.0
10
49.190279
20
33.145731
30
0.0
10
49.255375
20
32.969242
30
0.0
10
49.538256
20
32.590680
30
0.0
10
49.562420
20
32.265383
30
0.0
10
49.322359
20
31.977722
30
0.0
10
48.812569
20
31.712069
30
0.0
10
48.388330
20
31.480174
30
0.0
10
48.482981
20
31.370662
30
0.0
10
49.604978
20
31.700360
30
0.0
10
49.604978
20
31.700360
30
0.0
62
0
0
LWPOLYLINE
100
AcDbPolyline
8
Layer_1
90
15
70
0
10
20.067054
20
32.768230
30
0.0
10
19.536136
20
33.142659
30
0.0
10
19.486295
20
33.624842
30
0.0
10
19.475597
20
34.030823
30
0.0
10
19.180084
20
34.343762
30
0.0
10
18.701742
20
34.501611
30
0.0
10
18.142561
20
34.442327
30
0.0
10
18.019583
20
34.294936
30
0.0
10
18.090418
20
34.035991
30
0.0
10
18.644670
20
33.346961
30
0.0
10
19.467611
20
32.702281
30
0.0
10
20.221532
20
32.428996
30
0.0
10
20.571470
20
32.510094
30
0.0
10
20.067054
20
32.768230
30
0.0
10
20.067054
20
32.768230
30
0.0
  0
ENDSEC
  0
SECTION
  2
OBJECTS
  0
DICTIONARY
  5
C
330
0
100
AcDbDictionary
  3
ACAD_GROUP
350
D
  3
ACAD_MLINESTYLE
350
17
  0
DICTIONARY
  5
D
330
C
100
AcDbDictionary
  0
DICTIONARY
  5
1A
330
C
100
AcDbDictionary
  0
DICTIONARY
  5
17
330
C
100
AcDbDictionary
  3
STANDARD
350
18
  0
DICTIONARY
  5
19
330
C
100
AcDbDictionary
  0
ENDSEC
  0
EOF
