999
Inkscape export via OpenSCAD DXF Export
  0
SECTION
  2
HEADER
  9
$ACADVER
  1
AC1014
  9
$HANDSEED
  5
FFFF
  9
$MEASUREMENT
 70
     1
  0
ENDSEC
  0
SECTION
  2
TABLES
  0
TABLE
  2
VPORT
  5
8
330
0
100
AcDbSymbolTable
 70
     4
  0
VPORT
  5
2E
330
8
100
AcDbSymbolTableRecord
100
AcDbViewportTableRecord
  2
*ACTIVE
 70
     0
 10
0.0
 20
0.0
 11
1.0
 21
1.0
 12
210.0
 22
148.5
 13
0.0
 23
0.0
 14
10.0
 24
10.0
 15
10.0
 25
10.0
 16
0.0
 26
0.0
 36
1.0
 17
0.0
 27
0.0
 37
0.0
 40
341.0
 41
1.24
 42
50.0
 43
0.0
 44
0.0
 50
0.0
 51
0.0
 71
     0
 72
   100
 73
     1
 74
     3
 75
     0
 76
     0
 77
     0
 78
     0
  0
ENDTAB
  0
TABLE
  2
LTYPE
  5
5
330
0
100
AcDbSymbolTable
 70
     1
  0
LTYPE
  5
14
330
5
100
AcDbSymbolTableRecord
100
AcDbLinetypeTableRecord
  2
BYBLOCK
 70
     0
  3

 72
    65
 73
     0
 40
0.0
  0
LTYPE
  5
15
330
5
100
AcDbSymbolTableRecord
100
AcDbLinetypeTableRecord
  2
BYLAYER
 70
     0
  3

 72
    65
 73
     0
 40
0.0
  0
LTYPE
  5
16
330
5
100
AcDbSymbolTableRecord
100
AcDbLinetypeTableRecord
  2
CONTINUOUS
 70
     0
  3
Solid line
 72
    65
 73
     0
 40
0.0
  0
ENDTAB
  0
TABLE
0
TABLE
2
LAYER
5
2
330
0
100
AcDbSymbolTable
70
1
0
LAYER
5
10
330
2
100
AcDbSymbolTableRecord
100
AcDbLayerTableRecord
2
Layer_1
70
0
62
7
6
CONTINUOUS
0
ENDTAB
0
ENDSEC
  0
ENDTAB
  0
TABLE
  2
STYLE
  5
3
330
0
100
AcDbSymbolTable
 70
     1
  0
STYLE
  5
11
330
3
100
AcDbSymbolTableRecord
100
AcDbTextStyleTableRecord
  2
STANDARD
 70
     0
 40
0.0
 41
1.0
 50
0.0
 71
     0
 42
2.5
  3
txt
  4

  0
ENDTAB
  0
TABLE
  2
VIEW
  5
6
330
0
100
AcDbSymbolTable
 70
     0
  0
ENDTAB
  0
TABLE
  2
UCS
  5
7
330
0
100
AcDbSymbolTable
 70
     0
  0
ENDTAB
  0
TABLE
  2
APPID
  5
9
330
0
100
AcDbSymbolTable
 70
     2
  0
APPID
  5
12
330
9
100
AcDbSymbolTableRecord
100
AcDbRegAppTableRecord
  2
ACAD
 70
     0
  0
ENDTAB
  0
TABLE
  2
DIMSTYLE
  5
A
330
0
100
AcDbSymbolTable
 70
     1
  0
DIMSTYLE
105
27
330
A
100
AcDbSymbolTableRecord
100
AcDbDimStyleTableRecord
  2
ISO-25
 70
     0
  3

  4

  5

  6

  7

 40
1.0
 41
2.5
 42
0.625
 43
3.75
 44
1.25
 45
0.0
 46
0.0
 47
0.0
 48
0.0
140
2.5
141
2.5
142
0.0
143
0.03937007874016
144
1.0
145
0.0
146
1.0
147
0.625
 71
     0
 72
     0
 73
     0
 74
     0
 75
     0
 76
     0
 77
     1
 78
     8
170
     0
171
     3
172
     1
173
     0
174
     0
175
     0
176
     0
177
     0
178
     0
270
     2
271
     2
272
     2
273
     2
274
     3
340
11
275
     0
280
     0
281
     0
282
     0
283
     0
284
     8
285
     0
286
     0
287
     3
288
     0
  0
ENDTAB
  0
TABLE
  2
BLOCK_RECORD
  5
1
330
0
100
AcDbSymbolTable
 70
     1
  0
BLOCK_RECORD
  5
1F
330
1
100
AcDbSymbolTableRecord
100
AcDbBlockTableRecord
  2
*MODEL_SPACE
  0
BLOCK_RECORD
  5
1B
330
1
100
AcDbSymbolTableRecord
100
AcDbBlockTableRecord
  2
*PAPER_SPACE
  0
ENDTAB
  0
ENDSEC
  0
SECTION
  2
BLOCKS
  0
BLOCK
  5
20
330
1F
100
AcDbEntity
  8
0
100
AcDbBlockBegin
  2
*MODEL_SPACE
 70
     0
 10
0.0
 20
0.0
 30
0.0
  3
*MODEL_SPACE
  1

  0
ENDBLK
  5
21
330
1F
100
AcDbEntity
  8
0
100
AcDbBlockEnd
  0
BLOCK
  5
1C
330
1B
100
AcDbEntity
 67
     1
  8
0
100
AcDbBlockBegin
  2
*PAPER_SPACE
  1

  0
ENDBLK
  5
1D
330
1B
100
AcDbEntity
 67
     1
  8
0
100
AcDbBlockEnd
  0
ENDSEC
  0
SECTION
  2
ENTITIES
0
DIMENSION
5
83
100
AcDbEntity
62
256
370
-1
6
ByLayer
1
total_width
3
Standard
70
0
71
5
72
1
41
1.0
100
AcDbAlignedDimension
13
32.109475
23
0.000000
33
0.0
14
183.553535
24
0.000000
34
0.0
50
0.000000
100
AcDbRotatedDimension
0
DIMENSION
5
83
100
AcDbEntity
62
256
370
-1
6
ByLayer
1
total_minx
3
Standard
70
0
71
5
72
1
41
1.0
100
AcDbAlignedDimension
13
32.109475
23
0.000000
33
0.0
14
0.000000
24
0.000000
34
0.0
50
0.000000
100
AcDbRotatedDimension
0
DIMENSION
5
83
100
AcDbEntity
62
256
370
-1
6
ByLayer
1
total_maxx
3
Standard
70
0
71
5
72
1
41
1.0
100
AcDbAlignedDimension
13
0.000000
23
0.000000
33
0.0
14
183.553535
24
0.000000
34
0.0
50
0.000000
100
AcDbRotatedDimension
0
DIMENSION
5
83
100
AcDbEntity
62
256
370
-1
6
ByLayer
1
total_height
3
Standard
70
0
71
5
72
1
41
1.0
100
AcDbAlignedDimension
13
0.000000
23
35.770315
33
0.0
14
0.000000
24
239.535993
34
0.0
50
90.000000
100
AcDbRotatedDimension
0
DIMENSION
5
83
100
AcDbEntity
62
256
370
-1
6
ByLayer
1
total_miny
3
Standard
70
0
71
5
72
1
41
1.0
100
AcDbAlignedDimension
13
35.770315
23
0.000000
33
0.0
14
0.000000
24
0.000000
34
0.0
50
0.000000
100
AcDbRotatedDimension
0
DIMENSION
5
83
100
AcDbEntity
62
256
370
-1
6
ByLayer
1
total_maxy
3
Standard
70
0
71
5
72
1
41
1.0
100
AcDbAlignedDimension
13
0.000000
23
0.000000
33
0.0
14
239.535993
24
0.000000
34
0.0
50
0.000000
100
AcDbRotatedDimension
0
DIMENSION
8
Layer_1
5
83
100
AcDbEntity
62
256
370
-1
6
ByLayer
1
Layer_1_width
3
Standard
70
0
71
5
72
1
41
1.0
100
AcDbAlignedDimension
13
32.109475
23
0.000000
33
0.0
14
183.553535
24
0.000000
34
0.0
50
0.000000
100
AcDbRotatedDimension
0
DIMENSION
8
Layer_1
5
83
100
AcDbEntity
62
256
370
-1
6
ByLayer
1
Layer_1_minx
3
Standard
70
0
71
5
72
1
41
1.0
100
AcDbAlignedDimension
13
32.109475
23
0.000000
33
0.0
14
0.000000
24
0.000000
34
0.0
50
0.000000
100
AcDbRotatedDimension
0
DIMENSION
8
Layer_1
5
83
100
AcDbEntity
62
256
370
-1
6
ByLayer
1
Layer_1_maxx
3
Standard
70
0
71
5
72
1
41
1.0
100
AcDbAlignedDimension
13
0.000000
23
0.000000
33
0.0
14
183.553535
24
0.000000
34
0.0
50
0.000000
100
AcDbRotatedDimension
0
DIMENSION
8
Layer_1
5
83
100
AcDbEntity
62
256
370
-1
6
ByLayer
1
Layer_1_height
3
Standard
70
0
71
5
72
1
41
1.0
100
AcDbAlignedDimension
13
0.000000
23
35.770315
33
0.0
14
0.000000
24
239.535993
34
0.0
50
90.000000
100
AcDbRotatedDimension
0
DIMENSION
8
Layer_1
5
83
100
AcDbEntity
62
256
370
-1
6
ByLayer
1
Layer_1_miny
3
Standard
70
0
71
5
72
1
41
1.0
100
AcDbAlignedDimension
13
35.770315
23
0.000000
33
0.0
14
0.000000
24
0.000000
34
0.0
50
0.000000
100
AcDbRotatedDimension
0
DIMENSION
8
Layer_1
5
83
100
AcDbEntity
62
256
370
-1
6
ByLayer
1
Layer_1_maxy
3
Standard
70
0
71
5
72
1
41
1.0
100
AcDbAlignedDimension
13
0.000000
23
0.000000
33
0.0
14
239.535993
24
0.000000
34
0.0
50
0.000000
100
AcDbRotatedDimension
62
0
0
LWPOLYLINE
100
AcDbPolyline
8
Layer_1
90
477
70
0
10
32.776225
20
35.854496
30
0.0
10
32.177014
20
36.483002
30
0.0
10
32.109475
20
36.972110
30
0.0
10
32.282377
20
37.599182
30
0.0
10
32.998356
20
38.875993
30
0.0
10
33.707423
20
40.135330
30
0.0
10
34.323700
20
41.246580
30
0.0
10
34.969137
20
42.336743
30
0.0
10
35.587802
20
43.447993
30
0.0
10
37.100056
20
46.083243
30
0.0
10
37.539233
20
46.900056
30
0.0
10
37.788667
20
47.376306
30
0.0
10
38.395975
20
48.400993
30
0.0
10
39.018780
20
49.448743
30
0.0
10
39.507485
20
50.337743
30
0.0
10
40.821796
20
52.639618
30
0.0
10
41.338260
20
53.576243
30
0.0
10
42.698633
20
55.950773
30
0.0
10
43.292968
20
57.019613
30
0.0
10
43.921753
20
58.153455
30
0.0
10
44.567190
20
59.243618
30
0.0
10
45.176302
20
60.338993
30
0.0
10
46.688556
20
62.974243
30
0.0
10
47.127733
20
63.791056
30
0.0
10
47.377167
20
64.267306
30
0.0
10
47.986755
20
65.291993
30
0.0
10
48.731023
20
66.555089
30
0.0
10
49.130334
20
67.298909
30
0.0
10
50.191557
20
69.157319
30
0.0
10
50.820687
20
70.293975
30
0.0
10
51.463482
20
71.445148
30
0.0
10
52.049784
20
72.499243
30
0.0
10
52.694789
20
73.673993
30
0.0
10
53.365431
20
74.884399
30
0.0
10
53.983218
20
75.985074
30
0.0
10
54.412794
20
76.772448
30
0.0
10
54.925155
20
77.703773
30
0.0
10
55.635127
20
78.976243
30
0.0
10
56.314727
20
80.214493
30
0.0
10
56.984931
20
81.424899
30
0.0
10
57.589570
20
82.504399
30
0.0
10
57.977024
20
83.219109
30
0.0
10
58.517237
20
84.203359
30
0.0
10
59.141837
20
85.326243
30
0.0
10
59.664583
20
86.278743
30
0.0
10
60.338197
20
87.491237
30
0.0
10
61.066116
20
88.788065
30
0.0
10
61.601257
20
89.766321
30
0.0
10
62.142398
20
90.752896
30
0.0
10
62.743501
20
91.832396
30
0.0
10
63.284196
20
92.819243
30
0.0
10
63.957697
20
94.031737
30
0.0
10
64.688810
20
95.333487
30
0.0
10
65.200615
20
96.266587
30
0.0
10
65.609859
20
97.020414
30
0.0
10
66.238834
20
98.145069
30
0.0
10
66.913069
20
99.359743
30
0.0
10
67.436760
20
100.312243
30
0.0
10
68.061295
20
101.436619
30
0.0
10
68.633233
20
102.481896
30
0.0
10
69.147984
20
103.421273
30
0.0
10
69.862105
20
104.693743
30
0.0
10
70.532766
20
105.900243
30
0.0
10
71.081776
20
106.902278
30
0.0
10
71.679043
20
107.979182
30
0.0
10
72.268501
20
109.040896
30
0.0
10
72.809196
20
110.027743
30
0.0
10
73.482697
20
111.240237
30
0.0
10
74.210616
20
112.537065
30
0.0
10
74.744955
20
113.515321
30
0.0
10
75.196937
20
114.345743
30
0.0
10
75.798784
20
115.425243
30
0.0
10
76.443792
20
116.599993
30
0.0
10
77.114434
20
117.810399
30
0.0
10
77.732218
20
118.911074
30
0.0
10
78.161797
20
119.698448
30
0.0
10
78.672984
20
120.629773
30
0.0
10
79.387105
20
121.902243
30
0.0
10
80.055012
20
123.108743
30
0.0
10
80.717506
20
124.315243
30
0.0
10
81.348162
20
125.447671
30
0.0
10
81.781297
20
126.238948
30
0.0
10
82.292484
20
127.170273
30
0.0
10
83.005905
20
128.442743
30
0.0
10
83.545231
20
129.426993
30
0.0
10
84.098037
20
130.436648
30
0.0
10
84.737482
20
131.579648
30
0.0
10
85.324050
20
132.633743
30
0.0
10
86.072924
20
133.989016
30
0.0
10
86.529311
20
134.814516
30
0.0
10
86.949288
20
135.586493
30
0.0
10
87.716081
20
136.977148
30
0.0
10
88.356982
20
138.120148
30
0.0
10
88.943284
20
139.174243
30
0.0
10
89.588292
20
140.348993
30
0.0
10
90.258934
20
141.559399
30
0.0
10
90.876718
20
142.660074
30
0.0
10
91.306297
20
143.447448
30
0.0
10
91.815415
20
144.376174
30
0.0
10
92.398243
20
145.426396
30
0.0
10
93.091553
20
146.683840
30
0.0
10
93.636087
20
147.668090
30
0.0
10
94.154983
20
148.603993
30
0.0
10
94.830508
20
149.828278
30
0.0
10
95.428043
20
150.905182
30
0.0
10
96.017501
20
151.966896
30
0.0
10
96.558196
20
152.953743
30
0.0
10
97.231697
20
154.166237
30
0.0
10
97.962810
20
155.467987
30
0.0
10
98.474615
20
156.401087
30
0.0
10
98.889998
20
157.163087
30
0.0
10
99.517448
20
158.287743
30
0.0
10
100.195851
20
159.525993
30
0.0
10
100.862717
20
160.732493
30
0.0
10
101.320462
20
161.571079
30
0.0
10
101.460735
20
161.806424
30
0.0
10
101.248738
20
161.895000
30
0.0
10
100.809984
20
162.246551
30
0.0
10
100.565066
20
162.808124
30
0.0
10
100.406550
20
163.589993
30
0.0
10
100.248734
20
164.447243
30
0.0
10
99.959225
20
166.066493
30
0.0
10
99.670402
20
167.685743
30
0.0
10
99.515081
20
168.511243
30
0.0
10
99.355918
20
169.368493
30
0.0
10
99.079445
20
170.924243
30
0.0
10
98.783016
20
172.575243
30
0.0
10
98.624308
20
173.432493
30
0.0
10
98.471578
20
174.242118
30
0.0
10
98.335372
20
175.035868
30
0.0
10
98.182642
20
175.845493
30
0.0
10
98.023937
20
176.702743
30
0.0
10
97.729404
20
178.353743
30
0.0
10
97.577975
20
179.179243
30
0.0
10
97.419225
20
180.036493
30
0.0
10
97.129716
20
181.655743
30
0.0
10
96.972337
20
182.512993
30
0.0
10
96.758484
20
183.715035
30
0.0
10
96.813779
20
184.253463
30
0.0
10
96.805661
20
184.432913
30
0.0
10
96.480404
20
184.695524
30
0.0
10
95.704725
20
185.208376
30
0.0
10
95.058893
20
185.628517
30
0.0
10
94.418966
20
186.053930
30
0.0
10
93.794797
20
186.467945
30
0.0
10
92.720225
20
187.180872
30
0.0
10
91.645653
20
187.893170
30
0.0
10
91.010653
20
188.312332
30
0.0
10
90.497725
20
188.668694
30
0.0
10
89.862725
20
189.085604
30
0.0
10
89.164225
20
189.541285
30
0.0
10
88.052975
20
190.292728
30
0.0
10
86.878225
20
191.067001
30
0.0
10
86.147975
20
191.538852
30
0.0
10
85.481225
20
191.992735
30
0.0
10
84.944757
20
192.353599
30
0.0
10
84.214507
20
192.830727
30
0.0
10
83.480975
20
193.308876
30
0.0
10
82.941225
20
193.666686
30
0.0
10
81.988725
20
194.315088
30
0.0
10
80.852100
20
195.059444
30
0.0
10
79.963100
20
195.636117
30
0.0
10
79.258225
20
196.120571
30
0.0
10
78.750225
20
196.465721
30
0.0
10
76.914649
20
197.672937
30
0.0
10
76.114975
20
198.197493
30
0.0
10
75.315301
20
198.724878
30
0.0
10
73.738449
20
199.765181
30
0.0
10
73.003475
20
200.257057
30
0.0
10
71.982536
20
200.952896
30
0.0
10
71.183839
20
201.486296
30
0.0
10
70.390210
20
201.388506
30
0.0
10
69.359484
20
201.335191
30
0.0
10
68.881577
20
201.602453
30
0.0
10
68.554741
20
202.050546
30
0.0
10
68.512390
20
202.633570
30
0.0
10
68.667613
20
203.137254
30
0.0
10
68.797616
20
203.309243
30
0.0
10
68.445120
20
203.690243
30
0.0
10
67.322677
20
204.864993
30
0.0
10
65.860227
20
206.388993
30
0.0
10
64.243726
20
208.073724
30
0.0
10
60.240435
20
212.233984
30
0.0
10
58.773560
20
213.754993
30
0.0
10
57.761209
20
214.802743
30
0.0
10
56.211834
20
216.421993
30
0.0
10
51.699225
20
221.127549
30
0.0
10
50.932876
20
221.811644
30
0.0
10
50.176501
20
222.065517
30
0.0
10
49.702870
20
222.601502
30
0.0
10
49.701458
20
223.508959
30
0.0
10
49.669708
20
223.927128
30
0.0
10
49.575712
20
224.449361
30
0.0
10
49.657686
20
224.949899
30
0.0
10
49.987595
20
225.363567
30
0.0
10
50.443661
20
225.604725
30
0.0
10
59.477893
20
224.455488
30
0.0
10
62.938643
20
223.978493
30
0.0
10
66.399393
20
223.501622
30
0.0
10
69.860143
20
223.023402
30
0.0
10
76.495893
20
222.106005
30
0.0
10
79.956643
20
221.628993
30
0.0
10
83.417393
20
221.152122
30
0.0
10
86.878143
20
220.673902
30
0.0
10
90.307143
20
220.201298
30
0.0
10
93.767893
20
219.723993
30
0.0
10
97.228643
20
219.246687
30
0.0
10
100.689393
20
218.769446
30
0.0
10
107.325143
20
217.852526
30
0.0
10
110.785893
20
217.375029
30
0.0
10
114.246643
20
216.897938
30
0.0
10
117.739143
20
216.416949
30
0.0
10
121.168143
20
215.944233
30
0.0
10
127.613393
20
215.061619
30
0.0
10
128.990494
20
214.873374
30
0.0
10
129.167131
20
214.879554
30
0.0
10
129.235234
20
215.036773
30
0.0
10
129.504487
20
215.475337
30
0.0
10
129.926571
20
215.785483
30
0.0
10
130.353871
20
216.146085
30
0.0
10
131.199232
20
217.374493
30
0.0
10
131.953054
20
218.485743
30
0.0
10
132.312393
20
219.025493
30
0.0
10
132.671735
20
219.565243
30
0.0
10
133.423643
20
220.676493
30
0.0
10
134.175554
20
221.787743
30
0.0
10
134.534893
20
222.327493
30
0.0
10
134.896456
20
222.867243
30
0.0
10
135.910520
20
224.386518
30
0.0
10
136.394975
20
225.089743
30
0.0
10
136.757393
20
225.629493
30
0.0
10
137.118956
20
226.169243
30
0.0
10
138.134581
20
227.688518
30
0.0
10
138.629805
20
228.423493
30
0.0
10
139.040974
20
229.026743
30
0.0
10
139.810335
20
230.169743
30
0.0
10
140.522023
20
231.249243
30
0.0
10
140.865456
20
231.757243
30
0.0
10
141.265958
20
232.328743
30
0.0
10
142.938446
20
234.805243
30
0.0
10
143.296490
20
235.344993
30
0.0
10
143.650612
20
235.892710
30
0.0
10
144.403925
20
237.003960
30
0.0
10
145.162024
20
238.108295
30
0.0
10
145.540010
20
238.679795
30
0.0
10
146.090935
20
239.349887
30
0.0
10
146.764815
20
239.535993
30
0.0
10
147.401713
20
239.373210
30
0.0
10
147.804591
20
238.944260
30
0.0
10
147.928132
20
238.338238
30
0.0
10
147.727018
20
237.644240
30
0.0
10
147.302700
20
236.952420
30
0.0
10
146.495499
20
235.757743
30
0.0
10
145.752733
20
234.678243
30
0.0
10
145.394796
20
234.138493
30
0.0
10
145.040675
20
233.590775
30
0.0
10
144.287364
20
232.479525
30
0.0
10
143.530233
20
231.376243
30
0.0
10
143.170893
20
230.836493
30
0.0
10
142.811554
20
230.296743
30
0.0
10
142.057591
20
229.185493
30
0.0
10
141.265887
20
228.010743
30
0.0
10
140.868637
20
227.426850
30
0.0
10
140.364041
20
226.651670
30
0.0
10
139.971357
20
226.024437
30
0.0
10
139.774882
20
225.757520
30
0.0
10
139.446497
20
225.286948
30
0.0
10
139.063809
20
224.709795
30
0.0
10
138.048769
20
223.189467
30
0.0
10
137.564314
20
222.486243
30
0.0
10
137.201893
20
221.946493
30
0.0
10
136.840330
20
221.406743
30
0.0
10
136.440771
20
220.835243
30
0.0
10
135.672954
20
219.692243
30
0.0
10
134.961263
20
218.612743
30
0.0
10
134.617830
20
218.104743
30
0.0
10
134.217331
20
217.533243
30
0.0
10
132.506901
20
214.993243
30
0.0
10
132.180028
20
214.482282
30
0.0
10
132.045637
20
214.225324
30
0.0
10
132.474775
20
213.498032
30
0.0
10
133.264746
20
212.167493
30
0.0
10
134.724472
20
209.684026
30
0.0
10
134.967094
20
208.992538
30
0.0
10
134.896157
20
208.408211
30
0.0
10
134.799663
20
208.177260
30
0.0
10
137.381903
20
205.610748
30
0.0
10
153.771902
20
189.334380
30
0.0
10
170.888643
20
172.340984
30
0.0
10
179.167728
20
164.121874
30
0.0
10
183.469853
20
159.734405
30
0.0
10
183.553535
20
159.241054
30
0.0
10
183.471264
20
158.745089
30
0.0
10
183.143623
20
158.333114
30
0.0
10
182.695353
20
158.092219
30
0.0
10
182.154243
20
158.086067
30
0.0
10
181.887196
20
158.095979
30
0.0
10
181.842554
20
157.971360
30
0.0
10
181.642830
20
157.412336
30
0.0
10
181.161967
20
157.009894
30
0.0
10
180.667151
20
156.925917
30
0.0
10
180.173641
20
157.011023
30
0.0
10
179.496889
20
157.580262
30
0.0
10
179.024475
20
158.061079
30
0.0
10
178.830139
20
157.941216
30
0.0
10
176.127554
20
156.555180
30
0.0
10
171.602981
20
154.264699
30
0.0
10
167.586403
20
152.224393
30
0.0
10
163.570231
20
150.182930
30
0.0
10
160.665304
20
148.714226
30
0.0
10
159.701730
20
148.211503
30
0.0
10
159.747963
20
147.885932
30
0.0
10
159.865441
20
147.337781
30
0.0
10
159.785764
20
146.807194
30
0.0
10
159.458545
20
146.395537
30
0.0
10
159.011693
20
146.154668
30
0.0
10
158.141179
20
146.222627
30
0.0
10
158.030054
20
146.168353
30
0.0
10
157.809510
20
145.821933
30
0.0
10
157.413957
20
145.514887
30
0.0
10
156.462563
20
145.496627
30
0.0
10
156.100777
20
145.734752
30
0.0
10
155.430237
20
147.059687
30
0.0
10
155.315449
20
147.372239
30
0.0
10
154.124804
20
148.125705
30
0.0
10
152.854804
20
148.921069
30
0.0
10
151.584804
20
149.715652
30
0.0
10
150.156054
20
150.604855
30
0.0
10
148.886054
20
151.398966
30
0.0
10
147.520804
20
152.256456
30
0.0
10
146.155554
20
153.113706
30
0.0
10
144.790304
20
153.966943
30
0.0
10
143.298054
20
154.890222
30
0.0
10
142.028054
20
155.684339
30
0.0
10
140.758054
20
156.478089
30
0.0
10
139.488054
20
157.276030
30
0.0
10
138.122804
20
158.133051
30
0.0
10
136.757554
20
158.986110
30
0.0
10
135.487554
20
159.780089
30
0.0
10
134.217554
20
160.574279
30
0.0
10
132.820554
20
161.457448
30
0.0
10
131.264804
20
162.423023
30
0.0
10
130.026554
20
163.190555
30
0.0
10
128.973648
20
163.855837
30
0.0
10
127.586331
20
164.724035
30
0.0
10
126.331170
20
165.474986
30
0.0
10
125.781737
20
165.353452
30
0.0
10
122.724054
20
164.616384
30
0.0
10
119.041054
20
163.714893
30
0.0
10
117.199554
20
163.260975
30
0.0
10
115.485054
20
162.845132
30
0.0
10
109.865304
20
161.460984
30
0.0
10
108.087304
20
161.033960
30
0.0
10
106.294171
20
160.595982
30
0.0
10
104.470527
20
160.161534
30
0.0
10
103.604991
20
159.965249
30
0.0
10
103.140470
20
159.807625
30
0.0
10
102.966232
20
159.551559
30
0.0
10
102.368683
20
158.448578
30
0.0
10
101.837442
20
157.477491
30
0.0
10
101.318545
20
156.541589
30
0.0
10
100.643021
20
155.317303
30
0.0
10
100.045486
20
154.240399
30
0.0
10
99.456028
20
153.178688
30
0.0
10
98.915333
20
152.191839
30
0.0
10
98.231698
20
150.959933
30
0.0
10
97.591547
20
149.816933
30
0.0
10
97.004979
20
148.762839
30
0.0
10
96.256105
20
147.407565
30
0.0
10
95.799718
20
146.582065
30
0.0
10
95.379740
20
145.810089
30
0.0
10
94.612945
20
144.419433
30
0.0
10
93.979255
20
143.286999
30
0.0
10
93.562732
20
142.521133
30
0.0
10
93.051545
20
141.589811
30
0.0
10
92.337424
20
140.317339
30
0.0
10
91.666763
20
139.110839
30
0.0
10
91.117753
20
138.108803
30
0.0
10
90.520486
20
137.031899
30
0.0
10
89.930786
20
135.970188
30
0.0
10
89.237476
20
134.712741
30
0.0
10
88.692942
20
133.728491
30
0.0
10
88.174045
20
132.792589
30
0.0
10
87.498521
20
131.568303
30
0.0
10
86.900986
20
130.491399
30
0.0
10
86.311523
20
129.429688
30
0.0
10
85.755675
20
128.411089
30
0.0
10
85.085095
20
127.200685
30
0.0
10
84.467311
20
126.100007
30
0.0
10
84.037732
20
125.312633
30
0.0
10
83.525371
20
124.381311
30
0.0
10
82.815402
20
123.108839
30
0.0
10
82.135799
20
121.870589
30
0.0
10
81.465595
20
120.660185
30
0.0
10
80.847811
20
119.559507
30
0.0
10
80.418232
20
118.772133
30
0.0
10
79.907045
20
117.840811
30
0.0
10
79.192924
20
116.568339
30
0.0
10
78.522263
20
115.361839
30
0.0
10
77.973253
20
114.359803
30
0.0
10
77.377377
20
113.285230
30
0.0
10
76.849272
20
112.318760
30
0.0
10
76.308131
20
111.332188
30
0.0
10
75.707028
20
110.252688
30
0.0
10
75.166333
20
109.265841
30
0.0
10
74.482698
20
108.033933
30
0.0
10
73.842547
20
106.890933
30
0.0
10
73.256244
20
105.836841
30
0.0
10
72.611237
20
104.662091
30
0.0
10
71.940595
20
103.451685
30
0.0
10
71.338254
20
102.372185
30
0.0
10
70.801571
20
101.391841
30
0.0
10
70.239170
20
100.375841
30
0.0
10
69.636744
20
99.296339
30
0.0
10
68.991737
20
98.121591
30
0.0
10
68.321095
20
96.911185
30
0.0
10
67.716462
20
95.831685
30
0.0
10
67.329002
20
95.116975
30
0.0
10
66.788789
20
94.132725
30
0.0
10
66.164192
20
93.009841
30
0.0
10
65.641446
20
92.057341
30
0.0
10
64.967832
20
90.844847
30
0.0
10
64.239913
20
89.548016
30
0.0
10
63.704772
20
88.569760
30
0.0
10
63.163631
20
87.583188
30
0.0
10
62.562528
20
86.503688
30
0.0
10
62.021833
20
85.516841
30
0.0
10
61.348332
20
84.304347
30
0.0
10
60.617219
20
83.002597
30
0.0
10
60.105411
20
82.069494
30
0.0
10
59.696169
20
81.315667
30
0.0
10
59.067198
20
80.191012
30
0.0
10
58.395517
20
78.976341
30
0.0
10
57.733023
20
77.769841
30
0.0
10
57.102369
20
76.637413
30
0.0
10
56.669234
20
75.846133
30
0.0
10
56.158045
20
74.914811
30
0.0
10
55.443922
20
73.642341
30
0.0
10
54.773263
20
72.435841
30
0.0
10
54.224250
20
71.433803
30
0.0
10
53.626983
20
70.356902
30
0.0
10
53.037286
20
69.295188
30
0.0
10
52.343973
20
68.037741
30
0.0
10
51.799699
20
67.053491
30
0.0
10
51.412569
20
66.339841
30
0.0
10
50.733698
20
65.107933
30
0.0
10
50.093547
20
63.964933
30
0.0
10
49.507244
20
62.910841
30
0.0
10
48.862240
20
61.736091
30
0.0
10
48.191598
20
60.525685
30
0.0
10
47.573808
20
59.425007
30
0.0
10
47.144234
20
58.637633
30
0.0
10
46.632983
20
57.706311
30
0.0
10
45.940212
20
56.472627
30
0.0
10
45.259509
20
55.234377
30
0.0
10
44.573117
20
53.989091
30
0.0
10
43.897739
20
52.784420
30
0.0
10
43.539554
20
51.909255
30
0.0
10
43.453761
20
51.430185
30
0.0
10
43.131315
20
51.022195
30
0.0
10
42.699536
20
50.780792
30
0.0
10
42.478589
20
50.661052
30
0.0
10
42.210256
20
50.253784
30
0.0
10
41.741415
20
49.385341
30
0.0
10
40.379893
20
47.010808
30
0.0
10
39.785561
20
45.941971
30
0.0
10
39.165530
20
44.824001
30
0.0
10
37.789191
20
42.431143
30
0.0
10
36.426642
20
40.050841
30
0.0
10
35.939264
20
39.161841
30
0.0
10
35.413910
20
38.209341
30
0.0
10
34.693733
20
36.971089
30
0.0
10
34.180770
20
36.171860
30
0.0
10
33.778467
20
35.852018
30
0.0
10
33.274484
20
35.770315
30
0.0
10
32.776304
20
35.854558
30
0.0
10
32.776225
20
35.854496
30
0.0
62
0
0
LWPOLYLINE
100
AcDbPolyline
8
Layer_1
90
35
70
0
10
159.210028
20
153.120550
30
0.0
10
166.888225
20
157.016224
30
0.0
10
171.333225
20
159.271281
30
0.0
10
174.464726
20
160.859309
30
0.0
10
175.566496
20
161.460877
30
0.0
10
157.248544
20
179.842894
30
0.0
10
141.718872
20
195.354305
30
0.0
10
139.460748
20
197.552102
30
0.0
10
139.076520
20
197.822879
30
0.0
10
139.611252
20
196.531004
30
0.0
10
140.378798
20
194.674019
30
0.0
10
141.140798
20
192.832519
30
0.0
10
141.909707
20
190.974754
30
0.0
10
142.665128
20
189.148743
30
0.0
10
143.413647
20
187.338993
30
0.0
10
144.175647
20
185.497493
30
0.0
10
144.937647
20
183.655993
30
0.0
10
145.699647
20
181.814493
30
0.0
10
146.461647
20
179.972993
30
0.0
10
147.237128
20
178.099743
30
0.0
10
148.012367
20
176.226493
30
0.0
10
148.856175
20
174.194493
30
0.0
10
150.489107
20
170.257493
30
0.0
10
151.251110
20
168.415993
30
0.0
10
152.013110
20
166.574493
30
0.0
10
152.768207
20
164.749254
30
0.0
10
154.292207
20
161.066254
30
0.0
10
155.054207
20
159.224754
30
0.0
10
155.809298
20
157.399519
30
0.0
10
156.564883
20
155.573504
30
0.0
10
157.348163
20
153.683993
30
0.0
10
157.796174
20
152.588618
30
0.0
10
157.890408
20
152.477493
30
0.0
10
159.210028
20
153.120550
30
0.0
10
159.210028
20
153.120550
30
0.0
62
0
0
LWPOLYLINE
100
AcDbPolyline
8
Layer_1
90
107
70
0
10
151.993761
20
155.474560
30
0.0
10
151.392701
20
156.922493
30
0.0
10
150.833559
20
158.287743
30
0.0
10
149.712872
20
161.049993
30
0.0
10
149.110257
20
162.542243
30
0.0
10
148.347292
20
164.383743
30
0.0
10
147.583260
20
166.225243
30
0.0
10
147.075062
20
167.495243
30
0.0
10
146.569094
20
168.765243
30
0.0
10
145.807292
20
170.606743
30
0.0
10
145.044702
20
172.448243
30
0.0
10
144.396023
20
174.035743
30
0.0
10
142.504747
20
178.671243
30
0.0
10
141.730530
20
180.576243
30
0.0
10
140.437382
20
183.751243
30
0.0
10
138.890231
20
187.480490
30
0.0
10
138.471975
20
188.529795
30
0.0
10
138.118763
20
189.436048
30
0.0
10
137.425230
20
191.117243
30
0.0
10
136.662702
20
192.958743
30
0.0
10
136.014023
20
194.546243
30
0.0
10
134.885616
20
197.340243
30
0.0
10
134.123292
20
199.181743
30
0.0
10
133.359260
20
201.023243
30
0.0
10
132.851062
20
202.293243
30
0.0
10
132.344809
20
203.563243
30
0.0
10
131.702762
20
205.118993
30
0.0
10
131.379183
20
205.717953
30
0.0
10
130.520124
20
206.624075
30
0.0
10
129.557839
20
207.589402
30
0.0
10
129.453578
20
207.417825
30
0.0
10
128.999694
20
206.579493
30
0.0
10
128.348108
20
205.415315
30
0.0
10
127.916155
20
204.624037
30
0.0
10
127.407038
20
203.695308
30
0.0
10
126.824209
20
202.645089
30
0.0
10
126.130897
20
201.387642
30
0.0
10
125.586366
20
200.403392
30
0.0
10
125.067469
20
199.467493
30
0.0
10
124.391942
20
198.243207
30
0.0
10
123.794407
20
197.166303
30
0.0
10
123.204949
20
196.104589
30
0.0
10
122.664254
20
195.117743
30
0.0
10
121.990753
20
193.905248
30
0.0
10
121.259640
20
192.603498
30
0.0
10
120.747835
20
191.670398
30
0.0
10
120.332452
20
190.908398
30
0.0
10
119.705001
20
189.783743
30
0.0
10
119.026599
20
188.545493
30
0.0
10
118.359016
20
187.335087
30
0.0
10
117.741232
20
186.234409
30
0.0
10
117.311655
20
185.447037
30
0.0
10
116.800466
20
184.515712
30
0.0
10
116.086345
20
183.243243
30
0.0
10
115.418441
20
182.036743
30
0.0
10
114.749436
20
180.815282
30
0.0
10
114.291982
20
179.989782
30
0.0
10
114.061121
20
179.603995
30
0.0
10
113.989928
20
179.402835
30
0.0
10
114.130088
20
179.254745
30
0.0
10
114.752851
20
178.838248
30
0.0
10
115.834225
20
178.136389
30
0.0
10
116.945475
20
177.432778
30
0.0
10
117.621739
20
176.991637
30
0.0
10
118.308673
20
176.543993
30
0.0
10
119.040975
20
176.067743
30
0.0
10
119.772323
20
175.591493
30
0.0
10
120.524061
20
175.110913
30
0.0
10
121.296526
20
174.609269
30
0.0
10
122.342975
20
173.938322
30
0.0
10
123.358975
20
173.284670
30
0.0
10
124.057475
20
172.828551
30
0.0
10
124.787725
20
172.353622
30
0.0
10
125.479347
20
171.901115
30
0.0
10
126.336597
20
171.352461
30
0.0
10
127.137225
20
170.833756
30
0.0
10
127.772225
20
170.416872
30
0.0
10
128.661225
20
169.844971
30
0.0
10
129.708975
20
169.179948
30
0.0
10
130.534475
20
168.642727
30
0.0
10
131.264725
20
168.166240
30
0.0
10
131.994975
20
167.690346
30
0.0
10
132.629975
20
167.271627
30
0.0
10
133.677725
20
166.605461
30
0.0
10
134.725475
20
165.940077
30
0.0
10
135.360475
20
165.521905
30
0.0
10
136.185975
20
164.986803
30
0.0
10
136.984201
20
164.472033
30
0.0
10
137.757797
20
163.954756
30
0.0
10
140.054497
20
162.476115
30
0.0
10
141.202475
20
161.749006
30
0.0
10
141.878739
20
161.307137
30
0.0
10
142.565673
20
160.859493
30
0.0
10
143.297975
20
160.383243
30
0.0
10
144.029323
20
159.906993
30
0.0
10
144.781061
20
159.426413
30
0.0
10
145.553526
20
158.924769
30
0.0
10
146.599975
20
158.253822
30
0.0
10
147.615975
20
157.600170
30
0.0
10
148.314475
20
157.144051
30
0.0
10
149.044725
20
156.669122
30
0.0
10
149.736347
20
156.216615
30
0.0
10
150.592234
20
155.668672
30
0.0
10
151.377004
20
155.163099
30
0.0
10
152.303291
20
154.633261
30
0.0
10
151.993761
20
155.474560
30
0.0
10
151.993761
20
155.474560
30
0.0
62
0
0
LWPOLYLINE
100
AcDbPolyline
8
Layer_1
90
33
70
0
10
107.269294
20
165.739228
30
0.0
10
108.097221
20
165.991354
30
0.0
10
109.175793
20
166.308351
30
0.0
10
110.252945
20
166.624593
30
0.0
10
111.262307
20
166.924143
30
0.0
10
112.367678
20
167.248837
30
0.0
10
113.541615
20
167.597286
30
0.0
10
114.606999
20
167.913891
30
0.0
10
115.683146
20
168.229602
30
0.0
10
116.760049
20
168.545710
30
0.0
10
117.716715
20
168.830202
30
0.0
10
118.850475
20
169.174092
30
0.0
10
119.504246
20
169.372568
30
0.0
10
119.897299
20
169.493988
30
0.0
10
119.277500
20
169.911861
30
0.0
10
118.471699
20
170.422714
30
0.0
10
117.167725
20
171.240504
30
0.0
10
115.738975
20
172.130494
30
0.0
10
113.929225
20
173.257532
30
0.0
10
113.008475
20
173.845243
30
0.0
10
111.387910
20
174.817016
30
0.0
10
111.215006
20
174.448493
30
0.0
10
110.751513
20
173.591243
30
0.0
10
110.149668
20
172.511743
30
0.0
10
109.504661
20
171.336993
30
0.0
10
108.834016
20
170.126587
30
0.0
10
108.231675
20
169.047087
30
0.0
10
107.694166
20
168.066743
30
0.0
10
107.043996
20
166.896915
30
0.0
10
106.340975
20
165.514562
30
0.0
10
106.452100
20
165.519388
30
0.0
10
107.269294
20
165.739239
30
0.0
10
107.269294
20
165.739228
30
0.0
62
0
0
LWPOLYLINE
100
AcDbPolyline
8
Layer_1
90
26
70
0
10
104.955120
20
168.111619
30
0.0
10
105.526733
20
169.156896
30
0.0
10
106.041484
20
170.096273
30
0.0
10
106.755605
20
171.368743
30
0.0
10
107.423512
20
172.575243
30
0.0
10
108.092514
20
173.796703
30
0.0
10
108.561082
20
174.635626
30
0.0
10
109.029926
20
175.485459
30
0.0
10
109.364224
20
176.146336
30
0.0
10
108.725724
20
176.566198
30
0.0
10
107.839149
20
177.161904
30
0.0
10
107.039475
20
177.686993
30
0.0
10
106.239801
20
178.214378
30
0.0
10
104.662949
20
179.254681
30
0.0
10
103.927975
20
179.746921
30
0.0
10
103.086600
20
180.319677
30
0.0
10
102.569348
20
180.639445
30
0.0
10
102.469772
20
180.589439
30
0.0
10
102.911690
20
177.305993
30
0.0
10
103.329119
20
174.321493
30
0.0
10
103.736448
20
171.400493
30
0.0
10
104.109147
20
168.687747
30
0.0
10
104.344600
20
167.203219
30
0.0
10
104.453552
20
167.248964
30
0.0
10
104.955120
20
168.111619
30
0.0
10
104.955120
20
168.111619
30
0.0
62
0
0
LWPOLYLINE
100
AcDbPolyline
8
Layer_1
90
6
70
0
10
111.993116
20
180.861993
30
0.0
10
112.047234
20
180.985677
30
0.0
10
111.939713
20
180.901134
30
0.0
10
111.841579
20
180.722281
30
0.0
10
111.993116
20
180.861993
30
0.0
10
111.993116
20
180.861993
30
0.0
62
0
0
LWPOLYLINE
100
AcDbPolyline
8
Layer_1
90
76
70
0
10
110.350656
20
182.787674
30
0.0
10
110.975815
20
183.846493
30
0.0
10
111.802807
20
185.243493
30
0.0
10
112.741755
20
186.828289
30
0.0
10
113.439462
20
188.066539
30
0.0
10
114.118932
20
189.275743
30
0.0
10
115.039642
20
190.831493
30
0.0
10
115.865975
20
192.228493
30
0.0
10
116.691475
20
193.625493
30
0.0
10
117.516975
20
195.022493
30
0.0
10
118.343307
20
196.419493
30
0.0
10
119.281849
20
198.003614
30
0.0
10
120.071464
20
199.400614
30
0.0
10
120.752173
20
200.610493
30
0.0
10
121.580975
20
202.007493
30
0.0
10
122.406475
20
203.404493
30
0.0
10
123.231975
20
204.801493
30
0.0
10
124.057475
20
206.198493
30
0.0
10
124.881386
20
207.595493
30
0.0
10
125.524635
20
208.674993
30
0.0
10
125.651463
20
208.979214
30
0.0
10
122.088975
20
208.515983
30
0.0
10
118.596475
20
208.034486
30
0.0
10
115.167475
20
207.561781
30
0.0
10
111.770225
20
207.093106
30
0.0
10
108.277725
20
206.611547
30
0.0
10
104.785225
20
206.130254
30
0.0
10
101.356225
20
205.657233
30
0.0
10
97.927225
20
205.184829
30
0.0
10
94.466475
20
204.707228
30
0.0
10
91.005725
20
204.229993
30
0.0
10
87.544975
20
203.753122
30
0.0
10
84.084225
20
203.274938
30
0.0
10
78.668787
20
202.524165
30
0.0
10
78.412907
20
202.420243
30
0.0
10
79.258225
20
201.786888
30
0.0
10
80.242475
20
201.153691
30
0.0
10
81.194975
20
200.547825
30
0.0
10
81.829975
20
200.129402
30
0.0
10
82.655475
20
199.594493
30
0.0
10
83.480975
20
199.058883
30
0.0
10
84.260665
20
198.551665
30
0.0
10
85.054415
20
198.043199
30
0.0
10
85.957475
20
197.465637
30
0.0
10
86.846475
20
196.890694
30
0.0
10
87.576725
20
196.415084
30
0.0
10
88.295971
20
195.948069
30
0.0
10
89.164682
20
195.371743
30
0.0
10
91.540497
20
193.845112
30
0.0
10
92.688475
20
193.118006
30
0.0
10
93.364736
20
192.676137
30
0.0
10
94.051673
20
192.228493
30
0.0
10
94.783975
20
191.752243
30
0.0
10
95.515323
20
191.275993
30
0.0
10
96.265760
20
190.799178
30
0.0
10
96.974725
20
190.329899
30
0.0
10
98.022475
20
189.655859
30
0.0
10
99.101975
20
188.969845
30
0.0
10
99.800475
20
188.513051
30
0.0
10
100.530725
20
188.038122
30
0.0
10
101.222347
20
187.585612
30
0.0
10
102.079597
20
187.036961
30
0.0
10
102.880225
20
186.518254
30
0.0
10
103.515225
20
186.100870
30
0.0
10
104.499475
20
185.469191
30
0.0
10
105.451975
20
184.863325
30
0.0
10
106.086975
20
184.444902
30
0.0
10
106.912475
20
183.909993
30
0.0
10
107.737975
20
183.374724
30
0.0
10
108.468225
20
182.897930
30
0.0
10
109.260832
20
182.394919
30
0.0
10
109.737082
20
182.063698
30
0.0
10
109.992225
20
181.900153
30
0.0
10
110.039856
20
182.116129
30
0.0
10
110.350656
20
182.787674
30
0.0
10
110.350656
20
182.787674
30
0.0
62
0
0
LWPOLYLINE
100
AcDbPolyline
8
Layer_1
90
51
70
0
10
72.527225
20
206.829550
30
0.0
10
79.162975
20
207.624209
30
0.0
10
82.909475
20
208.073408
30
0.0
10
86.401975
20
208.489350
30
0.0
10
89.830975
20
208.898436
30
0.0
10
97.260475
20
209.788585
30
0.0
10
100.943475
20
210.230198
30
0.0
10
104.658225
20
210.675511
30
0.0
10
108.372975
20
211.120409
30
0.0
10
111.801975
20
211.529236
30
0.0
10
116.818475
20
212.151287
30
0.0
10
117.040725
20
212.194690
30
0.0
10
116.754975
20
212.238195
30
0.0
10
115.326225
20
212.445744
30
0.0
10
111.579725
20
212.993540
30
0.0
10
109.611225
20
213.279180
30
0.0
10
107.642725
20
213.564385
30
0.0
10
103.959725
20
214.102682
30
0.0
10
101.991225
20
214.388889
30
0.0
10
98.276475
20
214.930637
30
0.0
10
94.593475
20
215.467034
30
0.0
10
92.624975
20
215.753050
30
0.0
10
90.624725
20
216.042539
30
0.0
10
88.656225
20
216.328306
30
0.0
10
84.973225
20
216.866600
30
0.0
10
83.004725
20
217.151805
30
0.0
10
81.036225
20
217.437448
30
0.0
10
77.289725
20
217.984849
30
0.0
10
73.670225
20
218.511882
30
0.0
10
71.669975
20
218.802348
30
0.0
10
67.955225
20
219.344093
30
0.0
10
65.986725
20
219.630306
30
0.0
10
62.303725
20
220.168549
30
0.0
10
60.303475
20
220.452137
30
0.0
10
59.096975
20
220.635438
30
0.0
10
58.663578
20
220.705942
30
0.0
10
58.325433
20
220.745631
30
0.0
10
58.854078
20
220.126983
30
0.0
10
59.985975
20
218.864835
30
0.0
10
61.287725
20
217.439440
30
0.0
10
62.875225
20
215.676542
30
0.0
10
65.986725
20
212.227959
30
0.0
10
67.256725
20
210.838553
30
0.0
10
68.375208
20
209.595743
30
0.0
10
69.066475
20
208.833743
30
0.0
10
69.757742
20
208.073089
30
0.0
10
70.681667
20
207.036362
30
0.0
10
71.028704
20
206.704902
30
0.0
10
71.253167
20
206.666919
30
0.0
10
72.527225
20
206.829550
30
0.0
10
72.527225
20
206.829550
30
0.0
62
0
0
LWPOLYLINE
100
AcDbPolyline
8
Layer_1
90
5
70
0
10
130.089975
20
212.770743
30
0.0
10
129.772475
20
212.806912
30
0.0
10
130.113622
20
212.684143
30
0.0
10
130.089972
20
212.770743
30
0.0
10
130.089975
20
212.770743
30
0.0
  0
ENDSEC
  0
SECTION
  2
OBJECTS
  0
DICTIONARY
  5
C
330
0
100
AcDbDictionary
  3
ACAD_GROUP
350
D
  3
ACAD_MLINESTYLE
350
17
  0
DICTIONARY
  5
D
330
C
100
AcDbDictionary
  0
DICTIONARY
  5
1A
330
C
100
AcDbDictionary
  0
DICTIONARY
  5
17
330
C
100
AcDbDictionary
  3
STANDARD
350
18
  0
DICTIONARY
  5
19
330
C
100
AcDbDictionary
  0
ENDSEC
  0
EOF
